M48
;Layer_Color=9474304
;FILE_FORMAT=2:3
INCH,LZ
;TYPE=PLATED
T1F00S00C0.015
T2F00S00C0.035
T3F00S00C0.040
T4F00S00C0.118
%
T01
X00255Y0
X0036
X00465
X0057
X0036Y00105
X00255
Y0021
X0036
Y00315
X00255
X0015
Y0021
Y00105
X00045Y0021
Y00315
Y0042
X0015
X00255
X0036
Y00525
X00255
X0015
X00045
Y0063
X0015
X00255
X0036
Y00735
X00255
X0015
X00045
Y0084
X0015
X00255
X0036
X0051Y0083
X00615Y0068
X00674Y00522
Y00479
X00718
Y00522
X00806Y00546
X00805Y0062
X00836Y00476
X0094Y0053
X0101Y0063
X0111
X0123Y0074
X01355Y0063
X0146
X0155Y00645
X0162
X01685
Y0073
X0162
X0155
Y005
X01555Y0045
X0157Y0038
X01495Y00285
X01525Y00215
Y00085
X0151Y0
X01415
X01315
X0125Y00035
X01215Y0
X01105
X0099
X00885
X0078
X00675
X0094Y00175
X01115Y00245
Y0039
X01265Y00445
Y0049
X0134Y00185
Y00135
X0135Y00085
X0168Y00075
X01665Y00125
X0176Y00115
X01765Y00227
X01808
Y0027
X01765
X01722
Y00227
Y00313
X01765
X01808
X01865Y0037
X019
X01945
X0202
X021
Y00275
X02045Y00265
X02025Y00225
X0207Y0021
X0211
X02145
Y0
X0204
X0206Y00045
X0199Y0005
X01935Y0
X0183
X01715
X0161
X01865Y00145
X01915Y00235
X0191Y0045
X01975Y00465
X02035Y0048
X0195Y0052
X0191Y00657
X0181Y00697
X01685Y00842
Y00525
X0175Y00415
X01785Y0044
X021Y0069
X0208Y00775
X0213Y00785
X009Y0075
X00745Y00775
X00755Y00385
X02155Y0042
X0216Y00275
X0228Y00295
Y00395
Y005
Y006
X0226Y0067
X0233
X02395
X0246
X02525
X02635
X0272
X02795
X0284Y0063
X0288Y0067
X02945
X03005
X03075
X0314
X03205
Y006
Y005
X0332
Y006
X034
Y00535
X0355Y00515
Y00435
X0363
X037
Y00355
X0363
X03565Y0037
X0355Y0028
X0362Y00265
X037Y0028
X0358Y00205
X03498Y00205
X0351Y0
X03405
X033
X03195
X0309
X02985
X0288
X0284Y0004
Y0012
Y002
Y00275
Y00355
Y00445
Y00535
X03025Y005
Y006
Y004
Y003
Y002
X03195Y00125
X02775Y0
X0267
X02565
X0246
X02355
X0225
X02275Y00175
X0246Y0016
Y00235
Y00315
Y00405
Y00495
Y0059
X0265Y006
Y005
Y004
Y003
Y002
X02645Y00785
X0257
X0249
X02415
X02335
X02265
X02195
X02725
X02805
X0293
X03005
X03075
X0314
X03205
X0327
X03335
X03393Y00775
X03443
X03625Y00775
X037Y0077
X0369Y00655
X037Y00595
Y00515
X0363
X03615Y00575
Y0
X0372
X03825
X0393
X04055Y00035
X04115Y00115
X041Y0028
X04025
Y00355
X041
Y00435
X04025
Y00515
X041
Y00595
X04025
Y00675
X041
X0394
X03865
Y00595
X0394
Y00515
X03865
Y00435
X0394
Y00355
Y0028
X03865
Y00355
X0378
Y0028
Y00435
Y00515
Y00595
Y00675
X0377Y0077
X0386Y00775
X04015Y0077
X0402Y0098
X0414Y0102
X0415Y00935
X04105Y0109
X0405Y0114
X03965Y01175
X0392Y01115
X03805
X0374
X03675
X03555
X03455
X03355
X0323
X0317
X03115
X03
X0287
X0281
X02745
X02635
X0253
X0243
X02315
X02265
X0221
X02195Y0088
X0226
X02335
X02415
X0249Y0086
X0257
X02645
X02665Y0098
X0272
X0278
X0285
X03
X03065
X03275Y00985
X0331Y00895
X0335Y00865
X03215Y00895
X0293Y0086
X02605Y0098
X024Y00985
X0237
X02335
X0213Y0088
X02095Y01115
X01965
X0191
X01855
X0173
X0163
X01394Y01106
X01395Y01165
X0132Y0107
X01255
X01279Y01
X01311
X01155Y0108
X0111Y01165
X01035Y0107
X0097
X00994Y01
X01026
X0087Y0108
X00805Y00985
X00745Y0112
X01745Y0092
X0036Y00945
X00255
X0015
X00045
X0015Y0105
X00255
Y01155
X0036
Y0105
T02
X02229Y002
Y003
Y004
Y005
Y006
X02329
Y005
Y004
Y003
Y002
X026
Y003
Y004
Y005
Y006
X027
Y005
Y004
Y003
Y002
X02975
Y003
Y004
Y005
Y006
X03075
Y005
Y004
Y003
Y002
X035Y00065
X036
X037
X038
X039
X04
X0397Y01115
X0387
X03795Y00945
X03695
X03595
X03605Y01115
X03505
X03405
X03305
X03045
X02945
X0268
X0258
X0248
X0238
X02145
X02045
X0178
X0168
X0158
X0148
X0051Y0107
Y0097
T03
X0051Y00105
Y00205
Y00305
Y00405
Y00505
Y00605
Y00705
T04
X0075Y002
X0333Y00205
X01545Y00925
M30
