G04 Layer_Color=32896*
%FSLAX23Y23*%
%MOIN*%
G70*
G01*
G75*
G36*
X2432Y103D02*
X2433Y93D01*
X2438D01*
Y85D01*
X2433D01*
Y70D01*
Y69D01*
X2433Y68D01*
X2433Y67D01*
X2433Y66D01*
X2433Y66D01*
X2433Y65D01*
X2432Y64D01*
X2432Y64D01*
X2432Y63D01*
X2432Y63D01*
X2431Y62D01*
X2431Y62D01*
X2431Y62D01*
X2430Y62D01*
X2430Y61D01*
X2428Y61D01*
X2427Y60D01*
X2426Y60D01*
X2424Y60D01*
X2424Y60D01*
X2423D01*
X2423Y60D01*
X2421D01*
X2421Y60D01*
X2420Y60D01*
X2419Y60D01*
X2418Y60D01*
X2417Y60D01*
X2417Y60D01*
X2416Y60D01*
X2416D01*
Y67D01*
X2417Y67D01*
X2419D01*
X2420Y67D01*
X2421Y68D01*
X2422Y68D01*
X2422Y68D01*
X2422Y68D01*
X2423Y68D01*
X2423Y68D01*
X2423D01*
X2423Y69D01*
X2423Y69D01*
X2424Y70D01*
Y71D01*
X2424Y71D01*
Y72D01*
Y72D01*
Y85D01*
X2417D01*
Y93D01*
X2424D01*
Y103D01*
X2432Y103D01*
D02*
G37*
G36*
X125Y188D02*
X127Y188D01*
X128Y187D01*
X130Y187D01*
X131Y186D01*
X132Y185D01*
X133Y185D01*
X133Y184D01*
Y186D01*
X133Y187D01*
Y187D01*
X133Y188D01*
X134Y188D01*
X141D01*
X141Y188D01*
X142Y188D01*
X142Y187D01*
Y187D01*
Y148D01*
X142Y147D01*
X141Y147D01*
X141Y146D01*
X134D01*
X133Y147D01*
X133Y147D01*
Y147D01*
Y148D01*
Y172D01*
X133Y175D01*
X132Y177D01*
X131Y178D01*
X129Y179D01*
X128Y180D01*
X126Y180D01*
X125Y180D01*
X125D01*
X123Y180D01*
X122Y179D01*
X121Y179D01*
X120Y179D01*
X119D01*
X114Y185D01*
X115Y186D01*
X116Y187D01*
X117Y188D01*
X118Y188D01*
X119Y188D01*
X120Y189D01*
X123D01*
X125Y188D01*
D02*
G37*
G36*
X306D02*
X308Y188D01*
X311Y186D01*
X312Y185D01*
X313Y185D01*
X314Y184D01*
X314Y184D01*
Y185D01*
X315Y186D01*
X315Y187D01*
Y188D01*
X315Y188D01*
X322D01*
X322Y188D01*
X322Y188D01*
X323Y187D01*
Y187D01*
Y148D01*
X322Y147D01*
X322Y147D01*
X322Y146D01*
X315D01*
X315Y147D01*
X315Y147D01*
X314Y147D01*
Y148D01*
Y169D01*
Y171D01*
X314Y172D01*
X313Y175D01*
X312Y177D01*
X310Y179D01*
X308Y180D01*
X307Y180D01*
X306Y180D01*
X306D01*
X303Y180D01*
X301Y179D01*
X300Y178D01*
X299Y176D01*
X299Y175D01*
X298Y174D01*
Y174D01*
Y173D01*
Y148D01*
X298Y147D01*
X298Y147D01*
X297Y146D01*
X290D01*
X289Y147D01*
X289Y147D01*
Y147D01*
Y148D01*
Y173D01*
Y175D01*
X289Y176D01*
X289Y178D01*
Y178D01*
X291Y182D01*
X293Y184D01*
X296Y186D01*
X298Y187D01*
X300Y188D01*
X301Y188D01*
X303Y189D01*
X305D01*
X306Y188D01*
D02*
G37*
G36*
X1895Y94D02*
X1896Y93D01*
X1897Y93D01*
X1898Y93D01*
X1899Y92D01*
X1900Y92D01*
X1901Y92D01*
X1902Y91D01*
X1903Y91D01*
X1903Y90D01*
X1904Y90D01*
X1904Y90D01*
X1905Y89D01*
X1905Y89D01*
X1905Y89D01*
X1905Y89D01*
X1906Y88D01*
X1907Y87D01*
X1907Y86D01*
X1908Y85D01*
X1908Y84D01*
X1908Y83D01*
X1909Y81D01*
X1909Y80D01*
X1909Y79D01*
X1909Y78D01*
X1909Y78D01*
X1910Y77D01*
Y77D01*
Y76D01*
Y76D01*
X1909Y75D01*
X1909Y74D01*
X1909Y72D01*
X1909Y71D01*
X1909Y70D01*
X1908Y69D01*
X1908Y68D01*
X1907Y67D01*
X1907Y67D01*
X1907Y66D01*
X1906Y65D01*
X1906Y65D01*
X1906Y65D01*
X1905Y64D01*
X1905Y64D01*
X1905Y64D01*
X1904Y63D01*
X1903Y63D01*
X1903Y62D01*
X1902Y62D01*
X1901Y61D01*
X1900Y61D01*
X1898Y60D01*
X1897Y60D01*
X1896Y60D01*
X1896Y60D01*
X1895Y60D01*
X1895Y60D01*
X1894D01*
X1893Y60D01*
X1892Y60D01*
X1890Y60D01*
X1889Y60D01*
X1888Y61D01*
X1887Y61D01*
X1886Y61D01*
X1886Y62D01*
X1885Y62D01*
X1885Y62D01*
X1884Y63D01*
X1884Y63D01*
X1884Y63D01*
X1884Y63D01*
X1884Y63D01*
X1883Y64D01*
X1882Y65D01*
X1882Y65D01*
X1881Y66D01*
X1880Y68D01*
X1880Y69D01*
X1879Y71D01*
X1879Y71D01*
X1879Y72D01*
X1879Y72D01*
X1879Y72D01*
Y73D01*
Y73D01*
X1888Y73D01*
X1888Y72D01*
X1888Y71D01*
X1889Y70D01*
X1889Y70D01*
X1890Y69D01*
X1890Y69D01*
X1891Y68D01*
X1891Y68D01*
X1892Y68D01*
X1893Y68D01*
X1893D01*
X1893Y68D01*
X1893D01*
X1894Y68D01*
X1895Y68D01*
X1896Y68D01*
X1896Y68D01*
X1897Y69D01*
X1897Y69D01*
X1897Y69D01*
X1897Y69D01*
X1897Y70D01*
X1898Y70D01*
X1898Y70D01*
X1898Y71D01*
X1898Y72D01*
X1899Y74D01*
X1899Y75D01*
Y76D01*
X1899Y76D01*
Y76D01*
Y77D01*
Y77D01*
Y77D01*
X1899Y79D01*
X1898Y80D01*
X1898Y81D01*
X1898Y82D01*
X1897Y83D01*
X1897Y84D01*
X1896Y85D01*
X1896Y85D01*
X1895Y86D01*
X1895Y86D01*
X1894Y86D01*
X1894Y86D01*
X1894Y86D01*
X1893Y86D01*
X1893D01*
X1892Y86D01*
X1892Y86D01*
X1891Y86D01*
X1890Y85D01*
X1890Y85D01*
X1889Y85D01*
X1889Y83D01*
X1888Y82D01*
X1888Y81D01*
X1888Y81D01*
X1888Y81D01*
Y81D01*
Y81D01*
X1879Y81D01*
X1879Y82D01*
X1879Y83D01*
X1880Y85D01*
X1881Y86D01*
X1881Y87D01*
X1882Y89D01*
X1883Y89D01*
X1883Y89D01*
X1883Y90D01*
X1883Y90D01*
X1883Y90D01*
X1883Y90D01*
X1884Y91D01*
X1885Y91D01*
X1886Y92D01*
X1887Y92D01*
X1888Y93D01*
X1890Y93D01*
X1891Y93D01*
X1892Y93D01*
X1892Y94D01*
X1893Y94D01*
X1893D01*
X1895Y94D01*
D02*
G37*
G36*
X3197Y103D02*
X3198Y93D01*
X3204D01*
Y85D01*
X3198D01*
Y70D01*
Y69D01*
X3198Y68D01*
X3198Y67D01*
X3198Y66D01*
X3198Y66D01*
X3198Y65D01*
X3197Y64D01*
X3197Y64D01*
X3197Y63D01*
X3197Y63D01*
X3196Y62D01*
X3196Y62D01*
X3196Y62D01*
X3196Y62D01*
X3195Y61D01*
X3194Y61D01*
X3192Y60D01*
X3191Y60D01*
X3189Y60D01*
X3189Y60D01*
X3188D01*
X3188Y60D01*
X3187D01*
X3186Y60D01*
X3185Y60D01*
X3184Y60D01*
X3183Y60D01*
X3182Y60D01*
X3182Y60D01*
X3182Y60D01*
X3181D01*
Y67D01*
X3183Y67D01*
X3184D01*
X3185Y67D01*
X3186Y68D01*
X3187Y68D01*
X3187Y68D01*
X3188Y68D01*
X3188Y68D01*
X3188Y68D01*
X3188D01*
X3188Y69D01*
X3188Y69D01*
X3189Y70D01*
Y71D01*
X3189Y71D01*
Y72D01*
Y72D01*
Y85D01*
X3182D01*
Y93D01*
X3189D01*
Y103D01*
X3197Y103D01*
D02*
G37*
G36*
X3174D02*
X3175Y93D01*
X3180D01*
Y85D01*
X3175D01*
Y70D01*
Y69D01*
X3175Y68D01*
X3175Y67D01*
X3175Y66D01*
X3175Y66D01*
X3174Y65D01*
X3174Y64D01*
X3174Y64D01*
X3174Y63D01*
X3174Y63D01*
X3173Y62D01*
X3173Y62D01*
X3173Y62D01*
X3172Y62D01*
X3172Y61D01*
X3170Y61D01*
X3169Y60D01*
X3168Y60D01*
X3166Y60D01*
X3166Y60D01*
X3165D01*
X3165Y60D01*
X3163D01*
X3162Y60D01*
X3161Y60D01*
X3161Y60D01*
X3160Y60D01*
X3159Y60D01*
X3159Y60D01*
X3158Y60D01*
X3158D01*
Y67D01*
X3159Y67D01*
X3161D01*
X3162Y67D01*
X3163Y68D01*
X3164Y68D01*
X3164Y68D01*
X3164Y68D01*
X3165Y68D01*
X3165Y68D01*
X3165D01*
X3165Y69D01*
X3165Y69D01*
X3166Y70D01*
Y71D01*
X3166Y71D01*
Y72D01*
Y72D01*
Y85D01*
X3159D01*
Y93D01*
X3166D01*
Y103D01*
X3174Y103D01*
D02*
G37*
G36*
X2491Y94D02*
X2492Y93D01*
X2493Y93D01*
X2494Y93D01*
X2495Y92D01*
X2496Y92D01*
X2497Y92D01*
X2498Y91D01*
X2499Y91D01*
X2499Y90D01*
X2500Y90D01*
X2500Y90D01*
X2501Y89D01*
X2501Y89D01*
X2501Y89D01*
X2501Y89D01*
X2502Y88D01*
X2503Y87D01*
X2503Y86D01*
X2504Y85D01*
X2504Y84D01*
X2504Y83D01*
X2505Y81D01*
X2505Y80D01*
X2505Y79D01*
X2505Y78D01*
X2505Y78D01*
X2506Y77D01*
Y77D01*
Y76D01*
Y76D01*
X2505Y74D01*
X2505Y73D01*
X2505Y71D01*
X2504Y70D01*
X2504Y69D01*
X2504Y68D01*
X2504Y68D01*
X2504Y68D01*
X2503Y67D01*
X2503Y67D01*
Y67D01*
X2502Y66D01*
X2502Y65D01*
X2501Y64D01*
X2500Y63D01*
X2499Y62D01*
X2498Y62D01*
X2498Y62D01*
X2498Y62D01*
X2498D01*
X2496Y61D01*
X2495Y60D01*
X2494Y60D01*
X2492Y60D01*
X2491Y60D01*
X2491Y60D01*
X2490Y60D01*
X2489D01*
X2487Y60D01*
X2486Y60D01*
X2484Y61D01*
X2482Y61D01*
X2481Y62D01*
X2480Y63D01*
X2479Y64D01*
X2478Y65D01*
X2477Y66D01*
X2476Y67D01*
X2476Y68D01*
X2475Y69D01*
X2475Y70D01*
X2475Y70D01*
X2475Y71D01*
X2475Y71D01*
X2483Y72D01*
X2484Y71D01*
X2484Y70D01*
X2484Y69D01*
X2485Y69D01*
X2485Y68D01*
X2486Y68D01*
X2486Y67D01*
X2487Y67D01*
X2488Y67D01*
X2488Y67D01*
X2489D01*
X2489Y66D01*
X2489D01*
X2490Y67D01*
X2491Y67D01*
X2492Y67D01*
X2492Y67D01*
X2493Y68D01*
X2493Y68D01*
X2494Y68D01*
X2494Y68D01*
X2494Y69D01*
X2495Y70D01*
X2495Y71D01*
X2495Y72D01*
X2495Y72D01*
X2495Y73D01*
Y73D01*
Y73D01*
Y73D01*
Y74D01*
Y74D01*
Y75D01*
Y75D01*
Y75D01*
X2474D01*
X2474Y77D01*
X2475Y78D01*
X2475Y80D01*
X2475Y81D01*
X2475Y83D01*
X2476Y84D01*
X2476Y85D01*
X2477Y86D01*
X2477Y87D01*
X2477Y87D01*
X2478Y88D01*
X2478Y88D01*
X2478Y89D01*
X2479Y89D01*
X2479Y89D01*
X2479Y89D01*
X2480Y90D01*
X2481Y91D01*
X2482Y91D01*
X2482Y92D01*
X2483Y92D01*
X2484Y92D01*
X2486Y93D01*
X2487Y93D01*
X2487Y93D01*
X2488Y93D01*
X2489Y94D01*
X2489Y94D01*
X2490D01*
X2491Y94D01*
D02*
G37*
G36*
X184Y188D02*
X184Y188D01*
X184Y187D01*
Y187D01*
Y162D01*
X184Y159D01*
X184Y157D01*
X183Y153D01*
X181Y151D01*
X178Y149D01*
X176Y147D01*
X174Y146D01*
X172Y146D01*
X172Y146D01*
X170D01*
X167Y146D01*
X165Y147D01*
X163Y147D01*
X162Y148D01*
X161Y149D01*
X160Y150D01*
X160Y150D01*
Y151D01*
X159D01*
Y149D01*
X159Y148D01*
Y147D01*
X159Y147D01*
X159Y146D01*
X152D01*
X151Y147D01*
X151Y147D01*
X151Y147D01*
Y148D01*
Y187D01*
X151Y188D01*
X151Y188D01*
X152Y188D01*
X158D01*
X159Y188D01*
X159Y188D01*
X159Y187D01*
Y187D01*
Y163D01*
X160Y160D01*
X161Y158D01*
X162Y157D01*
X163Y156D01*
X164Y155D01*
X166Y155D01*
X167Y154D01*
X168D01*
X170Y155D01*
X172Y156D01*
X173Y157D01*
X174Y159D01*
X175Y160D01*
X176Y162D01*
X176Y163D01*
Y163D01*
Y187D01*
X176Y188D01*
X176Y188D01*
X176Y188D01*
X184D01*
X184Y188D01*
D02*
G37*
G36*
X265Y501D02*
X266Y500D01*
X266Y498D01*
X267Y495D01*
X268Y492D01*
X268Y489D01*
X270Y481D01*
X271Y473D01*
X272Y469D01*
X273Y466D01*
X273Y464D01*
X273Y461D01*
X274Y460D01*
Y460D01*
X275Y459D01*
X278Y458D01*
X282Y455D01*
X287Y453D01*
X292Y451D01*
X297Y450D01*
X299Y449D01*
X301Y448D01*
X302Y448D01*
X303Y447D01*
X304Y447D01*
X304D01*
X339Y471D01*
X340Y471D01*
X341Y470D01*
X343Y468D01*
X345Y466D01*
X347Y464D01*
X349Y461D01*
X355Y456D01*
X360Y451D01*
X363Y448D01*
X365Y446D01*
X366Y444D01*
X368Y442D01*
X369Y441D01*
X369Y441D01*
Y440D01*
X347Y406D01*
Y405D01*
X347Y404D01*
X347Y403D01*
X347Y402D01*
X349Y400D01*
X349Y397D01*
X350Y395D01*
X352Y390D01*
X355Y385D01*
X356Y382D01*
X357Y380D01*
X357Y378D01*
X358Y377D01*
X359Y376D01*
X359Y376D01*
X359Y376D01*
X360Y375D01*
X362Y375D01*
X364Y374D01*
X367Y373D01*
X370Y373D01*
X376Y372D01*
X383Y370D01*
X386Y370D01*
X389Y369D01*
X391Y369D01*
X393Y369D01*
X394Y368D01*
X394D01*
X396Y368D01*
X398Y368D01*
X399Y367D01*
X400Y366D01*
X400Y365D01*
X401Y364D01*
Y363D01*
Y363D01*
Y327D01*
X400Y325D01*
X400Y324D01*
X398Y324D01*
X396Y323D01*
X393Y323D01*
X390Y322D01*
X387Y322D01*
X380Y320D01*
X373Y319D01*
X370Y318D01*
X367Y318D01*
X365Y317D01*
X363Y317D01*
X362Y317D01*
X361D01*
X361Y317D01*
X360Y315D01*
X359Y314D01*
X358Y312D01*
X357Y309D01*
X356Y307D01*
X354Y301D01*
X351Y295D01*
X350Y292D01*
X349Y290D01*
X349Y288D01*
X348Y286D01*
X347Y285D01*
Y285D01*
Y283D01*
X351Y278D01*
X355Y273D01*
X357Y269D01*
X360Y265D01*
X362Y262D01*
X364Y259D01*
X365Y257D01*
X366Y255D01*
X368Y254D01*
X368Y253D01*
X368Y252D01*
X369Y251D01*
X369Y251D01*
Y250D01*
Y250D01*
X365Y246D01*
X362Y242D01*
X359Y239D01*
X356Y236D01*
X353Y233D01*
X350Y231D01*
X349Y229D01*
X347Y227D01*
X345Y225D01*
X344Y224D01*
X342Y222D01*
X340Y221D01*
X340Y221D01*
X340D01*
X339Y221D01*
X338Y222D01*
X336Y223D01*
X334Y224D01*
X331Y226D01*
X329Y228D01*
X322Y232D01*
X317Y236D01*
X314Y237D01*
X312Y239D01*
X310Y240D01*
X308Y241D01*
X307Y242D01*
X306Y242D01*
X305Y241D01*
X302Y240D01*
X297Y238D01*
X295Y237D01*
X293Y236D01*
X292Y235D01*
X291Y235D01*
X290D01*
X290Y235D01*
X290Y236D01*
X289Y237D01*
X289Y238D01*
X288Y239D01*
X287Y241D01*
X285Y246D01*
X283Y251D01*
X280Y257D01*
X278Y263D01*
X275Y269D01*
X273Y276D01*
X270Y282D01*
X268Y287D01*
X266Y293D01*
X264Y297D01*
X263Y299D01*
X263Y300D01*
X262Y301D01*
X262Y302D01*
X262Y303D01*
Y303D01*
Y304D01*
X266Y307D01*
X270Y311D01*
X274Y314D01*
X277Y317D01*
X280Y321D01*
X282Y324D01*
X283Y327D01*
X285Y331D01*
X286Y333D01*
X287Y336D01*
X287Y339D01*
X287Y341D01*
X288Y342D01*
X288Y344D01*
Y344D01*
Y345D01*
X288Y350D01*
X287Y352D01*
X287Y354D01*
X287Y356D01*
X286Y358D01*
X286Y359D01*
Y359D01*
X283Y364D01*
X280Y369D01*
X277Y373D01*
X274Y376D01*
X271Y379D01*
X267Y382D01*
X264Y384D01*
X260Y385D01*
X257Y387D01*
X254Y388D01*
X252Y388D01*
X249Y389D01*
X248Y389D01*
X246Y389D01*
X244D01*
X243Y389D01*
X241Y389D01*
X239D01*
X237Y388D01*
X236Y388D01*
X235Y388D01*
X234D01*
X228Y385D01*
X223Y383D01*
X219Y380D01*
X215Y376D01*
X212Y373D01*
X209Y369D01*
X207Y366D01*
X205Y362D01*
X204Y359D01*
X203Y356D01*
X202Y353D01*
X201Y350D01*
X201Y348D01*
X201Y347D01*
Y346D01*
Y345D01*
Y345D01*
X201Y340D01*
X202Y336D01*
X204Y332D01*
X205Y328D01*
X207Y324D01*
X209Y321D01*
X212Y318D01*
X214Y315D01*
X216Y313D01*
X219Y310D01*
X221Y309D01*
X223Y307D01*
X225Y306D01*
X226Y305D01*
X227Y304D01*
X227Y304D01*
Y304D01*
X227Y303D01*
X227Y302D01*
X226Y300D01*
X225Y298D01*
X225Y297D01*
X223Y292D01*
X221Y287D01*
X218Y281D01*
X216Y275D01*
X213Y268D01*
X210Y262D01*
X208Y256D01*
X205Y250D01*
X203Y245D01*
X201Y241D01*
X200Y239D01*
X200Y237D01*
X199Y236D01*
X199Y235D01*
X199Y235D01*
Y235D01*
X198D01*
X198Y235D01*
X196Y236D01*
X193Y237D01*
X190Y239D01*
X188Y240D01*
X185Y241D01*
X184Y242D01*
X184Y242D01*
X183Y242D01*
X183D01*
X183Y242D01*
X181Y241D01*
X179Y240D01*
X177Y239D01*
X175Y237D01*
X172Y236D01*
X166Y232D01*
X160Y228D01*
X157Y226D01*
X155Y224D01*
X153Y223D01*
X152Y222D01*
X150Y221D01*
X150Y221D01*
X149D01*
X144Y226D01*
X139Y230D01*
X135Y234D01*
X132Y238D01*
X129Y240D01*
X127Y243D01*
X125Y245D01*
X123Y247D01*
X122Y248D01*
X121Y249D01*
X120Y250D01*
X120Y250D01*
X119Y251D01*
Y251D01*
X123Y257D01*
X127Y262D01*
X130Y266D01*
X132Y270D01*
X134Y273D01*
X136Y276D01*
X137Y278D01*
X139Y280D01*
X140Y281D01*
X140Y282D01*
X140Y283D01*
X141Y284D01*
X141Y284D01*
Y285D01*
X141Y285D01*
X141Y286D01*
X140Y288D01*
X139Y290D01*
X139Y292D01*
X138Y295D01*
X135Y301D01*
X133Y306D01*
X132Y309D01*
X131Y311D01*
X130Y313D01*
X130Y314D01*
X130Y315D01*
X129Y316D01*
X128Y316D01*
X127Y316D01*
X126Y317D01*
X124Y317D01*
X121Y318D01*
X117Y319D01*
X113Y320D01*
X111Y320D01*
X109Y320D01*
X108Y321D01*
X107D01*
X106Y321D01*
X106D01*
X103Y321D01*
X100Y322D01*
X98Y322D01*
X96Y323D01*
X94Y323D01*
X93Y323D01*
X91Y324D01*
X90Y324D01*
X89Y325D01*
X88Y325D01*
X88Y326D01*
Y364D01*
Y365D01*
X88Y366D01*
X89Y366D01*
X89Y366D01*
X89Y367D01*
X91Y367D01*
X93Y368D01*
X95Y368D01*
X98Y369D01*
X101Y370D01*
X109Y371D01*
X116Y372D01*
X119Y373D01*
X122Y373D01*
X125Y374D01*
X127Y374D01*
X128Y374D01*
X128D01*
X129Y375D01*
X130Y376D01*
X131Y377D01*
X132Y379D01*
X132Y381D01*
X134Y384D01*
X136Y390D01*
X139Y395D01*
X140Y398D01*
X140Y400D01*
X141Y402D01*
X142Y404D01*
X142Y405D01*
X142Y405D01*
Y406D01*
X139Y412D01*
X135Y417D01*
X132Y421D01*
X129Y425D01*
X127Y429D01*
X125Y431D01*
X124Y434D01*
X123Y436D01*
X122Y437D01*
X121Y438D01*
X121Y439D01*
X120Y440D01*
X120Y440D01*
Y441D01*
Y441D01*
X124Y445D01*
X127Y449D01*
X131Y452D01*
X133Y455D01*
X136Y458D01*
X138Y460D01*
X140Y462D01*
X142Y464D01*
X144Y466D01*
X145Y467D01*
X147Y469D01*
X148Y470D01*
X149Y470D01*
X149D01*
X150Y470D01*
X151Y469D01*
X153Y468D01*
X155Y467D01*
X158Y465D01*
X161Y463D01*
X168Y459D01*
X174Y454D01*
X177Y452D01*
X179Y451D01*
X182Y449D01*
X183Y448D01*
X184Y447D01*
X184Y447D01*
X185Y447D01*
X186Y448D01*
X188Y448D01*
X190Y449D01*
X192Y450D01*
X195Y451D01*
X200Y453D01*
X206Y455D01*
X208Y456D01*
X210Y457D01*
X212Y458D01*
X213Y458D01*
X214Y459D01*
X214D01*
X214Y460D01*
X215Y461D01*
X215Y463D01*
X216Y465D01*
X216Y468D01*
X217Y470D01*
X218Y476D01*
X219Y481D01*
X220Y484D01*
X220Y486D01*
X221Y488D01*
X221Y489D01*
X221Y490D01*
Y490D01*
Y492D01*
X221Y494D01*
X222Y497D01*
X222Y499D01*
X223Y500D01*
X224Y501D01*
X225Y502D01*
X226Y502D01*
X265D01*
X265Y501D01*
D02*
G37*
G36*
X3087Y60D02*
X3077D01*
Y70D01*
X3087D01*
Y60D01*
D02*
G37*
G36*
X66Y188D02*
X68Y187D01*
X70Y186D01*
X72Y184D01*
X73Y183D01*
X74Y181D01*
X76Y178D01*
X77Y175D01*
X78Y172D01*
X78Y171D01*
Y170D01*
Y169D01*
Y169D01*
Y165D01*
Y163D01*
X78Y161D01*
X78Y160D01*
Y160D01*
Y160D01*
X77Y157D01*
X76Y155D01*
X75Y153D01*
X73Y152D01*
X71Y149D01*
X68Y148D01*
X66Y147D01*
X63Y146D01*
X62Y146D01*
X59D01*
X56Y146D01*
X53Y147D01*
X51Y148D01*
X49Y149D01*
X47Y150D01*
X46Y151D01*
X45Y152D01*
X45Y152D01*
Y153D01*
X45Y153D01*
X46Y154D01*
X48Y156D01*
X49Y156D01*
X50Y157D01*
X50Y157D01*
X50Y158D01*
X51D01*
X53Y156D01*
X54Y155D01*
X56Y155D01*
X57Y154D01*
X58Y154D01*
X59Y154D01*
X60D01*
X63Y154D01*
X65Y155D01*
X67Y157D01*
X68Y159D01*
X69Y160D01*
X70Y162D01*
X70Y163D01*
Y163D01*
Y164D01*
X46D01*
X45Y164D01*
X45Y164D01*
X44Y165D01*
Y165D01*
Y177D01*
X45Y179D01*
X46Y181D01*
X49Y184D01*
X51Y186D01*
X54Y187D01*
X56Y188D01*
X58Y188D01*
X59Y189D01*
X63D01*
X66Y188D01*
D02*
G37*
G36*
X353D02*
X355Y187D01*
X357Y185D01*
X359Y184D01*
X361Y180D01*
X363Y176D01*
X364Y173D01*
X364Y170D01*
X364Y169D01*
Y168D01*
Y167D01*
Y167D01*
Y166D01*
X364Y164D01*
X364Y161D01*
X364Y160D01*
Y159D01*
X363Y158D01*
Y158D01*
X363Y156D01*
X361Y154D01*
X360Y152D01*
X359Y151D01*
X356Y149D01*
X354Y147D01*
X351Y147D01*
X349Y146D01*
X347Y146D01*
X345D01*
X342Y146D01*
X339Y147D01*
X337Y148D01*
X335Y149D01*
X333Y150D01*
X332Y151D01*
X331Y152D01*
X331Y152D01*
Y153D01*
X331Y153D01*
X332Y154D01*
X334Y156D01*
X336Y157D01*
X336Y157D01*
X336Y158D01*
X337D01*
X339Y156D01*
X340Y155D01*
X342Y155D01*
X343Y154D01*
X344Y154D01*
X345Y154D01*
X346D01*
X349Y154D01*
X351Y155D01*
X353Y157D01*
X354Y159D01*
X355Y161D01*
X356Y162D01*
X356Y163D01*
Y164D01*
X331D01*
X330Y164D01*
X330Y164D01*
Y165D01*
Y165D01*
Y170D01*
Y172D01*
X330Y174D01*
X330Y175D01*
Y175D01*
X331Y177D01*
X332Y179D01*
X333Y181D01*
X334Y183D01*
X337Y185D01*
X340Y187D01*
X342Y188D01*
X345Y188D01*
X346Y189D01*
X351D01*
X353Y188D01*
D02*
G37*
G36*
X99Y188D02*
X101Y188D01*
X102Y188D01*
X102Y188D01*
X105Y187D01*
X106Y185D01*
X108Y184D01*
X109Y183D01*
X112Y179D01*
X113Y176D01*
X114Y173D01*
X114Y170D01*
X115Y169D01*
Y168D01*
Y168D01*
Y168D01*
X114Y165D01*
X114Y162D01*
X114Y161D01*
Y160D01*
X114Y159D01*
Y159D01*
X113Y157D01*
X112Y155D01*
X110Y153D01*
X109Y151D01*
X106Y149D01*
X103Y148D01*
X101Y147D01*
X99Y146D01*
X97Y146D01*
X95D01*
X92Y146D01*
X89Y147D01*
X87Y148D01*
X85Y149D01*
X83Y151D01*
X82Y152D01*
X81Y153D01*
X81Y153D01*
Y153D01*
X81Y154D01*
X82Y155D01*
X83Y155D01*
X84Y156D01*
X85Y157D01*
X86Y158D01*
X86Y158D01*
X87Y159D01*
X88Y157D01*
X90Y156D01*
X91Y155D01*
X92Y155D01*
X93Y155D01*
X94Y154D01*
X95D01*
X97Y155D01*
X98Y155D01*
X101Y156D01*
X103Y159D01*
X105Y161D01*
X106Y163D01*
X106Y166D01*
X106Y167D01*
Y167D01*
Y168D01*
X106Y170D01*
X106Y172D01*
X105Y173D01*
X104Y175D01*
X103Y177D01*
X101Y179D01*
X99Y179D01*
X97Y180D01*
X96Y180D01*
X96D01*
X94Y180D01*
X92Y179D01*
X89Y178D01*
X88Y177D01*
X87Y177D01*
X87Y176D01*
X87Y176D01*
X85Y177D01*
X84Y178D01*
X83Y179D01*
X82Y180D01*
X81Y181D01*
X81Y181D01*
Y182D01*
X83Y184D01*
X85Y186D01*
X88Y187D01*
X90Y188D01*
X91Y188D01*
X93Y189D01*
X97D01*
X99Y188D01*
D02*
G37*
G36*
X2455Y94D02*
X2457Y93D01*
X2458Y93D01*
X2459Y93D01*
X2460Y92D01*
X2461Y92D01*
X2462Y92D01*
X2463Y91D01*
X2463Y91D01*
X2464Y90D01*
X2465Y90D01*
X2465Y90D01*
X2465Y89D01*
X2466Y89D01*
X2466Y89D01*
X2466Y89D01*
X2467Y88D01*
X2467Y87D01*
X2468Y86D01*
X2468Y85D01*
X2469Y84D01*
X2469Y83D01*
X2470Y81D01*
X2470Y80D01*
X2470Y79D01*
X2470Y78D01*
X2470Y78D01*
X2470Y77D01*
Y77D01*
Y76D01*
Y76D01*
X2470Y75D01*
X2470Y74D01*
X2470Y72D01*
X2470Y71D01*
X2469Y70D01*
X2469Y69D01*
X2468Y68D01*
X2468Y67D01*
X2468Y67D01*
X2467Y66D01*
X2467Y65D01*
X2467Y65D01*
X2466Y65D01*
X2466Y64D01*
X2466Y64D01*
X2466Y64D01*
X2465Y63D01*
X2464Y63D01*
X2463Y62D01*
X2462Y62D01*
X2461Y61D01*
X2460Y61D01*
X2459Y60D01*
X2458Y60D01*
X2457Y60D01*
X2456Y60D01*
X2456Y60D01*
X2455Y60D01*
X2455D01*
X2453Y60D01*
X2452Y60D01*
X2450Y60D01*
X2449Y60D01*
X2449Y61D01*
X2448Y61D01*
X2447Y61D01*
X2446Y62D01*
X2446Y62D01*
X2445Y62D01*
X2445Y63D01*
X2445Y63D01*
X2444Y63D01*
X2444Y63D01*
X2444Y63D01*
X2444Y64D01*
X2443Y65D01*
X2442Y65D01*
X2442Y66D01*
X2441Y68D01*
X2440Y69D01*
X2440Y71D01*
X2440Y71D01*
X2440Y72D01*
X2440Y72D01*
X2440Y72D01*
Y73D01*
Y73D01*
X2449Y73D01*
X2449Y72D01*
X2449Y71D01*
X2449Y70D01*
X2450Y70D01*
X2450Y69D01*
X2451Y69D01*
X2451Y68D01*
X2452Y68D01*
X2453Y68D01*
X2453Y68D01*
X2454D01*
X2454Y68D01*
X2454D01*
X2455Y68D01*
X2456Y68D01*
X2456Y68D01*
X2457Y68D01*
X2457Y69D01*
X2458Y69D01*
X2458Y69D01*
X2458Y69D01*
X2458Y70D01*
X2458Y70D01*
X2459Y70D01*
X2459Y71D01*
X2459Y72D01*
X2459Y74D01*
X2459Y75D01*
Y76D01*
X2459Y76D01*
Y76D01*
Y77D01*
Y77D01*
Y77D01*
X2459Y79D01*
X2459Y80D01*
X2459Y81D01*
X2459Y82D01*
X2458Y83D01*
X2458Y84D01*
X2457Y85D01*
X2457Y85D01*
X2456Y86D01*
X2456Y86D01*
X2455Y86D01*
X2455Y86D01*
X2454Y86D01*
X2454Y86D01*
X2454D01*
X2453Y86D01*
X2452Y86D01*
X2452Y86D01*
X2451Y85D01*
X2450Y85D01*
X2450Y85D01*
X2449Y83D01*
X2449Y82D01*
X2449Y81D01*
X2449Y81D01*
X2449Y81D01*
Y81D01*
Y81D01*
X2440Y81D01*
X2440Y82D01*
X2440Y83D01*
X2441Y85D01*
X2441Y86D01*
X2442Y87D01*
X2443Y89D01*
X2443Y89D01*
X2443Y89D01*
X2444Y90D01*
X2444Y90D01*
X2444Y90D01*
X2444Y90D01*
X2445Y91D01*
X2446Y91D01*
X2446Y92D01*
X2447Y92D01*
X2449Y93D01*
X2450Y93D01*
X2452Y93D01*
X2452Y93D01*
X2453Y94D01*
X2453Y94D01*
X2454D01*
X2455Y94D01*
D02*
G37*
G36*
X2774D02*
X2775Y93D01*
X2777Y93D01*
X2779Y92D01*
X2779Y92D01*
X2780Y92D01*
X2780Y92D01*
X2781Y92D01*
X2781Y91D01*
X2781Y91D01*
X2781Y91D01*
X2782D01*
X2782Y91D01*
X2783Y90D01*
X2784Y90D01*
X2784Y89D01*
X2785Y88D01*
X2786Y86D01*
X2786Y85D01*
X2786Y85D01*
X2787Y84D01*
X2787Y84D01*
X2787Y84D01*
X2787Y83D01*
Y83D01*
X2778Y83D01*
X2778Y83D01*
X2777Y84D01*
X2777Y85D01*
X2777Y85D01*
X2776Y86D01*
X2776Y86D01*
X2775Y87D01*
X2774Y87D01*
X2773Y87D01*
X2773Y87D01*
X2772D01*
X2771Y87D01*
X2771Y87D01*
X2770Y87D01*
X2770Y87D01*
X2769Y86D01*
X2769Y86D01*
X2768Y85D01*
X2768Y85D01*
X2768Y84D01*
X2768Y83D01*
X2768Y83D01*
Y83D01*
Y83D01*
Y82D01*
Y81D01*
X2769Y81D01*
X2771Y80D01*
X2772Y80D01*
X2774Y80D01*
X2775Y80D01*
X2776Y80D01*
X2777Y79D01*
X2778Y79D01*
X2779Y79D01*
X2779Y79D01*
X2780Y79D01*
X2780Y79D01*
X2780Y79D01*
X2781Y79D01*
X2781Y78D01*
X2781D01*
X2782Y78D01*
X2783Y77D01*
X2784Y77D01*
X2785Y76D01*
X2785Y75D01*
X2786Y75D01*
X2786Y75D01*
X2786Y74D01*
X2787Y73D01*
X2787Y73D01*
X2787Y72D01*
X2788Y71D01*
X2788Y70D01*
X2788Y69D01*
Y69D01*
Y69D01*
Y69D01*
X2788Y67D01*
X2787Y66D01*
X2787Y65D01*
X2786Y64D01*
X2786Y63D01*
X2785Y63D01*
X2785Y62D01*
X2785Y62D01*
X2784Y61D01*
X2783Y61D01*
X2781Y60D01*
X2780Y60D01*
X2779Y60D01*
X2779Y60D01*
X2778D01*
X2778Y60D01*
X2778D01*
X2776Y60D01*
X2775Y60D01*
X2774Y60D01*
X2774Y60D01*
X2773Y60D01*
X2772Y61D01*
X2772Y61D01*
X2772Y61D01*
X2771Y61D01*
X2770Y62D01*
X2769Y63D01*
X2769Y63D01*
X2768Y64D01*
X2768Y65D01*
X2767Y65D01*
X2767Y65D01*
Y64D01*
X2767Y63D01*
X2767Y62D01*
X2767Y62D01*
X2767Y61D01*
X2767Y61D01*
X2767Y60D01*
Y60D01*
X2757D01*
X2758Y61D01*
X2758Y62D01*
X2758Y63D01*
X2758Y64D01*
X2758Y65D01*
Y66D01*
Y66D01*
Y66D01*
Y66D01*
Y66D01*
Y81D01*
Y83D01*
X2758Y84D01*
X2758Y85D01*
X2758Y86D01*
X2758Y86D01*
X2758Y87D01*
X2758Y87D01*
Y87D01*
X2759Y88D01*
X2759Y88D01*
X2759Y89D01*
X2760Y90D01*
X2760Y90D01*
X2760Y90D01*
X2761Y90D01*
X2761Y90D01*
X2761Y91D01*
X2762Y91D01*
X2763Y92D01*
X2764Y92D01*
X2764Y92D01*
X2765Y93D01*
X2765Y93D01*
X2765D01*
X2766Y93D01*
X2768Y93D01*
X2769Y93D01*
X2770Y94D01*
X2770D01*
X2771Y94D01*
X2772D01*
X2774Y94D01*
D02*
G37*
G36*
X252Y188D02*
X254Y188D01*
X256Y187D01*
X258Y186D01*
X259Y185D01*
X260Y184D01*
X262Y182D01*
X263Y180D01*
X264Y179D01*
X264Y178D01*
Y177D01*
Y175D01*
X264Y173D01*
X263Y171D01*
X262Y169D01*
X260Y168D01*
X259Y166D01*
X258Y166D01*
X257Y165D01*
X257Y165D01*
X254Y165D01*
X251Y164D01*
X249Y164D01*
X247Y163D01*
X245Y163D01*
X244Y163D01*
X243Y162D01*
X242Y162D01*
X241Y161D01*
X240Y161D01*
X240Y161D01*
Y158D01*
X241Y156D01*
X242Y155D01*
X243Y155D01*
X244Y154D01*
X245Y154D01*
X246Y154D01*
X247D01*
X250Y154D01*
X252Y155D01*
X255Y156D01*
X257Y157D01*
X259Y157D01*
X259Y158D01*
X260Y159D01*
X261Y159D01*
X262Y157D01*
X264Y156D01*
X265Y155D01*
X266Y154D01*
X266Y154D01*
X266Y154D01*
Y153D01*
X263Y151D01*
X261Y149D01*
X257Y148D01*
X255Y147D01*
X252Y146D01*
X251Y146D01*
X250Y146D01*
X246D01*
X243Y146D01*
X241Y147D01*
X239Y148D01*
X237Y149D01*
X235Y150D01*
X234Y151D01*
X233Y153D01*
X231Y155D01*
X231Y157D01*
X230Y158D01*
Y158D01*
Y159D01*
X231Y162D01*
X232Y164D01*
X233Y166D01*
X235Y168D01*
X236Y169D01*
X237Y170D01*
X238Y170D01*
X238Y171D01*
X242Y171D01*
X244Y171D01*
X246Y171D01*
X248Y172D01*
X250Y172D01*
X251Y173D01*
X253Y173D01*
X254Y174D01*
X255Y174D01*
X255Y175D01*
Y175D01*
X255Y177D01*
X254Y178D01*
X253Y179D01*
X252Y180D01*
X251Y180D01*
X250Y181D01*
X249D01*
X246Y180D01*
X244Y180D01*
X242Y180D01*
X241Y179D01*
X239Y178D01*
X238Y178D01*
X237Y177D01*
X237Y177D01*
X237D01*
X235Y179D01*
X234Y180D01*
X233Y181D01*
X233Y182D01*
X232Y183D01*
Y184D01*
X235Y185D01*
X237Y187D01*
X240Y187D01*
X242Y188D01*
X244Y188D01*
X245Y189D01*
X250D01*
X252Y188D01*
D02*
G37*
G36*
X431Y188D02*
X433Y188D01*
X434Y188D01*
X435Y188D01*
X438Y186D01*
X440Y183D01*
X442Y180D01*
X444Y177D01*
X444Y175D01*
X445Y173D01*
X445Y171D01*
Y171D01*
Y171D01*
Y164D01*
Y162D01*
X445Y160D01*
X444Y159D01*
Y158D01*
Y158D01*
X444Y156D01*
X442Y154D01*
X441Y152D01*
X440Y151D01*
X438Y149D01*
X435Y147D01*
X433Y147D01*
X431Y146D01*
X429Y146D01*
X426D01*
X424Y146D01*
X423Y146D01*
X421Y147D01*
X421Y147D01*
X421D01*
X419Y148D01*
X417Y149D01*
X415Y152D01*
X413Y155D01*
X412Y159D01*
X411Y162D01*
X410Y165D01*
X410Y166D01*
Y166D01*
Y167D01*
Y167D01*
Y169D01*
X410Y172D01*
X411Y175D01*
X412Y177D01*
X412Y179D01*
X414Y181D01*
X415Y183D01*
X418Y185D01*
X421Y187D01*
X423Y188D01*
X424Y188D01*
X425D01*
X425Y189D01*
X429D01*
X431Y188D01*
D02*
G37*
G36*
X2283Y105D02*
X2285Y105D01*
X2286Y104D01*
X2288Y104D01*
X2289Y104D01*
X2290Y103D01*
X2291Y102D01*
X2292Y102D01*
X2293Y101D01*
X2293Y101D01*
X2294Y100D01*
X2295Y99D01*
X2295Y99D01*
X2295Y99D01*
X2295Y99D01*
X2295Y98D01*
X2296Y97D01*
X2297Y96D01*
X2297Y95D01*
X2298Y93D01*
X2298Y92D01*
X2299Y90D01*
X2299Y89D01*
X2299Y88D01*
X2300Y86D01*
X2300Y85D01*
X2300Y84D01*
X2300Y83D01*
X2300Y83D01*
Y82D01*
Y82D01*
Y82D01*
X2300Y80D01*
X2300Y78D01*
X2299Y77D01*
X2299Y75D01*
X2299Y74D01*
X2299Y74D01*
X2299Y73D01*
X2299Y73D01*
X2299Y72D01*
X2299Y72D01*
X2298Y72D01*
Y72D01*
X2298Y70D01*
X2297Y68D01*
X2296Y67D01*
X2295Y66D01*
X2294Y65D01*
X2294Y64D01*
X2294Y64D01*
X2293Y64D01*
X2293Y63D01*
X2293Y63D01*
X2293Y63D01*
X2292Y63D01*
X2291Y62D01*
X2290Y62D01*
X2289Y61D01*
X2288Y61D01*
X2286Y60D01*
X2285Y60D01*
X2284Y60D01*
X2283Y60D01*
X2283Y60D01*
X2282Y60D01*
X2282D01*
X2280Y60D01*
X2279Y60D01*
X2278Y60D01*
X2277Y60D01*
X2276Y61D01*
X2275Y61D01*
X2274Y61D01*
X2273Y62D01*
X2273Y62D01*
X2272Y63D01*
X2271Y63D01*
X2271Y63D01*
X2271Y64D01*
X2270Y64D01*
X2270Y64D01*
X2270Y64D01*
X2269Y65D01*
X2269Y66D01*
X2268Y67D01*
X2268Y68D01*
X2267Y68D01*
X2267Y69D01*
X2266Y71D01*
X2266Y72D01*
X2266Y72D01*
X2266Y73D01*
X2266Y73D01*
X2266Y74D01*
Y74D01*
Y74D01*
Y74D01*
X2266Y75D01*
X2266Y76D01*
X2266Y77D01*
X2266Y78D01*
X2267Y80D01*
X2268Y81D01*
X2268Y82D01*
X2269Y82D01*
X2269Y83D01*
X2269Y83D01*
X2269Y84D01*
X2270Y84D01*
X2270Y84D01*
X2270Y84D01*
X2271Y85D01*
X2271Y85D01*
X2272Y86D01*
X2273Y86D01*
X2274Y87D01*
X2275Y87D01*
X2276Y87D01*
X2277Y88D01*
X2278Y88D01*
X2278Y88D01*
X2279Y88D01*
X2279Y88D01*
X2280D01*
X2281Y88D01*
X2282Y88D01*
X2283Y87D01*
X2284Y87D01*
X2285Y87D01*
X2286Y86D01*
X2287Y86D01*
X2287Y85D01*
X2288Y85D01*
X2288Y85D01*
X2289Y84D01*
X2289Y84D01*
X2289Y83D01*
X2289Y83D01*
X2290Y83D01*
X2290Y83D01*
Y84D01*
X2290Y86D01*
X2289Y87D01*
X2289Y88D01*
X2289Y89D01*
X2289Y90D01*
X2289Y91D01*
X2288Y91D01*
X2288Y93D01*
X2287Y94D01*
X2287Y95D01*
X2286Y96D01*
X2285Y96D01*
X2284Y97D01*
X2284Y97D01*
X2283Y97D01*
X2283Y98D01*
X2282Y98D01*
X2282D01*
X2281Y98D01*
X2280Y97D01*
X2279Y97D01*
X2279Y97D01*
X2278Y96D01*
X2278Y96D01*
X2277Y95D01*
X2277Y94D01*
X2276Y93D01*
X2276Y92D01*
X2276Y92D01*
X2275Y92D01*
X2275Y91D01*
X2275Y91D01*
Y91D01*
X2266Y93D01*
X2267Y94D01*
X2267Y95D01*
X2268Y97D01*
X2268Y98D01*
X2269Y99D01*
X2270Y100D01*
X2271Y101D01*
X2271Y101D01*
X2271Y101D01*
X2271Y102D01*
X2271Y102D01*
X2272Y102D01*
X2273Y103D01*
X2274Y103D01*
X2275Y104D01*
X2276Y104D01*
X2278Y105D01*
X2279Y105D01*
X2280Y105D01*
X2280Y105D01*
X2281D01*
X2281Y105D01*
X2282D01*
X2283Y105D01*
D02*
G37*
G36*
X2951Y94D02*
X2952Y93D01*
X2954Y93D01*
X2956Y92D01*
X2956Y92D01*
X2957Y92D01*
X2957Y92D01*
X2958Y92D01*
X2958Y91D01*
X2958Y91D01*
X2958Y91D01*
X2959D01*
X2959Y91D01*
X2960Y90D01*
X2961Y90D01*
X2961Y89D01*
X2962Y88D01*
X2963Y86D01*
X2963Y85D01*
X2963Y85D01*
X2964Y84D01*
X2964Y84D01*
X2964Y84D01*
X2964Y83D01*
Y83D01*
X2955Y83D01*
X2955Y83D01*
X2954Y84D01*
X2954Y85D01*
X2954Y85D01*
X2953Y86D01*
X2953Y86D01*
X2952Y87D01*
X2951Y87D01*
X2950Y87D01*
X2950Y87D01*
X2949D01*
X2948Y87D01*
X2948Y87D01*
X2947Y87D01*
X2946Y87D01*
X2946Y86D01*
X2946Y86D01*
X2945Y85D01*
X2945Y85D01*
X2945Y84D01*
X2945Y83D01*
X2944Y83D01*
Y83D01*
Y83D01*
Y82D01*
Y81D01*
X2946Y81D01*
X2948Y80D01*
X2949Y80D01*
X2951Y80D01*
X2952Y80D01*
X2953Y80D01*
X2954Y79D01*
X2955Y79D01*
X2956Y79D01*
X2956Y79D01*
X2957Y79D01*
X2957Y79D01*
X2957Y79D01*
X2958Y79D01*
X2958Y78D01*
X2958D01*
X2959Y78D01*
X2960Y77D01*
X2961Y77D01*
X2962Y76D01*
X2962Y75D01*
X2963Y75D01*
X2963Y75D01*
X2963Y74D01*
X2964Y73D01*
X2964Y73D01*
X2964Y72D01*
X2964Y71D01*
X2965Y70D01*
X2965Y69D01*
Y69D01*
Y69D01*
Y69D01*
X2965Y67D01*
X2964Y66D01*
X2964Y65D01*
X2963Y64D01*
X2963Y63D01*
X2962Y63D01*
X2962Y62D01*
X2962Y62D01*
X2961Y61D01*
X2960Y61D01*
X2958Y60D01*
X2957Y60D01*
X2956Y60D01*
X2956Y60D01*
X2955D01*
X2955Y60D01*
X2954D01*
X2953Y60D01*
X2952Y60D01*
X2951Y60D01*
X2951Y60D01*
X2950Y60D01*
X2949Y61D01*
X2949Y61D01*
X2949Y61D01*
X2948Y61D01*
X2947Y62D01*
X2946Y63D01*
X2946Y63D01*
X2945Y64D01*
X2944Y65D01*
X2944Y65D01*
X2944Y65D01*
Y64D01*
X2944Y63D01*
X2944Y62D01*
X2944Y62D01*
X2944Y61D01*
X2944Y61D01*
X2944Y60D01*
Y60D01*
X2934D01*
X2934Y61D01*
X2935Y62D01*
X2935Y63D01*
X2935Y64D01*
X2935Y65D01*
Y66D01*
Y66D01*
Y66D01*
Y66D01*
Y66D01*
Y81D01*
Y83D01*
X2935Y84D01*
X2935Y85D01*
X2935Y86D01*
X2935Y86D01*
X2935Y87D01*
X2935Y87D01*
Y87D01*
X2936Y88D01*
X2936Y88D01*
X2936Y89D01*
X2937Y90D01*
X2937Y90D01*
X2937Y90D01*
X2938Y90D01*
X2938Y90D01*
X2938Y91D01*
X2939Y91D01*
X2940Y92D01*
X2941Y92D01*
X2941Y92D01*
X2942Y93D01*
X2942Y93D01*
X2942D01*
X2943Y93D01*
X2944Y93D01*
X2946Y93D01*
X2946Y94D01*
X2947D01*
X2948Y94D01*
X2949D01*
X2951Y94D01*
D02*
G37*
G36*
X2845D02*
X2847Y93D01*
X2849Y93D01*
X2850Y92D01*
X2851Y92D01*
X2851Y92D01*
X2852Y92D01*
X2852Y92D01*
X2853Y91D01*
X2853Y91D01*
X2853Y91D01*
X2853D01*
X2854Y91D01*
X2854Y90D01*
X2855Y90D01*
X2856Y89D01*
X2857Y88D01*
X2857Y86D01*
X2858Y85D01*
X2858Y85D01*
X2858Y84D01*
X2858Y84D01*
X2858Y84D01*
X2858Y83D01*
Y83D01*
X2849Y83D01*
X2849Y83D01*
X2849Y84D01*
X2849Y85D01*
X2848Y85D01*
X2848Y86D01*
X2847Y86D01*
X2846Y87D01*
X2845Y87D01*
X2845Y87D01*
X2844Y87D01*
X2844D01*
X2843Y87D01*
X2842Y87D01*
X2842Y87D01*
X2841Y87D01*
X2841Y86D01*
X2840Y86D01*
X2840Y85D01*
X2840Y85D01*
X2839Y84D01*
X2839Y83D01*
X2839Y83D01*
Y83D01*
Y83D01*
Y82D01*
Y81D01*
X2841Y81D01*
X2842Y80D01*
X2844Y80D01*
X2845Y80D01*
X2846Y80D01*
X2847Y80D01*
X2848Y79D01*
X2849Y79D01*
X2850Y79D01*
X2851Y79D01*
X2851Y79D01*
X2852Y79D01*
X2852Y79D01*
X2852Y79D01*
X2852Y78D01*
X2852D01*
X2854Y78D01*
X2855Y77D01*
X2856Y77D01*
X2856Y76D01*
X2857Y75D01*
X2857Y75D01*
X2858Y75D01*
X2858Y74D01*
X2858Y73D01*
X2858Y73D01*
X2859Y72D01*
X2859Y71D01*
X2859Y70D01*
X2859Y69D01*
Y69D01*
Y69D01*
Y69D01*
X2859Y67D01*
X2859Y66D01*
X2858Y65D01*
X2858Y64D01*
X2857Y63D01*
X2857Y63D01*
X2857Y62D01*
X2856Y62D01*
X2855Y61D01*
X2854Y61D01*
X2853Y60D01*
X2852Y60D01*
X2851Y60D01*
X2850Y60D01*
X2850D01*
X2849Y60D01*
X2849D01*
X2848Y60D01*
X2847Y60D01*
X2846Y60D01*
X2845Y60D01*
X2844Y60D01*
X2844Y61D01*
X2844Y61D01*
X2844Y61D01*
X2843Y61D01*
X2842Y62D01*
X2841Y63D01*
X2840Y63D01*
X2839Y64D01*
X2839Y65D01*
X2839Y65D01*
X2839Y65D01*
Y64D01*
X2839Y63D01*
X2838Y62D01*
X2838Y62D01*
X2838Y61D01*
X2838Y61D01*
X2838Y60D01*
Y60D01*
X2829D01*
X2829Y61D01*
X2829Y62D01*
X2829Y63D01*
X2829Y64D01*
X2829Y65D01*
Y66D01*
Y66D01*
Y66D01*
Y66D01*
Y66D01*
Y81D01*
Y83D01*
X2829Y84D01*
X2830Y85D01*
X2830Y86D01*
X2830Y86D01*
X2830Y87D01*
X2830Y87D01*
Y87D01*
X2830Y88D01*
X2831Y88D01*
X2831Y89D01*
X2831Y90D01*
X2832Y90D01*
X2832Y90D01*
X2832Y90D01*
X2832Y90D01*
X2833Y91D01*
X2834Y91D01*
X2834Y92D01*
X2835Y92D01*
X2836Y92D01*
X2836Y93D01*
X2837Y93D01*
X2837D01*
X2838Y93D01*
X2839Y93D01*
X2840Y93D01*
X2841Y94D01*
X2842D01*
X2842Y94D01*
X2843D01*
X2845Y94D01*
D02*
G37*
G36*
X2893Y60D02*
X2884D01*
Y69D01*
X2878Y75D01*
X2872Y60D01*
X2861D01*
X2872Y82D01*
X2862Y93D01*
X2872D01*
X2881Y82D01*
X2882Y81D01*
X2882Y80D01*
X2882Y80D01*
X2883Y80D01*
X2883Y80D01*
X2883Y80D01*
X2884Y78D01*
Y104D01*
X2893D01*
Y60D01*
D02*
G37*
G36*
X2160D02*
X2161Y60D01*
X2161Y59D01*
X2161Y59D01*
X2161Y58D01*
X2162Y58D01*
X2162Y58D01*
X2162Y58D01*
X2162Y57D01*
X2162Y57D01*
X2163Y57D01*
X2164Y57D01*
X2164Y56D01*
X2165Y56D01*
X2165Y56D01*
X2166D01*
X2167Y56D01*
X2168Y56D01*
X2169Y57D01*
X2169Y57D01*
X2170Y57D01*
X2170Y57D01*
X2170D01*
Y49D01*
X2169Y49D01*
X2169Y49D01*
X2168Y49D01*
X2167D01*
X2167Y49D01*
X2166D01*
X2164Y49D01*
X2163Y49D01*
X2162Y49D01*
X2161Y50D01*
X2160Y50D01*
X2160Y50D01*
X2160Y50D01*
X2160Y50D01*
X2159Y51D01*
X2158Y52D01*
X2157Y52D01*
X2157Y53D01*
X2157Y53D01*
X2156Y54D01*
X2156Y54D01*
X2156Y54D01*
X2156Y55D01*
X2155Y56D01*
X2155Y58D01*
X2154Y59D01*
X2154Y60D01*
X2154Y60D01*
X2153Y61D01*
X2153Y61D01*
X2153Y61D01*
X2153Y62D01*
Y62D01*
X2143Y93D01*
X2150D01*
X2156Y74D01*
X2162Y93D01*
X2172D01*
X2160Y60D01*
D02*
G37*
G36*
X2003D02*
X1995D01*
X1989Y81D01*
X1984Y60D01*
X1976D01*
X1966Y93D01*
X1973D01*
X1979Y73D01*
X1984Y93D01*
X1992D01*
X1997Y73D01*
X2003Y93D01*
X2013D01*
X2003Y60D01*
D02*
G37*
G36*
X2914Y94D02*
X2915Y93D01*
X2916Y93D01*
X2918Y93D01*
X2919Y92D01*
X2920Y92D01*
X2920Y92D01*
X2921Y91D01*
X2922Y91D01*
X2923Y90D01*
X2923Y90D01*
X2924Y90D01*
X2924Y89D01*
X2924Y89D01*
X2924Y89D01*
X2924Y89D01*
X2925Y88D01*
X2926Y87D01*
X2926Y86D01*
X2927Y85D01*
X2927Y84D01*
X2928Y83D01*
X2928Y81D01*
X2928Y80D01*
X2929Y79D01*
X2929Y78D01*
X2929Y78D01*
X2929Y77D01*
Y77D01*
Y76D01*
Y76D01*
X2929Y75D01*
X2929Y74D01*
X2928Y72D01*
X2928Y71D01*
X2928Y70D01*
X2927Y69D01*
X2927Y68D01*
X2927Y67D01*
X2926Y67D01*
X2926Y66D01*
X2925Y65D01*
X2925Y65D01*
X2925Y65D01*
X2925Y64D01*
X2925Y64D01*
X2924Y64D01*
X2924Y63D01*
X2923Y63D01*
X2922Y62D01*
X2921Y62D01*
X2920Y61D01*
X2919Y61D01*
X2917Y60D01*
X2916Y60D01*
X2916Y60D01*
X2915Y60D01*
X2914Y60D01*
X2914Y60D01*
X2913D01*
X2912Y60D01*
X2911Y60D01*
X2909Y60D01*
X2908Y60D01*
X2907Y61D01*
X2906Y61D01*
X2906Y61D01*
X2905Y62D01*
X2904Y62D01*
X2904Y62D01*
X2904Y63D01*
X2903Y63D01*
X2903Y63D01*
X2903Y63D01*
X2903Y63D01*
X2902Y64D01*
X2901Y65D01*
X2901Y65D01*
X2900Y66D01*
X2900Y68D01*
X2899Y69D01*
X2899Y71D01*
X2899Y71D01*
X2898Y72D01*
X2898Y72D01*
X2898Y72D01*
Y73D01*
Y73D01*
X2907Y73D01*
X2907Y72D01*
X2908Y71D01*
X2908Y70D01*
X2908Y70D01*
X2909Y69D01*
X2909Y69D01*
X2910Y68D01*
X2910Y68D01*
X2911Y68D01*
X2912Y68D01*
X2912D01*
X2912Y68D01*
X2913D01*
X2913Y68D01*
X2914Y68D01*
X2915Y68D01*
X2915Y68D01*
X2916Y69D01*
X2916Y69D01*
X2916Y69D01*
X2916Y69D01*
X2917Y70D01*
X2917Y70D01*
X2917Y70D01*
X2917Y71D01*
X2918Y72D01*
X2918Y74D01*
X2918Y75D01*
Y76D01*
X2918Y76D01*
Y76D01*
Y77D01*
Y77D01*
Y77D01*
X2918Y79D01*
X2918Y80D01*
X2917Y81D01*
X2917Y82D01*
X2917Y83D01*
X2916Y84D01*
X2916Y85D01*
X2915Y85D01*
X2915Y86D01*
X2914Y86D01*
X2914Y86D01*
X2913Y86D01*
X2913Y86D01*
X2913Y86D01*
X2912D01*
X2912Y86D01*
X2911Y86D01*
X2910Y86D01*
X2910Y85D01*
X2909Y85D01*
X2909Y85D01*
X2908Y83D01*
X2908Y82D01*
X2907Y81D01*
X2907Y81D01*
X2907Y81D01*
Y81D01*
Y81D01*
X2898Y81D01*
X2898Y82D01*
X2899Y83D01*
X2899Y85D01*
X2900Y86D01*
X2901Y87D01*
X2901Y89D01*
X2902Y89D01*
X2902Y89D01*
X2902Y90D01*
X2903Y90D01*
X2903Y90D01*
X2903Y90D01*
X2903Y91D01*
X2904Y91D01*
X2905Y92D01*
X2906Y92D01*
X2908Y93D01*
X2909Y93D01*
X2910Y93D01*
X2911Y93D01*
X2912Y94D01*
X2912Y94D01*
X2913D01*
X2914Y94D01*
D02*
G37*
G36*
X2324Y105D02*
X2325Y105D01*
X2327Y105D01*
X2328Y104D01*
X2329Y104D01*
X2330Y104D01*
X2331Y103D01*
X2331Y103D01*
X2332Y103D01*
X2333Y102D01*
X2333Y102D01*
X2334Y102D01*
X2334Y101D01*
X2334Y101D01*
X2334Y101D01*
X2335Y101D01*
X2335Y100D01*
X2336Y99D01*
X2337Y98D01*
X2337Y98D01*
X2337Y97D01*
X2338Y96D01*
X2338Y94D01*
X2338Y93D01*
X2339Y93D01*
X2339Y92D01*
X2339Y91D01*
X2339Y91D01*
Y91D01*
Y90D01*
Y90D01*
X2339Y89D01*
X2339Y88D01*
X2338Y86D01*
X2338Y85D01*
X2337Y84D01*
X2337Y83D01*
X2337Y83D01*
X2336Y82D01*
X2336Y82D01*
X2336Y81D01*
X2335Y81D01*
X2335Y81D01*
X2335Y81D01*
X2335Y81D01*
X2334Y80D01*
X2333Y79D01*
X2333Y79D01*
X2332Y78D01*
X2330Y78D01*
X2329Y77D01*
X2327Y77D01*
X2327Y77D01*
X2326Y77D01*
X2326Y77D01*
X2325D01*
X2324Y77D01*
X2323Y77D01*
X2322Y77D01*
X2321Y78D01*
X2320Y78D01*
X2319Y79D01*
X2318Y79D01*
X2318Y80D01*
X2317Y80D01*
X2316Y80D01*
X2316Y81D01*
X2316Y81D01*
X2316Y81D01*
X2316Y81D01*
X2315Y81D01*
X2316Y80D01*
X2316Y78D01*
X2316Y77D01*
X2316Y76D01*
X2316Y75D01*
X2316Y74D01*
X2316Y73D01*
X2317Y72D01*
X2317Y72D01*
X2317Y71D01*
X2317Y71D01*
X2317Y70D01*
X2318Y70D01*
X2318Y70D01*
X2318Y70D01*
X2319Y69D01*
X2320Y68D01*
X2320Y68D01*
X2321Y68D01*
X2322Y68D01*
X2323Y67D01*
X2323Y67D01*
X2323D01*
X2324Y67D01*
X2325Y68D01*
X2325Y68D01*
X2326Y68D01*
X2327Y69D01*
X2328Y70D01*
X2328Y71D01*
X2329Y71D01*
X2329Y72D01*
X2329Y72D01*
X2329Y72D01*
Y72D01*
X2338Y70D01*
X2337Y68D01*
X2336Y67D01*
X2336Y65D01*
X2334Y64D01*
X2333Y63D01*
X2332Y62D01*
X2331Y62D01*
X2330Y61D01*
X2328Y61D01*
X2327Y60D01*
X2326Y60D01*
X2325Y60D01*
X2325Y60D01*
X2324Y60D01*
X2323D01*
X2322Y60D01*
X2320Y60D01*
X2319Y60D01*
X2317Y61D01*
X2316Y61D01*
X2315Y62D01*
X2314Y62D01*
X2313Y63D01*
X2312Y64D01*
X2312Y64D01*
X2311Y65D01*
X2311Y65D01*
X2310Y66D01*
X2310Y66D01*
X2310Y66D01*
X2310Y66D01*
X2309Y68D01*
X2308Y69D01*
X2308Y70D01*
X2307Y72D01*
X2307Y73D01*
X2306Y75D01*
X2306Y76D01*
X2306Y77D01*
X2306Y78D01*
X2305Y80D01*
X2305Y80D01*
X2305Y81D01*
X2305Y82D01*
Y83D01*
Y83D01*
Y83D01*
X2305Y85D01*
X2306Y88D01*
X2306Y90D01*
X2306Y91D01*
X2306Y91D01*
X2306Y92D01*
X2307Y93D01*
X2307Y93D01*
X2307Y94D01*
X2307Y94D01*
X2307Y95D01*
X2307Y95D01*
Y95D01*
X2308Y97D01*
X2309Y98D01*
X2310Y100D01*
X2311Y101D01*
X2312Y102D01*
X2313Y102D01*
X2313Y102D01*
X2313Y102D01*
X2313Y103D01*
X2313D01*
X2315Y103D01*
X2317Y104D01*
X2318Y104D01*
X2320Y105D01*
X2321Y105D01*
X2321Y105D01*
X2322D01*
X2322Y105D01*
X2323D01*
X2324Y105D01*
D02*
G37*
G36*
X2224Y74D02*
X2209D01*
Y81D01*
X2224D01*
Y74D01*
D02*
G37*
G36*
X2742Y60D02*
X2743Y60D01*
X2743Y59D01*
X2743Y59D01*
X2743Y58D01*
X2743Y58D01*
X2744Y58D01*
X2744Y58D01*
X2744Y57D01*
X2744Y57D01*
X2745Y57D01*
X2745Y57D01*
X2746Y56D01*
X2747Y56D01*
X2747Y56D01*
X2748D01*
X2749Y56D01*
X2750Y56D01*
X2751Y57D01*
X2751Y57D01*
X2752Y57D01*
X2752Y57D01*
X2752D01*
Y49D01*
X2751Y49D01*
X2750Y49D01*
X2750Y49D01*
X2749D01*
X2748Y49D01*
X2748D01*
X2746Y49D01*
X2745Y49D01*
X2744Y49D01*
X2743Y50D01*
X2742Y50D01*
X2742Y50D01*
X2741Y50D01*
X2741Y50D01*
X2741Y51D01*
X2740Y52D01*
X2739Y52D01*
X2739Y53D01*
X2738Y53D01*
X2738Y54D01*
X2738Y54D01*
X2738Y54D01*
X2737Y55D01*
X2737Y56D01*
X2736Y58D01*
X2736Y59D01*
X2736Y60D01*
X2735Y60D01*
X2735Y61D01*
X2735Y61D01*
X2735Y61D01*
X2735Y62D01*
Y62D01*
X2725Y93D01*
X2732D01*
X2738Y74D01*
X2744Y93D01*
X2754D01*
X2742Y60D01*
D02*
G37*
G36*
X2721D02*
X2711D01*
Y70D01*
X2721D01*
Y60D01*
D02*
G37*
G36*
X2599Y94D02*
X2600Y93D01*
X2601Y93D01*
X2602Y93D01*
X2603Y92D01*
X2603Y92D01*
X2604Y91D01*
X2605Y91D01*
X2605Y90D01*
X2605Y90D01*
X2606Y89D01*
X2606Y89D01*
X2606Y88D01*
X2607Y88D01*
Y93D01*
X2615D01*
Y49D01*
X2606D01*
Y64D01*
X2606Y63D01*
X2605Y63D01*
X2604Y62D01*
X2604Y61D01*
X2603Y61D01*
X2603Y61D01*
X2601Y60D01*
X2600Y60D01*
X2600Y60D01*
X2599Y60D01*
X2599Y60D01*
X2598D01*
X2597Y60D01*
X2596Y60D01*
X2595Y60D01*
X2595Y60D01*
X2593Y61D01*
X2592Y62D01*
X2591Y63D01*
X2590Y63D01*
X2590Y63D01*
X2590Y64D01*
X2590Y64D01*
X2589Y64D01*
X2589Y64D01*
X2589Y65D01*
X2588Y66D01*
X2588Y67D01*
X2587Y68D01*
X2587Y70D01*
X2586Y72D01*
X2586Y73D01*
X2586Y74D01*
X2586Y75D01*
Y76D01*
X2586Y76D01*
Y77D01*
Y77D01*
Y77D01*
X2586Y78D01*
X2586Y80D01*
X2586Y81D01*
X2586Y82D01*
X2587Y83D01*
X2587Y84D01*
X2587Y85D01*
X2588Y86D01*
X2588Y87D01*
X2588Y88D01*
X2589Y88D01*
X2589Y89D01*
X2589Y89D01*
X2589Y89D01*
X2589Y89D01*
X2589Y89D01*
X2590Y90D01*
X2591Y91D01*
X2591Y91D01*
X2592Y92D01*
X2593Y92D01*
X2594Y93D01*
X2595Y93D01*
X2596Y93D01*
X2597Y93D01*
X2597Y94D01*
X2597Y94D01*
X2598D01*
X2599Y94D01*
D02*
G37*
G36*
X2420Y49D02*
X2413D01*
X2382Y104D01*
X2388D01*
X2420Y49D01*
D02*
G37*
G36*
X2028Y94D02*
X2029Y93D01*
X2030Y93D01*
X2031Y93D01*
X2032Y92D01*
X2033Y92D01*
X2033Y91D01*
X2034Y91D01*
X2034Y90D01*
X2035Y90D01*
X2035Y89D01*
X2036Y89D01*
X2036Y88D01*
X2036Y88D01*
Y93D01*
X2045D01*
Y49D01*
X2035D01*
Y64D01*
X2035Y63D01*
X2034Y63D01*
X2034Y62D01*
X2033Y61D01*
X2033Y61D01*
X2032Y61D01*
X2031Y60D01*
X2029Y60D01*
X2029Y60D01*
X2028Y60D01*
X2028Y60D01*
X2028D01*
X2027Y60D01*
X2026Y60D01*
X2025Y60D01*
X2024Y60D01*
X2022Y61D01*
X2021Y62D01*
X2020Y63D01*
X2020Y63D01*
X2019Y63D01*
X2019Y64D01*
X2019Y64D01*
X2019Y64D01*
X2019Y64D01*
X2018Y65D01*
X2018Y66D01*
X2017Y67D01*
X2017Y68D01*
X2016Y70D01*
X2016Y72D01*
X2015Y73D01*
X2015Y74D01*
X2015Y75D01*
Y76D01*
X2015Y76D01*
Y77D01*
Y77D01*
Y77D01*
X2015Y78D01*
X2015Y80D01*
X2015Y81D01*
X2016Y82D01*
X2016Y83D01*
X2016Y84D01*
X2017Y85D01*
X2017Y86D01*
X2017Y87D01*
X2018Y88D01*
X2018Y88D01*
X2018Y89D01*
X2018Y89D01*
X2018Y89D01*
X2019Y89D01*
X2019Y89D01*
X2019Y90D01*
X2020Y91D01*
X2021Y91D01*
X2021Y92D01*
X2022Y92D01*
X2023Y93D01*
X2024Y93D01*
X2025Y93D01*
X2026Y93D01*
X2026Y94D01*
X2027Y94D01*
X2027D01*
X2028Y94D01*
D02*
G37*
G36*
X3078Y49D02*
X3071D01*
X3040Y104D01*
X3046D01*
X3078Y49D01*
D02*
G37*
G36*
X3042D02*
X3036D01*
X3004Y104D01*
X3011D01*
X3042Y49D01*
D02*
G37*
G36*
X2659D02*
X2652D01*
X2621Y104D01*
X2628D01*
X2659Y49D01*
D02*
G37*
G36*
X2521Y62D02*
X2521Y61D01*
X2522Y60D01*
X2522Y59D01*
X2522Y59D01*
X2522Y58D01*
X2522Y58D01*
X2522Y58D01*
X2522Y58D01*
X2523Y57D01*
X2523Y57D01*
X2524Y57D01*
X2524Y57D01*
X2524Y57D01*
X2525Y56D01*
X2525D01*
X2526Y57D01*
X2527Y57D01*
X2527D01*
X2527Y57D01*
X2527D01*
Y49D01*
X2526Y49D01*
X2525Y49D01*
X2524Y49D01*
X2524Y49D01*
X2523Y49D01*
X2522D01*
X2521Y49D01*
X2520Y49D01*
X2519Y49D01*
X2518Y49D01*
X2517Y49D01*
X2517Y50D01*
X2516Y50D01*
X2516Y50D01*
X2516Y50D01*
X2515Y51D01*
X2514Y51D01*
X2514Y52D01*
X2513Y52D01*
X2513Y53D01*
X2513Y53D01*
X2513Y53D01*
X2512Y54D01*
X2512Y55D01*
X2512Y55D01*
X2512Y56D01*
X2512Y57D01*
X2512Y57D01*
Y57D01*
Y57D01*
X2512Y59D01*
Y60D01*
Y61D01*
Y61D01*
Y62D01*
Y62D01*
Y62D01*
Y93D01*
X2521D01*
Y62D01*
D02*
G37*
G36*
X235Y787D02*
X241Y787D01*
X247Y786D01*
X252Y785D01*
X256Y785D01*
X259Y784D01*
X263Y784D01*
X265Y783D01*
X267Y783D01*
X268Y782D01*
X270Y781D01*
X271Y781D01*
Y781D01*
Y761D01*
X270Y760D01*
X268Y759D01*
X266Y758D01*
X263Y758D01*
X260Y757D01*
X257Y756D01*
X249Y755D01*
X241Y754D01*
X237Y754D01*
X234D01*
X232Y754D01*
X228D01*
X221Y754D01*
X214Y754D01*
X209Y755D01*
X204Y755D01*
X200Y756D01*
X196Y756D01*
X193Y757D01*
X191Y758D01*
X189Y758D01*
X187Y759D01*
X185Y759D01*
X184Y760D01*
X184Y760D01*
Y765D01*
Y770D01*
X184Y775D01*
X185Y777D01*
Y779D01*
X185Y780D01*
Y781D01*
X186Y781D01*
X188Y782D01*
X190Y783D01*
X193Y784D01*
X196Y784D01*
X200Y785D01*
X208Y786D01*
X215Y787D01*
X218Y787D01*
X224D01*
X226Y787D01*
X228D01*
X235Y787D01*
D02*
G37*
G36*
X120Y794D02*
X124Y791D01*
X128Y787D01*
X132Y785D01*
X135Y782D01*
X138Y780D01*
X140Y778D01*
X142Y776D01*
X145Y774D01*
X146Y772D01*
X147Y771D01*
X147Y771D01*
X143Y767D01*
X140Y763D01*
X136Y759D01*
X133Y757D01*
X131Y754D01*
X129Y752D01*
X126Y749D01*
X124Y747D01*
X122Y746D01*
X122Y746D01*
X123Y742D01*
Y735D01*
Y732D01*
X122Y730D01*
X122Y728D01*
Y727D01*
Y727D01*
X120Y721D01*
X117Y716D01*
X114Y713D01*
X111Y709D01*
X108Y706D01*
X105Y703D01*
X102Y701D01*
X99Y700D01*
X93Y697D01*
X89Y696D01*
X87D01*
X85Y696D01*
X75D01*
X73Y697D01*
X77Y702D01*
X80Y705D01*
X83Y709D01*
X86Y711D01*
X89Y714D01*
X91Y716D01*
X93Y718D01*
X95Y720D01*
X97Y721D01*
X97Y722D01*
X67Y752D01*
X42Y728D01*
X42D01*
X41Y736D01*
Y738D01*
X41Y741D01*
X42Y744D01*
X42Y746D01*
Y748D01*
X42Y748D01*
Y749D01*
X45Y754D01*
X48Y758D01*
X50Y762D01*
X54Y765D01*
X57Y768D01*
X60Y771D01*
X63Y773D01*
X66Y774D01*
X72Y776D01*
X77Y777D01*
X79Y778D01*
X81D01*
X85Y777D01*
X89D01*
X90Y777D01*
X92D01*
X95Y781D01*
X99Y784D01*
X101Y787D01*
X103Y789D01*
X107Y793D01*
X110Y795D01*
X111Y797D01*
X112Y798D01*
X113Y798D01*
X114D01*
X120Y794D01*
D02*
G37*
G36*
X240Y1029D02*
X247Y1028D01*
X253Y1027D01*
X259Y1025D01*
X264Y1024D01*
X268Y1023D01*
X270Y1022D01*
X271Y1022D01*
X271Y1021D01*
X272D01*
X279Y1018D01*
X285Y1014D01*
X292Y1010D01*
X298Y1006D01*
X303Y1002D01*
X308Y997D01*
X317Y986D01*
X324Y976D01*
X331Y965D01*
X336Y954D01*
X340Y943D01*
X343Y933D01*
X346Y924D01*
X347Y914D01*
X349Y907D01*
X349Y900D01*
Y898D01*
X350Y896D01*
Y894D01*
Y892D01*
Y892D01*
Y891D01*
X349Y878D01*
X349Y864D01*
X348Y850D01*
X347Y838D01*
X346Y832D01*
X345Y826D01*
X345Y821D01*
X345Y817D01*
X344Y814D01*
Y811D01*
X344Y809D01*
Y809D01*
X343Y808D01*
X342Y807D01*
X341Y806D01*
X339Y804D01*
X333Y799D01*
X327Y795D01*
X321Y790D01*
X315Y786D01*
X313Y785D01*
X312Y783D01*
X311Y783D01*
X310Y782D01*
X310Y781D01*
X309Y780D01*
X307Y779D01*
X305Y778D01*
X302Y777D01*
X299Y776D01*
X293Y775D01*
X286Y773D01*
X284Y773D01*
X281Y773D01*
X279D01*
X277Y772D01*
X276D01*
Y785D01*
X274Y786D01*
X273Y787D01*
X270Y788D01*
X267Y789D01*
X263Y789D01*
X259Y790D01*
X251Y791D01*
X242Y792D01*
X238Y792D01*
X235Y793D01*
X232D01*
X230Y793D01*
X228D01*
X218Y793D01*
X208Y792D01*
X200Y791D01*
X193Y789D01*
X187Y788D01*
X184Y787D01*
X183Y787D01*
X181Y786D01*
X179Y786D01*
X179Y785D01*
X179D01*
Y774D01*
X178Y772D01*
X168Y773D01*
X164Y774D01*
X160Y775D01*
X157Y775D01*
X154Y776D01*
X153Y776D01*
X152D01*
X114Y806D01*
X113Y806D01*
X113Y806D01*
X112Y808D01*
X112Y809D01*
X111Y813D01*
X110Y818D01*
X110Y824D01*
X109Y830D01*
X108Y838D01*
X108Y845D01*
X107Y852D01*
Y859D01*
X107Y866D01*
X106Y871D01*
Y877D01*
X106Y881D01*
Y882D01*
Y883D01*
Y883D01*
Y884D01*
Y896D01*
X106Y905D01*
X107Y913D01*
X108Y922D01*
X110Y929D01*
X112Y937D01*
X114Y943D01*
X116Y950D01*
X118Y956D01*
X120Y961D01*
X122Y966D01*
X124Y970D01*
X126Y973D01*
X128Y976D01*
X128Y978D01*
X129Y979D01*
X130Y980D01*
X138Y988D01*
X145Y996D01*
X153Y1003D01*
X161Y1008D01*
X169Y1013D01*
X177Y1017D01*
X184Y1020D01*
X191Y1023D01*
X197Y1025D01*
X203Y1026D01*
X208Y1027D01*
X213Y1028D01*
X216Y1029D01*
X219Y1029D01*
X234D01*
X240Y1029D01*
D02*
G37*
G36*
X89Y1082D02*
X91Y1081D01*
X92D01*
X97Y1079D01*
X102Y1076D01*
X106Y1073D01*
X110Y1070D01*
X113Y1067D01*
X115Y1064D01*
X117Y1061D01*
X119Y1058D01*
X121Y1052D01*
X122Y1047D01*
Y1045D01*
X123Y1044D01*
Y1043D01*
Y1043D01*
Y1036D01*
X122Y1031D01*
X126Y1027D01*
X130Y1024D01*
X133Y1021D01*
X136Y1018D01*
X138Y1015D01*
X140Y1013D01*
X143Y1011D01*
X145Y1009D01*
X146Y1008D01*
X146Y1007D01*
Y1006D01*
X142Y1002D01*
X140Y999D01*
X137Y997D01*
X136Y995D01*
X135Y994D01*
X134Y994D01*
X134Y994D01*
X119Y974D01*
X114Y978D01*
X110Y982D01*
X106Y986D01*
X103Y989D01*
X101Y991D01*
X99Y994D01*
X95Y997D01*
X93Y999D01*
X92Y1000D01*
X92Y1000D01*
X90D01*
X87Y1000D01*
X84Y1000D01*
X80D01*
X77Y1000D01*
X75Y1000D01*
X73D01*
X68Y1003D01*
X63Y1005D01*
X58Y1008D01*
X55Y1011D01*
X52Y1014D01*
X49Y1017D01*
X47Y1021D01*
X45Y1024D01*
X42Y1030D01*
X41Y1035D01*
Y1036D01*
X41Y1038D01*
Y1039D01*
Y1039D01*
Y1044D01*
X42Y1050D01*
X42D01*
X49Y1044D01*
X54Y1039D01*
X59Y1035D01*
X62Y1031D01*
X65Y1029D01*
X66Y1028D01*
X67Y1027D01*
X67Y1027D01*
X97Y1055D01*
X93Y1059D01*
X89Y1063D01*
X86Y1066D01*
X83Y1069D01*
X81Y1072D01*
X79Y1074D01*
X76Y1076D01*
X74Y1078D01*
X73Y1079D01*
X73Y1080D01*
X73Y1081D01*
X74Y1082D01*
X75Y1082D01*
X86D01*
X89Y1082D01*
D02*
G37*
G36*
X382D02*
X382Y1081D01*
X382Y1081D01*
Y1080D01*
X359Y1055D01*
X364Y1050D01*
X368Y1046D01*
X372Y1042D01*
X375Y1039D01*
X378Y1036D01*
X380Y1033D01*
X382Y1032D01*
X384Y1030D01*
X386Y1028D01*
X388Y1027D01*
X388Y1027D01*
X393Y1031D01*
X396Y1034D01*
X399Y1037D01*
X402Y1040D01*
X405Y1043D01*
X407Y1045D01*
X409Y1047D01*
X411Y1049D01*
X412Y1051D01*
X413Y1051D01*
X413Y1051D01*
X414Y1050D01*
X415Y1047D01*
X415Y1045D01*
Y1044D01*
Y1043D01*
Y1040D01*
X415Y1036D01*
Y1035D01*
X414Y1033D01*
Y1033D01*
Y1032D01*
X412Y1027D01*
X409Y1021D01*
X406Y1017D01*
X403Y1013D01*
X400Y1010D01*
X396Y1008D01*
X393Y1006D01*
X390Y1004D01*
X384Y1001D01*
X379Y1000D01*
X378D01*
X376Y1000D01*
X375D01*
X365Y1000D01*
X360Y996D01*
X356Y992D01*
X352Y988D01*
X349Y985D01*
X346Y982D01*
X344Y980D01*
X342Y978D01*
X341Y976D01*
X339Y974D01*
X337Y973D01*
X337Y973D01*
X332Y980D01*
X327Y986D01*
X322Y992D01*
X318Y996D01*
X314Y1001D01*
X311Y1004D01*
X310Y1006D01*
X309Y1006D01*
X313Y1011D01*
X317Y1015D01*
X320Y1018D01*
X323Y1021D01*
X325Y1023D01*
X327Y1025D01*
X330Y1028D01*
X332Y1030D01*
X333Y1031D01*
X334Y1031D01*
X333Y1035D01*
X332Y1037D01*
Y1039D01*
Y1040D01*
X333Y1043D01*
Y1045D01*
Y1046D01*
X333Y1047D01*
Y1049D01*
Y1049D01*
X335Y1055D01*
X338Y1060D01*
X341Y1064D01*
X344Y1068D01*
X347Y1071D01*
X351Y1074D01*
X354Y1076D01*
X357Y1078D01*
X363Y1080D01*
X368Y1082D01*
X370D01*
X371Y1082D01*
X381D01*
X382Y1082D01*
D02*
G37*
G36*
X346Y795D02*
X350Y792D01*
X352Y789D01*
X355Y786D01*
X357Y784D01*
X359Y782D01*
X362Y779D01*
X364Y778D01*
X364Y777D01*
X365Y776D01*
X366Y777D01*
X367Y777D01*
X370Y777D01*
X373Y778D01*
X374D01*
X383Y776D01*
X389Y774D01*
X394Y771D01*
X398Y768D01*
X401Y765D01*
X405Y762D01*
X407Y759D01*
X409Y756D01*
X411Y752D01*
X413Y746D01*
X415Y742D01*
Y740D01*
X415Y738D01*
Y737D01*
Y737D01*
X415Y733D01*
X414Y730D01*
X414Y728D01*
X413Y727D01*
X388Y751D01*
X383Y746D01*
X379Y742D01*
X375Y738D01*
X372Y735D01*
X368Y732D01*
X366Y729D01*
X364Y727D01*
X363Y726D01*
X360Y724D01*
X359Y722D01*
X359Y722D01*
X382Y697D01*
Y696D01*
X379D01*
X377Y695D01*
X375Y695D01*
X374D01*
X370Y695D01*
X367Y696D01*
X365Y696D01*
X363Y697D01*
X361Y697D01*
X360Y698D01*
X359Y698D01*
X359D01*
X354Y701D01*
X350Y703D01*
X347Y707D01*
X343Y709D01*
X341Y713D01*
X339Y716D01*
X335Y722D01*
X334Y727D01*
X333Y732D01*
X332Y734D01*
Y735D01*
Y736D01*
Y736D01*
X333Y739D01*
X333Y742D01*
Y744D01*
Y744D01*
Y745D01*
X308Y771D01*
X308Y772D01*
X310Y773D01*
X311Y775D01*
X314Y777D01*
X319Y781D01*
X326Y786D01*
X332Y791D01*
X337Y795D01*
X339Y797D01*
X341Y798D01*
X342Y799D01*
X342Y799D01*
X346Y795D01*
D02*
G37*
G36*
X3137Y94D02*
X3138Y93D01*
X3139Y93D01*
X3140Y93D01*
X3141Y92D01*
X3141Y92D01*
X3142Y91D01*
X3142Y91D01*
X3143Y90D01*
X3143Y90D01*
X3144Y89D01*
X3144Y89D01*
X3144Y88D01*
X3144Y88D01*
Y93D01*
X3153D01*
Y49D01*
X3144D01*
Y64D01*
X3143Y63D01*
X3143Y63D01*
X3142Y62D01*
X3142Y61D01*
X3141Y61D01*
X3140Y61D01*
X3139Y60D01*
X3138Y60D01*
X3137Y60D01*
X3137Y60D01*
X3137Y60D01*
X3136D01*
X3135Y60D01*
X3134Y60D01*
X3133Y60D01*
X3132Y60D01*
X3131Y61D01*
X3130Y62D01*
X3129Y63D01*
X3128Y63D01*
X3128Y63D01*
X3128Y64D01*
X3127Y64D01*
X3127Y64D01*
X3127Y64D01*
X3127Y65D01*
X3126Y66D01*
X3126Y67D01*
X3125Y68D01*
X3125Y70D01*
X3124Y72D01*
X3124Y73D01*
X3124Y74D01*
X3124Y75D01*
Y76D01*
X3124Y76D01*
Y77D01*
Y77D01*
Y77D01*
X3124Y78D01*
X3124Y80D01*
X3124Y81D01*
X3124Y82D01*
X3125Y83D01*
X3125Y84D01*
X3125Y85D01*
X3125Y86D01*
X3126Y87D01*
X3126Y88D01*
X3126Y88D01*
X3127Y89D01*
X3127Y89D01*
X3127Y89D01*
X3127Y89D01*
X3127Y89D01*
X3128Y90D01*
X3128Y91D01*
X3129Y91D01*
X3130Y92D01*
X3131Y92D01*
X3131Y93D01*
X3133Y93D01*
X3134Y93D01*
X3135Y93D01*
X3135Y94D01*
X3135Y94D01*
X3136D01*
X3137Y94D01*
D02*
G37*
G36*
X2088Y94D02*
X2089Y93D01*
X2090Y93D01*
X2090Y93D01*
X2091Y92D01*
X2092Y92D01*
X2093Y90D01*
X2093Y89D01*
X2094Y88D01*
X2094Y88D01*
X2094Y87D01*
X2094Y87D01*
X2094Y87D01*
Y93D01*
X2103D01*
Y60D01*
X2094D01*
Y74D01*
X2094Y75D01*
X2094Y76D01*
X2093Y77D01*
X2093Y78D01*
X2093Y79D01*
X2093Y79D01*
X2093Y80D01*
X2093Y80D01*
X2092Y81D01*
X2092Y81D01*
X2091Y82D01*
X2091Y82D01*
X2091Y83D01*
X2090Y83D01*
X2090Y83D01*
X2090Y83D01*
X2089Y83D01*
X2089Y84D01*
X2088Y84D01*
X2087Y84D01*
X2086Y84D01*
X2086Y84D01*
X2085D01*
Y94D01*
X2086Y94D01*
X2087Y94D01*
X2087D01*
X2088Y94D01*
D02*
G37*
G36*
X1944Y94D02*
X1945Y93D01*
X1946Y93D01*
X1947Y93D01*
X1947Y93D01*
X1948Y93D01*
X1948Y92D01*
X1948Y92D01*
X1949Y92D01*
X1950Y91D01*
X1950Y90D01*
X1951Y90D01*
X1952Y89D01*
X1952Y88D01*
X1952Y88D01*
X1952Y88D01*
X1952Y87D01*
Y93D01*
X1961D01*
Y60D01*
X1952D01*
Y79D01*
X1952Y80D01*
X1952Y81D01*
X1951Y82D01*
X1951Y83D01*
X1951Y84D01*
X1950Y84D01*
X1950Y85D01*
X1949Y85D01*
X1949Y85D01*
X1948Y86D01*
X1947Y86D01*
X1947Y86D01*
X1947Y86D01*
X1947D01*
X1946Y86D01*
X1946Y86D01*
X1945Y86D01*
X1945Y86D01*
X1945Y85D01*
X1944Y85D01*
X1944Y85D01*
X1944Y85D01*
X1944Y85D01*
X1943Y84D01*
X1943Y84D01*
X1943Y83D01*
X1943Y83D01*
Y83D01*
X1943Y83D01*
X1943Y82D01*
X1943Y81D01*
X1943Y80D01*
Y80D01*
Y79D01*
Y79D01*
Y79D01*
Y79D01*
Y60D01*
X1933D01*
Y81D01*
Y83D01*
X1933Y84D01*
X1933Y85D01*
X1933Y86D01*
X1934Y87D01*
X1934Y88D01*
X1934Y88D01*
X1934Y89D01*
X1935Y89D01*
X1935Y90D01*
X1935Y90D01*
X1935Y91D01*
X1936Y91D01*
X1936Y91D01*
X1936Y91D01*
X1937Y92D01*
X1938Y92D01*
X1940Y93D01*
X1941Y93D01*
X1942Y93D01*
X1942Y94D01*
X1943D01*
X1943Y94D01*
X1943D01*
X1944Y94D01*
D02*
G37*
G36*
X1925Y60D02*
X1915D01*
Y93D01*
X1925D01*
Y60D01*
D02*
G37*
G36*
X2704D02*
X2694D01*
Y93D01*
X2704D01*
Y60D01*
D02*
G37*
G36*
X2565Y94D02*
X2566Y93D01*
X2566Y93D01*
X2567Y93D01*
X2568Y92D01*
X2568Y92D01*
X2569Y90D01*
X2570Y89D01*
X2570Y88D01*
X2570Y88D01*
X2571Y87D01*
X2571Y87D01*
X2571Y87D01*
Y93D01*
X2580D01*
Y60D01*
X2570D01*
Y74D01*
X2570Y75D01*
X2570Y76D01*
X2570Y77D01*
X2570Y78D01*
X2570Y79D01*
X2570Y79D01*
X2570Y80D01*
X2569Y80D01*
X2569Y81D01*
X2569Y81D01*
X2568Y82D01*
X2568Y82D01*
X2567Y83D01*
X2567Y83D01*
X2567Y83D01*
X2567Y83D01*
X2566Y83D01*
X2565Y84D01*
X2565Y84D01*
X2564Y84D01*
X2563Y84D01*
X2563Y84D01*
X2562D01*
Y94D01*
X2563Y94D01*
X2563Y94D01*
X2564D01*
X2565Y94D01*
D02*
G37*
G36*
X2262Y78D02*
Y70D01*
X2243D01*
Y60D01*
X2233D01*
Y70D01*
X2226D01*
Y78D01*
X2233D01*
Y105D01*
X2244D01*
X2262Y78D01*
D02*
G37*
G36*
X3109Y93D02*
X3110Y93D01*
X3111Y93D01*
X3111Y93D01*
X3112Y93D01*
X3113Y92D01*
X3114Y92D01*
X3114Y92D01*
X3115Y92D01*
X3115Y91D01*
X3116Y91D01*
X3116Y91D01*
X3116Y91D01*
X3116Y91D01*
X3116Y91D01*
X3117Y90D01*
X3118Y89D01*
X3118Y89D01*
X3118Y88D01*
X3119Y87D01*
X3119Y86D01*
X3120Y85D01*
X3120Y84D01*
X3120Y84D01*
X3120Y83D01*
Y83D01*
Y83D01*
Y83D01*
X3120Y82D01*
X3120Y81D01*
X3119Y80D01*
X3119Y79D01*
X3118Y78D01*
X3118Y77D01*
X3117Y76D01*
X3117Y76D01*
X3117Y76D01*
X3116Y75D01*
X3115Y75D01*
X3115Y74D01*
X3114Y74D01*
X3111Y73D01*
X3109Y73D01*
X3108Y73D01*
X3107Y72D01*
X3106Y72D01*
X3105Y72D01*
X3105Y72D01*
X3104Y72D01*
X3104Y72D01*
X3104D01*
X3103Y72D01*
X3103Y72D01*
X3102Y71D01*
X3102Y71D01*
X3101Y71D01*
X3101Y70D01*
X3100Y70D01*
X3100Y70D01*
X3100Y69D01*
Y69D01*
X3100Y69D01*
X3100Y68D01*
X3101Y68D01*
X3101Y68D01*
X3101Y67D01*
X3102Y67D01*
X3102Y67D01*
X3102Y67D01*
X3103Y67D01*
X3103Y66D01*
X3104Y66D01*
X3105Y66D01*
X3105Y66D01*
X3105Y66D01*
X3106D01*
X3107Y66D01*
X3108Y66D01*
X3109Y67D01*
X3110Y67D01*
X3110Y67D01*
X3111Y68D01*
X3111Y68D01*
X3112Y68D01*
X3112Y69D01*
X3113Y69D01*
X3113Y70D01*
X3113Y70D01*
X3113Y70D01*
X3113Y70D01*
Y70D01*
X3121Y69D01*
X3121Y68D01*
X3120Y66D01*
X3119Y65D01*
X3118Y64D01*
X3117Y63D01*
X3115Y62D01*
X3114Y61D01*
X3113Y61D01*
X3112Y60D01*
X3110Y60D01*
X3109Y60D01*
X3108Y60D01*
X3108Y60D01*
X3107Y60D01*
X3106D01*
X3105Y60D01*
X3104Y60D01*
X3103Y60D01*
X3102Y60D01*
X3101Y60D01*
X3100Y61D01*
X3099Y61D01*
X3098Y61D01*
X3098Y62D01*
X3097Y62D01*
X3097Y62D01*
X3096Y62D01*
X3096Y63D01*
X3096Y63D01*
X3096Y63D01*
X3096D01*
X3095Y63D01*
X3094Y64D01*
X3094Y65D01*
X3093Y65D01*
X3093Y67D01*
X3092Y68D01*
X3092Y69D01*
X3092Y70D01*
X3092Y70D01*
X3092Y70D01*
Y71D01*
Y71D01*
Y71D01*
X3092Y72D01*
X3092Y73D01*
X3092Y74D01*
X3093Y75D01*
X3093Y76D01*
X3093Y76D01*
X3093Y77D01*
X3093Y77D01*
X3094Y77D01*
X3095Y78D01*
X3095Y79D01*
X3096Y79D01*
X3097Y79D01*
X3097Y80D01*
X3098Y80D01*
X3098Y80D01*
X3099Y80D01*
X3100Y81D01*
X3101Y81D01*
X3103Y81D01*
X3104Y81D01*
X3105Y81D01*
X3105Y81D01*
X3105Y82D01*
X3106Y82D01*
X3106D01*
X3107Y82D01*
X3108Y82D01*
X3109Y82D01*
X3110Y82D01*
X3110Y82D01*
X3110Y83D01*
X3110Y83D01*
X3111D01*
X3111Y83D01*
X3111Y83D01*
X3111Y84D01*
X3111Y84D01*
X3111Y84D01*
Y85D01*
Y85D01*
X3111Y85D01*
X3111Y86D01*
X3111Y86D01*
X3111Y86D01*
X3110Y87D01*
X3109Y87D01*
X3108Y87D01*
X3107Y88D01*
X3107Y88D01*
X3107D01*
X3106Y88D01*
X3105Y87D01*
X3104Y87D01*
X3103Y87D01*
X3103Y87D01*
X3102Y86D01*
X3101Y85D01*
X3101Y85D01*
X3100Y84D01*
X3100Y84D01*
X3100Y83D01*
X3100Y83D01*
Y83D01*
X3093Y85D01*
X3094Y87D01*
X3095Y88D01*
X3095Y89D01*
X3096Y90D01*
X3097Y91D01*
X3098Y91D01*
X3098Y91D01*
X3098Y92D01*
X3098D01*
X3099Y92D01*
X3101Y93D01*
X3102Y93D01*
X3103Y93D01*
X3104Y93D01*
X3105Y94D01*
X3105Y94D01*
X3107D01*
X3109Y93D01*
D02*
G37*
G36*
X2120Y89D02*
X2121Y90D01*
X2121Y91D01*
X2122Y91D01*
X2123Y92D01*
X2123Y92D01*
X2124Y93D01*
X2125Y93D01*
X2126Y93D01*
X2127Y93D01*
X2127Y94D01*
X2128Y94D01*
X2128D01*
X2129Y94D01*
X2130Y93D01*
X2131Y93D01*
X2132Y93D01*
X2134Y92D01*
X2135Y91D01*
X2136Y91D01*
X2136Y90D01*
X2136Y90D01*
X2137Y90D01*
X2137Y89D01*
X2137Y89D01*
X2137Y89D01*
X2137Y89D01*
X2138Y88D01*
X2138Y87D01*
X2139Y85D01*
X2140Y83D01*
X2140Y81D01*
X2140Y80D01*
X2140Y79D01*
X2140Y78D01*
Y78D01*
X2140Y77D01*
Y77D01*
Y76D01*
Y76D01*
X2140Y75D01*
X2140Y73D01*
X2140Y72D01*
X2140Y71D01*
X2140Y70D01*
X2139Y69D01*
X2139Y68D01*
X2139Y67D01*
X2139Y66D01*
X2138Y66D01*
X2138Y65D01*
X2138Y65D01*
X2138Y65D01*
X2138Y64D01*
X2137Y64D01*
Y64D01*
X2137Y63D01*
X2136Y63D01*
X2135Y62D01*
X2135Y62D01*
X2134Y61D01*
X2133Y61D01*
X2132Y60D01*
X2131Y60D01*
X2130Y60D01*
X2130Y60D01*
X2129Y60D01*
X2129D01*
X2128Y60D01*
X2127Y60D01*
X2126Y60D01*
X2125Y61D01*
X2123Y61D01*
X2122Y63D01*
X2122Y63D01*
X2121Y64D01*
X2121Y64D01*
X2120Y65D01*
X2120Y65D01*
X2120Y65D01*
X2120Y65D01*
X2120Y65D01*
Y60D01*
X2111D01*
Y104D01*
X2120D01*
Y89D01*
D02*
G37*
G36*
X2068Y94D02*
X2070Y93D01*
X2071Y93D01*
X2073Y92D01*
X2074Y92D01*
X2074Y92D01*
X2075Y92D01*
X2075Y91D01*
X2075Y91D01*
X2075D01*
X2076Y90D01*
X2077Y89D01*
X2078Y88D01*
X2079Y88D01*
X2079Y87D01*
X2080Y86D01*
X2080Y86D01*
X2080Y86D01*
X2080Y86D01*
Y85D01*
X2081Y84D01*
X2081Y83D01*
X2081Y81D01*
X2082Y80D01*
X2082Y79D01*
Y78D01*
X2082Y78D01*
Y77D01*
Y77D01*
Y77D01*
Y77D01*
X2082Y75D01*
X2082Y74D01*
X2081Y73D01*
X2081Y72D01*
X2081Y70D01*
X2081Y70D01*
X2080Y69D01*
X2080Y68D01*
X2079Y67D01*
X2079Y66D01*
X2079Y66D01*
X2078Y65D01*
X2078Y65D01*
X2078Y65D01*
X2078Y64D01*
X2078Y64D01*
X2077Y64D01*
X2076Y63D01*
X2075Y62D01*
X2074Y62D01*
X2073Y61D01*
X2072Y61D01*
X2071Y60D01*
X2070Y60D01*
X2069Y60D01*
X2068Y60D01*
X2068Y60D01*
X2067Y60D01*
X2067D01*
X2065Y60D01*
X2064Y60D01*
X2063Y60D01*
X2062Y60D01*
X2061Y61D01*
X2060Y61D01*
X2059Y62D01*
X2058Y62D01*
X2057Y63D01*
X2057Y63D01*
X2056Y63D01*
X2056Y64D01*
X2056Y64D01*
X2055Y64D01*
X2055Y64D01*
X2055Y64D01*
X2054Y65D01*
X2054Y66D01*
X2053Y67D01*
X2053Y68D01*
X2052Y69D01*
X2052Y70D01*
X2051Y72D01*
X2051Y73D01*
X2051Y74D01*
X2051Y75D01*
X2051Y75D01*
X2051Y76D01*
Y76D01*
Y76D01*
Y77D01*
X2051Y78D01*
X2051Y79D01*
X2051Y80D01*
X2051Y82D01*
X2052Y83D01*
X2052Y84D01*
X2052Y85D01*
X2053Y85D01*
X2053Y86D01*
X2054Y87D01*
X2054Y87D01*
X2054Y88D01*
X2055Y88D01*
X2055Y88D01*
X2055Y89D01*
X2055Y89D01*
X2056Y90D01*
X2057Y90D01*
X2058Y91D01*
X2059Y92D01*
X2059Y92D01*
X2060Y92D01*
X2061Y93D01*
X2062Y93D01*
X2063Y93D01*
X2064Y93D01*
X2065Y93D01*
X2065Y94D01*
X2066Y94D01*
X2067D01*
X2068Y94D01*
D02*
G37*
G36*
X1865Y93D02*
X1866Y93D01*
X1867Y93D01*
X1868Y93D01*
X1869Y93D01*
X1869Y92D01*
X1870Y92D01*
X1871Y92D01*
X1871Y92D01*
X1872Y91D01*
X1872Y91D01*
X1872Y91D01*
X1872Y91D01*
X1873Y91D01*
X1873Y91D01*
X1873Y90D01*
X1874Y89D01*
X1874Y89D01*
X1875Y88D01*
X1875Y87D01*
X1876Y86D01*
X1876Y85D01*
X1876Y84D01*
X1876Y84D01*
X1876Y83D01*
Y83D01*
Y83D01*
Y83D01*
X1876Y82D01*
X1876Y81D01*
X1876Y80D01*
X1875Y79D01*
X1875Y78D01*
X1874Y77D01*
X1874Y76D01*
X1873Y76D01*
X1873Y76D01*
X1872Y75D01*
X1872Y75D01*
X1871Y74D01*
X1870Y74D01*
X1868Y73D01*
X1866Y73D01*
X1864Y73D01*
X1863Y72D01*
X1863Y72D01*
X1862Y72D01*
X1861Y72D01*
X1861Y72D01*
X1860Y72D01*
X1860D01*
X1860Y72D01*
X1859Y72D01*
X1859Y71D01*
X1858Y71D01*
X1857Y71D01*
X1857Y70D01*
X1857Y70D01*
X1857Y70D01*
X1857Y69D01*
Y69D01*
X1857Y69D01*
X1857Y68D01*
X1857Y68D01*
X1857Y68D01*
X1858Y67D01*
X1858Y67D01*
X1858Y67D01*
X1858Y67D01*
X1859Y67D01*
X1859Y66D01*
X1860Y66D01*
X1861Y66D01*
X1861Y66D01*
X1862Y66D01*
X1862D01*
X1863Y66D01*
X1864Y66D01*
X1865Y67D01*
X1866Y67D01*
X1867Y67D01*
X1867Y68D01*
X1868Y68D01*
X1868Y68D01*
X1869Y69D01*
X1869Y69D01*
X1869Y70D01*
X1869Y70D01*
X1869Y70D01*
X1869Y70D01*
Y70D01*
X1877Y69D01*
X1877Y68D01*
X1876Y66D01*
X1875Y65D01*
X1874Y64D01*
X1873Y63D01*
X1872Y62D01*
X1870Y61D01*
X1869Y61D01*
X1868Y60D01*
X1867Y60D01*
X1866Y60D01*
X1865Y60D01*
X1864Y60D01*
X1863Y60D01*
X1863D01*
X1861Y60D01*
X1860Y60D01*
X1859Y60D01*
X1858Y60D01*
X1857Y60D01*
X1856Y61D01*
X1855Y61D01*
X1855Y61D01*
X1854Y62D01*
X1854Y62D01*
X1853Y62D01*
X1853Y62D01*
X1852Y63D01*
X1852Y63D01*
X1852Y63D01*
X1852D01*
X1851Y63D01*
X1851Y64D01*
X1850Y65D01*
X1850Y65D01*
X1849Y67D01*
X1849Y68D01*
X1848Y69D01*
X1848Y70D01*
X1848Y70D01*
X1848Y70D01*
Y71D01*
Y71D01*
Y71D01*
X1848Y72D01*
X1848Y73D01*
X1849Y74D01*
X1849Y75D01*
X1849Y76D01*
X1849Y76D01*
X1850Y77D01*
X1850Y77D01*
X1850Y77D01*
X1851Y78D01*
X1852Y79D01*
X1852Y79D01*
X1853Y79D01*
X1854Y80D01*
X1854Y80D01*
X1854Y80D01*
X1855Y80D01*
X1856Y81D01*
X1858Y81D01*
X1859Y81D01*
X1860Y81D01*
X1861Y81D01*
X1861Y81D01*
X1862Y82D01*
X1862Y82D01*
X1862D01*
X1863Y82D01*
X1864Y82D01*
X1865Y82D01*
X1866Y82D01*
X1866Y82D01*
X1867Y83D01*
X1867Y83D01*
X1867D01*
X1867Y83D01*
X1867Y83D01*
X1868Y84D01*
X1868Y84D01*
X1868Y84D01*
Y85D01*
Y85D01*
X1868Y85D01*
X1867Y86D01*
X1867Y86D01*
X1867Y86D01*
X1866Y87D01*
X1865Y87D01*
X1864Y87D01*
X1864Y88D01*
X1863Y88D01*
X1863D01*
X1862Y88D01*
X1861Y87D01*
X1860Y87D01*
X1860Y87D01*
X1859Y87D01*
X1859Y86D01*
X1858Y85D01*
X1857Y85D01*
X1857Y84D01*
X1857Y84D01*
X1857Y83D01*
X1857Y83D01*
Y83D01*
X1849Y85D01*
X1850Y87D01*
X1851Y88D01*
X1852Y89D01*
X1852Y90D01*
X1853Y91D01*
X1854Y91D01*
X1854Y91D01*
X1854Y92D01*
X1854D01*
X1856Y92D01*
X1857Y93D01*
X1858Y93D01*
X1860Y93D01*
X1861Y93D01*
X1861Y94D01*
X1862Y94D01*
X1864D01*
X1865Y93D01*
D02*
G37*
G36*
X2803Y89D02*
X2804Y90D01*
X2804Y91D01*
X2805Y91D01*
X2805Y92D01*
X2806Y92D01*
X2807Y93D01*
X2808Y93D01*
X2809Y93D01*
X2810Y93D01*
X2810Y94D01*
X2811Y94D01*
X2811D01*
X2812Y94D01*
X2813Y93D01*
X2814Y93D01*
X2815Y93D01*
X2816Y92D01*
X2818Y91D01*
X2818Y91D01*
X2819Y90D01*
X2819Y90D01*
X2819Y90D01*
X2820Y89D01*
X2820Y89D01*
X2820Y89D01*
X2820Y89D01*
X2821Y88D01*
X2821Y87D01*
X2822Y85D01*
X2822Y83D01*
X2823Y81D01*
X2823Y80D01*
X2823Y79D01*
X2823Y78D01*
Y78D01*
X2823Y77D01*
Y77D01*
Y76D01*
Y76D01*
X2823Y75D01*
X2823Y73D01*
X2823Y72D01*
X2823Y71D01*
X2822Y70D01*
X2822Y69D01*
X2822Y68D01*
X2822Y67D01*
X2821Y66D01*
X2821Y66D01*
X2821Y65D01*
X2821Y65D01*
X2820Y65D01*
X2820Y64D01*
X2820Y64D01*
Y64D01*
X2819Y63D01*
X2819Y63D01*
X2818Y62D01*
X2817Y62D01*
X2817Y61D01*
X2816Y61D01*
X2815Y60D01*
X2813Y60D01*
X2813Y60D01*
X2812Y60D01*
X2812Y60D01*
X2812D01*
X2811Y60D01*
X2810Y60D01*
X2809Y60D01*
X2808Y61D01*
X2806Y61D01*
X2805Y63D01*
X2804Y63D01*
X2804Y64D01*
X2804Y64D01*
X2803Y65D01*
X2803Y65D01*
X2803Y65D01*
X2803Y65D01*
X2803Y65D01*
Y60D01*
X2794D01*
Y104D01*
X2803D01*
Y89D01*
D02*
G37*
G36*
X2674Y94D02*
X2676Y93D01*
X2677Y93D01*
X2679Y92D01*
X2680Y92D01*
X2680Y92D01*
X2681Y92D01*
X2681Y91D01*
X2681Y91D01*
X2681D01*
X2682Y90D01*
X2683Y89D01*
X2684Y88D01*
X2685Y88D01*
X2685Y87D01*
X2686Y86D01*
X2686Y86D01*
X2686Y86D01*
X2686Y86D01*
Y85D01*
X2687Y84D01*
X2687Y83D01*
X2687Y81D01*
X2688Y80D01*
X2688Y79D01*
Y78D01*
X2688Y78D01*
Y77D01*
Y77D01*
Y77D01*
Y77D01*
X2688Y75D01*
X2688Y74D01*
X2687Y73D01*
X2687Y72D01*
X2687Y70D01*
X2687Y70D01*
X2686Y69D01*
X2686Y68D01*
X2685Y67D01*
X2685Y66D01*
X2685Y66D01*
X2684Y65D01*
X2684Y65D01*
X2684Y65D01*
X2684Y64D01*
X2684Y64D01*
X2683Y64D01*
X2682Y63D01*
X2681Y62D01*
X2680Y62D01*
X2679Y61D01*
X2678Y61D01*
X2677Y60D01*
X2676Y60D01*
X2675Y60D01*
X2674Y60D01*
X2674Y60D01*
X2673Y60D01*
X2673D01*
X2671Y60D01*
X2670Y60D01*
X2669Y60D01*
X2668Y60D01*
X2667Y61D01*
X2666Y61D01*
X2665Y62D01*
X2664Y62D01*
X2663Y63D01*
X2663Y63D01*
X2662Y63D01*
X2662Y64D01*
X2662Y64D01*
X2661Y64D01*
X2661Y64D01*
X2661Y64D01*
X2660Y65D01*
X2660Y66D01*
X2659Y67D01*
X2659Y68D01*
X2658Y69D01*
X2658Y70D01*
X2657Y72D01*
X2657Y73D01*
X2657Y74D01*
X2657Y75D01*
X2657Y75D01*
X2657Y76D01*
Y76D01*
Y76D01*
Y77D01*
X2657Y78D01*
X2657Y79D01*
X2657Y80D01*
X2657Y82D01*
X2658Y83D01*
X2658Y84D01*
X2658Y85D01*
X2659Y85D01*
X2659Y86D01*
X2660Y87D01*
X2660Y87D01*
X2660Y88D01*
X2661Y88D01*
X2661Y88D01*
X2661Y89D01*
X2661Y89D01*
X2662Y90D01*
X2663Y90D01*
X2664Y91D01*
X2665Y92D01*
X2665Y92D01*
X2666Y92D01*
X2667Y93D01*
X2668Y93D01*
X2669Y93D01*
X2670Y93D01*
X2671Y93D01*
X2671Y94D01*
X2672Y94D01*
X2673D01*
X2674Y94D01*
D02*
G37*
G36*
X2545D02*
X2547Y93D01*
X2548Y93D01*
X2549Y92D01*
X2550Y92D01*
X2551Y92D01*
X2551Y92D01*
X2551Y91D01*
X2552Y91D01*
X2552D01*
X2553Y90D01*
X2554Y89D01*
X2555Y88D01*
X2555Y88D01*
X2556Y87D01*
X2556Y86D01*
X2557Y86D01*
X2557Y86D01*
X2557Y86D01*
Y85D01*
X2557Y84D01*
X2558Y83D01*
X2558Y81D01*
X2558Y80D01*
X2559Y79D01*
Y78D01*
X2559Y78D01*
Y77D01*
Y77D01*
Y77D01*
Y77D01*
X2559Y75D01*
X2558Y74D01*
X2558Y73D01*
X2558Y72D01*
X2558Y70D01*
X2557Y70D01*
X2557Y69D01*
X2557Y68D01*
X2556Y67D01*
X2556Y66D01*
X2555Y66D01*
X2555Y65D01*
X2555Y65D01*
X2555Y65D01*
X2555Y64D01*
X2554Y64D01*
X2554Y64D01*
X2553Y63D01*
X2552Y62D01*
X2551Y62D01*
X2550Y61D01*
X2549Y61D01*
X2547Y60D01*
X2547Y60D01*
X2546Y60D01*
X2545Y60D01*
X2545Y60D01*
X2544Y60D01*
X2543D01*
X2542Y60D01*
X2541Y60D01*
X2540Y60D01*
X2538Y60D01*
X2537Y61D01*
X2537Y61D01*
X2536Y62D01*
X2535Y62D01*
X2534Y63D01*
X2534Y63D01*
X2533Y63D01*
X2533Y64D01*
X2532Y64D01*
X2532Y64D01*
X2532Y64D01*
X2532Y64D01*
X2531Y65D01*
X2530Y66D01*
X2530Y67D01*
X2529Y68D01*
X2529Y69D01*
X2529Y70D01*
X2528Y72D01*
X2528Y73D01*
X2528Y74D01*
X2528Y75D01*
X2528Y75D01*
X2527Y76D01*
Y76D01*
Y76D01*
Y77D01*
X2528Y78D01*
X2528Y79D01*
X2528Y80D01*
X2528Y82D01*
X2528Y83D01*
X2529Y84D01*
X2529Y85D01*
X2530Y85D01*
X2530Y86D01*
X2530Y87D01*
X2531Y87D01*
X2531Y88D01*
X2531Y88D01*
X2531Y88D01*
X2532Y89D01*
X2532Y89D01*
X2533Y90D01*
X2533Y90D01*
X2534Y91D01*
X2535Y92D01*
X2536Y92D01*
X2537Y92D01*
X2538Y93D01*
X2539Y93D01*
X2540Y93D01*
X2541Y93D01*
X2541Y93D01*
X2542Y94D01*
X2543Y94D01*
X2543D01*
X2545Y94D01*
D02*
G37*
G36*
X2745Y156D02*
X2747Y156D01*
X2748Y155D01*
X2749Y155D01*
X2750Y155D01*
X2751Y154D01*
X2752Y154D01*
X2753Y153D01*
X2754Y153D01*
X2754Y152D01*
X2755Y152D01*
X2755Y152D01*
X2756Y151D01*
X2756Y151D01*
X2756Y151D01*
X2756Y151D01*
X2757Y150D01*
X2758Y149D01*
X2758Y148D01*
X2759Y146D01*
X2759Y145D01*
X2760Y144D01*
X2760Y142D01*
X2760Y141D01*
X2761Y140D01*
X2761Y139D01*
X2761Y139D01*
X2761Y138D01*
Y138D01*
Y137D01*
Y137D01*
X2761Y135D01*
X2760Y133D01*
X2760Y132D01*
X2760Y130D01*
X2759Y129D01*
X2759Y129D01*
X2759Y128D01*
X2759Y128D01*
X2759Y128D01*
X2759Y128D01*
Y128D01*
X2758Y126D01*
X2757Y125D01*
X2756Y124D01*
X2755Y123D01*
X2754Y123D01*
X2753Y122D01*
X2753Y122D01*
X2753Y122D01*
X2753D01*
X2751Y121D01*
X2750Y121D01*
X2748Y120D01*
X2747Y120D01*
X2746Y120D01*
X2745Y120D01*
X2745Y120D01*
X2744D01*
X2742Y120D01*
X2740Y120D01*
X2738Y121D01*
X2736Y121D01*
X2735Y122D01*
X2733Y123D01*
X2732Y125D01*
X2731Y126D01*
X2730Y127D01*
X2730Y128D01*
X2729Y129D01*
X2729Y130D01*
X2728Y130D01*
X2728Y131D01*
X2728Y131D01*
X2728Y132D01*
X2737Y132D01*
X2737Y131D01*
X2738Y131D01*
X2738Y130D01*
X2739Y129D01*
X2739Y129D01*
X2740Y128D01*
X2740Y128D01*
X2741Y128D01*
X2742Y127D01*
X2743Y127D01*
X2743D01*
X2743Y127D01*
X2743D01*
X2744Y127D01*
X2745Y127D01*
X2746Y127D01*
X2747Y128D01*
X2747Y128D01*
X2748Y128D01*
X2748Y129D01*
X2748Y129D01*
X2749Y130D01*
X2749Y130D01*
X2750Y131D01*
X2750Y132D01*
X2750Y133D01*
X2750Y134D01*
Y134D01*
Y134D01*
Y134D01*
Y135D01*
Y135D01*
Y136D01*
Y136D01*
Y136D01*
X2728D01*
X2728Y138D01*
X2728Y140D01*
X2728Y141D01*
X2728Y143D01*
X2729Y144D01*
X2729Y145D01*
X2730Y146D01*
X2730Y147D01*
X2730Y148D01*
X2731Y149D01*
X2731Y150D01*
X2732Y150D01*
X2732Y151D01*
X2732Y151D01*
X2732Y151D01*
X2732Y151D01*
X2733Y152D01*
X2734Y153D01*
X2735Y153D01*
X2736Y154D01*
X2737Y154D01*
X2738Y155D01*
X2740Y155D01*
X2741Y155D01*
X2742Y156D01*
X2742Y156D01*
X2743Y156D01*
X2743Y156D01*
X2744D01*
X2745Y156D01*
D02*
G37*
G36*
X2474D02*
X2475Y156D01*
X2477Y155D01*
X2478Y155D01*
X2479Y155D01*
X2480Y154D01*
X2481Y154D01*
X2482Y153D01*
X2482Y153D01*
X2483Y152D01*
X2484Y152D01*
X2484Y152D01*
X2484Y151D01*
X2485Y151D01*
X2485Y151D01*
X2485Y151D01*
X2486Y150D01*
X2487Y149D01*
X2487Y148D01*
X2488Y146D01*
X2488Y145D01*
X2489Y144D01*
X2489Y142D01*
X2489Y141D01*
X2489Y140D01*
X2489Y139D01*
X2490Y139D01*
X2490Y138D01*
Y138D01*
Y137D01*
Y137D01*
X2490Y135D01*
X2489Y133D01*
X2489Y132D01*
X2488Y130D01*
X2488Y129D01*
X2488Y129D01*
X2488Y128D01*
X2488Y128D01*
X2487Y128D01*
X2487Y128D01*
Y128D01*
X2486Y126D01*
X2485Y125D01*
X2484Y124D01*
X2483Y123D01*
X2483Y123D01*
X2482Y122D01*
X2481Y122D01*
X2481Y122D01*
X2481D01*
X2480Y121D01*
X2478Y121D01*
X2477Y120D01*
X2475Y120D01*
X2474Y120D01*
X2474Y120D01*
X2473Y120D01*
X2472D01*
X2470Y120D01*
X2468Y120D01*
X2467Y121D01*
X2465Y121D01*
X2463Y122D01*
X2462Y123D01*
X2461Y125D01*
X2460Y126D01*
X2459Y127D01*
X2458Y128D01*
X2458Y129D01*
X2457Y130D01*
X2457Y130D01*
X2457Y131D01*
X2457Y131D01*
X2457Y132D01*
X2466Y132D01*
X2466Y131D01*
X2467Y131D01*
X2467Y130D01*
X2467Y129D01*
X2468Y129D01*
X2468Y128D01*
X2469Y128D01*
X2469Y128D01*
X2470Y127D01*
X2471Y127D01*
X2472D01*
X2472Y127D01*
X2472D01*
X2473Y127D01*
X2474Y127D01*
X2475Y127D01*
X2476Y128D01*
X2476Y128D01*
X2477Y128D01*
X2477Y129D01*
X2477Y129D01*
X2478Y130D01*
X2478Y130D01*
X2478Y131D01*
X2479Y132D01*
X2479Y133D01*
X2479Y134D01*
Y134D01*
Y134D01*
Y134D01*
Y135D01*
Y135D01*
Y136D01*
Y136D01*
Y136D01*
X2456D01*
X2456Y138D01*
X2457Y140D01*
X2457Y141D01*
X2457Y143D01*
X2458Y144D01*
X2458Y145D01*
X2458Y146D01*
X2459Y147D01*
X2459Y148D01*
X2460Y149D01*
X2460Y150D01*
X2460Y150D01*
X2461Y151D01*
X2461Y151D01*
X2461Y151D01*
X2461Y151D01*
X2462Y152D01*
X2463Y153D01*
X2464Y153D01*
X2465Y154D01*
X2466Y154D01*
X2467Y155D01*
X2469Y155D01*
X2470Y155D01*
X2470Y156D01*
X2471Y156D01*
X2472Y156D01*
X2472Y156D01*
X2473D01*
X2474Y156D01*
D02*
G37*
G36*
X2273D02*
X2274Y156D01*
X2275Y155D01*
X2277Y155D01*
X2278Y155D01*
X2279Y154D01*
X2280Y154D01*
X2280Y153D01*
X2281Y153D01*
X2282Y152D01*
X2282Y152D01*
X2283Y152D01*
X2283Y151D01*
X2284Y151D01*
X2284Y151D01*
X2284Y151D01*
X2285Y150D01*
X2285Y149D01*
X2286Y148D01*
X2286Y146D01*
X2287Y145D01*
X2287Y144D01*
X2288Y142D01*
X2288Y141D01*
X2288Y140D01*
X2288Y139D01*
X2288Y139D01*
X2288Y138D01*
Y138D01*
Y137D01*
Y137D01*
X2288Y135D01*
X2288Y133D01*
X2288Y132D01*
X2287Y130D01*
X2287Y129D01*
X2287Y129D01*
X2286Y128D01*
X2286Y128D01*
X2286Y128D01*
X2286Y128D01*
Y128D01*
X2285Y126D01*
X2284Y125D01*
X2283Y124D01*
X2282Y123D01*
X2281Y123D01*
X2281Y122D01*
X2280Y122D01*
X2280Y122D01*
X2280D01*
X2279Y121D01*
X2277Y121D01*
X2276Y120D01*
X2274Y120D01*
X2273Y120D01*
X2273Y120D01*
X2272Y120D01*
X2271D01*
X2269Y120D01*
X2267Y120D01*
X2265Y121D01*
X2264Y121D01*
X2262Y122D01*
X2261Y123D01*
X2260Y125D01*
X2259Y126D01*
X2258Y127D01*
X2257Y128D01*
X2257Y129D01*
X2256Y130D01*
X2256Y130D01*
X2256Y131D01*
X2255Y131D01*
X2255Y132D01*
X2265Y132D01*
X2265Y131D01*
X2265Y131D01*
X2266Y130D01*
X2266Y129D01*
X2267Y129D01*
X2267Y128D01*
X2268Y128D01*
X2268Y128D01*
X2269Y127D01*
X2270Y127D01*
X2270D01*
X2271Y127D01*
X2271D01*
X2272Y127D01*
X2273Y127D01*
X2274Y127D01*
X2274Y128D01*
X2275Y128D01*
X2275Y128D01*
X2276Y129D01*
X2276Y129D01*
X2276Y130D01*
X2277Y130D01*
X2277Y131D01*
X2277Y132D01*
X2278Y133D01*
X2278Y134D01*
Y134D01*
Y134D01*
Y134D01*
Y135D01*
Y135D01*
Y136D01*
Y136D01*
Y136D01*
X2255D01*
X2255Y138D01*
X2255Y140D01*
X2256Y141D01*
X2256Y143D01*
X2256Y144D01*
X2257Y145D01*
X2257Y146D01*
X2258Y147D01*
X2258Y148D01*
X2258Y149D01*
X2259Y150D01*
X2259Y150D01*
X2260Y151D01*
X2260Y151D01*
X2260Y151D01*
X2260Y151D01*
X2261Y152D01*
X2262Y153D01*
X2263Y153D01*
X2264Y154D01*
X2265Y154D01*
X2266Y155D01*
X2268Y155D01*
X2268Y155D01*
X2269Y156D01*
X2270Y156D01*
X2270Y156D01*
X2271Y156D01*
X2272D01*
X2273Y156D01*
D02*
G37*
G36*
X2510D02*
X2511Y156D01*
X2512Y155D01*
X2514Y155D01*
X2515Y155D01*
X2516Y154D01*
X2517Y154D01*
X2518Y153D01*
X2518Y153D01*
X2519Y152D01*
X2520Y152D01*
X2520Y152D01*
X2520Y151D01*
X2521Y151D01*
X2521Y151D01*
X2521Y151D01*
X2522Y150D01*
X2523Y149D01*
X2523Y148D01*
X2524Y146D01*
X2524Y145D01*
X2525Y144D01*
X2525Y142D01*
X2525Y141D01*
X2525Y140D01*
X2526Y140D01*
X2526Y139D01*
X2526Y138D01*
Y138D01*
Y138D01*
Y137D01*
X2526Y136D01*
X2525Y135D01*
X2525Y133D01*
X2525Y132D01*
X2525Y131D01*
X2524Y130D01*
X2524Y129D01*
X2523Y128D01*
X2523Y127D01*
X2523Y126D01*
X2522Y126D01*
X2522Y125D01*
X2522Y125D01*
X2521Y125D01*
X2521Y125D01*
X2521Y124D01*
X2520Y124D01*
X2519Y123D01*
X2518Y122D01*
X2517Y122D01*
X2516Y121D01*
X2515Y121D01*
X2513Y120D01*
X2512Y120D01*
X2512Y120D01*
X2511Y120D01*
X2510Y120D01*
X2510Y120D01*
X2509D01*
X2508Y120D01*
X2507Y120D01*
X2504Y120D01*
X2503Y121D01*
X2503Y121D01*
X2502Y121D01*
X2501Y122D01*
X2500Y122D01*
X2500Y122D01*
X2499Y123D01*
X2499Y123D01*
X2498Y123D01*
X2498Y123D01*
X2498Y123D01*
X2498Y123D01*
X2497Y124D01*
X2497Y125D01*
X2496Y126D01*
X2495Y127D01*
X2495Y128D01*
X2494Y130D01*
X2494Y131D01*
X2493Y132D01*
X2493Y132D01*
X2493Y133D01*
X2493Y133D01*
Y133D01*
Y133D01*
X2503Y134D01*
X2503Y133D01*
X2503Y132D01*
X2504Y131D01*
X2504Y130D01*
X2504Y130D01*
X2505Y129D01*
X2505Y129D01*
X2506Y129D01*
X2507Y128D01*
X2508Y128D01*
X2508D01*
X2508Y128D01*
X2508D01*
X2509Y128D01*
X2510Y128D01*
X2511Y129D01*
X2511Y129D01*
X2512Y129D01*
X2512Y129D01*
X2512Y130D01*
X2512Y130D01*
X2513Y130D01*
X2513Y131D01*
X2513Y131D01*
X2513Y132D01*
X2514Y133D01*
X2514Y135D01*
X2514Y136D01*
Y137D01*
X2514Y137D01*
Y138D01*
Y138D01*
Y138D01*
Y138D01*
X2514Y140D01*
X2514Y141D01*
X2514Y143D01*
X2513Y144D01*
X2513Y145D01*
X2512Y146D01*
X2512Y146D01*
X2511Y147D01*
X2511Y147D01*
X2510Y148D01*
X2510Y148D01*
X2509Y148D01*
X2509Y148D01*
X2508Y148D01*
X2508D01*
X2507Y148D01*
X2506Y148D01*
X2506Y148D01*
X2505Y147D01*
X2505Y147D01*
X2504Y146D01*
X2504Y145D01*
X2503Y144D01*
X2503Y143D01*
X2503Y142D01*
X2503Y142D01*
Y142D01*
Y142D01*
X2493Y142D01*
X2493Y143D01*
X2493Y144D01*
X2494Y146D01*
X2495Y148D01*
X2496Y149D01*
X2497Y150D01*
X2497Y151D01*
X2497Y151D01*
X2497Y152D01*
X2498Y152D01*
X2498Y152D01*
X2498Y152D01*
X2499Y153D01*
X2499Y153D01*
X2500Y154D01*
X2501Y154D01*
X2503Y155D01*
X2505Y155D01*
X2506Y156D01*
X2507Y156D01*
X2507Y156D01*
X2508Y156D01*
X2508D01*
X2510Y156D01*
D02*
G37*
G36*
X2069Y165D02*
X2070Y155D01*
X2076D01*
Y147D01*
X2071D01*
Y131D01*
Y130D01*
X2071Y129D01*
X2070Y128D01*
X2070Y127D01*
X2070Y126D01*
X2070Y125D01*
X2070Y125D01*
X2069Y124D01*
X2069Y124D01*
X2069Y123D01*
X2068Y123D01*
X2068Y122D01*
X2068Y122D01*
X2068Y122D01*
X2067Y121D01*
X2066Y121D01*
X2064Y120D01*
X2062Y120D01*
X2061Y120D01*
X2060Y120D01*
X2060D01*
X2060Y120D01*
X2058D01*
X2057Y120D01*
X2056Y120D01*
X2055Y120D01*
X2054Y120D01*
X2053Y120D01*
X2053Y120D01*
X2053Y120D01*
X2053D01*
Y128D01*
X2054Y128D01*
X2056D01*
X2057Y128D01*
X2058Y128D01*
X2058Y128D01*
X2059Y128D01*
X2059Y128D01*
X2059Y129D01*
X2060Y129D01*
X2060D01*
X2060Y129D01*
X2060Y130D01*
X2060Y131D01*
Y132D01*
X2060Y132D01*
Y132D01*
Y132D01*
Y147D01*
X2053D01*
Y155D01*
X2060D01*
Y166D01*
X2069Y165D01*
D02*
G37*
G36*
X2586Y132D02*
X2586Y131D01*
X2586Y129D01*
X2586Y128D01*
X2586Y127D01*
X2586Y126D01*
X2586Y126D01*
X2585Y125D01*
Y125D01*
X2585Y124D01*
X2585Y123D01*
X2584Y123D01*
X2584Y122D01*
X2583Y122D01*
X2583Y121D01*
X2583Y121D01*
X2582Y121D01*
X2582Y121D01*
X2581Y120D01*
X2580Y120D01*
X2579Y120D01*
X2578Y120D01*
X2577Y120D01*
X2576D01*
X2575Y120D01*
X2574Y120D01*
X2573Y120D01*
X2572Y121D01*
X2571Y121D01*
X2570Y122D01*
X2569Y122D01*
X2568Y123D01*
X2568Y124D01*
X2567Y124D01*
X2567Y125D01*
X2567Y125D01*
X2566Y126D01*
X2566Y126D01*
X2566Y126D01*
Y120D01*
X2557D01*
Y155D01*
X2567D01*
Y136D01*
Y134D01*
X2567Y134D01*
X2567Y133D01*
X2567Y132D01*
X2567Y132D01*
X2567Y131D01*
X2567Y131D01*
Y131D01*
X2567Y131D01*
X2568Y130D01*
X2568Y130D01*
X2569Y129D01*
X2569Y129D01*
X2569Y129D01*
X2569Y129D01*
X2570Y128D01*
X2570Y128D01*
X2571Y128D01*
X2571Y128D01*
X2572Y128D01*
X2572Y128D01*
X2573D01*
X2573Y128D01*
X2574Y128D01*
X2574Y128D01*
X2575Y128D01*
X2575Y129D01*
X2576Y130D01*
X2576Y131D01*
X2576Y132D01*
X2576Y132D01*
Y132D01*
Y132D01*
Y132D01*
Y155D01*
X2586D01*
Y132D01*
D02*
G37*
G36*
X255Y122D02*
X254Y119D01*
X253Y116D01*
X252Y114D01*
X252Y112D01*
X251Y110D01*
X250Y109D01*
X250Y107D01*
X250Y107D01*
X250Y105D01*
X249Y105D01*
X249Y104D01*
X248Y100D01*
X247Y96D01*
X246Y93D01*
X245Y90D01*
X244Y88D01*
X243Y86D01*
X243Y84D01*
X242Y83D01*
X242Y82D01*
X242Y81D01*
X241Y81D01*
X241Y80D01*
X235D01*
X234Y81D01*
X234Y82D01*
X233Y84D01*
X233Y85D01*
X232Y88D01*
X231Y90D01*
X229Y95D01*
X228Y100D01*
X228Y102D01*
X227Y104D01*
X227Y106D01*
X226Y107D01*
X226Y108D01*
Y108D01*
X225D01*
X223Y104D01*
X222Y100D01*
X221Y96D01*
X220Y93D01*
X220Y90D01*
X219Y88D01*
X218Y86D01*
X218Y84D01*
X217Y83D01*
X217Y82D01*
X216Y81D01*
X216Y80D01*
Y80D01*
X209D01*
X209Y82D01*
X208Y84D01*
X207Y87D01*
X206Y90D01*
X205Y93D01*
X204Y97D01*
X201Y104D01*
X200Y107D01*
X199Y110D01*
X198Y113D01*
X198Y116D01*
X197Y118D01*
X196Y120D01*
X196Y121D01*
Y121D01*
X196Y122D01*
X196Y122D01*
X204D01*
X204Y122D01*
X204Y121D01*
X205Y120D01*
X206Y118D01*
X206Y116D01*
X207Y113D01*
X208Y108D01*
X210Y103D01*
X210Y100D01*
X211Y98D01*
X211Y96D01*
X212Y95D01*
X212Y94D01*
Y94D01*
X213D01*
X214Y99D01*
X216Y103D01*
X217Y107D01*
X218Y110D01*
X219Y113D01*
X220Y115D01*
X221Y117D01*
X221Y119D01*
X222Y120D01*
X222Y121D01*
X222Y121D01*
Y122D01*
X223Y122D01*
X227D01*
X228Y122D01*
X228Y121D01*
X229Y120D01*
X229Y118D01*
X230Y116D01*
X231Y113D01*
X233Y108D01*
X235Y103D01*
X235Y100D01*
X236Y98D01*
X236Y96D01*
X237Y95D01*
X237Y94D01*
Y94D01*
X238D01*
X240Y99D01*
X241Y103D01*
X242Y107D01*
X243Y110D01*
X243Y113D01*
X244Y115D01*
X245Y117D01*
X245Y119D01*
X245Y120D01*
X246Y121D01*
X246Y121D01*
X247Y122D01*
X247Y122D01*
X254D01*
X255Y122D01*
D02*
G37*
G36*
X3143Y156D02*
X3144Y156D01*
X3145Y155D01*
X3146Y155D01*
X3146Y154D01*
X3147Y154D01*
X3148Y152D01*
X3149Y151D01*
X3149Y150D01*
X3149Y150D01*
X3150Y149D01*
X3150Y149D01*
X3150Y149D01*
Y155D01*
X3159D01*
Y120D01*
X3149D01*
Y134D01*
X3149Y136D01*
X3149Y137D01*
X3149Y138D01*
X3149Y139D01*
X3149Y140D01*
X3148Y141D01*
X3148Y141D01*
X3148Y141D01*
X3148Y142D01*
X3147Y143D01*
X3147Y143D01*
X3146Y144D01*
X3146Y144D01*
X3146Y144D01*
X3145Y145D01*
X3145Y145D01*
X3145Y145D01*
X3144Y145D01*
X3143Y145D01*
X3142Y146D01*
X3142Y146D01*
X3141Y146D01*
X3140D01*
Y156D01*
X3141Y156D01*
X3142Y156D01*
X3142D01*
X3143Y156D01*
D02*
G37*
G36*
X3096Y120D02*
X3085D01*
Y138D01*
X3076D01*
X3074Y138D01*
X3073Y138D01*
X3072Y138D01*
X3071Y138D01*
X3071Y138D01*
X3070Y138D01*
X3070D01*
X3069Y139D01*
X3068Y139D01*
X3068Y139D01*
X3067Y140D01*
X3066Y140D01*
X3066Y141D01*
X3065Y141D01*
X3065Y141D01*
X3065Y142D01*
X3064Y142D01*
X3063Y143D01*
X3063Y144D01*
X3062Y145D01*
X3062Y146D01*
X3062Y146D01*
X3061Y146D01*
X3061Y147D01*
X3061Y149D01*
X3060Y150D01*
X3060Y151D01*
X3060Y152D01*
X3060Y152D01*
Y153D01*
Y153D01*
Y153D01*
X3060Y155D01*
X3060Y156D01*
X3061Y158D01*
X3061Y159D01*
X3062Y160D01*
X3062Y161D01*
X3062Y161D01*
X3063Y161D01*
X3063Y161D01*
Y161D01*
X3064Y162D01*
X3065Y163D01*
X3066Y164D01*
X3067Y165D01*
X3067Y165D01*
X3068Y166D01*
X3068Y166D01*
X3069Y166D01*
X3069D01*
X3070Y166D01*
X3071Y167D01*
X3073Y167D01*
X3075Y167D01*
X3076Y167D01*
X3077D01*
X3077Y167D01*
X3096D01*
Y120D01*
D02*
G37*
G36*
X2947D02*
X2937D01*
Y155D01*
X2947D01*
Y120D01*
D02*
G37*
G36*
X182Y122D02*
X185Y122D01*
X188Y121D01*
X189Y120D01*
X191Y119D01*
X192Y118D01*
X192Y117D01*
X192Y117D01*
Y116D01*
X191Y115D01*
X190Y114D01*
X189Y113D01*
X188Y112D01*
X186Y112D01*
X186Y112D01*
X185Y113D01*
X184Y113D01*
X183Y114D01*
X182Y114D01*
X175D01*
X174Y114D01*
X172Y114D01*
X171Y113D01*
X170Y112D01*
X170Y111D01*
Y111D01*
Y105D01*
X175D01*
X178Y105D01*
X182Y105D01*
X184Y104D01*
X187Y103D01*
X189Y103D01*
X190Y102D01*
X192Y100D01*
X193Y99D01*
X194Y97D01*
X195Y95D01*
X195Y94D01*
Y93D01*
Y93D01*
X195Y91D01*
X194Y89D01*
X193Y87D01*
X192Y86D01*
X191Y83D01*
X188Y82D01*
X186Y81D01*
X184Y80D01*
X184Y80D01*
X177D01*
X175Y80D01*
X174Y81D01*
X172Y82D01*
X170Y83D01*
X170Y83D01*
X170D01*
Y82D01*
X169Y81D01*
X169Y81D01*
X169Y80D01*
X162D01*
X162Y80D01*
X161Y81D01*
Y81D01*
Y81D01*
Y105D01*
Y108D01*
X161Y110D01*
X162Y112D01*
Y112D01*
Y112D01*
X162Y114D01*
X162Y115D01*
X163Y117D01*
X164Y118D01*
X167Y120D01*
X169Y121D01*
X172Y122D01*
X175Y122D01*
X176D01*
X177Y123D01*
X179D01*
X182Y122D01*
D02*
G37*
G36*
X352D02*
X354Y122D01*
X357Y121D01*
X359Y120D01*
X360Y119D01*
X361Y118D01*
X361Y117D01*
X362Y117D01*
X359Y114D01*
X357Y113D01*
X356Y112D01*
X356Y112D01*
X356D01*
X354Y113D01*
X354Y113D01*
X352Y114D01*
X351Y114D01*
X344D01*
X342Y114D01*
X341Y114D01*
X340Y113D01*
X340Y112D01*
X339Y111D01*
Y110D01*
Y110D01*
Y105D01*
X345D01*
X348Y105D01*
X351Y105D01*
X354Y104D01*
X356Y103D01*
X358Y102D01*
X359Y101D01*
X361Y100D01*
X362Y99D01*
X363Y97D01*
X364Y95D01*
X364Y93D01*
Y93D01*
Y93D01*
X364Y90D01*
X363Y89D01*
X363Y87D01*
X361Y85D01*
X359Y83D01*
X357Y82D01*
X356Y81D01*
X354Y80D01*
X353Y80D01*
X346D01*
X345Y80D01*
X343Y81D01*
X341Y82D01*
X340Y83D01*
X340Y83D01*
X339D01*
Y82D01*
X339Y81D01*
X338Y81D01*
X338Y80D01*
X331D01*
X331Y80D01*
X330Y81D01*
Y81D01*
Y81D01*
Y107D01*
X331Y110D01*
X331Y112D01*
X332Y114D01*
X333Y116D01*
X334Y118D01*
X336Y119D01*
X338Y121D01*
X342Y122D01*
X344Y122D01*
X345Y123D01*
X348D01*
X352Y122D01*
D02*
G37*
G36*
X387Y188D02*
X389Y188D01*
X392Y187D01*
X393Y186D01*
X394Y185D01*
X395Y185D01*
X395Y184D01*
Y186D01*
X395Y187D01*
Y187D01*
X396Y188D01*
X396Y188D01*
X403D01*
X403Y188D01*
X403Y188D01*
X403Y187D01*
Y187D01*
Y81D01*
X403Y81D01*
X403Y80D01*
X403Y80D01*
X396D01*
X396Y80D01*
X395Y81D01*
Y81D01*
Y81D01*
Y105D01*
X394Y108D01*
X393Y111D01*
X392Y112D01*
X391Y113D01*
X389Y114D01*
X388Y114D01*
X387Y114D01*
X387D01*
X384Y114D01*
X383Y113D01*
X381Y112D01*
X380Y110D01*
X380Y109D01*
X379Y107D01*
X379Y106D01*
Y106D01*
Y81D01*
X379Y81D01*
X378Y80D01*
X378Y80D01*
X371D01*
X370Y80D01*
X370Y81D01*
Y81D01*
Y81D01*
Y106D01*
X370Y109D01*
X371Y111D01*
X371Y114D01*
X373Y116D01*
X373Y117D01*
X375Y119D01*
X377Y121D01*
X380Y122D01*
X382Y122D01*
X383Y123D01*
X384D01*
X386Y122D01*
X388Y122D01*
X390Y121D01*
X392Y120D01*
X393Y119D01*
X394Y119D01*
X395Y118D01*
X395Y118D01*
Y151D01*
X393Y149D01*
X391Y148D01*
X390Y147D01*
X388Y146D01*
X387Y146D01*
X386Y146D01*
X384D01*
X382Y146D01*
X379Y147D01*
X377Y148D01*
X376Y149D01*
X374Y151D01*
X373Y152D01*
X371Y156D01*
X370Y160D01*
X370Y163D01*
X370Y164D01*
Y166D01*
Y166D01*
Y166D01*
Y170D01*
X370Y173D01*
X370Y175D01*
X370Y177D01*
X371Y179D01*
X371Y180D01*
X371Y180D01*
Y181D01*
X373Y183D01*
X375Y185D01*
X377Y187D01*
X379Y188D01*
X381Y188D01*
X382Y189D01*
X386D01*
X387Y188D01*
D02*
G37*
G36*
X2374Y156D02*
X2376Y155D01*
X2378Y155D01*
X2380Y155D01*
X2380Y154D01*
X2381Y154D01*
X2381Y154D01*
X2382Y154D01*
X2382Y154D01*
X2382Y153D01*
X2383Y153D01*
X2383D01*
X2383Y153D01*
X2384Y152D01*
X2385Y152D01*
X2385Y151D01*
X2386Y150D01*
X2387Y148D01*
X2388Y147D01*
X2388Y146D01*
X2388Y146D01*
X2388Y146D01*
X2388Y145D01*
X2388Y145D01*
Y145D01*
X2379Y144D01*
X2379Y145D01*
X2378Y146D01*
X2378Y146D01*
X2378Y147D01*
X2377Y147D01*
X2377Y148D01*
X2376Y148D01*
X2374Y149D01*
X2374Y149D01*
X2373Y149D01*
X2373D01*
X2372Y149D01*
X2371Y149D01*
X2370Y149D01*
X2370Y148D01*
X2369Y148D01*
X2369Y147D01*
X2369Y147D01*
X2368Y147D01*
X2368Y146D01*
X2368Y145D01*
X2368Y144D01*
Y144D01*
Y144D01*
Y144D01*
Y142D01*
X2370Y142D01*
X2371Y142D01*
X2373Y142D01*
X2374Y141D01*
X2376Y141D01*
X2377Y141D01*
X2378Y141D01*
X2379Y141D01*
X2379Y140D01*
X2380Y140D01*
X2381Y140D01*
X2381Y140D01*
X2381Y140D01*
X2382Y140D01*
X2382Y140D01*
X2382D01*
X2383Y139D01*
X2384Y138D01*
X2385Y138D01*
X2386Y137D01*
X2387Y136D01*
X2387Y136D01*
X2387Y136D01*
X2388Y135D01*
X2388Y134D01*
X2388Y133D01*
X2389Y132D01*
X2389Y131D01*
X2389Y130D01*
X2389Y130D01*
Y129D01*
Y129D01*
Y129D01*
X2389Y128D01*
X2389Y126D01*
X2388Y125D01*
X2388Y124D01*
X2387Y123D01*
X2387Y123D01*
X2386Y122D01*
X2386Y122D01*
X2385Y121D01*
X2384Y121D01*
X2382Y120D01*
X2381Y120D01*
X2380Y120D01*
X2380Y120D01*
X2379D01*
X2379Y120D01*
X2378D01*
X2377Y120D01*
X2376Y120D01*
X2375Y120D01*
X2374Y120D01*
X2373Y120D01*
X2373Y121D01*
X2373Y121D01*
X2372Y121D01*
X2372Y121D01*
X2371Y122D01*
X2370Y123D01*
X2369Y124D01*
X2368Y124D01*
X2368Y125D01*
X2367Y126D01*
X2367Y126D01*
Y125D01*
X2367Y123D01*
X2367Y123D01*
X2367Y122D01*
X2367Y121D01*
X2367Y121D01*
X2367Y120D01*
Y120D01*
X2357D01*
X2357Y121D01*
X2357Y122D01*
X2357Y123D01*
X2357Y124D01*
X2357Y125D01*
Y126D01*
Y126D01*
Y127D01*
Y127D01*
Y127D01*
Y143D01*
Y144D01*
X2357Y146D01*
X2358Y147D01*
X2358Y148D01*
X2358Y148D01*
X2358Y149D01*
X2358Y149D01*
Y149D01*
X2358Y150D01*
X2359Y150D01*
X2359Y151D01*
X2359Y151D01*
X2360Y152D01*
X2360Y152D01*
X2360Y152D01*
X2360Y152D01*
X2361Y153D01*
X2362Y154D01*
X2363Y154D01*
X2364Y154D01*
X2364Y155D01*
X2365Y155D01*
X2365Y155D01*
X2365D01*
X2366Y155D01*
X2368Y155D01*
X2369Y156D01*
X2370Y156D01*
X2371D01*
X2371Y156D01*
X2372D01*
X2374Y156D01*
D02*
G37*
G36*
X268Y139D02*
X268Y139D01*
X268Y138D01*
Y138D01*
Y118D01*
X270Y119D01*
X272Y121D01*
X273Y121D01*
X275Y122D01*
X276Y122D01*
X277Y123D01*
X278D01*
X280Y122D01*
X283Y122D01*
X285Y121D01*
X287Y120D01*
X288Y119D01*
X289Y118D01*
X291Y115D01*
X292Y112D01*
X292Y109D01*
X293Y108D01*
Y108D01*
Y107D01*
Y107D01*
Y94D01*
X292Y92D01*
X292Y90D01*
X291Y88D01*
X290Y86D01*
X288Y84D01*
X286Y82D01*
X284Y81D01*
X282Y80D01*
X281Y80D01*
X276D01*
X275Y80D01*
X273Y81D01*
X271Y82D01*
X270Y83D01*
X269Y84D01*
X268Y84D01*
X268Y84D01*
Y83D01*
X268Y82D01*
Y81D01*
X268Y81D01*
X267Y80D01*
X260D01*
X259Y80D01*
X259Y81D01*
Y81D01*
Y81D01*
Y138D01*
X259Y139D01*
X259Y139D01*
X260Y139D01*
X267D01*
X268Y139D01*
D02*
G37*
G36*
X304Y122D02*
X306Y122D01*
X308Y121D01*
X310Y120D01*
X311Y119D01*
X312Y119D01*
X312Y118D01*
X313Y118D01*
Y119D01*
X313Y120D01*
Y121D01*
X313Y122D01*
X313Y122D01*
X320D01*
X321Y122D01*
X321Y122D01*
X321Y121D01*
Y121D01*
Y81D01*
X321Y81D01*
X321Y80D01*
X320Y80D01*
X314D01*
X313Y80D01*
X313Y81D01*
Y81D01*
Y81D01*
Y104D01*
X312Y108D01*
X312Y110D01*
X310Y112D01*
X308Y113D01*
X307Y114D01*
X306Y114D01*
X305Y114D01*
X304D01*
X303Y114D01*
X301Y113D01*
X299Y112D01*
X299Y112D01*
X299D01*
X299Y112D01*
X298Y113D01*
X297Y114D01*
X296Y116D01*
X295Y117D01*
X294Y118D01*
X294Y119D01*
X293Y119D01*
Y120D01*
X297Y122D01*
X299Y122D01*
X300Y123D01*
X301D01*
X304Y122D01*
D02*
G37*
G36*
X2947Y158D02*
X2937D01*
Y168D01*
X2947D01*
Y158D01*
D02*
G37*
G36*
X3236Y120D02*
X3225D01*
Y140D01*
X3210D01*
Y120D01*
X3200D01*
Y167D01*
X3210D01*
Y149D01*
X3225D01*
Y167D01*
X3236D01*
Y120D01*
D02*
G37*
G36*
X135Y122D02*
X137Y122D01*
X140Y120D01*
X141Y119D01*
X142Y119D01*
X143Y118D01*
X144Y118D01*
Y119D01*
X144Y120D01*
Y121D01*
X144Y122D01*
X144Y122D01*
X151D01*
X151Y122D01*
X152Y122D01*
X152Y121D01*
Y121D01*
Y81D01*
X152Y81D01*
X151Y80D01*
X151Y80D01*
X145D01*
X144Y80D01*
X144Y81D01*
Y81D01*
Y81D01*
Y106D01*
X143Y108D01*
X142Y110D01*
X141Y112D01*
X139Y113D01*
X138Y114D01*
X136Y114D01*
X135Y114D01*
X135D01*
X133Y114D01*
X132Y113D01*
X130Y112D01*
X130Y112D01*
X130D01*
X124Y119D01*
X125Y120D01*
X126Y121D01*
X129Y122D01*
X130Y122D01*
X131Y123D01*
X133D01*
X135Y122D01*
D02*
G37*
G36*
X109D02*
X110Y122D01*
X111D01*
X113Y121D01*
X115Y120D01*
X117Y119D01*
X119Y117D01*
X121Y114D01*
X122Y110D01*
X123Y107D01*
X124Y104D01*
X124Y103D01*
Y102D01*
Y101D01*
Y101D01*
X124Y99D01*
X124Y98D01*
Y98D01*
Y98D01*
X123Y95D01*
X122Y92D01*
X121Y90D01*
X120Y88D01*
X119Y86D01*
X118Y84D01*
X116Y83D01*
X115Y82D01*
X112Y81D01*
X109Y80D01*
X108Y80D01*
X102D01*
X100Y80D01*
X98Y81D01*
X96Y82D01*
X94Y83D01*
X92Y84D01*
X91Y85D01*
X91Y86D01*
X90Y86D01*
X92Y88D01*
X94Y90D01*
X95Y91D01*
X96Y92D01*
X96D01*
X98Y90D01*
X99Y89D01*
X101Y89D01*
X102Y88D01*
X103Y88D01*
X104Y88D01*
X107D01*
X109Y88D01*
X111Y89D01*
X113Y91D01*
X114Y92D01*
X114Y94D01*
X115Y95D01*
X115Y96D01*
Y97D01*
Y98D01*
X90D01*
X90Y98D01*
X89Y98D01*
Y99D01*
Y99D01*
Y106D01*
X90Y108D01*
X90Y111D01*
X91Y113D01*
X92Y115D01*
X95Y118D01*
X98Y120D01*
X101Y121D01*
X103Y122D01*
X105Y122D01*
X105Y123D01*
X108D01*
X109Y122D01*
D02*
G37*
G36*
X2416Y168D02*
X2417Y168D01*
X2419Y167D01*
X2420Y167D01*
X2421Y166D01*
X2423Y166D01*
X2424Y165D01*
X2425Y165D01*
X2426Y164D01*
X2426Y163D01*
X2427Y163D01*
X2428Y162D01*
X2428Y162D01*
X2428Y161D01*
X2429Y161D01*
X2429Y161D01*
X2430Y160D01*
X2430Y158D01*
X2431Y157D01*
X2432Y155D01*
X2432Y154D01*
X2433Y152D01*
X2433Y151D01*
X2433Y150D01*
X2434Y148D01*
X2434Y147D01*
X2434Y146D01*
X2434Y145D01*
Y144D01*
X2434Y144D01*
Y143D01*
Y143D01*
X2434Y141D01*
X2434Y139D01*
X2434Y138D01*
X2433Y136D01*
X2433Y135D01*
X2432Y133D01*
X2432Y132D01*
X2432Y131D01*
X2431Y130D01*
X2431Y129D01*
X2430Y128D01*
X2430Y127D01*
X2429Y127D01*
X2429Y126D01*
X2429Y126D01*
X2429Y126D01*
X2428Y125D01*
X2427Y124D01*
X2426Y123D01*
X2425Y122D01*
X2423Y122D01*
X2422Y121D01*
X2421Y121D01*
X2420Y120D01*
X2419Y120D01*
X2418Y120D01*
X2417Y120D01*
X2416Y120D01*
X2416D01*
X2415Y120D01*
X2415D01*
X2413Y120D01*
X2412Y120D01*
X2411Y120D01*
X2409Y121D01*
X2408Y121D01*
X2407Y122D01*
X2406Y122D01*
X2405Y123D01*
X2405Y123D01*
X2404Y124D01*
X2403Y124D01*
X2403Y125D01*
X2402Y125D01*
X2402Y125D01*
X2402Y126D01*
X2402Y126D01*
X2401Y124D01*
X2401Y123D01*
X2401Y122D01*
X2401Y121D01*
X2400Y121D01*
X2400Y121D01*
Y120D01*
X2395D01*
Y145D01*
X2415D01*
Y137D01*
X2406D01*
X2406Y135D01*
X2406Y134D01*
X2406Y133D01*
X2407Y132D01*
X2407Y131D01*
X2408Y131D01*
X2408Y130D01*
X2408Y130D01*
X2409Y130D01*
X2410Y129D01*
X2411Y129D01*
X2412Y129D01*
X2412Y129D01*
X2413Y129D01*
X2413D01*
X2414Y129D01*
X2415Y129D01*
X2416Y129D01*
X2418Y130D01*
X2419Y130D01*
X2419Y131D01*
X2420Y132D01*
X2420Y132D01*
X2420Y132D01*
Y132D01*
X2421Y133D01*
X2421Y134D01*
X2422Y136D01*
X2422Y138D01*
X2423Y139D01*
X2423Y140D01*
X2423Y141D01*
X2423Y142D01*
Y142D01*
X2423Y143D01*
Y143D01*
Y143D01*
Y143D01*
Y145D01*
X2423Y146D01*
X2423Y147D01*
X2423Y148D01*
X2422Y149D01*
X2422Y150D01*
X2422Y151D01*
X2422Y152D01*
X2422Y153D01*
X2421Y153D01*
X2421Y154D01*
X2421Y154D01*
X2421Y155D01*
X2421Y155D01*
X2421Y155D01*
Y155D01*
X2420Y156D01*
X2420Y156D01*
X2419Y157D01*
X2419Y157D01*
X2417Y158D01*
X2416Y159D01*
X2415Y159D01*
X2415Y159D01*
X2414Y159D01*
X2414D01*
X2413Y159D01*
X2412Y159D01*
X2411Y158D01*
X2410Y158D01*
X2409Y157D01*
X2408Y156D01*
X2408Y156D01*
X2407Y155D01*
X2407Y154D01*
X2407Y153D01*
X2406Y152D01*
X2406Y152D01*
X2406Y151D01*
X2406Y151D01*
X2406Y151D01*
Y150D01*
X2395Y152D01*
X2395Y153D01*
X2396Y154D01*
X2396Y156D01*
X2397Y157D01*
X2397Y158D01*
X2398Y159D01*
X2398Y160D01*
X2399Y160D01*
X2399Y161D01*
X2400Y162D01*
X2400Y162D01*
X2400Y163D01*
X2401Y163D01*
X2401Y163D01*
X2401Y163D01*
X2401Y164D01*
X2402Y164D01*
X2403Y165D01*
X2404Y166D01*
X2405Y166D01*
X2406Y167D01*
X2407Y167D01*
X2409Y167D01*
X2410Y168D01*
X2411Y168D01*
X2412Y168D01*
X2413Y168D01*
X2413Y168D01*
X2414D01*
X2416Y168D01*
D02*
G37*
G36*
X2175D02*
X2177Y168D01*
X2178Y167D01*
X2180Y167D01*
X2181Y166D01*
X2182Y166D01*
X2184Y165D01*
X2185Y165D01*
X2186Y164D01*
X2186Y163D01*
X2187Y163D01*
X2188Y162D01*
X2188Y162D01*
X2188Y162D01*
X2189Y161D01*
X2189Y161D01*
X2190Y160D01*
X2191Y159D01*
X2191Y157D01*
X2192Y156D01*
X2192Y154D01*
X2193Y153D01*
X2193Y151D01*
X2194Y150D01*
X2194Y149D01*
X2194Y148D01*
X2194Y146D01*
X2194Y146D01*
Y145D01*
X2194Y144D01*
Y144D01*
Y144D01*
X2194Y142D01*
X2194Y140D01*
X2194Y138D01*
X2193Y136D01*
X2193Y135D01*
X2192Y133D01*
X2192Y132D01*
X2191Y131D01*
X2191Y130D01*
X2190Y129D01*
X2190Y128D01*
X2189Y127D01*
X2189Y127D01*
X2189Y126D01*
X2189Y126D01*
X2189Y126D01*
X2187Y125D01*
X2186Y124D01*
X2185Y123D01*
X2184Y122D01*
X2182Y122D01*
X2181Y121D01*
X2180Y121D01*
X2179Y120D01*
X2178Y120D01*
X2177Y120D01*
X2176Y120D01*
X2175Y120D01*
X2174D01*
X2174Y120D01*
X2173D01*
X2172Y120D01*
X2171Y120D01*
X2169Y120D01*
X2168Y120D01*
X2167Y121D01*
X2166Y121D01*
X2165Y121D01*
X2164Y122D01*
X2163Y122D01*
X2163Y123D01*
X2162Y123D01*
X2161Y123D01*
X2161Y124D01*
X2161Y124D01*
X2161Y124D01*
X2160Y124D01*
X2160Y125D01*
X2159Y126D01*
X2158Y127D01*
X2157Y128D01*
X2157Y129D01*
X2156Y130D01*
X2155Y132D01*
X2155Y133D01*
X2155Y134D01*
X2155Y135D01*
X2154Y135D01*
X2154Y136D01*
X2154Y136D01*
X2154Y137D01*
Y137D01*
X2165Y137D01*
X2165Y136D01*
X2166Y134D01*
X2166Y133D01*
X2167Y132D01*
X2167Y131D01*
X2168Y131D01*
X2169Y130D01*
X2170Y130D01*
X2170Y129D01*
X2171Y129D01*
X2172Y129D01*
X2172Y129D01*
X2173Y129D01*
X2173Y129D01*
X2173D01*
X2175Y129D01*
X2176Y129D01*
X2177Y130D01*
X2178Y130D01*
X2179Y131D01*
X2179Y131D01*
X2180Y132D01*
X2180Y132D01*
X2180Y132D01*
X2181Y133D01*
X2181Y134D01*
X2181Y135D01*
X2181Y137D01*
X2182Y139D01*
X2182Y140D01*
X2182Y141D01*
X2182Y142D01*
Y142D01*
X2182Y143D01*
Y143D01*
Y144D01*
Y144D01*
Y145D01*
X2182Y146D01*
X2182Y148D01*
X2182Y149D01*
X2181Y150D01*
X2181Y151D01*
X2181Y153D01*
X2180Y154D01*
X2179Y155D01*
X2179Y156D01*
X2178Y157D01*
X2177Y158D01*
X2176Y158D01*
X2175Y159D01*
X2175Y159D01*
X2174Y159D01*
X2174Y159D01*
X2173D01*
X2172Y159D01*
X2171Y159D01*
X2170Y158D01*
X2169Y158D01*
X2168Y157D01*
X2168Y156D01*
X2167Y155D01*
X2167Y154D01*
X2166Y153D01*
X2166Y152D01*
X2166Y151D01*
X2166Y151D01*
X2166Y150D01*
X2166Y150D01*
Y149D01*
Y149D01*
X2154Y150D01*
X2154Y151D01*
X2155Y153D01*
X2155Y154D01*
X2156Y156D01*
X2156Y157D01*
X2157Y158D01*
X2157Y159D01*
X2158Y160D01*
X2159Y161D01*
X2160Y162D01*
X2161Y164D01*
X2163Y165D01*
X2165Y166D01*
X2166Y166D01*
X2168Y167D01*
X2169Y167D01*
X2171Y168D01*
X2172Y168D01*
X2172Y168D01*
X2173Y168D01*
X2173D01*
X2175Y168D01*
D02*
G37*
G36*
X2915Y156D02*
X2916Y156D01*
X2918Y155D01*
X2919Y155D01*
X2920Y155D01*
X2921Y154D01*
X2922Y154D01*
X2923Y153D01*
X2924Y153D01*
X2924Y152D01*
X2925Y152D01*
X2925Y152D01*
X2926Y151D01*
X2926Y151D01*
X2926Y151D01*
X2926Y151D01*
X2927Y150D01*
X2928Y149D01*
X2928Y148D01*
X2929Y146D01*
X2929Y145D01*
X2930Y144D01*
X2930Y142D01*
X2930Y141D01*
X2931Y140D01*
X2931Y140D01*
X2931Y139D01*
X2931Y138D01*
Y138D01*
Y138D01*
Y137D01*
X2931Y136D01*
X2931Y135D01*
X2930Y133D01*
X2930Y132D01*
X2930Y131D01*
X2929Y130D01*
X2929Y129D01*
X2929Y128D01*
X2928Y127D01*
X2928Y126D01*
X2927Y126D01*
X2927Y125D01*
X2927Y125D01*
X2926Y125D01*
X2926Y125D01*
X2926Y124D01*
X2925Y124D01*
X2924Y123D01*
X2923Y122D01*
X2922Y122D01*
X2921Y121D01*
X2920Y121D01*
X2918Y120D01*
X2918Y120D01*
X2917Y120D01*
X2916Y120D01*
X2915Y120D01*
X2915Y120D01*
X2914D01*
X2913Y120D01*
X2912Y120D01*
X2910Y120D01*
X2909Y121D01*
X2908Y121D01*
X2907Y121D01*
X2906Y122D01*
X2905Y122D01*
X2905Y122D01*
X2904Y123D01*
X2904Y123D01*
X2904Y123D01*
X2903Y123D01*
X2903Y123D01*
X2903Y123D01*
X2902Y124D01*
X2902Y125D01*
X2901Y126D01*
X2901Y127D01*
X2900Y128D01*
X2899Y130D01*
X2899Y131D01*
X2899Y132D01*
X2898Y132D01*
X2898Y133D01*
X2898Y133D01*
Y133D01*
Y133D01*
X2908Y134D01*
X2908Y133D01*
X2908Y132D01*
X2909Y131D01*
X2909Y130D01*
X2910Y130D01*
X2910Y129D01*
X2911Y129D01*
X2911Y129D01*
X2912Y128D01*
X2913Y128D01*
X2913D01*
X2913Y128D01*
X2913D01*
X2914Y128D01*
X2915Y128D01*
X2916Y129D01*
X2916Y129D01*
X2917Y129D01*
X2917Y129D01*
X2918Y130D01*
X2918Y130D01*
X2918Y130D01*
X2918Y131D01*
X2918Y131D01*
X2919Y132D01*
X2919Y133D01*
X2919Y135D01*
X2919Y136D01*
Y137D01*
X2919Y137D01*
Y138D01*
Y138D01*
Y138D01*
Y138D01*
X2919Y140D01*
X2919Y141D01*
X2919Y143D01*
X2918Y144D01*
X2918Y145D01*
X2917Y146D01*
X2917Y146D01*
X2916Y147D01*
X2916Y147D01*
X2915Y148D01*
X2915Y148D01*
X2914Y148D01*
X2914Y148D01*
X2913Y148D01*
X2913D01*
X2912Y148D01*
X2912Y148D01*
X2911Y148D01*
X2910Y147D01*
X2910Y147D01*
X2909Y146D01*
X2909Y145D01*
X2908Y144D01*
X2908Y143D01*
X2908Y142D01*
X2908Y142D01*
Y142D01*
Y142D01*
X2898Y142D01*
X2898Y143D01*
X2899Y144D01*
X2899Y146D01*
X2900Y148D01*
X2901Y149D01*
X2902Y150D01*
X2902Y151D01*
X2902Y151D01*
X2903Y152D01*
X2903Y152D01*
X2903Y152D01*
X2903Y152D01*
X2904Y153D01*
X2905Y153D01*
X2905Y154D01*
X2906Y154D01*
X2908Y155D01*
X2910Y155D01*
X2911Y156D01*
X2912Y156D01*
X2912Y156D01*
X2913Y156D01*
X2913D01*
X2915Y156D01*
D02*
G37*
G36*
X2992Y120D02*
X2984D01*
Y148D01*
Y149D01*
X2984Y150D01*
Y150D01*
X2984Y150D01*
Y150D01*
Y150D01*
Y151D01*
X2984Y151D01*
Y151D01*
Y152D01*
Y152D01*
Y152D01*
X2966Y120D01*
X2956D01*
Y167D01*
X2965D01*
Y143D01*
Y142D01*
X2965Y142D01*
X2965Y141D01*
Y140D01*
X2965Y140D01*
Y140D01*
Y140D01*
X2981Y167D01*
X2992D01*
Y120D01*
D02*
G37*
G36*
X3046D02*
X3035D01*
X3028Y151D01*
X3020Y120D01*
X3009D01*
X2998Y167D01*
X3007D01*
X3013Y139D01*
X3014Y138D01*
X3014Y137D01*
X3014Y137D01*
X3014Y136D01*
X3014Y136D01*
Y136D01*
X3014Y136D01*
Y136D01*
X3022Y167D01*
X3032D01*
X3040Y136D01*
X3040Y136D01*
X3040Y137D01*
X3040Y137D01*
Y137D01*
X3040Y138D01*
X3040Y138D01*
X3040Y138D01*
Y138D01*
X3040Y139D01*
Y139D01*
X3047Y167D01*
X3058D01*
X3046Y120D01*
D02*
G37*
G36*
X3182D02*
X3183Y120D01*
X3183Y119D01*
X3183Y119D01*
X3183Y118D01*
X3184Y118D01*
X3184Y117D01*
X3184Y117D01*
X3184Y117D01*
X3184Y117D01*
X3185Y117D01*
X3186Y116D01*
X3186Y116D01*
X3187Y116D01*
X3188Y116D01*
X3188D01*
X3190Y116D01*
X3191Y116D01*
X3191Y116D01*
X3192Y116D01*
X3193Y116D01*
X3193Y117D01*
X3193D01*
Y109D01*
X3192Y109D01*
X3191Y108D01*
X3190Y108D01*
X3190D01*
X3189Y108D01*
X3188D01*
X3187Y108D01*
X3185Y108D01*
X3184Y109D01*
X3183Y109D01*
X3182Y109D01*
X3182Y110D01*
X3181Y110D01*
X3181Y110D01*
X3180Y110D01*
X3180Y111D01*
X3179Y112D01*
X3179Y112D01*
X3178Y113D01*
X3178Y113D01*
X3178Y114D01*
X3178Y114D01*
X3177Y115D01*
X3177Y116D01*
X3176Y117D01*
X3176Y119D01*
X3175Y120D01*
X3175Y120D01*
X3175Y121D01*
X3175Y121D01*
X3175Y122D01*
X3175Y122D01*
Y122D01*
X3164Y155D01*
X3171D01*
X3178Y134D01*
X3184Y155D01*
X3195D01*
X3182Y120D01*
D02*
G37*
G36*
X2010Y156D02*
X2012Y155D01*
X2014Y155D01*
X2015Y155D01*
X2016Y154D01*
X2017Y154D01*
X2017Y154D01*
X2017Y153D01*
X2017Y153D01*
X2017D01*
X2019Y152D01*
X2020Y151D01*
X2021Y150D01*
X2021Y149D01*
X2022Y148D01*
X2022Y148D01*
X2023Y148D01*
X2023Y147D01*
X2023Y147D01*
Y147D01*
X2023Y146D01*
X2024Y144D01*
X2024Y142D01*
X2025Y141D01*
X2025Y140D01*
Y139D01*
X2025Y139D01*
Y138D01*
Y138D01*
Y138D01*
Y138D01*
X2025Y136D01*
X2025Y135D01*
X2024Y134D01*
X2024Y132D01*
X2024Y131D01*
X2023Y130D01*
X2023Y129D01*
X2023Y128D01*
X2022Y127D01*
X2022Y127D01*
X2021Y126D01*
X2021Y126D01*
X2021Y125D01*
X2021Y125D01*
X2020Y125D01*
X2020Y125D01*
X2019Y124D01*
X2019Y123D01*
X2018Y122D01*
X2017Y122D01*
X2016Y121D01*
X2015Y121D01*
X2013Y120D01*
X2012Y120D01*
X2011Y120D01*
X2010Y120D01*
X2010Y120D01*
X2009Y120D01*
X2008D01*
X2007Y120D01*
X2006Y120D01*
X2004Y120D01*
X2003Y120D01*
X2002Y121D01*
X2001Y121D01*
X2000Y122D01*
X1999Y122D01*
X1999Y123D01*
X1998Y123D01*
X1998Y124D01*
X1997Y124D01*
X1997Y124D01*
X1996Y125D01*
X1996Y125D01*
X1996Y125D01*
X1995Y126D01*
X1995Y127D01*
X1994Y128D01*
X1994Y129D01*
X1993Y130D01*
X1993Y131D01*
X1992Y133D01*
X1992Y134D01*
X1992Y135D01*
X1992Y136D01*
X1992Y136D01*
X1992Y137D01*
Y137D01*
Y138D01*
Y138D01*
X1992Y139D01*
X1992Y140D01*
X1992Y142D01*
X1992Y143D01*
X1993Y144D01*
X1993Y145D01*
X1993Y146D01*
X1994Y147D01*
X1994Y148D01*
X1995Y148D01*
X1995Y149D01*
X1995Y150D01*
X1996Y150D01*
X1996Y150D01*
X1996Y150D01*
X1996Y151D01*
X1997Y152D01*
X1998Y152D01*
X1999Y153D01*
X2000Y154D01*
X2001Y154D01*
X2002Y155D01*
X2003Y155D01*
X2004Y155D01*
X2005Y155D01*
X2006Y156D01*
X2006Y156D01*
X2007Y156D01*
X2008Y156D01*
X2008D01*
X2010Y156D01*
D02*
G37*
G36*
X2136D02*
X2138Y155D01*
X2139Y155D01*
X2140Y155D01*
X2141Y154D01*
X2142Y154D01*
X2142Y154D01*
X2143Y153D01*
X2143Y153D01*
X2143D01*
X2144Y152D01*
X2145Y151D01*
X2146Y150D01*
X2147Y149D01*
X2148Y148D01*
X2148Y148D01*
X2148Y148D01*
X2148Y147D01*
X2148Y147D01*
Y147D01*
X2149Y146D01*
X2150Y144D01*
X2150Y142D01*
X2150Y141D01*
X2150Y140D01*
Y139D01*
X2150Y139D01*
Y138D01*
Y138D01*
Y138D01*
Y138D01*
X2150Y136D01*
X2150Y135D01*
X2150Y134D01*
X2150Y132D01*
X2149Y131D01*
X2149Y130D01*
X2149Y129D01*
X2148Y128D01*
X2148Y127D01*
X2147Y127D01*
X2147Y126D01*
X2147Y126D01*
X2146Y125D01*
X2146Y125D01*
X2146Y125D01*
X2146Y125D01*
X2145Y124D01*
X2144Y123D01*
X2143Y122D01*
X2142Y122D01*
X2141Y121D01*
X2140Y121D01*
X2138Y120D01*
X2137Y120D01*
X2137Y120D01*
X2136Y120D01*
X2135Y120D01*
X2135Y120D01*
X2134D01*
X2133Y120D01*
X2131Y120D01*
X2130Y120D01*
X2129Y120D01*
X2128Y121D01*
X2127Y121D01*
X2126Y122D01*
X2125Y122D01*
X2124Y123D01*
X2124Y123D01*
X2123Y124D01*
X2123Y124D01*
X2122Y124D01*
X2122Y125D01*
X2122Y125D01*
X2122Y125D01*
X2121Y126D01*
X2120Y127D01*
X2120Y128D01*
X2119Y129D01*
X2119Y130D01*
X2118Y131D01*
X2118Y133D01*
X2117Y134D01*
X2117Y135D01*
X2117Y136D01*
X2117Y136D01*
X2117Y137D01*
Y137D01*
Y138D01*
Y138D01*
X2117Y139D01*
X2117Y140D01*
X2118Y142D01*
X2118Y143D01*
X2118Y144D01*
X2119Y145D01*
X2119Y146D01*
X2119Y147D01*
X2120Y148D01*
X2120Y148D01*
X2121Y149D01*
X2121Y150D01*
X2121Y150D01*
X2121Y150D01*
X2122Y150D01*
X2122Y151D01*
X2123Y152D01*
X2123Y152D01*
X2124Y153D01*
X2125Y154D01*
X2126Y154D01*
X2127Y155D01*
X2128Y155D01*
X2129Y155D01*
X2130Y155D01*
X2131Y156D01*
X2132Y156D01*
X2133Y156D01*
X2133Y156D01*
X2134D01*
X2136Y156D01*
D02*
G37*
G36*
X2704Y96D02*
X2694D01*
Y105D01*
X2704D01*
Y96D01*
D02*
G37*
G36*
X2779Y156D02*
X2781Y156D01*
X2782Y155D01*
X2783Y155D01*
X2783Y154D01*
X2784Y154D01*
X2785Y153D01*
X2785Y153D01*
X2786Y152D01*
X2786Y152D01*
X2787Y151D01*
X2787Y150D01*
X2787Y150D01*
X2787Y150D01*
Y155D01*
X2797D01*
Y109D01*
X2787D01*
Y124D01*
X2786Y123D01*
X2786Y123D01*
X2785Y122D01*
X2785Y122D01*
X2784Y121D01*
X2783Y121D01*
X2782Y120D01*
X2781Y120D01*
X2780Y120D01*
X2780Y120D01*
X2779Y120D01*
X2779D01*
X2778Y120D01*
X2777Y120D01*
X2776Y120D01*
X2775Y120D01*
X2773Y121D01*
X2772Y122D01*
X2771Y123D01*
X2770Y123D01*
X2770Y123D01*
X2769Y124D01*
X2769Y124D01*
X2769Y124D01*
X2769Y124D01*
X2768Y125D01*
X2768Y126D01*
X2767Y127D01*
X2767Y128D01*
X2766Y131D01*
X2766Y133D01*
X2766Y134D01*
X2766Y135D01*
X2765Y136D01*
Y137D01*
X2765Y137D01*
Y138D01*
Y138D01*
Y138D01*
X2765Y140D01*
X2766Y141D01*
X2766Y142D01*
X2766Y144D01*
X2766Y145D01*
X2767Y146D01*
X2767Y147D01*
X2767Y148D01*
X2768Y149D01*
X2768Y149D01*
X2768Y150D01*
X2768Y150D01*
X2769Y151D01*
X2769Y151D01*
X2769Y151D01*
X2769Y151D01*
X2770Y152D01*
X2770Y153D01*
X2771Y153D01*
X2772Y154D01*
X2773Y154D01*
X2774Y155D01*
X2775Y155D01*
X2776Y156D01*
X2777Y156D01*
X2777Y156D01*
X2778Y156D01*
X2778D01*
X2779Y156D01*
D02*
G37*
G36*
X2651Y168D02*
X2653Y168D01*
X2654Y168D01*
X2655Y167D01*
X2656Y167D01*
X2657Y167D01*
X2658Y166D01*
X2659Y166D01*
X2660Y165D01*
X2660Y165D01*
X2661Y165D01*
X2661Y164D01*
X2662Y164D01*
X2662Y164D01*
X2662Y164D01*
X2662Y164D01*
X2663Y163D01*
X2664Y162D01*
X2664Y161D01*
X2665Y160D01*
X2665Y159D01*
X2666Y158D01*
X2666Y157D01*
X2666Y156D01*
X2666Y155D01*
X2667Y155D01*
X2667Y154D01*
X2667Y154D01*
Y153D01*
Y153D01*
Y153D01*
X2667Y152D01*
X2667Y151D01*
X2666Y149D01*
X2666Y147D01*
X2665Y146D01*
X2664Y145D01*
X2664Y145D01*
X2664Y144D01*
X2663Y144D01*
X2663Y144D01*
X2663Y144D01*
X2663Y144D01*
X2662Y143D01*
X2661Y143D01*
X2660Y142D01*
X2659Y142D01*
X2657Y141D01*
X2655Y140D01*
X2654Y140D01*
X2653Y139D01*
X2652Y139D01*
X2652Y139D01*
X2651Y139D01*
X2650Y139D01*
X2650Y139D01*
X2650D01*
X2648Y138D01*
X2647Y138D01*
X2646Y138D01*
X2645Y137D01*
X2644Y137D01*
X2644Y137D01*
X2644Y137D01*
X2644Y136D01*
X2643Y136D01*
X2643Y136D01*
X2642Y135D01*
X2642Y134D01*
X2642Y134D01*
X2642Y134D01*
Y133D01*
Y133D01*
X2642Y133D01*
X2642Y132D01*
X2642Y131D01*
X2643Y131D01*
X2643Y130D01*
X2643Y130D01*
X2644Y130D01*
X2644Y130D01*
X2645Y129D01*
X2645Y129D01*
X2646Y129D01*
X2647Y129D01*
X2648Y128D01*
X2649Y128D01*
X2649D01*
X2651Y128D01*
X2652Y129D01*
X2653Y129D01*
X2654Y129D01*
X2655Y130D01*
X2656Y130D01*
X2656Y131D01*
X2657Y132D01*
X2658Y132D01*
X2658Y133D01*
X2658Y133D01*
X2659Y134D01*
X2659Y134D01*
X2659Y135D01*
X2659Y135D01*
Y135D01*
X2669Y133D01*
X2669Y131D01*
X2668Y130D01*
X2668Y129D01*
X2667Y128D01*
X2667Y127D01*
X2666Y127D01*
X2666Y126D01*
X2665Y125D01*
X2665Y125D01*
X2664Y124D01*
X2664Y124D01*
X2663Y123D01*
X2663Y123D01*
X2663Y123D01*
X2663Y123D01*
X2662Y123D01*
X2662Y122D01*
X2660Y122D01*
X2658Y121D01*
X2656Y120D01*
X2654Y120D01*
X2654Y120D01*
X2653Y120D01*
X2652Y120D01*
X2651D01*
X2651Y120D01*
X2650D01*
X2648Y120D01*
X2647Y120D01*
X2645Y120D01*
X2644Y120D01*
X2643Y121D01*
X2641Y121D01*
X2640Y121D01*
X2639Y122D01*
X2638Y122D01*
X2638Y123D01*
X2637Y123D01*
X2637Y123D01*
X2636Y124D01*
X2636Y124D01*
X2636Y124D01*
X2636Y124D01*
X2635Y125D01*
X2634Y126D01*
X2633Y127D01*
X2633Y128D01*
X2632Y129D01*
X2632Y130D01*
X2631Y131D01*
X2631Y132D01*
X2631Y133D01*
X2631Y134D01*
X2631Y134D01*
X2631Y135D01*
Y135D01*
Y135D01*
Y135D01*
X2631Y137D01*
X2631Y138D01*
X2631Y139D01*
X2632Y140D01*
X2632Y141D01*
X2633Y142D01*
X2633Y142D01*
X2633Y142D01*
X2634Y144D01*
X2635Y145D01*
X2636Y145D01*
X2637Y146D01*
X2637Y147D01*
X2638Y147D01*
X2639Y147D01*
X2639Y147D01*
X2639D01*
X2639Y148D01*
X2640Y148D01*
X2642Y148D01*
X2643Y149D01*
X2645Y149D01*
X2647Y150D01*
X2647Y150D01*
X2648Y150D01*
X2648Y150D01*
X2649Y150D01*
X2649Y150D01*
X2649D01*
X2651Y151D01*
X2652Y151D01*
X2653Y151D01*
X2654Y152D01*
X2654Y152D01*
X2654Y152D01*
X2655Y152D01*
X2655Y152D01*
X2655Y153D01*
X2655Y153D01*
X2656Y154D01*
X2656Y154D01*
X2656Y155D01*
X2656Y155D01*
Y155D01*
Y155D01*
X2656Y156D01*
X2656Y157D01*
X2655Y157D01*
X2655Y158D01*
X2654Y158D01*
X2654Y158D01*
X2653Y159D01*
X2651Y159D01*
X2651Y159D01*
X2650Y159D01*
X2650Y159D01*
X2649D01*
X2648Y159D01*
X2647Y159D01*
X2646Y159D01*
X2646Y159D01*
X2645Y158D01*
X2644Y158D01*
X2644Y157D01*
X2643Y157D01*
X2642Y156D01*
X2642Y155D01*
X2642Y154D01*
X2641Y154D01*
X2641Y154D01*
Y154D01*
X2632Y157D01*
X2633Y159D01*
X2634Y161D01*
X2635Y162D01*
X2636Y163D01*
X2638Y164D01*
X2639Y165D01*
X2641Y166D01*
X2642Y167D01*
X2644Y167D01*
X2645Y167D01*
X2646Y168D01*
X2648Y168D01*
X2648Y168D01*
X2649Y168D01*
X2650D01*
X2651Y168D01*
D02*
G37*
G36*
X2825D02*
X2827Y168D01*
X2828Y167D01*
X2830Y167D01*
X2831Y166D01*
X2832Y166D01*
X2834Y165D01*
X2835Y165D01*
X2835Y164D01*
X2836Y163D01*
X2837Y163D01*
X2837Y162D01*
X2838Y162D01*
X2838Y161D01*
X2838Y161D01*
X2838Y161D01*
X2839Y160D01*
X2840Y158D01*
X2841Y157D01*
X2841Y156D01*
X2842Y154D01*
X2842Y153D01*
X2843Y151D01*
X2843Y150D01*
X2843Y149D01*
X2843Y148D01*
X2843Y147D01*
X2844Y146D01*
X2844Y145D01*
Y144D01*
Y144D01*
Y144D01*
X2844Y142D01*
X2843Y140D01*
X2843Y139D01*
X2843Y137D01*
X2842Y135D01*
X2842Y134D01*
X2841Y133D01*
X2841Y132D01*
X2841Y130D01*
X2840Y130D01*
X2840Y129D01*
X2839Y128D01*
X2839Y127D01*
X2839Y127D01*
X2839Y127D01*
X2838Y127D01*
X2837Y125D01*
X2836Y124D01*
X2835Y123D01*
X2834Y123D01*
X2833Y122D01*
X2832Y121D01*
X2830Y121D01*
X2829Y121D01*
X2828Y120D01*
X2827Y120D01*
X2826Y120D01*
X2825Y120D01*
X2825Y120D01*
X2824Y120D01*
X2824D01*
X2822Y120D01*
X2820Y120D01*
X2819Y120D01*
X2817Y121D01*
X2816Y121D01*
X2815Y122D01*
X2814Y122D01*
X2813Y123D01*
X2812Y124D01*
X2811Y124D01*
X2810Y125D01*
X2810Y125D01*
X2809Y126D01*
X2809Y126D01*
X2809Y126D01*
X2809Y127D01*
X2808Y128D01*
X2807Y129D01*
X2806Y131D01*
X2806Y132D01*
X2805Y134D01*
X2805Y135D01*
X2804Y136D01*
X2804Y138D01*
X2804Y139D01*
X2804Y140D01*
X2804Y141D01*
X2804Y142D01*
X2804Y143D01*
Y143D01*
Y144D01*
Y144D01*
X2804Y146D01*
X2804Y147D01*
X2804Y149D01*
X2804Y150D01*
X2805Y152D01*
X2805Y153D01*
X2806Y155D01*
X2806Y156D01*
X2806Y157D01*
X2807Y158D01*
X2807Y159D01*
X2808Y159D01*
X2808Y160D01*
X2808Y160D01*
X2808Y161D01*
X2809Y161D01*
X2810Y162D01*
X2811Y163D01*
X2812Y164D01*
X2813Y165D01*
X2814Y166D01*
X2815Y166D01*
X2817Y167D01*
X2818Y167D01*
X2819Y167D01*
X2820Y168D01*
X2821Y168D01*
X2822Y168D01*
X2822Y168D01*
X2823Y168D01*
X2823D01*
X2825Y168D01*
D02*
G37*
G36*
X2305Y151D02*
X2305Y152D01*
X2306Y153D01*
X2307Y153D01*
X2307Y154D01*
X2308Y154D01*
X2309Y155D01*
X2310Y155D01*
X2311Y156D01*
X2312Y156D01*
X2312Y156D01*
X2313Y156D01*
X2313D01*
X2314Y156D01*
X2316Y156D01*
X2317Y155D01*
X2317Y155D01*
X2319Y154D01*
X2321Y153D01*
X2321Y153D01*
X2322Y152D01*
X2322Y152D01*
X2322Y152D01*
X2323Y151D01*
X2323Y151D01*
X2323Y151D01*
X2323Y151D01*
X2324Y150D01*
X2324Y149D01*
X2325Y147D01*
X2325Y144D01*
X2326Y142D01*
X2326Y141D01*
X2326Y140D01*
X2326Y139D01*
Y139D01*
X2326Y138D01*
Y138D01*
Y137D01*
Y137D01*
X2326Y136D01*
X2326Y134D01*
X2326Y133D01*
X2326Y132D01*
X2326Y131D01*
X2325Y130D01*
X2325Y129D01*
X2325Y128D01*
X2324Y127D01*
X2324Y126D01*
X2324Y126D01*
X2324Y125D01*
X2323Y125D01*
X2323Y125D01*
X2323Y124D01*
Y124D01*
X2322Y123D01*
X2322Y123D01*
X2321Y122D01*
X2320Y122D01*
X2319Y121D01*
X2319Y121D01*
X2317Y120D01*
X2316Y120D01*
X2315Y120D01*
X2315Y120D01*
X2314Y120D01*
X2314D01*
X2313Y120D01*
X2312Y120D01*
X2311Y120D01*
X2310Y121D01*
X2308Y122D01*
X2307Y123D01*
X2306Y123D01*
X2306Y124D01*
X2305Y124D01*
X2305Y125D01*
X2305Y125D01*
X2304Y125D01*
X2304Y126D01*
X2304Y126D01*
Y120D01*
X2295D01*
Y167D01*
X2305D01*
Y151D01*
D02*
G37*
G36*
X2612Y156D02*
X2613Y155D01*
X2615Y155D01*
X2616Y155D01*
X2617Y154D01*
X2618Y154D01*
X2618Y154D01*
X2618Y153D01*
X2618Y153D01*
X2619D01*
X2620Y152D01*
X2621Y151D01*
X2622Y150D01*
X2623Y149D01*
X2623Y148D01*
X2624Y148D01*
X2624Y148D01*
X2624Y147D01*
X2624Y147D01*
Y147D01*
X2625Y146D01*
X2625Y144D01*
X2625Y142D01*
X2626Y141D01*
X2626Y140D01*
Y139D01*
X2626Y139D01*
Y138D01*
Y138D01*
Y138D01*
Y138D01*
X2626Y136D01*
X2626Y135D01*
X2626Y134D01*
X2625Y132D01*
X2625Y131D01*
X2625Y130D01*
X2624Y129D01*
X2624Y128D01*
X2623Y127D01*
X2623Y127D01*
X2623Y126D01*
X2622Y126D01*
X2622Y125D01*
X2622Y125D01*
X2622Y125D01*
X2622Y125D01*
X2621Y124D01*
X2620Y123D01*
X2619Y122D01*
X2618Y122D01*
X2617Y121D01*
X2616Y121D01*
X2614Y120D01*
X2613Y120D01*
X2612Y120D01*
X2612Y120D01*
X2611Y120D01*
X2610Y120D01*
X2610D01*
X2608Y120D01*
X2607Y120D01*
X2606Y120D01*
X2605Y120D01*
X2603Y121D01*
X2602Y121D01*
X2602Y122D01*
X2601Y122D01*
X2600Y123D01*
X2599Y123D01*
X2599Y124D01*
X2598Y124D01*
X2598Y124D01*
X2598Y125D01*
X2598Y125D01*
X2597Y125D01*
X2597Y126D01*
X2596Y127D01*
X2595Y128D01*
X2595Y129D01*
X2594Y130D01*
X2594Y131D01*
X2593Y133D01*
X2593Y134D01*
X2593Y135D01*
X2593Y136D01*
X2593Y136D01*
X2593Y137D01*
Y137D01*
Y138D01*
Y138D01*
X2593Y139D01*
X2593Y140D01*
X2593Y142D01*
X2593Y143D01*
X2594Y144D01*
X2594Y145D01*
X2595Y146D01*
X2595Y147D01*
X2595Y148D01*
X2596Y148D01*
X2596Y149D01*
X2597Y150D01*
X2597Y150D01*
X2597Y150D01*
X2597Y150D01*
X2597Y151D01*
X2598Y152D01*
X2599Y152D01*
X2600Y153D01*
X2601Y154D01*
X2602Y154D01*
X2603Y155D01*
X2604Y155D01*
X2605Y155D01*
X2606Y155D01*
X2607Y156D01*
X2608Y156D01*
X2608Y156D01*
X2609Y156D01*
X2610D01*
X2612Y156D01*
D02*
G37*
G36*
X2362Y105D02*
X2363Y105D01*
X2364Y105D01*
X2366Y104D01*
X2368Y104D01*
X2369Y103D01*
X2371Y102D01*
X2372Y100D01*
X2374Y99D01*
X2375Y98D01*
X2375Y96D01*
X2376Y95D01*
X2377Y94D01*
X2377Y93D01*
X2377Y92D01*
X2378Y91D01*
X2378Y91D01*
Y91D01*
X2378Y91D01*
Y90D01*
X2369Y88D01*
X2369Y90D01*
X2368Y91D01*
X2368Y92D01*
X2367Y93D01*
X2367Y94D01*
X2366Y95D01*
X2365Y95D01*
X2365Y96D01*
X2364Y96D01*
X2363Y96D01*
X2363Y97D01*
X2362Y97D01*
X2362Y97D01*
X2362Y97D01*
X2361D01*
X2360Y97D01*
X2359Y97D01*
X2359Y96D01*
X2358Y96D01*
X2358Y96D01*
X2357Y95D01*
X2357Y95D01*
X2357Y95D01*
X2356Y95D01*
X2356Y94D01*
X2356Y93D01*
X2355Y92D01*
X2355Y92D01*
X2355Y91D01*
Y91D01*
Y91D01*
X2355Y90D01*
X2355Y90D01*
X2356Y89D01*
X2356Y88D01*
X2357Y87D01*
X2357Y86D01*
X2358Y85D01*
X2359Y84D01*
X2359Y84D01*
X2359Y84D01*
X2359Y83D01*
X2359Y83D01*
X2360Y82D01*
X2361Y82D01*
X2362Y81D01*
X2363Y80D01*
X2365Y78D01*
X2367Y76D01*
X2369Y76D01*
X2369Y75D01*
X2370Y74D01*
X2371Y74D01*
X2372Y73D01*
X2372Y73D01*
X2372Y73D01*
X2373Y73D01*
X2374Y72D01*
X2375Y71D01*
X2376Y70D01*
X2377Y70D01*
X2377Y69D01*
X2378Y69D01*
X2378Y69D01*
X2378Y69D01*
Y60D01*
X2345D01*
X2344Y69D01*
X2365D01*
X2363Y70D01*
X2361Y72D01*
X2359Y73D01*
X2358Y74D01*
X2356Y75D01*
X2355Y76D01*
X2354Y77D01*
X2353Y77D01*
X2352Y78D01*
X2351Y79D01*
X2350Y79D01*
X2350Y80D01*
X2350Y80D01*
X2349Y80D01*
X2349Y81D01*
X2349Y81D01*
X2348Y82D01*
X2348Y82D01*
X2347Y83D01*
X2347Y84D01*
X2346Y85D01*
X2346Y86D01*
X2345Y88D01*
X2345Y88D01*
X2345Y89D01*
X2345Y90D01*
X2345Y90D01*
X2345Y91D01*
Y91D01*
Y91D01*
Y91D01*
X2345Y92D01*
X2345Y93D01*
X2345Y94D01*
X2345Y95D01*
X2346Y97D01*
X2347Y98D01*
X2347Y99D01*
X2348Y99D01*
X2348Y100D01*
X2348Y100D01*
X2348Y100D01*
X2349Y101D01*
X2349Y101D01*
X2349Y101D01*
X2350Y102D01*
X2351Y102D01*
X2352Y103D01*
X2353Y103D01*
X2353Y104D01*
X2355Y104D01*
X2356Y105D01*
X2357Y105D01*
X2358Y105D01*
X2359Y105D01*
X2360Y105D01*
X2360Y105D01*
X2361D01*
X2362Y105D01*
D02*
G37*
G36*
X2204Y60D02*
X2195D01*
Y79D01*
Y80D01*
X2195Y80D01*
X2195Y81D01*
X2194Y82D01*
X2194Y83D01*
X2194Y83D01*
X2194Y84D01*
X2193Y84D01*
X2193Y85D01*
X2193Y85D01*
X2192Y85D01*
X2192Y85D01*
X2191Y86D01*
X2191Y86D01*
X2190Y86D01*
X2190Y86D01*
X2189D01*
X2188Y86D01*
X2188Y86D01*
X2187Y86D01*
X2187Y85D01*
X2187Y85D01*
X2187Y85D01*
X2187Y85D01*
X2186Y84D01*
X2186Y84D01*
X2186Y83D01*
X2186Y83D01*
Y83D01*
X2186Y83D01*
X2186Y82D01*
X2186Y80D01*
Y80D01*
Y79D01*
Y79D01*
Y79D01*
Y79D01*
Y60D01*
X2176D01*
Y82D01*
X2176Y83D01*
X2176Y85D01*
X2176Y86D01*
X2177Y87D01*
X2177Y87D01*
X2177Y88D01*
X2177Y88D01*
X2177Y88D01*
X2177Y89D01*
X2178Y90D01*
X2178Y91D01*
X2179Y91D01*
X2179Y92D01*
X2180Y92D01*
X2180Y92D01*
X2180Y92D01*
X2181Y93D01*
X2182Y93D01*
X2183Y93D01*
X2184Y93D01*
X2185Y94D01*
X2185Y94D01*
X2186D01*
X2187Y94D01*
X2188Y93D01*
X2189Y93D01*
X2190Y93D01*
X2191Y92D01*
X2191Y92D01*
X2192Y92D01*
X2193Y91D01*
X2193Y91D01*
X2194Y90D01*
X2194Y90D01*
X2194Y89D01*
X2194Y89D01*
X2195Y89D01*
X2195Y89D01*
Y104D01*
X2204D01*
Y60D01*
D02*
G37*
G36*
X3087Y83D02*
X3077D01*
Y93D01*
X3087D01*
Y83D01*
D02*
G37*
G36*
X212Y188D02*
X214Y188D01*
X215Y188D01*
X216Y187D01*
X216Y187D01*
X217D01*
X220Y185D01*
X222Y182D01*
X224Y179D01*
X225Y175D01*
X226Y172D01*
X226Y170D01*
X226Y169D01*
Y168D01*
Y167D01*
Y167D01*
X226Y164D01*
X226Y162D01*
Y161D01*
Y160D01*
Y160D01*
Y160D01*
X225Y157D01*
X224Y155D01*
X223Y153D01*
X221Y152D01*
X219Y149D01*
X217Y148D01*
X214Y147D01*
X213Y146D01*
X212Y146D01*
X208D01*
X205Y146D01*
X203Y147D01*
X201Y148D01*
X199Y149D01*
X196Y152D01*
X194Y155D01*
X193Y158D01*
X192Y161D01*
X192Y162D01*
X191Y163D01*
Y164D01*
Y164D01*
Y171D01*
X192Y174D01*
X192Y177D01*
X193Y179D01*
X195Y181D01*
X196Y183D01*
X197Y184D01*
X199Y185D01*
X200Y186D01*
X203Y188D01*
X206Y188D01*
X206Y189D01*
X209D01*
X212Y188D01*
D02*
G37*
G36*
X1925Y96D02*
X1915D01*
Y105D01*
X1925D01*
Y96D01*
D02*
G37*
G36*
X2521D02*
X2512D01*
Y105D01*
X2521D01*
Y96D01*
D02*
G37*
G36*
X2999Y60D02*
X2989D01*
Y79D01*
Y80D01*
X2989Y80D01*
X2989Y81D01*
X2989Y82D01*
X2989Y83D01*
X2988Y83D01*
X2988Y84D01*
X2988Y84D01*
X2988Y85D01*
X2988Y85D01*
X2987Y85D01*
X2986Y85D01*
X2986Y86D01*
X2985Y86D01*
X2985Y86D01*
X2984Y86D01*
X2984D01*
X2983Y86D01*
X2982Y86D01*
X2982Y86D01*
X2982Y85D01*
X2982Y85D01*
X2982Y85D01*
X2981Y85D01*
X2981Y84D01*
X2981Y84D01*
X2981Y83D01*
X2981Y83D01*
Y83D01*
X2981Y83D01*
X2980Y82D01*
X2980Y80D01*
Y80D01*
Y79D01*
Y79D01*
Y79D01*
Y79D01*
Y60D01*
X2971D01*
Y82D01*
X2971Y83D01*
X2971Y85D01*
X2971Y86D01*
X2971Y87D01*
X2971Y87D01*
X2971Y88D01*
X2972Y88D01*
X2972Y88D01*
X2972Y89D01*
X2973Y90D01*
X2973Y91D01*
X2974Y91D01*
X2974Y92D01*
X2975Y92D01*
X2975Y92D01*
X2975Y92D01*
X2976Y93D01*
X2977Y93D01*
X2978Y93D01*
X2979Y93D01*
X2979Y94D01*
X2980Y94D01*
X2981D01*
X2982Y94D01*
X2983Y93D01*
X2984Y93D01*
X2985Y93D01*
X2985Y92D01*
X2986Y92D01*
X2987Y92D01*
X2987Y91D01*
X2988Y91D01*
X2988Y90D01*
X2989Y90D01*
X2989Y89D01*
X2989Y89D01*
X2989Y89D01*
X2989Y89D01*
Y104D01*
X2999D01*
Y60D01*
D02*
G37*
G36*
X3236D02*
X3226D01*
Y79D01*
Y80D01*
X3226Y80D01*
X3226Y81D01*
X3226Y82D01*
X3226Y83D01*
X3225Y83D01*
X3225Y84D01*
X3225Y84D01*
X3225Y85D01*
X3225Y85D01*
X3224Y85D01*
X3223Y85D01*
X3223Y86D01*
X3222Y86D01*
X3222Y86D01*
X3221Y86D01*
X3221D01*
X3220Y86D01*
X3219Y86D01*
X3219Y86D01*
X3219Y85D01*
X3219Y85D01*
X3219Y85D01*
X3218Y85D01*
X3218Y84D01*
X3218Y84D01*
X3218Y83D01*
X3218Y83D01*
Y83D01*
X3218Y83D01*
X3217Y82D01*
X3217Y80D01*
Y80D01*
Y79D01*
Y79D01*
Y79D01*
Y79D01*
Y60D01*
X3208D01*
Y82D01*
X3208Y83D01*
X3208Y85D01*
X3208Y86D01*
X3208Y87D01*
X3208Y87D01*
X3208Y88D01*
X3209Y88D01*
X3209Y88D01*
X3209Y89D01*
X3210Y90D01*
X3210Y91D01*
X3211Y91D01*
X3211Y92D01*
X3212Y92D01*
X3212Y92D01*
X3212Y92D01*
X3213Y93D01*
X3214Y93D01*
X3215Y93D01*
X3216Y93D01*
X3216Y94D01*
X3217Y94D01*
X3218D01*
X3219Y94D01*
X3220Y93D01*
X3221Y93D01*
X3222Y93D01*
X3222Y92D01*
X3223Y92D01*
X3224Y92D01*
X3224Y91D01*
X3225Y91D01*
X3225Y90D01*
X3226Y90D01*
X3226Y89D01*
X3226Y89D01*
X3226Y89D01*
X3226Y89D01*
Y104D01*
X3236D01*
Y60D01*
D02*
G37*
G36*
X2883Y156D02*
X2884Y156D01*
X2885Y155D01*
X2886Y155D01*
X2887Y155D01*
X2888Y154D01*
X2889Y154D01*
X2889Y154D01*
X2890Y154D01*
X2890Y153D01*
X2891Y153D01*
X2891Y153D01*
X2891Y153D01*
X2891Y153D01*
X2891Y153D01*
X2892Y152D01*
X2893Y151D01*
X2893Y151D01*
X2894Y150D01*
X2894Y149D01*
X2895Y147D01*
X2895Y146D01*
X2895Y146D01*
X2895Y145D01*
X2895Y145D01*
Y145D01*
Y144D01*
Y144D01*
X2895Y143D01*
X2895Y143D01*
X2895Y141D01*
X2894Y140D01*
X2894Y139D01*
X2893Y138D01*
X2893Y137D01*
X2892Y137D01*
X2892Y137D01*
X2891Y136D01*
X2890Y136D01*
X2890Y135D01*
X2888Y135D01*
X2886Y134D01*
X2884Y134D01*
X2883Y133D01*
X2882Y133D01*
X2881Y133D01*
X2880Y133D01*
X2879Y133D01*
X2879Y133D01*
X2878Y133D01*
X2878D01*
X2878Y133D01*
X2877Y132D01*
X2876Y132D01*
X2876Y132D01*
X2875Y132D01*
X2875Y131D01*
X2874Y131D01*
X2874Y130D01*
X2874Y130D01*
Y130D01*
X2874Y129D01*
X2875Y129D01*
X2875Y128D01*
X2875Y128D01*
X2875Y128D01*
X2876Y128D01*
X2876Y127D01*
X2876Y127D01*
X2877Y127D01*
X2877Y127D01*
X2878Y127D01*
X2879Y127D01*
X2879Y127D01*
X2880Y126D01*
X2880D01*
X2882Y127D01*
X2883Y127D01*
X2884Y127D01*
X2884Y127D01*
X2885Y128D01*
X2886Y128D01*
X2886Y128D01*
X2887Y129D01*
X2887Y129D01*
X2887Y130D01*
X2888Y130D01*
X2888Y131D01*
X2888Y131D01*
X2888Y131D01*
Y131D01*
X2897Y130D01*
X2896Y128D01*
X2895Y126D01*
X2894Y125D01*
X2893Y124D01*
X2892Y123D01*
X2890Y122D01*
X2889Y121D01*
X2888Y121D01*
X2886Y121D01*
X2885Y120D01*
X2884Y120D01*
X2883Y120D01*
X2882Y120D01*
X2881Y120D01*
X2881D01*
X2879Y120D01*
X2878Y120D01*
X2877Y120D01*
X2876Y120D01*
X2875Y120D01*
X2874Y121D01*
X2873Y121D01*
X2872Y121D01*
X2872Y122D01*
X2871Y122D01*
X2871Y122D01*
X2870Y122D01*
X2870Y123D01*
X2870Y123D01*
X2870Y123D01*
X2869D01*
X2869Y124D01*
X2868Y124D01*
X2868Y125D01*
X2867Y126D01*
X2866Y127D01*
X2866Y129D01*
X2866Y130D01*
X2865Y130D01*
X2865Y131D01*
X2865Y131D01*
Y131D01*
Y132D01*
Y132D01*
X2865Y133D01*
X2866Y134D01*
X2866Y135D01*
X2866Y136D01*
X2867Y137D01*
X2867Y137D01*
X2867Y138D01*
X2867Y138D01*
X2868Y139D01*
X2868Y139D01*
X2869Y140D01*
X2870Y140D01*
X2871Y141D01*
X2871Y141D01*
X2871Y141D01*
X2872Y141D01*
X2873Y142D01*
X2874Y142D01*
X2876Y142D01*
X2877Y142D01*
X2878Y143D01*
X2879Y143D01*
X2879Y143D01*
X2880Y143D01*
X2880Y143D01*
X2880D01*
X2882Y143D01*
X2883Y143D01*
X2884Y144D01*
X2884Y144D01*
X2885Y144D01*
X2885Y144D01*
X2885Y144D01*
X2885D01*
X2886Y145D01*
X2886Y145D01*
X2886Y146D01*
X2886Y146D01*
X2886Y146D01*
Y146D01*
Y146D01*
X2886Y147D01*
X2886Y147D01*
X2886Y148D01*
X2885Y148D01*
X2885Y149D01*
X2884Y149D01*
X2883Y149D01*
X2882Y149D01*
X2882Y149D01*
X2881D01*
X2880Y149D01*
X2879Y149D01*
X2878Y149D01*
X2878Y149D01*
X2877Y148D01*
X2876Y148D01*
X2876Y147D01*
X2875Y146D01*
X2875Y145D01*
X2874Y145D01*
X2874Y145D01*
X2874Y145D01*
Y145D01*
X2867Y147D01*
X2868Y148D01*
X2868Y150D01*
X2869Y151D01*
X2870Y152D01*
X2871Y153D01*
X2871Y153D01*
X2872Y154D01*
X2872Y154D01*
X2872D01*
X2873Y154D01*
X2875Y155D01*
X2876Y155D01*
X2878Y156D01*
X2879Y156D01*
X2879Y156D01*
X2880Y156D01*
X2882D01*
X2883Y156D01*
D02*
G37*
G36*
X2231Y156D02*
X2232Y156D01*
X2232Y155D01*
X2233Y155D01*
X2234Y155D01*
X2234Y155D01*
X2234Y155D01*
X2235Y155D01*
X2235Y154D01*
X2236Y153D01*
X2237Y152D01*
X2238Y151D01*
X2238Y151D01*
X2239Y150D01*
X2239Y150D01*
X2239Y149D01*
X2239Y149D01*
Y155D01*
X2249D01*
Y120D01*
X2238D01*
Y140D01*
X2238Y141D01*
X2238Y142D01*
X2238Y144D01*
X2238Y144D01*
X2237Y145D01*
X2237Y146D01*
X2236Y146D01*
X2236Y147D01*
X2235Y147D01*
X2235Y147D01*
X2234Y148D01*
X2234Y148D01*
X2233Y148D01*
X2233D01*
X2233Y148D01*
X2232Y148D01*
X2232Y148D01*
X2231Y147D01*
X2231Y147D01*
X2231Y147D01*
X2231Y147D01*
X2230Y147D01*
X2230Y146D01*
X2229Y145D01*
X2229Y145D01*
X2229Y145D01*
X2229Y145D01*
Y145D01*
X2229Y144D01*
X2229Y143D01*
X2229Y143D01*
X2229Y142D01*
Y141D01*
Y140D01*
Y140D01*
Y140D01*
Y140D01*
Y120D01*
X2219D01*
Y143D01*
Y144D01*
X2219Y145D01*
X2219Y146D01*
X2219Y148D01*
X2219Y148D01*
X2220Y149D01*
X2220Y150D01*
X2220Y151D01*
X2220Y151D01*
X2221Y152D01*
X2221Y152D01*
X2221Y153D01*
X2221Y153D01*
X2221Y153D01*
X2222Y153D01*
X2223Y154D01*
X2224Y155D01*
X2225Y155D01*
X2227Y155D01*
X2228Y156D01*
X2228Y156D01*
X2229D01*
X2229Y156D01*
X2230D01*
X2231Y156D01*
D02*
G37*
G36*
X2092D02*
X2093Y156D01*
X2094Y155D01*
X2095Y155D01*
X2096Y155D01*
X2096Y155D01*
X2096Y155D01*
X2096Y155D01*
X2097Y154D01*
X2098Y153D01*
X2099Y152D01*
X2100Y151D01*
X2100Y151D01*
X2101Y150D01*
X2101Y150D01*
X2101Y149D01*
X2101Y149D01*
Y155D01*
X2111D01*
Y120D01*
X2100D01*
Y140D01*
X2100Y141D01*
X2100Y142D01*
X2100Y144D01*
X2100Y144D01*
X2099Y145D01*
X2099Y146D01*
X2098Y146D01*
X2098Y147D01*
X2097Y147D01*
X2097Y147D01*
X2096Y148D01*
X2096Y148D01*
X2095Y148D01*
X2095D01*
X2094Y148D01*
X2094Y148D01*
X2093Y148D01*
X2093Y147D01*
X2093Y147D01*
X2093Y147D01*
X2092Y147D01*
X2092Y147D01*
X2092Y146D01*
X2091Y145D01*
X2091Y145D01*
X2091Y145D01*
X2091Y145D01*
Y145D01*
X2091Y144D01*
X2091Y143D01*
X2091Y143D01*
X2091Y142D01*
Y141D01*
Y140D01*
Y140D01*
Y140D01*
Y140D01*
Y120D01*
X2080D01*
Y143D01*
Y144D01*
X2081Y145D01*
X2081Y146D01*
X2081Y148D01*
X2081Y148D01*
X2081Y149D01*
X2082Y150D01*
X2082Y151D01*
X2082Y151D01*
X2083Y152D01*
X2083Y152D01*
X2083Y153D01*
X2083Y153D01*
X2083Y153D01*
X2084Y153D01*
X2085Y154D01*
X2086Y155D01*
X2087Y155D01*
X2089Y155D01*
X2090Y156D01*
X2090Y156D01*
X2091D01*
X2091Y156D01*
X2092D01*
X2092Y156D01*
D02*
G37*
G36*
X2333Y156D02*
X2334Y156D01*
X2335Y155D01*
X2336Y155D01*
X2336Y154D01*
X2337Y154D01*
X2338Y152D01*
X2339Y151D01*
X2339Y150D01*
X2339Y150D01*
X2339Y149D01*
X2339Y149D01*
X2340Y149D01*
Y155D01*
X2349D01*
Y120D01*
X2339D01*
Y134D01*
X2339Y136D01*
X2339Y137D01*
X2339Y138D01*
X2339Y139D01*
X2338Y140D01*
X2338Y141D01*
X2338Y141D01*
X2338Y141D01*
X2338Y142D01*
X2337Y143D01*
X2337Y143D01*
X2336Y144D01*
X2336Y144D01*
X2335Y144D01*
X2335Y145D01*
X2335Y145D01*
X2334Y145D01*
X2334Y145D01*
X2333Y145D01*
X2332Y146D01*
X2331Y146D01*
X2331Y146D01*
X2330D01*
Y156D01*
X2331Y156D01*
X2332Y156D01*
X2332D01*
X2333Y156D01*
D02*
G37*
G36*
X2703Y156D02*
X2704Y156D01*
X2705Y155D01*
X2705Y155D01*
X2706Y155D01*
X2707Y155D01*
X2707Y155D01*
X2707Y155D01*
X2708Y154D01*
X2709Y153D01*
X2709Y152D01*
X2710Y151D01*
X2711Y151D01*
X2711Y150D01*
X2711Y150D01*
X2712Y149D01*
X2712Y149D01*
Y155D01*
X2721D01*
Y120D01*
X2711D01*
Y140D01*
X2711Y141D01*
X2711Y142D01*
X2710Y144D01*
X2710Y144D01*
X2710Y145D01*
X2709Y146D01*
X2709Y146D01*
X2708Y147D01*
X2708Y147D01*
X2707Y147D01*
X2706Y148D01*
X2706Y148D01*
X2706Y148D01*
X2706D01*
X2705Y148D01*
X2704Y148D01*
X2704Y148D01*
X2704Y147D01*
X2703Y147D01*
X2703Y147D01*
X2703Y147D01*
X2703Y147D01*
X2702Y146D01*
X2702Y145D01*
X2702Y145D01*
X2702Y145D01*
X2702Y145D01*
Y145D01*
X2701Y144D01*
X2701Y143D01*
X2701Y143D01*
X2701Y142D01*
Y141D01*
Y140D01*
Y140D01*
Y140D01*
Y140D01*
Y120D01*
X2691D01*
Y143D01*
Y144D01*
X2691Y145D01*
X2691Y146D01*
X2691Y148D01*
X2692Y148D01*
X2692Y149D01*
X2692Y150D01*
X2692Y151D01*
X2693Y151D01*
X2693Y152D01*
X2693Y152D01*
X2694Y153D01*
X2694Y153D01*
X2694Y153D01*
X2694Y153D01*
X2695Y154D01*
X2697Y155D01*
X2698Y155D01*
X2699Y155D01*
X2700Y156D01*
X2701Y156D01*
X2701D01*
X2702Y156D01*
X2702D01*
X2703Y156D01*
D02*
G37*
G36*
X2532Y156D02*
X2533Y156D01*
X2534Y155D01*
X2535Y155D01*
X2535Y154D01*
X2536Y154D01*
X2537Y152D01*
X2538Y151D01*
X2538Y150D01*
X2538Y150D01*
X2539Y149D01*
X2539Y149D01*
X2539Y149D01*
Y155D01*
X2548D01*
Y120D01*
X2538D01*
Y134D01*
X2538Y136D01*
X2538Y137D01*
X2538Y138D01*
X2538Y139D01*
X2537Y140D01*
X2537Y141D01*
X2537Y141D01*
X2537Y141D01*
X2537Y142D01*
X2536Y143D01*
X2536Y143D01*
X2535Y144D01*
X2535Y144D01*
X2535Y144D01*
X2534Y145D01*
X2534Y145D01*
X2534Y145D01*
X2533Y145D01*
X2532Y145D01*
X2531Y146D01*
X2531Y146D01*
X2530Y146D01*
X2529D01*
Y156D01*
X2530Y156D01*
X2531Y156D01*
X2531D01*
X2532Y156D01*
D02*
G37*
G36*
X1985Y120D02*
X1975D01*
Y167D01*
X1985D01*
Y120D01*
D02*
G37*
G36*
X3122Y156D02*
X3124Y155D01*
X3126Y155D01*
X3127Y155D01*
X3128Y154D01*
X3129Y154D01*
X3129Y154D01*
X3129Y153D01*
X3129Y153D01*
X3129D01*
X3130Y152D01*
X3131Y151D01*
X3132Y150D01*
X3133Y149D01*
X3134Y148D01*
X3134Y148D01*
X3134Y148D01*
X3135Y147D01*
X3135Y147D01*
Y147D01*
X3135Y146D01*
X3136Y144D01*
X3136Y142D01*
X3136Y141D01*
X3137Y140D01*
Y139D01*
X3137Y139D01*
Y138D01*
Y138D01*
Y138D01*
Y138D01*
X3137Y136D01*
X3136Y135D01*
X3136Y134D01*
X3136Y132D01*
X3136Y131D01*
X3135Y130D01*
X3135Y129D01*
X3134Y128D01*
X3134Y127D01*
X3134Y127D01*
X3133Y126D01*
X3133Y126D01*
X3133Y125D01*
X3132Y125D01*
X3132Y125D01*
X3132Y125D01*
X3131Y124D01*
X3130Y123D01*
X3129Y122D01*
X3129Y122D01*
X3128Y121D01*
X3127Y121D01*
X3125Y120D01*
X3124Y120D01*
X3123Y120D01*
X3122Y120D01*
X3122Y120D01*
X3121Y120D01*
X3120D01*
X3119Y120D01*
X3118Y120D01*
X3116Y120D01*
X3115Y120D01*
X3114Y121D01*
X3113Y121D01*
X3112Y122D01*
X3111Y122D01*
X3111Y123D01*
X3110Y123D01*
X3109Y124D01*
X3109Y124D01*
X3109Y124D01*
X3108Y125D01*
X3108Y125D01*
X3108Y125D01*
X3107Y126D01*
X3107Y127D01*
X3106Y128D01*
X3105Y129D01*
X3105Y130D01*
X3105Y131D01*
X3104Y133D01*
X3104Y134D01*
X3104Y135D01*
X3104Y136D01*
X3104Y136D01*
X3103Y137D01*
Y137D01*
Y138D01*
Y138D01*
X3104Y139D01*
X3104Y140D01*
X3104Y142D01*
X3104Y143D01*
X3104Y144D01*
X3105Y145D01*
X3105Y146D01*
X3106Y147D01*
X3106Y148D01*
X3107Y148D01*
X3107Y149D01*
X3107Y150D01*
X3108Y150D01*
X3108Y150D01*
X3108Y150D01*
X3108Y151D01*
X3109Y152D01*
X3110Y152D01*
X3111Y153D01*
X3112Y154D01*
X3113Y154D01*
X3114Y155D01*
X3115Y155D01*
X3116Y155D01*
X3117Y155D01*
X3118Y156D01*
X3118Y156D01*
X3119Y156D01*
X3120Y156D01*
X3120D01*
X3122Y156D01*
D02*
G37*
G36*
X2031Y156D02*
X2032Y156D01*
X2033Y155D01*
X2034Y155D01*
X2035Y154D01*
X2035Y154D01*
X2036Y152D01*
X2037Y151D01*
X2037Y150D01*
X2037Y150D01*
X2038Y149D01*
X2038Y149D01*
X2038Y149D01*
Y155D01*
X2047D01*
Y120D01*
X2037D01*
Y134D01*
X2037Y136D01*
X2037Y137D01*
X2037Y138D01*
X2037Y139D01*
X2037Y140D01*
X2036Y141D01*
X2036Y141D01*
X2036Y141D01*
X2036Y142D01*
X2035Y143D01*
X2035Y143D01*
X2034Y144D01*
X2034Y144D01*
X2034Y144D01*
X2034Y145D01*
X2033Y145D01*
X2033Y145D01*
X2032Y145D01*
X2031Y145D01*
X2030Y146D01*
X2030Y146D01*
X2029Y146D01*
X2029D01*
Y156D01*
X2029Y156D01*
X2030Y156D01*
X2030D01*
X2031Y156D01*
D02*
G37*
%LPC*%
G36*
X387Y180D02*
X387D01*
X384Y180D01*
X382Y179D01*
X381Y177D01*
X380Y175D01*
X379Y173D01*
X379Y172D01*
Y171D01*
Y170D01*
Y164D01*
X379Y161D01*
X380Y159D01*
X381Y157D01*
X382Y156D01*
X384Y155D01*
X385Y155D01*
X386Y154D01*
X387D01*
X389Y155D01*
X390Y155D01*
X391Y156D01*
X393Y158D01*
X394Y160D01*
X394Y163D01*
X395Y165D01*
X395Y166D01*
Y166D01*
Y166D01*
Y169D01*
X395Y171D01*
X394Y173D01*
X394Y174D01*
X393Y177D01*
X391Y178D01*
X389Y179D01*
X388Y180D01*
X387Y180D01*
D02*
G37*
G36*
X214Y781D02*
X212D01*
X211Y780D01*
X210Y780D01*
Y779D01*
Y779D01*
Y763D01*
X211Y762D01*
X211Y761D01*
X212Y761D01*
X214D01*
X214Y765D01*
Y776D01*
X214Y781D01*
D02*
G37*
G36*
X62Y181D02*
X62D01*
X59Y180D01*
X56Y179D01*
X55Y178D01*
X54Y176D01*
X53Y175D01*
X53Y173D01*
X52Y172D01*
Y172D01*
Y171D01*
X70D01*
X70Y174D01*
X69Y176D01*
X67Y178D01*
X66Y179D01*
X64Y180D01*
X63Y180D01*
X62Y181D01*
D02*
G37*
G36*
X245Y781D02*
X242D01*
Y763D01*
X243Y762D01*
X243Y761D01*
X243Y761D01*
X244D01*
X245Y762D01*
X246Y763D01*
X247Y763D01*
Y776D01*
X245Y781D01*
D02*
G37*
G36*
X428Y180D02*
X428D01*
X425Y180D01*
X423Y179D01*
X422Y177D01*
X421Y176D01*
X420Y174D01*
X419Y173D01*
X419Y172D01*
Y171D01*
Y164D01*
X419Y161D01*
X421Y159D01*
X422Y157D01*
X424Y156D01*
X425Y155D01*
X426Y155D01*
X428Y154D01*
X428D01*
X429Y155D01*
X431Y155D01*
X433Y156D01*
X435Y158D01*
X435Y161D01*
X436Y163D01*
X437Y165D01*
X437Y167D01*
Y167D01*
Y167D01*
Y169D01*
X436Y171D01*
X436Y173D01*
X435Y175D01*
X434Y177D01*
X432Y179D01*
X431Y179D01*
X429Y180D01*
X428Y180D01*
D02*
G37*
G36*
X229Y781D02*
X226D01*
Y761D01*
X229D01*
Y781D01*
D02*
G37*
G36*
X276Y114D02*
X275D01*
X273Y114D01*
X271Y113D01*
X270Y111D01*
X269Y109D01*
X269Y107D01*
X268Y105D01*
Y104D01*
Y104D01*
Y104D01*
Y100D01*
Y98D01*
X268Y96D01*
X269Y93D01*
X270Y91D01*
X271Y90D01*
X273Y89D01*
X274Y89D01*
X275Y88D01*
X277D01*
X278Y89D01*
X280Y89D01*
X281Y90D01*
X282Y92D01*
X283Y94D01*
X284Y96D01*
X284Y98D01*
Y99D01*
Y100D01*
Y103D01*
Y105D01*
X284Y107D01*
X283Y109D01*
X282Y112D01*
X280Y113D01*
X278Y114D01*
X277Y114D01*
X276Y114D01*
D02*
G37*
G36*
X182Y98D02*
X170D01*
Y94D01*
X170Y92D01*
X171Y90D01*
X172Y89D01*
X173Y89D01*
X174Y88D01*
X175Y88D01*
X181D01*
X183Y88D01*
X184Y89D01*
X185Y89D01*
X186Y90D01*
X186Y91D01*
X187Y92D01*
Y92D01*
Y93D01*
Y93D01*
X186Y95D01*
X186Y96D01*
X185Y97D01*
X184Y97D01*
X183Y98D01*
X182Y98D01*
D02*
G37*
G36*
X109Y114D02*
X105D01*
X103Y114D01*
X101Y113D01*
X100Y112D01*
X99Y110D01*
X98Y108D01*
X98Y107D01*
X98Y106D01*
Y105D01*
X115D01*
Y106D01*
X115Y108D01*
X114Y110D01*
X113Y112D01*
X112Y113D01*
X111Y113D01*
X109Y114D01*
X109Y114D01*
D02*
G37*
G36*
X347Y181D02*
X347D01*
X345Y180D01*
X343Y179D01*
X341Y178D01*
X340Y177D01*
X339Y175D01*
X339Y174D01*
X338Y173D01*
Y172D01*
Y171D01*
X356D01*
X355Y174D01*
X354Y177D01*
X352Y178D01*
X351Y179D01*
X350Y180D01*
X348Y180D01*
X347Y181D01*
D02*
G37*
G36*
X209Y180D02*
X207D01*
X206Y180D01*
X204Y178D01*
X202Y176D01*
X201Y174D01*
X200Y172D01*
X200Y170D01*
X200Y169D01*
Y169D01*
Y169D01*
Y166D01*
Y164D01*
X200Y162D01*
X201Y159D01*
X203Y157D01*
X204Y156D01*
X206Y155D01*
X207Y155D01*
X208Y154D01*
X209D01*
X211Y155D01*
X213Y156D01*
X215Y157D01*
X216Y159D01*
X216Y161D01*
X217Y162D01*
X217Y163D01*
Y163D01*
Y171D01*
X216Y174D01*
X215Y176D01*
X214Y178D01*
X213Y179D01*
X211Y180D01*
X210Y180D01*
X209Y180D01*
D02*
G37*
G36*
X349Y98D02*
X339D01*
Y93D01*
X340Y91D01*
X340Y90D01*
X341Y89D01*
X342Y88D01*
X343Y88D01*
X344Y88D01*
X350D01*
X352Y88D01*
X353Y89D01*
X354Y89D01*
X355Y90D01*
X356Y91D01*
X356Y92D01*
Y92D01*
Y93D01*
Y93D01*
X356Y95D01*
X355Y96D01*
X354Y97D01*
X352Y97D01*
X350Y98D01*
X349Y98D01*
D02*
G37*
G36*
X2009Y149D02*
X2008D01*
X2007Y149D01*
X2006Y149D01*
X2005Y148D01*
X2005Y148D01*
X2004Y147D01*
X2004Y147D01*
X2004Y147D01*
X2004Y147D01*
X2004Y146D01*
X2003Y146D01*
X2003Y144D01*
X2003Y143D01*
X2002Y141D01*
X2002Y140D01*
Y139D01*
X2002Y138D01*
Y138D01*
Y138D01*
Y137D01*
Y137D01*
Y136D01*
X2002Y135D01*
X2002Y134D01*
X2003Y133D01*
X2003Y132D01*
X2003Y132D01*
X2003Y131D01*
X2003Y130D01*
X2003Y130D01*
X2003Y130D01*
X2004Y129D01*
X2004Y129D01*
X2004Y129D01*
X2005Y128D01*
X2005Y127D01*
X2006Y127D01*
X2007Y127D01*
X2007Y126D01*
X2008Y126D01*
X2008Y126D01*
X2008D01*
X2009Y126D01*
X2010Y127D01*
X2011Y127D01*
X2012Y128D01*
X2012Y128D01*
X2012Y129D01*
X2013Y129D01*
X2013Y129D01*
X2013Y130D01*
X2013Y130D01*
X2013Y132D01*
X2014Y133D01*
X2014Y134D01*
X2014Y136D01*
Y136D01*
X2014Y137D01*
Y137D01*
Y138D01*
Y138D01*
Y138D01*
Y139D01*
X2014Y140D01*
X2014Y141D01*
X2014Y142D01*
X2014Y143D01*
X2014Y144D01*
X2013Y144D01*
X2013Y145D01*
X2013Y145D01*
X2013Y146D01*
X2013Y146D01*
X2013Y147D01*
X2013Y147D01*
X2012Y148D01*
X2011Y148D01*
X2010Y148D01*
X2010Y149D01*
X2009Y149D01*
X2009Y149D01*
D02*
G37*
G36*
X2368Y137D02*
X2368D01*
Y134D01*
X2368Y133D01*
X2368Y132D01*
X2368Y131D01*
X2369Y130D01*
X2369Y129D01*
X2369Y129D01*
X2369Y128D01*
X2370Y128D01*
X2370Y127D01*
X2371Y127D01*
X2372Y126D01*
X2372Y126D01*
X2373Y126D01*
X2374Y126D01*
X2374Y126D01*
X2374D01*
X2375Y126D01*
X2375Y126D01*
X2376Y126D01*
X2376Y127D01*
X2377Y127D01*
X2377Y127D01*
X2377Y127D01*
X2377Y127D01*
X2378Y128D01*
X2378Y128D01*
X2378Y129D01*
X2378Y129D01*
X2378Y130D01*
X2378Y130D01*
Y130D01*
Y130D01*
X2378Y131D01*
X2378Y132D01*
X2377Y133D01*
X2377Y134D01*
X2376Y134D01*
X2375Y135D01*
X2373Y136D01*
X2371Y136D01*
X2370Y137D01*
X2369Y137D01*
X2369Y137D01*
X2368Y137D01*
X2368Y137D01*
D02*
G37*
G36*
X2610Y149D02*
X2609D01*
X2608Y149D01*
X2607Y149D01*
X2607Y148D01*
X2606Y148D01*
X2606Y147D01*
X2605Y147D01*
X2605Y147D01*
X2605Y147D01*
X2605Y146D01*
X2605Y146D01*
X2604Y144D01*
X2604Y143D01*
X2604Y141D01*
X2604Y140D01*
Y139D01*
X2604Y138D01*
Y138D01*
Y138D01*
Y137D01*
Y137D01*
Y136D01*
X2604Y135D01*
X2604Y134D01*
X2604Y133D01*
X2604Y132D01*
X2604Y132D01*
X2604Y131D01*
X2604Y130D01*
X2605Y130D01*
X2605Y130D01*
X2605Y129D01*
X2605Y129D01*
X2605Y129D01*
X2606Y128D01*
X2607Y127D01*
X2607Y127D01*
X2608Y127D01*
X2609Y126D01*
X2609Y126D01*
X2609Y126D01*
X2609D01*
X2610Y126D01*
X2611Y127D01*
X2612Y127D01*
X2613Y128D01*
X2613Y128D01*
X2614Y129D01*
X2614Y129D01*
X2614Y129D01*
X2614Y130D01*
X2614Y130D01*
X2615Y132D01*
X2615Y133D01*
X2615Y134D01*
X2615Y136D01*
Y136D01*
X2615Y137D01*
Y137D01*
Y138D01*
Y138D01*
Y138D01*
Y139D01*
X2615Y140D01*
X2615Y141D01*
X2615Y142D01*
X2615Y143D01*
X2615Y144D01*
X2615Y144D01*
X2614Y145D01*
X2614Y145D01*
X2614Y146D01*
X2614Y146D01*
X2614Y147D01*
X2614Y147D01*
X2613Y148D01*
X2612Y148D01*
X2612Y148D01*
X2611Y149D01*
X2610Y149D01*
X2610Y149D01*
D02*
G37*
G36*
X2134D02*
X2134D01*
X2133Y149D01*
X2132Y149D01*
X2131Y148D01*
X2130Y148D01*
X2130Y147D01*
X2130Y147D01*
X2129Y147D01*
X2129Y147D01*
X2129Y146D01*
X2129Y146D01*
X2128Y144D01*
X2128Y143D01*
X2128Y141D01*
X2128Y140D01*
Y139D01*
X2128Y138D01*
Y138D01*
Y138D01*
Y137D01*
Y137D01*
Y136D01*
X2128Y135D01*
X2128Y134D01*
X2128Y133D01*
X2128Y132D01*
X2128Y132D01*
X2129Y131D01*
X2129Y130D01*
X2129Y130D01*
X2129Y130D01*
X2129Y129D01*
X2129Y129D01*
X2130Y129D01*
X2130Y128D01*
X2131Y127D01*
X2132Y127D01*
X2132Y127D01*
X2133Y126D01*
X2133Y126D01*
X2134Y126D01*
X2134D01*
X2135Y126D01*
X2136Y127D01*
X2136Y127D01*
X2137Y128D01*
X2138Y128D01*
X2138Y129D01*
X2138Y129D01*
X2138Y129D01*
X2138Y130D01*
X2139Y130D01*
X2139Y132D01*
X2139Y133D01*
X2139Y134D01*
X2139Y136D01*
Y136D01*
X2140Y137D01*
Y137D01*
Y138D01*
Y138D01*
Y138D01*
Y139D01*
X2139Y140D01*
X2139Y141D01*
X2139Y142D01*
X2139Y143D01*
X2139Y144D01*
X2139Y144D01*
X2139Y145D01*
X2139Y145D01*
X2139Y146D01*
X2138Y146D01*
X2138Y147D01*
X2138Y147D01*
X2138Y148D01*
X2137Y148D01*
X2136Y148D01*
X2135Y149D01*
X2135Y149D01*
X2134Y149D01*
D02*
G37*
G36*
X2242Y97D02*
X2242Y95D01*
X2242Y94D01*
Y94D01*
Y93D01*
Y93D01*
Y93D01*
Y93D01*
Y78D01*
X2254D01*
X2242Y97D01*
D02*
G37*
G36*
X2283Y81D02*
X2283D01*
X2282Y81D01*
X2281Y81D01*
X2280Y80D01*
X2279Y80D01*
X2279Y80D01*
X2278Y79D01*
X2278Y79D01*
X2278Y79D01*
X2277Y78D01*
X2277Y78D01*
X2276Y77D01*
X2276Y76D01*
X2276Y75D01*
X2276Y75D01*
Y74D01*
Y74D01*
Y74D01*
X2276Y73D01*
X2276Y72D01*
X2277Y71D01*
X2277Y70D01*
X2277Y70D01*
X2278Y69D01*
X2278Y69D01*
X2278Y69D01*
X2279Y68D01*
X2279Y68D01*
X2280Y68D01*
X2281Y67D01*
X2282Y67D01*
X2282Y67D01*
X2283D01*
X2284Y67D01*
X2284Y67D01*
X2285Y68D01*
X2286Y68D01*
X2287Y68D01*
X2287Y69D01*
X2287Y69D01*
X2287Y69D01*
X2288Y70D01*
X2288Y71D01*
X2289Y71D01*
X2289Y72D01*
X2289Y73D01*
X2289Y73D01*
Y74D01*
Y74D01*
X2289Y75D01*
X2289Y76D01*
X2289Y77D01*
X2288Y78D01*
X2288Y78D01*
X2287Y79D01*
X2287Y79D01*
X2287Y79D01*
X2286Y80D01*
X2286Y80D01*
X2285Y80D01*
X2284Y81D01*
X2283Y81D01*
X2283Y81D01*
D02*
G37*
G36*
X2323Y98D02*
X2323D01*
X2321Y98D01*
X2321Y97D01*
X2320Y97D01*
X2319Y97D01*
X2319Y96D01*
X2318Y96D01*
X2318Y96D01*
X2318Y96D01*
X2317Y95D01*
X2317Y94D01*
X2316Y93D01*
X2316Y93D01*
X2316Y92D01*
X2316Y91D01*
Y91D01*
Y91D01*
X2316Y90D01*
X2316Y89D01*
X2317Y88D01*
X2317Y88D01*
X2317Y87D01*
X2318Y87D01*
X2318Y86D01*
X2318Y86D01*
X2319Y86D01*
X2319Y85D01*
X2320Y85D01*
X2321Y85D01*
X2322Y85D01*
X2322Y84D01*
X2323D01*
X2324Y84D01*
X2325Y85D01*
X2325Y85D01*
X2326Y85D01*
X2327Y86D01*
X2327Y86D01*
X2327Y86D01*
X2327Y86D01*
X2328Y87D01*
X2328Y88D01*
X2329Y89D01*
X2329Y89D01*
X2329Y90D01*
X2329Y91D01*
Y91D01*
Y91D01*
X2329Y92D01*
X2329Y93D01*
X2328Y94D01*
X2328Y94D01*
X2328Y95D01*
X2328Y95D01*
X2327Y96D01*
X2327Y96D01*
X2326Y96D01*
X2326Y97D01*
X2325Y97D01*
X2324Y97D01*
X2323Y98D01*
X2323Y98D01*
D02*
G37*
G36*
X2490Y87D02*
X2489D01*
X2488Y87D01*
X2488Y87D01*
X2487Y87D01*
X2486Y86D01*
X2486Y86D01*
X2485Y85D01*
X2485Y85D01*
X2485Y84D01*
X2484Y83D01*
X2484Y82D01*
X2484Y82D01*
X2484Y81D01*
X2484Y81D01*
Y81D01*
Y81D01*
X2495D01*
X2495Y82D01*
X2495Y83D01*
X2495Y84D01*
X2494Y84D01*
X2494Y85D01*
X2493Y86D01*
X2493Y86D01*
X2492Y86D01*
X2492Y87D01*
X2491Y87D01*
X2490Y87D01*
X2490D01*
X2490Y87D01*
D02*
G37*
G36*
X2473Y149D02*
X2472D01*
X2471Y149D01*
X2471Y149D01*
X2470Y148D01*
X2469Y148D01*
X2469Y147D01*
X2468Y147D01*
X2468Y146D01*
X2467Y146D01*
X2467Y144D01*
X2467Y144D01*
X2467Y143D01*
X2467Y143D01*
X2466Y142D01*
Y142D01*
Y142D01*
X2479D01*
X2479Y143D01*
X2478Y144D01*
X2478Y145D01*
X2478Y146D01*
X2477Y147D01*
X2476Y147D01*
X2476Y148D01*
X2475Y148D01*
X2475Y148D01*
X2474Y149D01*
X2473Y149D01*
X2473D01*
X2473Y149D01*
D02*
G37*
G36*
X2271D02*
X2271D01*
X2270Y149D01*
X2269Y149D01*
X2269Y148D01*
X2268Y148D01*
X2267Y147D01*
X2267Y147D01*
X2267Y146D01*
X2266Y146D01*
X2266Y144D01*
X2266Y144D01*
X2265Y143D01*
X2265Y143D01*
X2265Y142D01*
Y142D01*
Y142D01*
X2278D01*
X2277Y143D01*
X2277Y144D01*
X2277Y145D01*
X2276Y146D01*
X2276Y147D01*
X2275Y147D01*
X2275Y148D01*
X2274Y148D01*
X2274Y148D01*
X2273Y149D01*
X2272Y149D01*
X2272D01*
X2271Y149D01*
D02*
G37*
G36*
X3086Y159D02*
X3079D01*
X3077Y159D01*
X3076Y159D01*
X3075Y158D01*
X3074Y158D01*
X3074Y158D01*
X3073Y157D01*
X3073Y157D01*
X3073Y157D01*
X3072Y156D01*
X3072Y156D01*
X3072Y155D01*
X3071Y154D01*
X3071Y154D01*
X3071Y153D01*
Y153D01*
Y153D01*
X3071Y152D01*
X3071Y151D01*
X3072Y150D01*
X3072Y149D01*
X3072Y149D01*
X3073Y149D01*
X3073Y148D01*
X3073Y148D01*
X3074Y148D01*
X3074Y147D01*
X3075Y147D01*
X3076Y147D01*
X3077Y146D01*
X3078Y146D01*
X3086D01*
Y159D01*
D02*
G37*
G36*
X2744Y149D02*
X2744D01*
X2743Y149D01*
X2742Y149D01*
X2741Y148D01*
X2740Y148D01*
X2740Y147D01*
X2739Y147D01*
X2739Y146D01*
X2739Y146D01*
X2738Y144D01*
X2738Y144D01*
X2738Y143D01*
X2738Y143D01*
X2738Y142D01*
Y142D01*
Y142D01*
X2750D01*
X2750Y143D01*
X2750Y144D01*
X2749Y145D01*
X2749Y146D01*
X2748Y147D01*
X2748Y147D01*
X2747Y148D01*
X2747Y148D01*
X2746Y148D01*
X2745Y149D01*
X2744Y149D01*
X2744D01*
X2744Y149D01*
D02*
G37*
G36*
X2782Y149D02*
X2781D01*
X2781Y149D01*
X2780Y148D01*
X2779Y148D01*
X2778Y147D01*
X2778Y146D01*
X2777Y145D01*
X2777Y144D01*
X2777Y144D01*
X2776Y142D01*
X2776Y141D01*
X2776Y140D01*
X2776Y139D01*
Y139D01*
Y139D01*
Y138D01*
Y137D01*
X2776Y136D01*
X2776Y135D01*
X2776Y134D01*
X2776Y133D01*
X2777Y132D01*
X2777Y132D01*
X2777Y131D01*
X2777Y130D01*
X2777Y130D01*
X2777Y130D01*
X2777Y129D01*
X2778Y129D01*
X2778Y129D01*
X2778Y128D01*
X2779Y128D01*
X2780Y127D01*
X2780Y127D01*
X2781Y127D01*
X2781Y127D01*
X2781D01*
X2782Y127D01*
X2783Y127D01*
X2783Y127D01*
X2784Y127D01*
X2784Y128D01*
X2784Y128D01*
X2785Y128D01*
X2785Y128D01*
X2785Y128D01*
X2786Y129D01*
X2786Y129D01*
X2786Y130D01*
X2786Y130D01*
X2786Y130D01*
X2787Y130D01*
Y130D01*
X2787Y131D01*
X2787Y132D01*
X2787Y133D01*
Y134D01*
X2787Y134D01*
Y135D01*
Y135D01*
Y135D01*
Y136D01*
Y141D01*
X2787Y142D01*
X2787Y143D01*
X2786Y145D01*
X2786Y145D01*
X2786Y146D01*
X2786Y146D01*
X2785Y147D01*
X2785Y147D01*
X2785Y147D01*
X2784Y148D01*
X2783Y148D01*
X2783Y148D01*
X2782Y149D01*
X2782Y149D01*
D02*
G37*
G36*
X3121Y149D02*
X3120D01*
X3119Y149D01*
X3118Y149D01*
X3117Y148D01*
X3117Y148D01*
X3116Y147D01*
X3116Y147D01*
X3116Y147D01*
X3116Y147D01*
X3115Y146D01*
X3115Y146D01*
X3115Y144D01*
X3115Y143D01*
X3114Y141D01*
X3114Y140D01*
Y139D01*
X3114Y138D01*
Y138D01*
Y138D01*
Y137D01*
Y137D01*
Y136D01*
X3114Y135D01*
X3114Y134D01*
X3114Y133D01*
X3115Y132D01*
X3115Y132D01*
X3115Y131D01*
X3115Y130D01*
X3115Y130D01*
X3115Y130D01*
X3116Y129D01*
X3116Y129D01*
X3116Y129D01*
X3117Y128D01*
X3117Y127D01*
X3118Y127D01*
X3119Y127D01*
X3119Y126D01*
X3120Y126D01*
X3120Y126D01*
X3120D01*
X3121Y126D01*
X3122Y127D01*
X3123Y127D01*
X3123Y128D01*
X3124Y128D01*
X3124Y129D01*
X3124Y129D01*
X3125Y129D01*
X3125Y130D01*
X3125Y130D01*
X3125Y132D01*
X3126Y133D01*
X3126Y134D01*
X3126Y136D01*
Y136D01*
X3126Y137D01*
Y137D01*
Y138D01*
Y138D01*
Y138D01*
Y139D01*
X3126Y140D01*
X3126Y141D01*
X3126Y142D01*
X3126Y143D01*
X3125Y144D01*
X3125Y144D01*
X3125Y145D01*
X3125Y145D01*
X3125Y146D01*
X3125Y146D01*
X3125Y147D01*
X3124Y147D01*
X3124Y148D01*
X3123Y148D01*
X3122Y148D01*
X3122Y149D01*
X3121Y149D01*
X3121Y149D01*
D02*
G37*
G36*
X2824Y159D02*
X2824D01*
X2823Y159D01*
X2822Y159D01*
X2821Y159D01*
X2821Y158D01*
X2820Y158D01*
X2819Y157D01*
X2818Y156D01*
X2817Y154D01*
X2817Y153D01*
X2816Y151D01*
X2816Y150D01*
X2816Y149D01*
X2815Y147D01*
X2815Y146D01*
X2815Y145D01*
X2815Y144D01*
Y144D01*
Y144D01*
Y144D01*
Y144D01*
Y142D01*
X2815Y141D01*
X2815Y140D01*
X2815Y139D01*
X2816Y138D01*
X2816Y137D01*
X2816Y135D01*
X2817Y134D01*
X2818Y132D01*
X2818Y131D01*
X2819Y130D01*
X2820Y130D01*
X2821Y129D01*
X2822Y129D01*
X2822Y129D01*
X2823Y129D01*
X2823Y129D01*
X2824D01*
X2824Y129D01*
X2825Y129D01*
X2826Y129D01*
X2826Y129D01*
X2828Y130D01*
X2828Y131D01*
X2829Y132D01*
X2830Y133D01*
X2831Y135D01*
X2831Y136D01*
X2831Y138D01*
X2832Y139D01*
X2832Y140D01*
X2832Y141D01*
X2832Y142D01*
X2832Y143D01*
Y143D01*
Y144D01*
Y144D01*
Y144D01*
Y145D01*
X2832Y146D01*
X2832Y148D01*
X2832Y149D01*
X2832Y150D01*
X2831Y151D01*
X2831Y153D01*
X2830Y154D01*
X2829Y155D01*
X2829Y156D01*
X2828Y157D01*
X2827Y158D01*
X2826Y158D01*
X2826Y159D01*
X2825Y159D01*
X2824Y159D01*
X2824Y159D01*
D02*
G37*
G36*
X2310Y149D02*
X2310D01*
X2309Y149D01*
X2308Y148D01*
X2307Y148D01*
X2307Y147D01*
X2306Y147D01*
X2306Y146D01*
X2305Y145D01*
X2305Y143D01*
X2305Y142D01*
X2305Y142D01*
X2305Y141D01*
Y141D01*
Y141D01*
Y140D01*
Y134D01*
X2305Y133D01*
X2305Y132D01*
X2305Y131D01*
X2306Y130D01*
X2306Y129D01*
X2306Y129D01*
X2306Y129D01*
X2306Y129D01*
X2307Y128D01*
X2308Y128D01*
X2308Y127D01*
X2309Y127D01*
X2309Y127D01*
X2310Y127D01*
X2310D01*
X2311Y127D01*
X2312Y127D01*
X2313Y128D01*
X2313Y128D01*
X2314Y129D01*
X2314Y130D01*
X2315Y131D01*
X2315Y132D01*
X2315Y134D01*
X2316Y135D01*
X2316Y135D01*
Y136D01*
X2316Y137D01*
Y137D01*
Y137D01*
X2316Y139D01*
X2315Y141D01*
X2315Y142D01*
X2315Y144D01*
X2314Y145D01*
X2314Y146D01*
X2313Y147D01*
X2313Y147D01*
X2312Y148D01*
X2312Y148D01*
X2311Y148D01*
X2311Y149D01*
X2310Y149D01*
X2310Y149D01*
D02*
G37*
G36*
X2945Y76D02*
X2944D01*
Y73D01*
X2945Y72D01*
X2945Y71D01*
X2945Y70D01*
X2945Y69D01*
X2946Y69D01*
X2946Y68D01*
X2946Y68D01*
X2946Y68D01*
X2947Y67D01*
X2948Y67D01*
X2948Y66D01*
X2949Y66D01*
X2950Y66D01*
X2950Y66D01*
X2950Y66D01*
X2951D01*
X2951Y66D01*
X2952Y66D01*
X2952Y66D01*
X2953Y66D01*
X2953Y66D01*
X2953Y67D01*
X2953Y67D01*
X2954Y67D01*
X2954Y67D01*
X2954Y68D01*
X2954Y68D01*
X2954Y69D01*
X2954Y69D01*
X2955Y70D01*
Y70D01*
Y70D01*
X2954Y71D01*
X2954Y72D01*
X2954Y72D01*
X2953Y73D01*
X2952Y73D01*
X2951Y74D01*
X2949Y75D01*
X2948Y75D01*
X2947Y76D01*
X2946Y76D01*
X2945Y76D01*
X2945Y76D01*
X2945Y76D01*
D02*
G37*
G36*
X2067Y87D02*
X2066D01*
X2065Y87D01*
X2064Y87D01*
X2064Y87D01*
X2063Y86D01*
X2063Y86D01*
X2063Y85D01*
X2062Y85D01*
X2062Y85D01*
X2062Y85D01*
X2062Y84D01*
X2061Y83D01*
X2061Y81D01*
X2061Y80D01*
X2061Y78D01*
Y78D01*
X2061Y77D01*
Y77D01*
Y77D01*
Y76D01*
Y76D01*
Y75D01*
X2061Y74D01*
X2061Y73D01*
X2061Y72D01*
X2061Y72D01*
X2061Y71D01*
X2062Y70D01*
X2062Y70D01*
X2062Y69D01*
X2062Y69D01*
X2062Y68D01*
X2062Y68D01*
X2062Y68D01*
X2063Y67D01*
X2064Y67D01*
X2064Y66D01*
X2065Y66D01*
X2066Y66D01*
X2066Y66D01*
X2066Y66D01*
X2066D01*
X2067Y66D01*
X2068Y66D01*
X2069Y67D01*
X2069Y67D01*
X2070Y68D01*
X2070Y68D01*
X2070Y68D01*
X2071Y68D01*
X2071Y69D01*
X2071Y70D01*
X2071Y71D01*
X2072Y72D01*
X2072Y74D01*
X2072Y75D01*
Y75D01*
X2072Y76D01*
Y76D01*
Y76D01*
Y77D01*
Y77D01*
Y78D01*
X2072Y79D01*
X2072Y80D01*
X2072Y81D01*
X2072Y81D01*
X2071Y82D01*
X2071Y83D01*
X2071Y83D01*
X2071Y84D01*
X2071Y84D01*
X2071Y85D01*
X2071Y85D01*
X2070Y85D01*
X2070Y86D01*
X2069Y86D01*
X2069Y87D01*
X2068Y87D01*
X2067Y87D01*
X2067Y87D01*
D02*
G37*
G36*
X2543D02*
X2543D01*
X2542Y87D01*
X2541Y87D01*
X2541Y87D01*
X2540Y86D01*
X2540Y86D01*
X2539Y85D01*
X2539Y85D01*
X2539Y85D01*
X2539Y85D01*
X2538Y84D01*
X2538Y83D01*
X2538Y81D01*
X2538Y80D01*
X2538Y78D01*
Y78D01*
X2538Y77D01*
Y77D01*
Y77D01*
Y76D01*
Y76D01*
Y75D01*
X2538Y74D01*
X2538Y73D01*
X2538Y72D01*
X2538Y72D01*
X2538Y71D01*
X2538Y70D01*
X2538Y70D01*
X2538Y69D01*
X2539Y69D01*
X2539Y68D01*
X2539Y68D01*
X2539Y68D01*
X2540Y67D01*
X2540Y67D01*
X2541Y66D01*
X2542Y66D01*
X2542Y66D01*
X2543Y66D01*
X2543Y66D01*
X2543D01*
X2544Y66D01*
X2545Y66D01*
X2546Y67D01*
X2546Y67D01*
X2547Y68D01*
X2547Y68D01*
X2547Y68D01*
X2547Y68D01*
X2547Y69D01*
X2548Y70D01*
X2548Y71D01*
X2548Y72D01*
X2548Y74D01*
X2548Y75D01*
Y75D01*
X2548Y76D01*
Y76D01*
Y76D01*
Y77D01*
Y77D01*
Y78D01*
X2548Y79D01*
X2548Y80D01*
X2548Y81D01*
X2548Y81D01*
X2548Y82D01*
X2548Y83D01*
X2548Y83D01*
X2548Y84D01*
X2548Y84D01*
X2547Y85D01*
X2547Y85D01*
X2547Y85D01*
X2547Y86D01*
X2546Y86D01*
X2545Y87D01*
X2545Y87D01*
X2544Y87D01*
X2543Y87D01*
D02*
G37*
G36*
X229Y1005D02*
X226D01*
X220Y1004D01*
X213Y1004D01*
X206Y1002D01*
X200Y1001D01*
X195Y1000D01*
X190Y998D01*
X189Y998D01*
X188Y998D01*
X187Y997D01*
X187D01*
X175Y990D01*
X165Y982D01*
X157Y974D01*
X149Y966D01*
X143Y957D01*
X138Y948D01*
X134Y939D01*
X130Y931D01*
X128Y923D01*
X126Y915D01*
X124Y909D01*
X123Y903D01*
X122Y898D01*
X122Y894D01*
Y892D01*
Y892D01*
Y891D01*
Y890D01*
X122Y881D01*
X123Y871D01*
X124Y862D01*
X126Y854D01*
X127Y847D01*
X128Y844D01*
X128Y842D01*
X129Y840D01*
X129Y838D01*
X130Y837D01*
Y837D01*
X130Y836D01*
X131Y835D01*
X132Y834D01*
X134Y832D01*
X138Y828D01*
X142Y825D01*
X147Y821D01*
X151Y818D01*
X153Y816D01*
X154Y816D01*
X155Y815D01*
X155Y815D01*
X169Y811D01*
X182Y808D01*
X194Y806D01*
X199Y805D01*
X204Y804D01*
X209Y804D01*
X214Y803D01*
X217Y803D01*
X220D01*
X223Y802D01*
X226D01*
X236Y803D01*
X245Y804D01*
X254Y804D01*
X262Y806D01*
X269Y807D01*
X272Y807D01*
X274Y808D01*
X276Y808D01*
X278D01*
X279Y809D01*
X279D01*
X282Y809D01*
X285Y810D01*
X292Y812D01*
X298Y816D01*
X305Y820D01*
X310Y823D01*
X315Y827D01*
X316Y828D01*
X317Y829D01*
X318Y830D01*
X319Y830D01*
X321Y831D01*
X322Y833D01*
X324Y836D01*
X325Y840D01*
X327Y845D01*
X328Y849D01*
X330Y860D01*
X331Y871D01*
X332Y876D01*
X332Y880D01*
X333Y884D01*
Y886D01*
X333Y888D01*
Y889D01*
X333Y896D01*
X332Y904D01*
X331Y910D01*
X329Y916D01*
X328Y921D01*
X327Y925D01*
X327Y926D01*
X327Y927D01*
X326Y928D01*
Y928D01*
X323Y935D01*
X319Y942D01*
X316Y948D01*
X312Y953D01*
X304Y964D01*
X296Y972D01*
X288Y980D01*
X280Y986D01*
X272Y991D01*
X264Y995D01*
X256Y998D01*
X249Y1001D01*
X243Y1002D01*
X237Y1004D01*
X233Y1004D01*
X229Y1005D01*
D02*
G37*
G36*
X2768Y76D02*
X2768D01*
Y73D01*
X2768Y72D01*
X2768Y71D01*
X2768Y70D01*
X2768Y69D01*
X2769Y69D01*
X2769Y68D01*
X2769Y68D01*
X2769Y68D01*
X2770Y67D01*
X2771Y67D01*
X2771Y66D01*
X2772Y66D01*
X2773Y66D01*
X2773Y66D01*
X2773Y66D01*
X2774D01*
X2774Y66D01*
X2775Y66D01*
X2775Y66D01*
X2776Y66D01*
X2776Y66D01*
X2776Y67D01*
X2776Y67D01*
X2777Y67D01*
X2777Y67D01*
X2777Y68D01*
X2777Y68D01*
X2777Y69D01*
X2778Y69D01*
X2778Y70D01*
Y70D01*
Y70D01*
X2777Y71D01*
X2777Y72D01*
X2777Y72D01*
X2776Y73D01*
X2775Y73D01*
X2774Y74D01*
X2773Y75D01*
X2771Y75D01*
X2770Y76D01*
X2769Y76D01*
X2768Y76D01*
X2768Y76D01*
X2768Y76D01*
D02*
G37*
G36*
X2839D02*
X2839D01*
Y73D01*
X2839Y72D01*
X2839Y71D01*
X2840Y70D01*
X2840Y69D01*
X2840Y69D01*
X2840Y68D01*
X2841Y68D01*
X2841Y68D01*
X2841Y67D01*
X2842Y67D01*
X2843Y66D01*
X2844Y66D01*
X2844Y66D01*
X2845Y66D01*
X2845Y66D01*
X2845D01*
X2846Y66D01*
X2846Y66D01*
X2847Y66D01*
X2847Y66D01*
X2848Y66D01*
X2848Y67D01*
X2848Y67D01*
X2848Y67D01*
X2848Y67D01*
X2849Y68D01*
X2849Y68D01*
X2849Y69D01*
X2849Y69D01*
X2849Y70D01*
Y70D01*
Y70D01*
X2849Y71D01*
X2849Y72D01*
X2848Y72D01*
X2847Y73D01*
X2847Y73D01*
X2846Y74D01*
X2844Y75D01*
X2842Y75D01*
X2841Y76D01*
X2841Y76D01*
X2840Y76D01*
X2839Y76D01*
X2839Y76D01*
D02*
G37*
G36*
X3139Y87D02*
X3139D01*
X3138Y87D01*
X3137Y87D01*
X3136Y86D01*
X3136Y85D01*
X3135Y85D01*
X3135Y84D01*
X3135Y83D01*
X3134Y82D01*
X3134Y80D01*
X3134Y80D01*
X3134Y79D01*
X3134Y78D01*
Y78D01*
Y77D01*
Y77D01*
Y76D01*
X3134Y75D01*
X3134Y74D01*
X3134Y73D01*
X3134Y72D01*
X3134Y71D01*
X3134Y71D01*
X3134Y70D01*
X3135Y70D01*
X3135Y69D01*
X3135Y69D01*
X3135Y69D01*
X3135Y68D01*
X3135Y68D01*
X3136Y68D01*
X3136Y67D01*
X3137Y67D01*
X3138Y67D01*
X3138Y67D01*
X3138Y66D01*
X3139D01*
X3139Y66D01*
X3140Y67D01*
X3140Y67D01*
X3141Y67D01*
X3141Y67D01*
X3142Y67D01*
X3142Y67D01*
X3142Y67D01*
X3142Y68D01*
X3143Y68D01*
X3143Y69D01*
X3143Y69D01*
X3143Y69D01*
X3143Y70D01*
X3144Y70D01*
Y70D01*
X3144Y70D01*
X3144Y71D01*
X3144Y72D01*
Y73D01*
X3144Y73D01*
Y74D01*
Y74D01*
Y75D01*
Y75D01*
Y79D01*
X3144Y81D01*
X3144Y82D01*
X3143Y83D01*
X3143Y84D01*
X3143Y84D01*
X3143Y85D01*
X3142Y85D01*
X3142Y85D01*
X3142Y86D01*
X3141Y86D01*
X3141Y87D01*
X3140Y87D01*
X3139Y87D01*
X3139Y87D01*
D02*
G37*
G36*
X2125D02*
X2125D01*
X2124Y87D01*
X2123Y87D01*
X2123Y86D01*
X2122Y86D01*
X2122Y85D01*
X2121Y85D01*
X2121Y83D01*
X2120Y82D01*
X2120Y81D01*
X2120Y80D01*
X2120Y80D01*
Y80D01*
Y79D01*
Y79D01*
Y73D01*
X2120Y72D01*
X2120Y71D01*
X2121Y70D01*
X2121Y69D01*
X2121Y69D01*
X2122Y69D01*
X2122Y68D01*
X2122Y68D01*
X2122Y68D01*
X2123Y67D01*
X2124Y67D01*
X2124Y67D01*
X2125Y67D01*
X2125Y66D01*
X2125D01*
X2126Y67D01*
X2127Y67D01*
X2128Y67D01*
X2128Y68D01*
X2129Y69D01*
X2129Y70D01*
X2130Y70D01*
X2130Y71D01*
X2130Y73D01*
X2130Y74D01*
X2130Y75D01*
Y75D01*
X2130Y76D01*
Y76D01*
Y76D01*
X2130Y78D01*
X2130Y80D01*
X2130Y81D01*
X2130Y82D01*
X2129Y83D01*
X2129Y84D01*
X2128Y85D01*
X2128Y86D01*
X2127Y86D01*
X2127Y86D01*
X2126Y87D01*
X2126Y87D01*
X2125Y87D01*
X2125Y87D01*
D02*
G37*
G36*
X2808D02*
X2808D01*
X2807Y87D01*
X2806Y87D01*
X2805Y86D01*
X2805Y86D01*
X2805Y85D01*
X2804Y85D01*
X2804Y83D01*
X2803Y82D01*
X2803Y81D01*
X2803Y80D01*
X2803Y80D01*
Y80D01*
Y79D01*
Y79D01*
Y73D01*
X2803Y72D01*
X2803Y71D01*
X2803Y70D01*
X2804Y69D01*
X2804Y69D01*
X2804Y69D01*
X2804Y68D01*
X2805Y68D01*
X2805Y68D01*
X2806Y67D01*
X2806Y67D01*
X2807Y67D01*
X2807Y67D01*
X2808Y66D01*
X2808D01*
X2809Y67D01*
X2810Y67D01*
X2810Y67D01*
X2811Y68D01*
X2812Y69D01*
X2812Y70D01*
X2812Y70D01*
X2813Y71D01*
X2813Y73D01*
X2813Y74D01*
X2813Y75D01*
Y75D01*
X2813Y76D01*
Y76D01*
Y76D01*
X2813Y78D01*
X2813Y80D01*
X2813Y81D01*
X2812Y82D01*
X2812Y83D01*
X2812Y84D01*
X2811Y85D01*
X2810Y86D01*
X2810Y86D01*
X2809Y86D01*
X2809Y87D01*
X2809Y87D01*
X2808Y87D01*
X2808Y87D01*
D02*
G37*
G36*
X2673Y87D02*
X2672D01*
X2671Y87D01*
X2670Y87D01*
X2670Y87D01*
X2669Y86D01*
X2669Y86D01*
X2669Y85D01*
X2668Y85D01*
X2668Y85D01*
X2668Y85D01*
X2668Y84D01*
X2667Y83D01*
X2667Y81D01*
X2667Y80D01*
X2667Y78D01*
Y78D01*
X2667Y77D01*
Y77D01*
Y77D01*
Y76D01*
Y76D01*
Y75D01*
X2667Y74D01*
X2667Y73D01*
X2667Y72D01*
X2667Y72D01*
X2667Y71D01*
X2668Y70D01*
X2668Y70D01*
X2668Y69D01*
X2668Y69D01*
X2668Y68D01*
X2668Y68D01*
X2668Y68D01*
X2669Y67D01*
X2670Y67D01*
X2670Y66D01*
X2671Y66D01*
X2672Y66D01*
X2672Y66D01*
X2672Y66D01*
X2672D01*
X2673Y66D01*
X2674Y66D01*
X2675Y67D01*
X2675Y67D01*
X2676Y68D01*
X2676Y68D01*
X2676Y68D01*
X2677Y68D01*
X2677Y69D01*
X2677Y70D01*
X2677Y71D01*
X2678Y72D01*
X2678Y74D01*
X2678Y75D01*
Y75D01*
X2678Y76D01*
Y76D01*
Y76D01*
Y77D01*
Y77D01*
Y78D01*
X2678Y79D01*
X2678Y80D01*
X2678Y81D01*
X2678Y81D01*
X2677Y82D01*
X2677Y83D01*
X2677Y83D01*
X2677Y84D01*
X2677Y84D01*
X2677Y85D01*
X2677Y85D01*
X2676Y85D01*
X2676Y86D01*
X2675Y86D01*
X2675Y87D01*
X2674Y87D01*
X2673Y87D01*
X2673Y87D01*
D02*
G37*
G36*
X2031Y87D02*
X2030D01*
X2029Y87D01*
X2029Y87D01*
X2028Y86D01*
X2027Y85D01*
X2027Y85D01*
X2026Y84D01*
X2026Y83D01*
X2026Y82D01*
X2025Y80D01*
X2025Y80D01*
X2025Y79D01*
X2025Y78D01*
Y78D01*
Y77D01*
Y77D01*
Y76D01*
X2025Y75D01*
X2025Y74D01*
X2025Y73D01*
X2025Y72D01*
X2026Y71D01*
X2026Y71D01*
X2026Y70D01*
X2026Y70D01*
X2026Y69D01*
X2026Y69D01*
X2026Y69D01*
X2027Y68D01*
X2027Y68D01*
X2027Y68D01*
X2028Y67D01*
X2029Y67D01*
X2029Y67D01*
X2030Y67D01*
X2030Y66D01*
X2030D01*
X2031Y66D01*
X2031Y67D01*
X2032Y67D01*
X2032Y67D01*
X2033Y67D01*
X2033Y67D01*
X2033Y67D01*
X2033Y67D01*
X2034Y68D01*
X2034Y68D01*
X2034Y69D01*
X2035Y69D01*
X2035Y69D01*
X2035Y70D01*
X2035Y70D01*
Y70D01*
X2035Y70D01*
X2035Y71D01*
X2035Y72D01*
Y73D01*
X2035Y73D01*
Y74D01*
Y74D01*
Y75D01*
Y75D01*
Y79D01*
X2035Y81D01*
X2035Y82D01*
X2035Y83D01*
X2035Y84D01*
X2034Y84D01*
X2034Y85D01*
X2034Y85D01*
X2034Y85D01*
X2033Y86D01*
X2033Y86D01*
X2032Y87D01*
X2031Y87D01*
X2031Y87D01*
X2031Y87D01*
D02*
G37*
G36*
X2601D02*
X2601D01*
X2600Y87D01*
X2599Y87D01*
X2599Y86D01*
X2598Y85D01*
X2597Y85D01*
X2597Y84D01*
X2597Y83D01*
X2596Y82D01*
X2596Y80D01*
X2596Y80D01*
X2596Y79D01*
X2596Y78D01*
Y78D01*
Y77D01*
Y77D01*
Y76D01*
X2596Y75D01*
X2596Y74D01*
X2596Y73D01*
X2596Y72D01*
X2596Y71D01*
X2596Y71D01*
X2597Y70D01*
X2597Y70D01*
X2597Y69D01*
X2597Y69D01*
X2597Y69D01*
X2597Y68D01*
X2597Y68D01*
X2598Y68D01*
X2599Y67D01*
X2599Y67D01*
X2600Y67D01*
X2600Y67D01*
X2601Y66D01*
X2601D01*
X2602Y66D01*
X2602Y67D01*
X2603Y67D01*
X2603Y67D01*
X2603Y67D01*
X2604Y67D01*
X2604Y67D01*
X2604Y67D01*
X2604Y68D01*
X2605Y68D01*
X2605Y69D01*
X2605Y69D01*
X2605Y69D01*
X2606Y70D01*
X2606Y70D01*
Y70D01*
X2606Y70D01*
X2606Y71D01*
X2606Y72D01*
Y73D01*
X2606Y73D01*
Y74D01*
Y74D01*
Y75D01*
Y75D01*
Y79D01*
X2606Y81D01*
X2606Y82D01*
X2606Y83D01*
X2605Y84D01*
X2605Y84D01*
X2605Y85D01*
X2605Y85D01*
X2605Y85D01*
X2604Y86D01*
X2603Y86D01*
X2603Y87D01*
X2602Y87D01*
X2602Y87D01*
X2601Y87D01*
D02*
G37*
%LPD*%
G36*
X236Y982D02*
X242Y981D01*
X248Y980D01*
X253Y978D01*
X257Y976D01*
X261Y975D01*
X263Y974D01*
X263Y974D01*
X270Y968D01*
X277Y963D01*
X282Y957D01*
X287Y951D01*
X291Y944D01*
X294Y938D01*
X297Y932D01*
X299Y926D01*
X301Y921D01*
X302Y916D01*
X303Y911D01*
X304Y907D01*
X304Y904D01*
X304Y902D01*
Y900D01*
Y900D01*
Y897D01*
X304Y890D01*
X303Y883D01*
X301Y876D01*
X299Y869D01*
X297Y863D01*
X294Y857D01*
X291Y852D01*
X288Y848D01*
X285Y843D01*
X282Y840D01*
X279Y837D01*
X277Y834D01*
X275Y832D01*
X273Y830D01*
X272Y830D01*
X272Y829D01*
X273Y823D01*
Y821D01*
X273Y819D01*
X272Y817D01*
Y816D01*
X272Y816D01*
X272Y815D01*
X270Y814D01*
X269Y813D01*
X265Y812D01*
X261Y811D01*
X257Y810D01*
X253Y810D01*
X252D01*
X251Y810D01*
X250D01*
X248Y811D01*
X246Y812D01*
X245Y814D01*
X245Y816D01*
X244Y818D01*
X244Y819D01*
Y820D01*
Y821D01*
Y822D01*
X242D01*
Y820D01*
X241Y816D01*
X240Y813D01*
X239Y811D01*
X237Y810D01*
X235Y809D01*
X234Y808D01*
X233Y808D01*
X223D01*
X220Y808D01*
X218Y810D01*
X216Y812D01*
X215Y815D01*
X214Y817D01*
X213Y820D01*
X213Y821D01*
Y822D01*
X214Y822D01*
Y822D01*
X211D01*
X212Y822D01*
X212D01*
X212Y820D01*
X211Y817D01*
X209Y814D01*
X208Y812D01*
X208Y811D01*
X207Y810D01*
X207Y810D01*
X204Y810D01*
X203Y810D01*
X202Y811D01*
X198D01*
X195Y811D01*
X192Y812D01*
X190Y812D01*
X186Y814D01*
X184Y816D01*
X183Y817D01*
X182Y818D01*
X182Y820D01*
Y820D01*
X182Y823D01*
X183Y826D01*
X184Y828D01*
X184Y828D01*
Y828D01*
X179Y834D01*
X173Y840D01*
X169Y845D01*
X165Y851D01*
X162Y856D01*
X159Y862D01*
X157Y867D01*
X155Y872D01*
X154Y877D01*
X153Y881D01*
X152Y885D01*
X152Y888D01*
Y891D01*
X151Y893D01*
Y894D01*
Y895D01*
Y906D01*
X152Y909D01*
X152Y913D01*
X153Y917D01*
X154Y921D01*
X155Y925D01*
X156Y927D01*
X156Y929D01*
X157Y930D01*
X161Y939D01*
X166Y947D01*
X172Y955D01*
X177Y961D01*
X183Y966D01*
X189Y970D01*
X195Y973D01*
X200Y976D01*
X206Y978D01*
X210Y980D01*
X215Y981D01*
X219Y982D01*
X222Y982D01*
X224Y983D01*
X229D01*
X236Y982D01*
D02*
G37*
%LPC*%
G36*
X229Y876D02*
X227Y876D01*
X227Y875D01*
X225Y873D01*
X224Y870D01*
X222Y866D01*
X222Y863D01*
X221Y859D01*
X220Y857D01*
Y857D01*
Y856D01*
X221Y850D01*
X223D01*
X224Y853D01*
X224Y855D01*
X225Y857D01*
X226Y858D01*
X226Y859D01*
X227Y859D01*
X228D01*
X229Y859D01*
X230Y858D01*
X231Y857D01*
X231Y855D01*
X232Y853D01*
X233Y852D01*
X233Y851D01*
Y850D01*
X235D01*
Y852D01*
X235Y853D01*
X235Y854D01*
Y854D01*
X235Y860D01*
X233Y865D01*
X232Y868D01*
X231Y871D01*
X230Y873D01*
X229Y875D01*
X229Y876D01*
Y876D01*
D02*
G37*
G36*
X262Y920D02*
X261D01*
X256Y919D01*
X252Y918D01*
X248Y916D01*
X245Y913D01*
X243Y910D01*
X242Y908D01*
X241Y906D01*
X241Y906D01*
X241Y902D01*
X242Y899D01*
X243Y897D01*
X244Y897D01*
Y896D01*
X267Y884D01*
X267Y881D01*
X268Y879D01*
X268Y878D01*
X269Y877D01*
X269Y876D01*
X270Y875D01*
X272D01*
X275Y878D01*
X278Y881D01*
X280Y884D01*
X281Y888D01*
X282Y892D01*
X282Y895D01*
Y897D01*
Y898D01*
Y901D01*
X281Y904D01*
X279Y908D01*
X276Y912D01*
X272Y916D01*
X269Y918D01*
X266Y919D01*
X264Y920D01*
X262Y920D01*
D02*
G37*
G36*
X195D02*
X194D01*
X191Y920D01*
X188Y919D01*
X186Y918D01*
X184Y916D01*
X180Y913D01*
X177Y909D01*
X175Y904D01*
X174Y901D01*
X173Y899D01*
Y898D01*
X173Y898D01*
Y897D01*
X173Y893D01*
X174Y890D01*
X175Y887D01*
X176Y884D01*
X178Y881D01*
X180Y878D01*
X183Y877D01*
X184Y876D01*
X186Y875D01*
X187D01*
X187Y879D01*
X188Y882D01*
X189Y884D01*
X189Y885D01*
Y885D01*
X194Y887D01*
X198Y889D01*
X201Y891D01*
X204Y892D01*
X207Y894D01*
X209Y896D01*
X212Y898D01*
X214Y901D01*
X215Y902D01*
X215Y904D01*
Y904D01*
Y905D01*
X212Y910D01*
X209Y914D01*
X206Y916D01*
X202Y918D01*
X199Y919D01*
X197Y920D01*
X195Y920D01*
D02*
G37*
%LPD*%
M02*
