G04 Layer_Color=65535*
%FSLAX23Y23*%
%MOIN*%
G70*
G01*
G75*
%ADD36C,0.010*%
%ADD50C,0.012*%
%ADD51C,0.010*%
%ADD52C,0.010*%
%ADD53C,0.004*%
%ADD54C,0.024*%
%ADD55C,0.008*%
%ADD56C,0.005*%
%ADD57R,0.012X0.012*%
%ADD58R,0.012X0.006*%
%ADD59R,0.012X0.006*%
G36*
X2937Y990D02*
X2926D01*
X2906Y1026D01*
Y1026D01*
Y1025D01*
Y1025D01*
Y1024D01*
X2906Y1024D01*
Y1024D01*
Y1024D01*
Y1024D01*
X2906Y1023D01*
Y1023D01*
X2906Y1022D01*
Y1022D01*
Y990D01*
X2897D01*
Y1043D01*
X2910D01*
X2928Y1012D01*
Y1012D01*
Y1012D01*
X2928Y1012D01*
Y1013D01*
X2928Y1014D01*
X2928Y1015D01*
Y1015D01*
Y1043D01*
X2937D01*
Y990D01*
D02*
G37*
G36*
X2217Y869D02*
X2217Y868D01*
Y826D01*
Y826D01*
Y826D01*
X2217Y825D01*
X2216Y825D01*
X1806D01*
X1806Y825D01*
X1805Y826D01*
X1805Y826D01*
Y868D01*
Y868D01*
X1805Y869D01*
X1806Y869D01*
X1806Y869D01*
X2217D01*
X2217Y869D01*
D02*
G37*
G36*
X2649Y992D02*
Y991D01*
X2649Y991D01*
X2649Y991D01*
X2648Y991D01*
X2648Y990D01*
X2648Y989D01*
X2648Y988D01*
X2647Y987D01*
X2646Y985D01*
X2646Y984D01*
X2645Y983D01*
X2645Y983D01*
X2645Y982D01*
X2645Y982D01*
X2644Y981D01*
X2644Y980D01*
X2643Y980D01*
X2642Y979D01*
X2641Y978D01*
X2641Y978D01*
X2641Y978D01*
X2640Y978D01*
X2639Y977D01*
X2638Y977D01*
X2637Y977D01*
X2635Y976D01*
X2634Y976D01*
X2633D01*
X2632Y976D01*
X2631D01*
X2630Y977D01*
X2629Y977D01*
X2628Y977D01*
Y986D01*
X2628D01*
X2629Y986D01*
X2629Y986D01*
X2630Y985D01*
X2631Y985D01*
X2632Y985D01*
X2634Y985D01*
X2634D01*
X2635Y985D01*
X2635Y985D01*
X2636Y986D01*
X2637Y986D01*
X2638Y986D01*
X2638Y987D01*
X2638Y987D01*
X2638Y987D01*
X2639Y987D01*
X2639Y987D01*
X2639Y988D01*
X2639Y989D01*
X2640Y989D01*
X2640Y990D01*
X2626Y1029D01*
X2638D01*
X2645Y1006D01*
X2653Y1029D01*
X2661D01*
X2649Y992D01*
D02*
G37*
G36*
X2878Y990D02*
X2865D01*
X2857Y1025D01*
X2848Y990D01*
X2836D01*
X2823Y1043D01*
X2835D01*
X2843Y1011D01*
Y1010D01*
X2843Y1010D01*
Y1010D01*
X2843Y1010D01*
X2843Y1009D01*
X2843Y1009D01*
Y1009D01*
X2843Y1008D01*
X2843Y1008D01*
X2843Y1007D01*
X2852Y1043D01*
X2863D01*
X2872Y1007D01*
Y1007D01*
X2872Y1007D01*
Y1008D01*
X2872Y1008D01*
X2873Y1008D01*
X2873Y1009D01*
X2873Y1010D01*
X2873Y1011D01*
X2881Y1043D01*
X2891D01*
X2878Y990D01*
D02*
G37*
G36*
X3306Y671D02*
X3307Y671D01*
X3307Y670D01*
X3307Y670D01*
X3308Y669D01*
X3308Y668D01*
X3308Y668D01*
Y667D01*
Y667D01*
X3308Y666D01*
X3308Y666D01*
X3308Y665D01*
X3308Y664D01*
X3309Y663D01*
X3309Y661D01*
X3309Y659D01*
X3310Y658D01*
X3310Y657D01*
X3310Y657D01*
X3310Y656D01*
X3310Y655D01*
X3310Y655D01*
X3310D01*
X3311Y655D01*
X3311Y655D01*
X3312Y654D01*
X3313Y654D01*
X3314Y654D01*
X3316Y653D01*
X3318Y652D01*
X3318Y652D01*
X3319Y651D01*
X3320Y651D01*
X3321Y651D01*
X3321Y651D01*
X3321Y651D01*
X3322Y651D01*
X3322Y651D01*
X3322Y652D01*
X3323Y652D01*
X3324Y653D01*
X3325Y653D01*
X3328Y655D01*
X3330Y657D01*
X3331Y657D01*
X3332Y658D01*
X3333Y659D01*
X3334Y659D01*
X3334Y659D01*
X3334Y659D01*
X3335D01*
X3335Y659D01*
X3335Y659D01*
X3336Y658D01*
X3336Y658D01*
X3337Y657D01*
X3338Y656D01*
X3338Y656D01*
X3339Y655D01*
X3340Y654D01*
X3341Y653D01*
X3343Y651D01*
X3344Y650D01*
X3345Y649D01*
Y648D01*
Y648D01*
X3345Y648D01*
X3345Y648D01*
X3345Y648D01*
X3345Y647D01*
X3344Y647D01*
X3344Y646D01*
X3343Y645D01*
X3343Y644D01*
X3342Y643D01*
X3341Y641D01*
X3340Y640D01*
X3338Y638D01*
X3337Y636D01*
Y635D01*
X3337Y635D01*
X3337Y635D01*
X3337Y634D01*
X3338Y633D01*
X3338Y633D01*
X3338Y632D01*
X3339Y630D01*
X3340Y627D01*
X3341Y626D01*
X3341Y626D01*
X3341Y625D01*
X3342Y624D01*
X3342Y624D01*
X3342Y624D01*
X3342D01*
X3343Y624D01*
X3344Y624D01*
X3345Y624D01*
X3346Y623D01*
X3347Y623D01*
X3350Y623D01*
X3352Y622D01*
X3353Y622D01*
X3355Y622D01*
X3355Y621D01*
X3356Y621D01*
X3357Y621D01*
X3357Y621D01*
X3357Y621D01*
X3357Y621D01*
X3357Y620D01*
Y620D01*
Y606D01*
X3357Y606D01*
X3357Y605D01*
X3356Y605D01*
X3356Y605D01*
X3355Y605D01*
X3355Y605D01*
X3354Y605D01*
X3353Y605D01*
X3353Y604D01*
X3352Y604D01*
X3350Y604D01*
X3350D01*
X3350Y604D01*
X3350D01*
X3349Y604D01*
X3349Y604D01*
X3348Y604D01*
X3347Y603D01*
X3345Y603D01*
X3344Y603D01*
X3343Y603D01*
X3343Y602D01*
X3342Y602D01*
X3342Y602D01*
X3342Y602D01*
X3342Y602D01*
X3341Y601D01*
X3341Y600D01*
X3341Y600D01*
X3340Y599D01*
X3340Y597D01*
X3339Y594D01*
X3338Y594D01*
X3338Y593D01*
X3338Y592D01*
X3338Y591D01*
X3337Y591D01*
X3337Y591D01*
Y591D01*
X3337Y590D01*
X3338Y590D01*
X3338Y590D01*
X3338Y589D01*
X3338Y589D01*
X3339Y588D01*
X3339Y587D01*
X3340Y586D01*
X3341Y585D01*
X3342Y584D01*
X3343Y582D01*
X3344Y580D01*
X3346Y578D01*
Y578D01*
X3345Y578D01*
X3345Y578D01*
X3345Y577D01*
X3345Y577D01*
X3344Y577D01*
X3344Y576D01*
X3343Y575D01*
X3342Y574D01*
X3341Y573D01*
X3340Y572D01*
X3338Y571D01*
X3337Y569D01*
X3335Y567D01*
X3334D01*
X3334Y567D01*
X3334Y567D01*
X3333Y568D01*
X3332Y568D01*
X3331Y569D01*
X3330Y570D01*
X3328Y571D01*
X3326Y573D01*
X3325Y573D01*
X3324Y574D01*
X3323Y574D01*
X3323Y575D01*
X3322Y575D01*
X3322Y575D01*
X3322D01*
X3322Y575D01*
X3321Y575D01*
X3321Y575D01*
X3320Y574D01*
X3319Y574D01*
X3318Y573D01*
X3317Y573D01*
X3316Y572D01*
X3316Y572D01*
X3316D01*
Y572D01*
X3316Y572D01*
X3316Y573D01*
X3316Y573D01*
X3315Y574D01*
X3315Y574D01*
X3314Y576D01*
X3314Y578D01*
X3313Y580D01*
X3312Y582D01*
X3311Y585D01*
X3310Y587D01*
X3309Y589D01*
X3308Y591D01*
X3307Y593D01*
X3307Y595D01*
X3306Y596D01*
X3306Y596D01*
X3306Y597D01*
X3306Y597D01*
X3306Y598D01*
Y598D01*
X3306Y598D01*
X3306Y598D01*
X3306Y599D01*
X3307Y599D01*
X3308Y600D01*
X3309Y600D01*
X3310Y601D01*
X3310Y602D01*
X3311Y603D01*
X3312Y604D01*
X3313Y605D01*
X3314Y607D01*
X3314Y608D01*
X3315Y610D01*
X3315Y611D01*
X3315Y613D01*
Y613D01*
Y613D01*
Y614D01*
X3315Y614D01*
X3315Y615D01*
X3315Y616D01*
X3315Y617D01*
X3314Y618D01*
X3314Y619D01*
X3313Y621D01*
X3312Y622D01*
X3311Y623D01*
X3310Y625D01*
X3309Y626D01*
X3307Y627D01*
X3305Y628D01*
X3303Y629D01*
X3303D01*
X3302Y629D01*
X3302Y629D01*
X3301Y629D01*
X3300D01*
X3300Y629D01*
X3299Y629D01*
X3299D01*
X3298Y629D01*
X3297Y629D01*
X3297Y629D01*
X3296Y629D01*
X3294Y628D01*
X3293Y628D01*
X3292Y627D01*
X3291Y627D01*
X3290Y626D01*
X3288Y625D01*
X3287Y623D01*
X3286Y622D01*
X3285Y620D01*
X3284Y618D01*
Y618D01*
X3284Y618D01*
X3284Y617D01*
X3284Y616D01*
X3283Y616D01*
X3283Y615D01*
X3283Y613D01*
Y613D01*
Y612D01*
X3283Y612D01*
X3283Y611D01*
X3283Y611D01*
X3284Y610D01*
X3284Y609D01*
X3284Y608D01*
X3285Y606D01*
X3285Y605D01*
X3286Y604D01*
X3287Y603D01*
X3288Y601D01*
X3290Y600D01*
X3291Y599D01*
X3293Y598D01*
Y598D01*
Y597D01*
X3293Y597D01*
X3293Y597D01*
X3292Y596D01*
X3292Y596D01*
X3292Y595D01*
X3291Y594D01*
X3291Y592D01*
X3290Y590D01*
X3289Y587D01*
X3288Y585D01*
X3287Y583D01*
X3286Y580D01*
X3285Y578D01*
X3284Y576D01*
X3283Y575D01*
X3283Y574D01*
X3283Y573D01*
X3283Y573D01*
X3282Y573D01*
X3282Y572D01*
X3282Y572D01*
X3282D01*
X3282Y572D01*
X3281Y573D01*
X3281Y573D01*
X3280Y573D01*
X3278Y574D01*
X3277Y575D01*
X3276Y575D01*
X3276Y575D01*
X3276Y575D01*
X3275Y574D01*
X3274Y574D01*
X3274Y573D01*
X3273Y573D01*
X3270Y571D01*
X3268Y570D01*
X3267Y569D01*
X3266Y568D01*
X3265Y568D01*
X3265Y567D01*
X3264Y567D01*
X3264Y567D01*
X3264D01*
X3264Y567D01*
X3263Y568D01*
X3262Y568D01*
X3262Y569D01*
X3261Y569D01*
X3261Y570D01*
X3260Y571D01*
X3259Y572D01*
X3258Y573D01*
X3257Y574D01*
X3256Y575D01*
X3255Y576D01*
X3253Y578D01*
Y578D01*
Y578D01*
X3253Y578D01*
X3253Y579D01*
X3253Y579D01*
X3254Y579D01*
X3254Y580D01*
X3255Y580D01*
X3255Y581D01*
X3256Y582D01*
X3256Y583D01*
X3257Y585D01*
X3258Y586D01*
X3260Y588D01*
X3261Y590D01*
Y591D01*
Y591D01*
X3261Y591D01*
X3261Y592D01*
X3260Y593D01*
X3260Y593D01*
X3260Y594D01*
X3259Y597D01*
X3258Y599D01*
X3258Y600D01*
X3257Y601D01*
X3257Y601D01*
X3256Y602D01*
X3256Y603D01*
X3256Y603D01*
X3256D01*
X3255Y603D01*
X3255Y603D01*
X3254Y603D01*
X3253Y603D01*
X3252Y603D01*
X3249Y604D01*
X3246Y604D01*
X3245Y605D01*
X3244Y605D01*
X3243Y605D01*
X3242Y605D01*
X3242Y605D01*
X3242Y605D01*
X3241Y606D01*
Y620D01*
Y620D01*
Y620D01*
X3241Y620D01*
X3242Y621D01*
X3242Y621D01*
X3242Y621D01*
X3243Y622D01*
X3244Y622D01*
X3244D01*
X3244Y622D01*
X3245Y622D01*
X3246Y622D01*
X3247Y622D01*
X3248Y622D01*
X3250Y623D01*
X3253Y623D01*
X3254Y624D01*
X3255Y624D01*
X3256Y624D01*
X3256Y624D01*
X3257Y624D01*
X3257Y624D01*
X3257Y625D01*
X3257Y625D01*
X3257Y625D01*
X3258Y626D01*
X3258Y627D01*
X3258Y628D01*
X3259Y630D01*
X3260Y631D01*
X3260Y632D01*
X3261Y633D01*
X3261Y634D01*
X3261Y635D01*
X3261Y635D01*
X3261Y635D01*
Y636D01*
X3253Y648D01*
Y649D01*
X3253Y649D01*
X3253Y649D01*
X3254Y650D01*
X3255Y650D01*
X3256Y651D01*
X3256Y652D01*
X3258Y654D01*
X3260Y656D01*
X3261Y657D01*
X3262Y658D01*
X3263Y659D01*
X3263Y659D01*
X3264Y659D01*
X3264Y660D01*
X3277Y651D01*
X3277D01*
X3277Y651D01*
X3278Y651D01*
X3278Y651D01*
X3279Y651D01*
X3280Y652D01*
X3282Y652D01*
X3283Y653D01*
X3285Y654D01*
X3287Y655D01*
X3288Y655D01*
X3288Y655D01*
Y656D01*
X3288Y656D01*
X3289Y657D01*
X3289Y658D01*
X3289Y659D01*
X3289Y660D01*
X3290Y663D01*
X3290Y666D01*
X3291Y667D01*
X3291Y669D01*
X3291Y670D01*
X3291Y670D01*
X3292Y671D01*
X3292Y671D01*
X3306D01*
X3306Y671D01*
D02*
G37*
G36*
X3278Y555D02*
X3279Y555D01*
X3279Y555D01*
X3280Y554D01*
X3281Y553D01*
X3282Y553D01*
X3283Y551D01*
Y551D01*
X3283Y551D01*
X3283Y550D01*
Y549D01*
Y540D01*
Y540D01*
Y540D01*
X3283Y540D01*
X3282Y540D01*
X3280D01*
X3280Y540D01*
X3279Y540D01*
X3279Y540D01*
Y550D01*
Y550D01*
Y550D01*
X3279Y550D01*
X3279Y551D01*
X3279Y551D01*
X3278Y551D01*
X3277Y552D01*
X3276Y552D01*
X3276D01*
X3276Y552D01*
X3276Y552D01*
X3275Y551D01*
X3274Y551D01*
X3274Y550D01*
X3273Y549D01*
X3273Y548D01*
Y548D01*
Y540D01*
Y540D01*
X3273Y540D01*
X3273Y540D01*
X3273Y540D01*
X3271D01*
X3270Y540D01*
X3270Y540D01*
X3270Y540D01*
Y555D01*
Y555D01*
X3270Y555D01*
X3270Y555D01*
X3271Y555D01*
X3273D01*
X3273Y555D01*
Y555D01*
X3273Y554D01*
X3273Y554D01*
Y553D01*
X3273Y553D01*
X3274Y554D01*
X3274Y554D01*
X3274Y554D01*
X3276Y555D01*
X3276Y555D01*
X3277Y555D01*
X3278D01*
X3278Y555D01*
D02*
G37*
G36*
X3299D02*
X3300Y555D01*
X3301Y555D01*
X3302Y554D01*
X3303Y554D01*
X3304Y553D01*
Y553D01*
X3304Y553D01*
X3303Y552D01*
X3303Y552D01*
X3303Y551D01*
X3302Y551D01*
X3302D01*
X3302Y551D01*
X3301Y551D01*
X3301Y551D01*
X3301Y552D01*
X3300Y552D01*
X3299Y552D01*
X3299Y552D01*
X3298Y552D01*
X3297D01*
X3297Y552D01*
X3297Y552D01*
X3296Y552D01*
X3296Y551D01*
X3295Y551D01*
X3295Y550D01*
Y550D01*
X3295Y550D01*
X3296Y550D01*
X3296Y549D01*
X3297Y549D01*
X3297Y549D01*
X3298Y549D01*
X3299Y549D01*
X3299Y549D01*
X3300Y549D01*
X3301Y548D01*
X3301Y548D01*
X3302Y548D01*
X3302Y548D01*
X3303Y548D01*
X3303Y547D01*
X3304Y546D01*
X3304Y545D01*
X3304Y544D01*
Y544D01*
Y544D01*
X3304Y543D01*
X3304Y543D01*
X3304Y542D01*
X3303Y541D01*
X3303Y541D01*
X3302Y540D01*
X3301Y540D01*
X3300Y540D01*
X3300Y540D01*
X3299Y539D01*
X3297D01*
X3297Y539D01*
X3296Y540D01*
X3295Y540D01*
X3294Y540D01*
X3293Y541D01*
X3292Y541D01*
X3291Y542D01*
Y542D01*
X3291Y542D01*
X3291Y542D01*
X3292Y543D01*
X3292Y543D01*
X3293Y544D01*
X3293Y544D01*
X3293Y544D01*
X3294Y544D01*
X3294Y544D01*
X3295Y543D01*
X3295Y543D01*
X3296Y543D01*
X3297Y542D01*
X3298Y542D01*
X3299D01*
X3299Y542D01*
X3299Y542D01*
X3300Y543D01*
X3300Y543D01*
X3301Y543D01*
X3301Y544D01*
Y545D01*
X3301Y545D01*
X3301Y545D01*
X3300Y545D01*
X3300Y545D01*
X3299Y546D01*
X3299Y546D01*
X3298Y546D01*
X3298Y546D01*
X3297Y546D01*
X3296Y546D01*
X3295Y546D01*
X3295Y546D01*
X3294Y547D01*
X3294Y547D01*
X3293Y547D01*
X3293Y548D01*
X3292Y548D01*
X3292Y549D01*
X3292Y550D01*
Y551D01*
Y551D01*
X3292Y551D01*
X3292Y552D01*
X3293Y553D01*
X3293Y553D01*
X3294Y554D01*
X3294Y554D01*
X3295Y554D01*
X3296Y555D01*
X3296Y555D01*
X3297Y555D01*
X3299D01*
X3299Y555D01*
D02*
G37*
G36*
X3346D02*
X3346Y555D01*
X3346Y555D01*
X3347Y555D01*
X3347Y554D01*
X3348Y554D01*
X3346Y551D01*
X3345D01*
X3345Y552D01*
X3345Y552D01*
X3344Y552D01*
X3343Y552D01*
X3343D01*
X3343Y552D01*
X3342Y552D01*
X3342Y552D01*
X3341Y551D01*
X3341Y551D01*
X3341Y550D01*
X3340Y549D01*
Y540D01*
Y540D01*
Y540D01*
X3340Y540D01*
X3340Y540D01*
X3337D01*
X3337Y540D01*
X3337Y540D01*
X3337Y540D01*
Y555D01*
Y555D01*
X3337Y555D01*
X3337Y555D01*
X3338Y555D01*
X3340D01*
X3340Y555D01*
X3340Y555D01*
Y554D01*
X3340Y554D01*
Y554D01*
X3341Y554D01*
X3341Y554D01*
X3341Y554D01*
X3342Y554D01*
X3342Y555D01*
X3343Y555D01*
X3344Y555D01*
X3344Y555D01*
X3345D01*
X3346Y555D01*
D02*
G37*
G36*
X3249Y555D02*
X3249Y555D01*
X3250Y554D01*
X3251Y554D01*
X3252Y553D01*
X3252Y552D01*
Y552D01*
X3252Y552D01*
X3252Y551D01*
X3253Y551D01*
X3253Y550D01*
X3253Y549D01*
X3253Y548D01*
Y547D01*
Y547D01*
Y547D01*
Y546D01*
X3253Y546D01*
X3253Y545D01*
X3252Y543D01*
X3252Y542D01*
X3251Y541D01*
X3251Y541D01*
X3250Y540D01*
X3249Y540D01*
X3248Y539D01*
X3248Y539D01*
X3247D01*
X3246Y539D01*
X3246Y540D01*
X3245Y540D01*
X3245Y540D01*
X3244Y541D01*
X3243Y541D01*
Y529D01*
X3244Y529D01*
X3244Y529D01*
X3244Y530D01*
X3245Y530D01*
X3245Y530D01*
X3246Y530D01*
X3247Y531D01*
X3248Y531D01*
X3248D01*
X3248Y531D01*
X3249Y530D01*
X3250Y530D01*
X3251Y529D01*
X3251Y529D01*
X3252Y528D01*
X3252Y527D01*
X3252Y527D01*
X3253Y526D01*
X3253Y525D01*
Y515D01*
Y515D01*
Y515D01*
X3253Y515D01*
X3252Y515D01*
X3250D01*
X3250Y515D01*
X3250Y515D01*
X3250Y515D01*
Y525D01*
Y525D01*
X3249Y525D01*
X3249Y526D01*
X3249Y526D01*
X3249Y527D01*
X3248Y527D01*
X3247Y528D01*
X3246Y528D01*
X3246D01*
X3246Y528D01*
X3246Y527D01*
X3245Y527D01*
X3245Y527D01*
X3244Y526D01*
X3244Y525D01*
X3243Y524D01*
Y515D01*
Y515D01*
Y515D01*
X3243Y515D01*
X3243Y515D01*
X3241D01*
X3241Y515D01*
X3240Y515D01*
X3240Y515D01*
Y555D01*
Y555D01*
X3240Y555D01*
X3241Y555D01*
X3241Y555D01*
X3243D01*
X3243Y555D01*
X3243Y555D01*
Y554D01*
X3243Y554D01*
Y554D01*
X3244Y554D01*
X3244Y554D01*
X3244Y554D01*
X3245Y554D01*
X3246Y555D01*
X3246Y555D01*
X3247Y555D01*
X3248D01*
X3249Y555D01*
D02*
G37*
G36*
X3043Y920D02*
X3034D01*
X3021Y959D01*
X3033D01*
X3040Y934D01*
X3048Y959D01*
X3057D01*
X3043Y920D01*
D02*
G37*
G36*
X2553D02*
X2540D01*
Y963D01*
X2527Y920D01*
X2518D01*
X2505Y963D01*
Y920D01*
X2495D01*
Y973D01*
X2514D01*
X2523Y941D01*
X2533Y973D01*
X2553D01*
Y920D01*
D02*
G37*
G36*
X2681D02*
X2671D01*
Y926D01*
X2670Y926D01*
X2670Y926D01*
X2670Y925D01*
X2670Y925D01*
X2669Y924D01*
X2669Y924D01*
X2668Y923D01*
X2667Y922D01*
X2666Y921D01*
X2665Y921D01*
X2664Y920D01*
X2663Y920D01*
X2662Y919D01*
X2661Y919D01*
X2659Y919D01*
X2658D01*
X2658Y919D01*
X2657Y919D01*
X2655Y920D01*
X2654Y920D01*
X2653Y920D01*
X2652Y921D01*
X2652Y921D01*
X2652Y921D01*
X2651Y921D01*
X2651Y922D01*
X2650Y923D01*
X2650Y923D01*
X2649Y924D01*
X2649Y925D01*
Y925D01*
X2649Y926D01*
X2649Y926D01*
X2648Y927D01*
X2648Y929D01*
X2648Y930D01*
X2648Y932D01*
X2648Y933D01*
Y959D01*
X2659D01*
Y933D01*
Y933D01*
Y933D01*
Y933D01*
X2659Y933D01*
X2659Y932D01*
X2660Y931D01*
X2660Y930D01*
X2661Y929D01*
X2661Y929D01*
X2662Y928D01*
X2663Y928D01*
X2663Y928D01*
X2664D01*
X2664Y928D01*
X2665Y928D01*
X2665Y929D01*
X2666Y929D01*
X2667Y929D01*
X2667Y929D01*
X2667Y930D01*
X2667Y930D01*
X2668Y930D01*
X2668Y930D01*
X2669Y931D01*
X2669Y932D01*
X2669Y932D01*
Y932D01*
X2669Y932D01*
X2669Y933D01*
X2670Y933D01*
X2670Y934D01*
X2670Y935D01*
X2670Y936D01*
Y937D01*
Y959D01*
X2681D01*
Y920D01*
D02*
G37*
G36*
X2859D02*
X2848D01*
Y926D01*
X2848Y926D01*
X2848Y926D01*
X2848Y925D01*
X2847Y925D01*
X2847Y924D01*
X2846Y924D01*
X2846Y923D01*
X2845Y922D01*
X2844Y921D01*
X2843Y921D01*
X2842Y920D01*
X2841Y920D01*
X2840Y919D01*
X2838Y919D01*
X2837Y919D01*
X2836D01*
X2835Y919D01*
X2834Y919D01*
X2833Y920D01*
X2832Y920D01*
X2831Y920D01*
X2830Y921D01*
X2830Y921D01*
X2829Y921D01*
X2829Y921D01*
X2829Y922D01*
X2828Y923D01*
X2827Y923D01*
X2827Y924D01*
X2826Y925D01*
Y925D01*
X2826Y926D01*
X2826Y926D01*
X2826Y927D01*
X2826Y929D01*
X2826Y930D01*
X2826Y932D01*
X2825Y933D01*
Y959D01*
X2837D01*
Y933D01*
Y933D01*
Y933D01*
Y933D01*
X2837Y933D01*
X2837Y932D01*
X2837Y931D01*
X2838Y930D01*
X2838Y929D01*
X2839Y929D01*
X2840Y928D01*
X2840Y928D01*
X2841Y928D01*
X2841D01*
X2842Y928D01*
X2842Y928D01*
X2843Y929D01*
X2843Y929D01*
X2844Y929D01*
X2845Y929D01*
X2845Y930D01*
X2845Y930D01*
X2845Y930D01*
X2846Y930D01*
X2846Y931D01*
X2847Y932D01*
X2847Y932D01*
Y932D01*
X2847Y932D01*
X2847Y933D01*
X2847Y933D01*
X2847Y934D01*
X2847Y935D01*
X2847Y936D01*
Y937D01*
Y959D01*
X2859D01*
Y920D01*
D02*
G37*
G36*
X2815D02*
X2803D01*
Y942D01*
X2787D01*
Y920D01*
X2775D01*
Y973D01*
X2787D01*
Y952D01*
X2803D01*
Y973D01*
X2815D01*
Y920D01*
D02*
G37*
G36*
X2802Y1043D02*
X2803D01*
X2804Y1043D01*
X2806Y1043D01*
X2808Y1042D01*
X2809Y1042D01*
X2811Y1041D01*
X2811D01*
X2811Y1041D01*
X2812Y1041D01*
X2812Y1041D01*
X2813Y1040D01*
X2814Y1039D01*
X2815Y1038D01*
X2816Y1037D01*
X2818Y1036D01*
Y1036D01*
X2818Y1036D01*
X2818Y1036D01*
X2818Y1035D01*
X2818Y1035D01*
X2819Y1033D01*
X2820Y1032D01*
X2820Y1030D01*
X2820Y1029D01*
X2820Y1027D01*
Y1027D01*
Y1026D01*
Y1026D01*
X2820Y1025D01*
X2820Y1024D01*
X2820Y1023D01*
X2820Y1022D01*
X2819Y1020D01*
X2819Y1019D01*
X2819Y1019D01*
X2819Y1018D01*
X2818Y1018D01*
X2818Y1017D01*
X2817Y1016D01*
X2816Y1015D01*
X2815Y1014D01*
X2814Y1013D01*
X2814Y1013D01*
X2814Y1013D01*
X2813Y1012D01*
X2813Y1012D01*
X2812Y1011D01*
X2811Y1011D01*
X2810Y1011D01*
X2809Y1010D01*
X2809D01*
X2809Y1010D01*
X2808Y1010D01*
X2807Y1010D01*
X2806Y1010D01*
X2804Y1010D01*
X2803Y1010D01*
X2792D01*
Y990D01*
X2780D01*
Y1043D01*
X2801D01*
X2802Y1043D01*
D02*
G37*
G36*
X2959Y990D02*
X2947D01*
Y1029D01*
X2959D01*
Y990D01*
D02*
G37*
G36*
X2638Y920D02*
X2628D01*
Y926D01*
X2628Y926D01*
X2628Y926D01*
X2627Y925D01*
X2627Y925D01*
X2627Y924D01*
X2626Y924D01*
X2626Y923D01*
X2625Y923D01*
X2623Y921D01*
X2621Y920D01*
X2620Y920D01*
X2619Y919D01*
X2618Y919D01*
X2617Y919D01*
X2616D01*
X2616Y919D01*
X2615Y919D01*
X2615Y919D01*
X2613Y920D01*
X2612Y920D01*
X2611Y921D01*
X2610Y921D01*
X2609Y922D01*
X2608Y923D01*
X2607Y923D01*
X2607Y924D01*
Y924D01*
X2606Y925D01*
X2606Y925D01*
X2606Y925D01*
X2606Y926D01*
X2605Y927D01*
X2605Y927D01*
X2605Y928D01*
X2604Y929D01*
X2604Y930D01*
X2604Y931D01*
X2604Y933D01*
X2603Y934D01*
X2603Y936D01*
X2603Y937D01*
X2603Y939D01*
Y939D01*
Y939D01*
Y940D01*
X2603Y941D01*
Y941D01*
X2603Y942D01*
X2603Y943D01*
X2603Y945D01*
X2604Y947D01*
X2605Y950D01*
X2605Y952D01*
X2606Y953D01*
X2607Y954D01*
X2607Y954D01*
X2607Y955D01*
X2607Y955D01*
X2607Y955D01*
X2608Y956D01*
X2608Y956D01*
X2609Y957D01*
X2609Y957D01*
X2611Y958D01*
X2613Y959D01*
X2614Y959D01*
X2615Y960D01*
X2616Y960D01*
X2618Y960D01*
X2618D01*
X2619Y960D01*
X2619Y960D01*
X2620Y960D01*
X2621Y959D01*
X2623Y959D01*
X2623Y958D01*
X2624Y958D01*
X2625Y957D01*
X2626Y957D01*
X2627Y956D01*
X2627Y955D01*
Y973D01*
X2638D01*
Y920D01*
D02*
G37*
G36*
X2754Y1030D02*
X2755Y1030D01*
X2756Y1030D01*
X2757Y1029D01*
X2758Y1029D01*
X2759Y1029D01*
X2760Y1028D01*
X2761Y1028D01*
X2762Y1027D01*
X2763Y1027D01*
X2765Y1026D01*
X2766Y1025D01*
X2767Y1024D01*
X2767Y1024D01*
X2767Y1024D01*
X2767Y1023D01*
X2767Y1023D01*
X2768Y1022D01*
X2768Y1022D01*
X2769Y1021D01*
X2769Y1020D01*
X2770Y1019D01*
X2770Y1018D01*
X2771Y1017D01*
X2771Y1015D01*
X2771Y1014D01*
X2771Y1013D01*
X2772Y1011D01*
X2772Y1009D01*
Y1009D01*
Y1009D01*
Y1009D01*
X2772Y1008D01*
X2772Y1007D01*
X2771Y1006D01*
X2771Y1005D01*
X2771Y1004D01*
X2770Y1002D01*
X2770Y1001D01*
X2769Y1000D01*
X2769Y998D01*
X2768Y997D01*
X2767Y996D01*
X2766Y995D01*
X2766Y995D01*
X2766Y995D01*
X2766Y994D01*
X2766Y994D01*
X2765Y994D01*
X2764Y993D01*
X2764Y993D01*
X2763Y992D01*
X2762Y991D01*
X2761Y991D01*
X2760Y990D01*
X2758Y990D01*
X2757Y990D01*
X2756Y989D01*
X2754Y989D01*
X2753Y989D01*
X2752D01*
X2751Y989D01*
X2751Y989D01*
X2750Y989D01*
X2749Y990D01*
X2748Y990D01*
X2746Y991D01*
X2745Y991D01*
X2743Y992D01*
X2742Y992D01*
X2741Y993D01*
X2740Y994D01*
X2739Y995D01*
X2739Y995D01*
X2739Y995D01*
X2739Y995D01*
X2739Y996D01*
X2738Y996D01*
X2738Y997D01*
X2737Y998D01*
X2737Y999D01*
X2736Y1000D01*
X2736Y1001D01*
X2735Y1002D01*
X2735Y1003D01*
X2735Y1005D01*
X2735Y1006D01*
X2734Y1008D01*
X2734Y1010D01*
Y1010D01*
Y1010D01*
Y1010D01*
Y1011D01*
X2734Y1011D01*
Y1012D01*
X2735Y1013D01*
X2735Y1015D01*
X2735Y1017D01*
X2736Y1018D01*
X2737Y1020D01*
Y1020D01*
X2737Y1020D01*
X2737Y1021D01*
X2737Y1021D01*
X2737Y1022D01*
X2738Y1023D01*
X2739Y1024D01*
X2740Y1025D01*
X2741Y1026D01*
X2743Y1027D01*
X2743D01*
X2743Y1027D01*
X2743Y1027D01*
X2743Y1028D01*
X2744Y1028D01*
X2745Y1029D01*
X2747Y1029D01*
X2749Y1029D01*
X2751Y1030D01*
X2753Y1030D01*
X2754D01*
X2754Y1030D01*
D02*
G37*
G36*
X3356Y555D02*
X3357Y555D01*
X3357Y554D01*
X3358Y554D01*
X3359Y553D01*
X3360Y553D01*
Y552D01*
X3360Y552D01*
X3359Y552D01*
X3359Y552D01*
X3359Y551D01*
X3358Y551D01*
X3358Y550D01*
X3358Y551D01*
X3357Y551D01*
X3357Y551D01*
X3357Y551D01*
X3356Y552D01*
X3355Y552D01*
X3354Y552D01*
X3354D01*
X3354Y552D01*
X3353Y552D01*
X3352Y551D01*
X3352Y551D01*
X3351Y550D01*
X3351Y550D01*
X3351Y549D01*
X3351Y548D01*
X3350Y547D01*
Y547D01*
Y547D01*
X3351Y547D01*
X3351Y546D01*
X3351Y545D01*
X3351Y544D01*
X3352Y543D01*
X3353Y543D01*
X3354Y543D01*
X3355Y542D01*
X3355D01*
X3355Y543D01*
X3356Y543D01*
X3356Y543D01*
X3356Y543D01*
X3357Y543D01*
X3358Y544D01*
X3358Y544D01*
X3358Y544D01*
X3358Y543D01*
X3359Y543D01*
X3359Y543D01*
X3359Y543D01*
X3360Y542D01*
X3360Y542D01*
Y542D01*
X3360Y542D01*
X3359Y542D01*
X3359Y541D01*
X3358Y541D01*
X3358Y540D01*
X3357Y540D01*
X3356Y539D01*
X3355Y539D01*
X3354D01*
X3353Y539D01*
X3352Y540D01*
X3351Y540D01*
X3350Y541D01*
X3349Y541D01*
X3349Y542D01*
X3348Y543D01*
X3348Y543D01*
X3348Y544D01*
Y544D01*
X3348Y545D01*
Y545D01*
X3347Y545D01*
X3347Y546D01*
X3347Y547D01*
Y547D01*
Y548D01*
Y548D01*
X3347Y548D01*
X3348Y549D01*
X3348Y550D01*
X3348Y552D01*
X3349Y553D01*
X3350Y553D01*
X3350Y554D01*
X3351Y554D01*
X3352Y555D01*
X3352Y555D01*
X3352Y555D01*
X3353Y555D01*
X3354Y555D01*
X3355D01*
X3356Y555D01*
D02*
G37*
G36*
X3279Y531D02*
X3280Y530D01*
X3281Y530D01*
Y529D01*
X3281Y529D01*
X3281Y529D01*
X3280Y529D01*
X3280Y528D01*
X3280Y528D01*
X3279Y527D01*
X3279Y527D01*
X3279Y527D01*
X3279D01*
X3279Y527D01*
X3278Y527D01*
X3278Y527D01*
X3277Y528D01*
X3277D01*
X3277Y528D01*
X3276Y527D01*
X3276Y527D01*
X3275Y527D01*
X3274Y526D01*
X3274Y525D01*
X3274Y524D01*
Y515D01*
Y515D01*
Y515D01*
X3274Y515D01*
X3274Y515D01*
X3271D01*
X3271Y515D01*
X3271Y515D01*
X3271Y515D01*
Y530D01*
Y530D01*
X3271Y530D01*
X3271Y530D01*
X3271Y531D01*
X3274D01*
X3274Y530D01*
X3274Y530D01*
Y530D01*
X3274Y530D01*
Y529D01*
X3274Y529D01*
X3274Y529D01*
X3275Y530D01*
X3275Y530D01*
X3276Y530D01*
X3276Y530D01*
X3277Y531D01*
X3278Y531D01*
X3279D01*
X3279Y531D01*
D02*
G37*
G36*
X2699Y990D02*
X2689D01*
Y996D01*
X2689Y996D01*
X2689Y996D01*
X2688Y995D01*
X2688Y995D01*
X2688Y994D01*
X2687Y994D01*
X2687Y993D01*
X2686Y993D01*
X2684Y991D01*
X2683Y990D01*
X2681Y990D01*
X2680Y989D01*
X2679Y989D01*
X2678Y989D01*
X2677D01*
X2677Y989D01*
X2676Y989D01*
X2676Y989D01*
X2674Y990D01*
X2673Y990D01*
X2672Y991D01*
X2671Y991D01*
X2670Y992D01*
X2669Y993D01*
X2668Y993D01*
X2668Y994D01*
Y994D01*
X2668Y995D01*
X2667Y995D01*
X2667Y995D01*
X2667Y996D01*
X2667Y997D01*
X2666Y997D01*
X2666Y998D01*
X2666Y999D01*
X2665Y1000D01*
X2665Y1001D01*
X2665Y1003D01*
X2664Y1004D01*
X2664Y1006D01*
X2664Y1007D01*
X2664Y1009D01*
Y1009D01*
Y1009D01*
Y1010D01*
X2664Y1011D01*
Y1011D01*
X2664Y1012D01*
X2664Y1013D01*
X2665Y1015D01*
X2665Y1017D01*
X2666Y1020D01*
X2667Y1022D01*
X2667Y1023D01*
X2668Y1024D01*
X2668Y1024D01*
X2668Y1025D01*
X2668Y1025D01*
X2668Y1025D01*
X2669Y1026D01*
X2669Y1026D01*
X2670Y1027D01*
X2671Y1027D01*
X2672Y1028D01*
X2674Y1029D01*
X2675Y1029D01*
X2676Y1030D01*
X2677Y1030D01*
X2679Y1030D01*
X2679D01*
X2680Y1030D01*
X2680Y1030D01*
X2681Y1030D01*
X2682Y1029D01*
X2684Y1029D01*
X2685Y1028D01*
X2685Y1028D01*
X2686Y1027D01*
X2687Y1027D01*
X2688Y1026D01*
X2688Y1025D01*
Y1043D01*
X2699D01*
Y990D01*
D02*
G37*
G36*
X3342Y531D02*
X3342Y531D01*
X3343Y530D01*
X3343Y530D01*
X3344Y529D01*
X3342Y527D01*
X3342D01*
X3341Y527D01*
X3341Y527D01*
X3340Y527D01*
X3340Y528D01*
X3340D01*
X3339Y528D01*
X3339Y527D01*
X3338Y527D01*
X3338Y527D01*
X3337Y526D01*
X3337Y525D01*
X3337Y525D01*
Y515D01*
Y515D01*
Y515D01*
X3336Y515D01*
X3336Y515D01*
X3334D01*
X3334Y515D01*
X3334Y515D01*
X3333Y515D01*
Y530D01*
Y530D01*
X3334Y530D01*
X3334Y530D01*
X3334Y531D01*
X3336D01*
X3336Y530D01*
X3336Y530D01*
Y530D01*
X3337Y530D01*
Y529D01*
X3337Y529D01*
X3337Y529D01*
X3337Y530D01*
X3338Y530D01*
X3339Y530D01*
X3340Y531D01*
X3340Y531D01*
X3341D01*
X3342Y531D01*
D02*
G37*
G36*
X3294Y537D02*
X3294Y537D01*
X3294Y536D01*
Y515D01*
Y515D01*
Y515D01*
X3294Y515D01*
X3293Y515D01*
X3291D01*
X3291Y515D01*
X3291Y515D01*
Y516D01*
X3290Y516D01*
Y516D01*
X3290Y516D01*
X3290Y516D01*
X3290Y516D01*
X3289Y516D01*
X3289Y515D01*
X3288Y515D01*
X3288Y515D01*
X3286D01*
X3285Y515D01*
X3285Y515D01*
X3284Y516D01*
X3283Y516D01*
X3282Y517D01*
X3282Y518D01*
X3282Y519D01*
X3282Y519D01*
X3281Y520D01*
Y525D01*
Y525D01*
Y525D01*
Y525D01*
X3281Y526D01*
X3282Y527D01*
X3282Y528D01*
X3283Y529D01*
X3283Y529D01*
X3284Y530D01*
X3284Y530D01*
X3285Y530D01*
X3286Y531D01*
X3287Y531D01*
X3287D01*
X3287Y531D01*
X3288Y531D01*
X3288Y530D01*
X3289Y530D01*
X3290Y530D01*
X3290Y529D01*
Y536D01*
Y537D01*
X3291Y537D01*
X3291Y537D01*
X3291Y537D01*
X3294D01*
X3294Y537D01*
D02*
G37*
G36*
X3317Y530D02*
X3317Y530D01*
Y530D01*
X3317Y530D01*
X3317Y529D01*
X3317Y528D01*
X3316Y527D01*
X3316Y526D01*
X3316Y525D01*
X3315Y524D01*
X3314Y521D01*
X3314Y520D01*
X3313Y519D01*
X3313Y517D01*
X3313Y516D01*
X3312Y516D01*
X3312Y515D01*
X3310D01*
Y515D01*
X3310Y515D01*
X3309Y516D01*
X3309Y516D01*
X3309Y517D01*
X3309Y517D01*
X3309Y518D01*
X3308Y519D01*
X3308Y520D01*
X3308Y521D01*
X3307Y522D01*
X3307Y524D01*
X3306Y525D01*
X3306D01*
Y525D01*
X3306Y525D01*
X3306Y525D01*
X3306Y524D01*
X3305Y523D01*
X3305Y522D01*
X3305Y521D01*
X3304Y519D01*
X3304Y518D01*
X3304Y517D01*
X3303Y516D01*
X3303Y516D01*
X3303Y515D01*
X3303Y515D01*
X3301D01*
X3301Y515D01*
X3300Y515D01*
X3300Y516D01*
X3300Y516D01*
X3300Y517D01*
X3300Y517D01*
X3299Y518D01*
X3299Y519D01*
X3299Y520D01*
X3298Y521D01*
X3298Y522D01*
X3298Y524D01*
X3297Y524D01*
X3297Y524D01*
X3297Y525D01*
X3297Y525D01*
X3297Y526D01*
X3297Y526D01*
X3297Y527D01*
X3296Y527D01*
X3296Y528D01*
X3296Y529D01*
X3295Y530D01*
X3296Y531D01*
X3298D01*
X3298Y530D01*
X3299Y530D01*
X3299Y530D01*
X3299Y530D01*
X3299Y529D01*
X3299Y529D01*
X3299Y528D01*
X3300Y527D01*
X3300Y526D01*
X3300Y525D01*
X3301Y524D01*
X3301Y522D01*
X3301Y520D01*
X3302D01*
Y520D01*
X3302Y520D01*
X3302Y521D01*
X3302Y522D01*
X3303Y522D01*
X3303Y523D01*
X3303Y525D01*
X3304Y527D01*
X3304Y528D01*
X3305Y529D01*
X3305Y530D01*
X3305Y530D01*
X3305Y530D01*
X3306Y531D01*
X3307D01*
X3307Y530D01*
Y530D01*
X3308Y530D01*
X3308Y530D01*
X3308Y529D01*
X3308Y529D01*
X3308Y528D01*
X3309Y527D01*
X3309Y526D01*
X3309Y525D01*
X3310Y524D01*
X3310Y522D01*
X3311Y520D01*
X3311D01*
Y520D01*
X3311Y520D01*
X3311Y521D01*
X3312Y522D01*
X3312Y522D01*
X3312Y523D01*
X3313Y525D01*
X3313Y527D01*
X3313Y528D01*
X3314Y529D01*
X3314Y530D01*
X3314Y530D01*
X3314Y530D01*
X3314Y531D01*
X3317D01*
X3317Y530D01*
D02*
G37*
G36*
X3324Y531D02*
X3325D01*
X3326Y530D01*
X3327Y530D01*
X3328Y530D01*
X3329Y529D01*
X3329Y529D01*
X3330Y528D01*
X3330Y527D01*
X3330Y527D01*
Y527D01*
Y527D01*
X3330Y526D01*
X3330Y525D01*
Y524D01*
Y515D01*
Y515D01*
Y515D01*
X3330Y515D01*
X3330Y515D01*
X3327D01*
X3327Y515D01*
X3327Y515D01*
X3327Y516D01*
Y516D01*
X3327D01*
X3327Y516D01*
X3326Y516D01*
X3325Y515D01*
X3325Y515D01*
X3324Y515D01*
X3322D01*
X3321Y515D01*
X3321Y515D01*
X3320Y516D01*
X3319Y516D01*
X3318Y517D01*
X3318Y518D01*
X3318Y518D01*
X3318Y519D01*
X3317Y520D01*
Y520D01*
Y520D01*
X3318Y521D01*
X3318Y521D01*
X3318Y522D01*
X3319Y522D01*
X3319Y523D01*
X3320Y523D01*
X3321Y524D01*
X3321Y524D01*
X3322Y524D01*
X3324Y524D01*
X3325Y524D01*
X3327D01*
Y526D01*
Y527D01*
X3327Y527D01*
X3326Y527D01*
X3326Y527D01*
X3325Y528D01*
X3325Y528D01*
X3322D01*
X3322Y528D01*
X3321Y527D01*
X3321Y527D01*
X3321Y527D01*
X3321Y527D01*
X3320Y527D01*
X3320Y527D01*
X3320Y527D01*
X3319Y528D01*
X3318Y528D01*
Y529D01*
X3319Y529D01*
X3319Y529D01*
X3319Y529D01*
X3320Y530D01*
X3320Y530D01*
X3321Y530D01*
X3322Y531D01*
X3324Y531D01*
X3324D01*
X3324Y531D01*
D02*
G37*
G36*
X3351D02*
X3351Y531D01*
X3352Y530D01*
X3354Y530D01*
X3355Y529D01*
X3356Y528D01*
X3356Y527D01*
X3356Y526D01*
X3357Y525D01*
X3357Y525D01*
Y522D01*
Y522D01*
Y522D01*
X3356Y522D01*
X3356Y522D01*
X3347D01*
Y521D01*
Y521D01*
X3347Y521D01*
X3347Y520D01*
X3348Y520D01*
X3348Y519D01*
X3349Y518D01*
X3349Y518D01*
X3350Y518D01*
X3351D01*
X3352Y518D01*
X3352Y518D01*
X3352Y518D01*
X3353Y518D01*
X3353Y519D01*
X3354Y519D01*
X3354D01*
X3354Y519D01*
X3355Y519D01*
X3356Y518D01*
X3356Y517D01*
X3356Y517D01*
X3356Y517D01*
X3356Y517D01*
X3355Y516D01*
X3354Y516D01*
X3354Y515D01*
X3353Y515D01*
X3352Y515D01*
X3350D01*
X3349Y515D01*
X3348Y515D01*
X3347Y516D01*
X3347Y516D01*
X3346Y517D01*
X3346Y517D01*
X3345Y518D01*
X3345Y519D01*
X3344Y519D01*
X3344Y520D01*
X3344Y522D01*
Y522D01*
Y522D01*
X3344Y522D01*
X3344Y523D01*
Y523D01*
Y523D01*
Y523D01*
X3344Y524D01*
X3344Y525D01*
X3344Y526D01*
X3345Y527D01*
X3346Y529D01*
X3346Y529D01*
X3347Y530D01*
X3348Y530D01*
X3349Y531D01*
X3349D01*
X3349Y531D01*
X3350Y531D01*
X3351D01*
X3351Y531D01*
D02*
G37*
G36*
X2959Y1032D02*
X2947D01*
Y1044D01*
X2959D01*
Y1032D01*
D02*
G37*
G36*
X3262Y531D02*
X3263Y530D01*
X3264Y530D01*
X3266Y529D01*
X3266Y529D01*
X3267Y528D01*
X3267Y528D01*
X3267Y527D01*
X3267Y526D01*
X3267Y525D01*
Y515D01*
Y515D01*
Y515D01*
X3267Y515D01*
X3267Y515D01*
X3264D01*
X3264Y515D01*
X3264Y515D01*
X3264Y516D01*
Y516D01*
X3264D01*
X3264Y516D01*
X3263Y516D01*
X3263Y515D01*
X3262Y515D01*
X3262Y515D01*
X3259D01*
X3259Y515D01*
X3258Y515D01*
X3257Y516D01*
X3257Y516D01*
X3256Y517D01*
X3256Y517D01*
X3255Y518D01*
X3255Y519D01*
X3255Y520D01*
Y520D01*
Y520D01*
X3255Y520D01*
X3255Y521D01*
X3256Y522D01*
X3256Y522D01*
X3257Y523D01*
X3257Y523D01*
X3258Y524D01*
X3259Y524D01*
X3260Y524D01*
X3261Y524D01*
X3262Y524D01*
X3264D01*
Y526D01*
Y526D01*
Y526D01*
X3264Y527D01*
X3264Y527D01*
X3263Y527D01*
X3263Y528D01*
X3262Y528D01*
X3260D01*
X3259Y528D01*
X3259Y527D01*
X3258Y527D01*
X3258Y527D01*
X3258D01*
X3258Y527D01*
X3257Y527D01*
X3257Y528D01*
X3256Y529D01*
X3256Y529D01*
X3256Y529D01*
X3256Y529D01*
X3257Y530D01*
X3258Y530D01*
X3259Y530D01*
X3260Y531D01*
X3261Y531D01*
X3262D01*
X3262Y531D01*
D02*
G37*
G36*
X3334Y555D02*
X3334Y555D01*
X3334Y555D01*
Y540D01*
Y540D01*
X3334Y540D01*
X3334Y540D01*
X3333Y540D01*
X3331D01*
X3331Y540D01*
X3331Y540D01*
Y540D01*
X3331Y541D01*
Y541D01*
X3331D01*
Y541D01*
X3330Y541D01*
X3330Y541D01*
X3330Y540D01*
X3329Y540D01*
X3329Y540D01*
X3328Y539D01*
X3327Y539D01*
X3326D01*
X3326Y539D01*
X3325Y540D01*
X3325Y540D01*
X3324Y540D01*
X3323Y541D01*
X3322Y542D01*
X3322Y543D01*
X3321Y544D01*
X3321Y545D01*
Y555D01*
Y555D01*
X3321Y555D01*
X3322Y555D01*
X3322Y555D01*
X3324D01*
X3324Y555D01*
X3325Y555D01*
X3325Y555D01*
Y546D01*
Y546D01*
X3325Y545D01*
X3325Y545D01*
X3325Y544D01*
X3326Y543D01*
X3326Y543D01*
X3327Y543D01*
X3327Y542D01*
X3328D01*
X3328Y543D01*
X3329Y543D01*
X3329Y543D01*
X3330Y543D01*
X3330Y544D01*
X3331Y545D01*
X3331Y546D01*
Y555D01*
Y555D01*
X3331Y555D01*
X3331Y555D01*
X3331Y555D01*
X3334D01*
X3334Y555D01*
D02*
G37*
G36*
X2729Y1030D02*
X2730Y1030D01*
Y1018D01*
X2729D01*
X2729Y1018D01*
X2728Y1018D01*
X2727Y1018D01*
X2726Y1018D01*
X2725Y1018D01*
X2724Y1017D01*
X2724Y1017D01*
X2724Y1017D01*
X2724Y1017D01*
X2723Y1016D01*
X2723Y1016D01*
X2722Y1015D01*
X2722Y1014D01*
X2721Y1013D01*
X2721Y1013D01*
X2721Y1013D01*
X2721Y1012D01*
X2721Y1011D01*
X2720Y1010D01*
X2720Y1009D01*
X2720Y1008D01*
X2720Y1006D01*
Y990D01*
X2709D01*
Y1029D01*
X2720D01*
Y1022D01*
X2720Y1022D01*
X2720Y1023D01*
X2720Y1023D01*
X2720Y1024D01*
X2721Y1024D01*
X2721Y1026D01*
X2723Y1027D01*
X2723Y1028D01*
X2724Y1029D01*
X2725Y1029D01*
X2726Y1030D01*
X2727Y1030D01*
X2728Y1030D01*
X2728D01*
X2729Y1030D01*
D02*
G37*
G36*
X2987Y1030D02*
X2987Y1030D01*
X2988Y1030D01*
X2990Y1029D01*
X2992Y1029D01*
X2994Y1028D01*
X2995Y1028D01*
X2996Y1027D01*
X2996Y1026D01*
X2997Y1026D01*
X2997Y1025D01*
X2997Y1025D01*
X2998Y1025D01*
X2998Y1025D01*
X2998Y1024D01*
X2999Y1024D01*
X3000Y1023D01*
X3001Y1021D01*
X3002Y1019D01*
X3002Y1017D01*
X3002Y1016D01*
X3003Y1015D01*
X2992Y1014D01*
Y1014D01*
Y1015D01*
X2992Y1015D01*
X2992Y1015D01*
X2991Y1016D01*
X2991Y1018D01*
X2990Y1019D01*
X2990Y1020D01*
X2989Y1020D01*
X2988Y1021D01*
X2988Y1021D01*
X2987Y1021D01*
X2986Y1021D01*
X2986D01*
X2985Y1021D01*
X2985Y1021D01*
X2984Y1021D01*
X2984Y1021D01*
X2983Y1020D01*
X2982Y1020D01*
X2982Y1019D01*
X2981Y1018D01*
X2981Y1018D01*
X2980Y1016D01*
X2980Y1015D01*
X2979Y1014D01*
X2979Y1012D01*
X2979Y1010D01*
Y1010D01*
Y1010D01*
Y1009D01*
Y1009D01*
X2979Y1008D01*
Y1008D01*
X2979Y1006D01*
X2979Y1004D01*
X2980Y1003D01*
X2980Y1002D01*
X2980Y1002D01*
X2981Y1001D01*
X2981Y1001D01*
X2981Y1000D01*
X2981Y1000D01*
X2982Y1000D01*
X2982Y1000D01*
X2983Y999D01*
X2984Y999D01*
X2985Y999D01*
X2986Y999D01*
X2986D01*
X2986Y999D01*
X2986D01*
X2987Y999D01*
X2988Y999D01*
X2989Y1000D01*
X2989Y1000D01*
X2990Y1001D01*
X2991Y1001D01*
X2991Y1002D01*
X2991Y1003D01*
X2992Y1004D01*
X2992Y1005D01*
X3003Y1005D01*
Y1005D01*
Y1004D01*
X3003Y1004D01*
X3002Y1003D01*
X3002Y1003D01*
X3002Y1002D01*
X3002Y1001D01*
X3001Y999D01*
X3000Y997D01*
X2999Y996D01*
X2999Y995D01*
X2998Y994D01*
X2997Y993D01*
X2997Y993D01*
X2997Y993D01*
X2997Y993D01*
X2996Y993D01*
X2996Y992D01*
X2995Y992D01*
X2995Y992D01*
X2994Y991D01*
X2993Y991D01*
X2992Y990D01*
X2991Y990D01*
X2990Y990D01*
X2987Y989D01*
X2986Y989D01*
X2985Y989D01*
X2984D01*
X2983Y989D01*
X2983Y989D01*
X2982Y989D01*
X2981Y990D01*
X2980Y990D01*
X2978Y990D01*
X2977Y991D01*
X2976Y991D01*
X2974Y992D01*
X2973Y993D01*
X2972Y994D01*
X2971Y995D01*
X2971Y995D01*
X2971Y995D01*
X2971Y995D01*
X2970Y996D01*
X2970Y996D01*
X2970Y997D01*
X2969Y998D01*
X2969Y998D01*
X2968Y999D01*
X2968Y1001D01*
X2967Y1002D01*
X2967Y1003D01*
X2967Y1004D01*
X2966Y1006D01*
X2966Y1008D01*
X2966Y1009D01*
Y1009D01*
Y1010D01*
Y1010D01*
X2966Y1011D01*
X2966Y1012D01*
X2966Y1012D01*
X2966Y1013D01*
X2967Y1015D01*
X2967Y1017D01*
X2968Y1018D01*
X2968Y1019D01*
X2969Y1021D01*
X2970Y1022D01*
X2970Y1023D01*
X2971Y1024D01*
X2971Y1024D01*
X2972Y1024D01*
X2972Y1025D01*
X2972Y1025D01*
X2973Y1025D01*
X2973Y1026D01*
X2974Y1026D01*
X2975Y1027D01*
X2976Y1028D01*
X2977Y1028D01*
X2978Y1029D01*
X2980Y1029D01*
X2981Y1029D01*
X2982Y1030D01*
X2984Y1030D01*
X2986Y1030D01*
X2986D01*
X2987Y1030D01*
D02*
G37*
G36*
X3024D02*
X3025Y1030D01*
X3026Y1030D01*
X3028Y1029D01*
X3029Y1029D01*
X3031Y1028D01*
X3032Y1027D01*
X3032D01*
X3032Y1027D01*
X3033Y1027D01*
X3034Y1026D01*
X3034Y1025D01*
X3035Y1024D01*
X3036Y1023D01*
X3037Y1021D01*
X3038Y1020D01*
X3030Y1017D01*
Y1017D01*
X3030Y1018D01*
X3029Y1018D01*
X3029Y1018D01*
X3029Y1019D01*
X3028Y1020D01*
X3027Y1021D01*
X3026Y1021D01*
X3026Y1022D01*
X3025Y1022D01*
X3024Y1022D01*
X3023Y1023D01*
X3022Y1023D01*
X3021D01*
X3021Y1023D01*
X3020Y1023D01*
X3019Y1022D01*
X3018Y1022D01*
X3017Y1021D01*
X3017Y1021D01*
X3016Y1020D01*
X3016Y1020D01*
X3016Y1019D01*
Y1019D01*
Y1019D01*
X3016Y1019D01*
X3016Y1018D01*
X3017Y1018D01*
X3017Y1017D01*
X3017Y1017D01*
X3017D01*
X3017Y1017D01*
X3018Y1017D01*
X3018Y1016D01*
X3019Y1016D01*
X3020Y1016D01*
X3021Y1016D01*
X3023Y1015D01*
X3023D01*
X3023Y1015D01*
X3024Y1015D01*
X3024Y1015D01*
X3025Y1015D01*
X3027Y1015D01*
X3028Y1015D01*
X3030Y1014D01*
X3031Y1014D01*
X3033Y1013D01*
X3033Y1013D01*
X3033Y1013D01*
X3034Y1013D01*
X3034Y1012D01*
X3035Y1012D01*
X3036Y1011D01*
X3037Y1010D01*
X3038Y1010D01*
X3038Y1009D01*
X3038Y1009D01*
X3038Y1008D01*
X3039Y1008D01*
X3039Y1007D01*
X3039Y1006D01*
X3040Y1004D01*
X3040Y1003D01*
Y1003D01*
Y1002D01*
Y1002D01*
X3040Y1002D01*
X3040Y1001D01*
X3039Y1001D01*
X3039Y999D01*
X3039Y998D01*
X3038Y996D01*
X3037Y995D01*
X3037Y994D01*
X3036Y994D01*
X3035Y993D01*
X3035D01*
X3035Y993D01*
X3035Y993D01*
X3034Y992D01*
X3034Y992D01*
X3033Y992D01*
X3032Y991D01*
X3032Y991D01*
X3031Y991D01*
X3030Y990D01*
X3029Y990D01*
X3028Y990D01*
X3027Y989D01*
X3025Y989D01*
X3024Y989D01*
X3022Y989D01*
X3022D01*
X3021Y989D01*
X3020Y989D01*
X3019Y989D01*
X3017Y990D01*
X3016Y990D01*
X3014Y991D01*
X3013Y991D01*
X3011Y992D01*
X3010Y993D01*
X3008Y994D01*
X3007Y995D01*
X3006Y997D01*
X3005Y999D01*
X3004Y1001D01*
X3014Y1002D01*
Y1002D01*
X3014Y1002D01*
X3014Y1002D01*
X3014Y1001D01*
X3015Y1000D01*
X3015Y1000D01*
X3016Y1000D01*
X3016Y999D01*
X3017Y999D01*
X3017Y998D01*
X3018Y998D01*
X3019Y997D01*
X3020Y997D01*
X3021Y997D01*
X3023Y997D01*
X3023D01*
X3024Y997D01*
X3024Y997D01*
X3025Y997D01*
X3026Y997D01*
X3027Y998D01*
X3028Y998D01*
X3028Y998D01*
X3028Y998D01*
X3028Y998D01*
X3029Y999D01*
X3029Y999D01*
X3029Y999D01*
X3030Y1000D01*
X3030Y1001D01*
Y1001D01*
X3030Y1001D01*
X3029Y1001D01*
X3029Y1002D01*
X3029Y1003D01*
X3028Y1003D01*
X3027Y1003D01*
X3027Y1004D01*
X3026Y1004D01*
X3025Y1004D01*
X3025D01*
X3025Y1004D01*
X3024Y1004D01*
X3023Y1004D01*
X3022Y1004D01*
X3021Y1004D01*
X3020Y1005D01*
X3019Y1005D01*
X3016Y1006D01*
X3014Y1006D01*
X3012Y1007D01*
X3011Y1007D01*
X3010Y1008D01*
X3010Y1008D01*
X3009Y1009D01*
X3009Y1009D01*
X3008Y1010D01*
X3008Y1011D01*
X3007Y1012D01*
X3007Y1013D01*
X3006Y1015D01*
X3006Y1016D01*
X3006Y1017D01*
Y1017D01*
Y1017D01*
Y1018D01*
X3006Y1018D01*
X3006Y1018D01*
X3006Y1019D01*
X3007Y1020D01*
X3007Y1022D01*
X3008Y1023D01*
X3008Y1024D01*
X3009Y1025D01*
X3010Y1026D01*
X3010Y1026D01*
X3010Y1026D01*
X3010Y1026D01*
X3011Y1027D01*
X3011Y1027D01*
X3012Y1027D01*
X3012Y1027D01*
X3013Y1028D01*
X3013Y1028D01*
X3014Y1028D01*
X3015Y1029D01*
X3016Y1029D01*
X3017Y1029D01*
X3018Y1030D01*
X3020Y1030D01*
X3021Y1030D01*
X3023D01*
X3024Y1030D01*
D02*
G37*
G36*
X2621Y990D02*
X2609D01*
Y1012D01*
X2592D01*
Y990D01*
X2580D01*
Y1043D01*
X2592D01*
Y1022D01*
X2609D01*
Y1043D01*
X2621D01*
Y990D01*
D02*
G37*
G36*
X3262Y555D02*
X3263Y555D01*
X3264Y554D01*
X3265Y554D01*
X3266Y553D01*
X3266Y552D01*
X3267Y552D01*
X3267Y551D01*
X3267Y550D01*
Y550D01*
X3268Y550D01*
X3268Y549D01*
Y548D01*
Y546D01*
Y546D01*
Y546D01*
X3267Y546D01*
X3267Y546D01*
X3258D01*
Y546D01*
X3258Y545D01*
X3258Y545D01*
X3259Y544D01*
X3259Y543D01*
X3260Y543D01*
X3261Y542D01*
X3262Y542D01*
X3262D01*
X3262Y542D01*
X3263Y542D01*
X3263Y543D01*
X3264Y543D01*
X3264Y543D01*
X3265Y544D01*
X3265D01*
X3265Y544D01*
X3265Y543D01*
X3266Y543D01*
X3267Y542D01*
X3267Y542D01*
X3267Y542D01*
Y542D01*
X3267Y542D01*
X3267Y541D01*
X3266Y541D01*
X3266Y541D01*
X3265Y540D01*
X3264Y540D01*
X3263Y539D01*
X3262Y539D01*
X3261D01*
X3261Y539D01*
X3260Y540D01*
X3259Y540D01*
X3258Y540D01*
X3257Y541D01*
X3256Y542D01*
X3256Y542D01*
X3256Y543D01*
X3255Y544D01*
Y544D01*
X3255Y544D01*
Y545D01*
X3255Y545D01*
X3255Y546D01*
X3255Y547D01*
Y547D01*
Y547D01*
Y547D01*
Y548D01*
X3255Y548D01*
X3255Y549D01*
X3255Y551D01*
X3256Y552D01*
X3257Y553D01*
X3258Y554D01*
X3258Y554D01*
X3259Y555D01*
X3260Y555D01*
X3262D01*
X3262Y555D01*
D02*
G37*
G36*
X3232D02*
X3233D01*
X3233Y555D01*
X3234Y554D01*
X3235Y554D01*
X3236Y553D01*
X3237Y552D01*
X3237Y552D01*
X3237Y551D01*
X3238Y550D01*
X3238Y549D01*
X3238Y548D01*
Y547D01*
Y547D01*
Y547D01*
Y547D01*
X3238Y546D01*
X3238Y545D01*
X3237Y544D01*
X3237Y543D01*
X3236Y542D01*
X3235Y540D01*
X3235Y540D01*
X3234Y540D01*
X3234D01*
X3234Y540D01*
X3233Y540D01*
X3233Y539D01*
X3232Y539D01*
X3231D01*
X3230Y539D01*
X3230Y540D01*
X3229Y540D01*
X3228Y540D01*
X3227Y541D01*
X3226Y542D01*
X3226Y542D01*
X3226Y543D01*
X3225Y544D01*
Y544D01*
Y544D01*
X3225Y545D01*
X3225Y545D01*
Y546D01*
Y548D01*
Y549D01*
Y549D01*
X3225Y549D01*
X3225Y550D01*
X3225Y551D01*
X3226Y552D01*
X3227Y553D01*
X3228Y554D01*
X3229Y555D01*
X3229Y555D01*
X3229Y555D01*
X3230Y555D01*
X3231Y555D01*
X3232D01*
X3232Y555D01*
D02*
G37*
G36*
X3368D02*
X3369Y555D01*
X3370Y555D01*
X3371Y554D01*
X3372Y553D01*
X3373Y552D01*
X3373Y551D01*
X3373Y551D01*
Y546D01*
Y546D01*
X3373Y546D01*
X3373Y546D01*
X3373Y546D01*
X3364D01*
Y546D01*
Y546D01*
X3364Y545D01*
X3364Y545D01*
X3364Y544D01*
X3365Y543D01*
X3366Y543D01*
X3366Y542D01*
X3367Y542D01*
X3368D01*
X3368Y542D01*
X3369Y542D01*
X3369Y543D01*
X3370Y543D01*
X3370Y543D01*
X3371Y544D01*
X3371D01*
X3371Y544D01*
X3371Y543D01*
X3372Y543D01*
X3372Y543D01*
X3373Y542D01*
X3373Y542D01*
X3373Y542D01*
Y542D01*
X3373Y542D01*
X3373Y541D01*
X3372Y541D01*
X3372Y541D01*
X3371Y540D01*
X3370Y540D01*
X3369Y539D01*
X3368Y539D01*
X3367D01*
X3366Y539D01*
X3365Y540D01*
X3364Y540D01*
X3363Y541D01*
X3363Y541D01*
X3362Y542D01*
X3362Y543D01*
X3361Y543D01*
X3361Y544D01*
Y545D01*
Y545D01*
X3361Y545D01*
X3361Y546D01*
Y546D01*
Y548D01*
Y548D01*
Y548D01*
Y548D01*
X3361Y549D01*
X3361Y550D01*
X3362Y551D01*
X3362Y552D01*
X3363Y553D01*
X3363Y554D01*
X3364Y554D01*
X3365Y555D01*
X3365Y555D01*
X3366Y555D01*
X3368D01*
X3368Y555D01*
D02*
G37*
G36*
X3314D02*
X3315Y555D01*
X3316Y554D01*
X3316Y554D01*
X3317Y553D01*
X3317Y553D01*
X3318Y552D01*
X3318Y552D01*
X3318Y551D01*
X3319Y550D01*
X3319Y548D01*
Y546D01*
Y546D01*
Y546D01*
X3319Y545D01*
X3319Y545D01*
X3318Y544D01*
X3318Y543D01*
X3317Y541D01*
X3316Y540D01*
X3315Y540D01*
X3315Y540D01*
X3314Y539D01*
X3313Y539D01*
X3311D01*
X3311Y539D01*
X3310Y540D01*
X3309Y540D01*
X3309Y541D01*
X3308Y541D01*
X3307Y542D01*
X3307Y543D01*
X3306Y543D01*
X3306Y544D01*
Y545D01*
Y545D01*
Y545D01*
Y545D01*
X3306Y546D01*
X3306Y547D01*
Y547D01*
Y547D01*
Y548D01*
X3306Y548D01*
X3306Y549D01*
X3306Y550D01*
X3307Y551D01*
X3307Y553D01*
X3308Y554D01*
X3309Y555D01*
X3310D01*
X3310Y555D01*
X3310Y555D01*
X3310Y555D01*
X3311Y555D01*
X3312Y555D01*
X3313D01*
X3314Y555D01*
D02*
G37*
G36*
X4106Y560D02*
X4062D01*
Y541D01*
X4097D01*
Y524D01*
X4062D01*
Y503D01*
X4106D01*
Y485D01*
X4040D01*
Y578D01*
X4106D01*
Y560D01*
D02*
G37*
G36*
X3992Y579D02*
X3993Y579D01*
X3995Y578D01*
X3997Y578D01*
X3999Y578D01*
X4003Y577D01*
X4005Y576D01*
X4007Y575D01*
X4009Y574D01*
X4011Y573D01*
X4013Y572D01*
X4014Y570D01*
X4015Y570D01*
X4015Y570D01*
X4015Y569D01*
X4016Y569D01*
X4016Y568D01*
X4017Y567D01*
X4018Y566D01*
X4019Y564D01*
X4021Y561D01*
X4022Y558D01*
X4022Y556D01*
X4023Y554D01*
X4023Y552D01*
X4023Y550D01*
Y550D01*
Y549D01*
Y548D01*
X4023Y548D01*
X4023Y546D01*
X4023Y545D01*
X4023Y544D01*
X4022Y542D01*
X4021Y539D01*
X4020Y537D01*
X4019Y535D01*
X4018Y533D01*
X4017Y531D01*
X4016Y529D01*
X4014Y527D01*
X4014Y527D01*
X4014Y527D01*
X4013Y526D01*
X4012Y526D01*
X4011Y525D01*
X4010Y524D01*
X4008Y522D01*
X4006Y521D01*
X4004Y519D01*
X4002Y517D01*
X3999Y515D01*
X3996Y513D01*
X3992Y511D01*
X3989Y509D01*
X3985Y506D01*
X3980Y503D01*
X4025D01*
X4023Y485D01*
X3954D01*
Y503D01*
X3954Y503D01*
X3954Y503D01*
X3955Y504D01*
X3956Y505D01*
X3958Y506D01*
X3960Y507D01*
X3962Y509D01*
X3965Y511D01*
X3965Y511D01*
X3966Y511D01*
X3967Y512D01*
X3968Y513D01*
X3969Y514D01*
X3971Y516D01*
X3973Y517D01*
X3975Y519D01*
X3980Y522D01*
X3984Y526D01*
X3987Y528D01*
X3989Y530D01*
X3991Y531D01*
X3992Y533D01*
X3993Y533D01*
X3993Y534D01*
X3993Y534D01*
X3994Y535D01*
X3995Y536D01*
X3997Y538D01*
X3998Y541D01*
X4000Y544D01*
X4000Y545D01*
X4001Y546D01*
X4001Y548D01*
X4001Y549D01*
Y550D01*
Y550D01*
X4001Y551D01*
X4001Y552D01*
X4000Y554D01*
X4000Y555D01*
X3999Y557D01*
X3998Y558D01*
X3998Y558D01*
X3997Y559D01*
X3996Y559D01*
X3995Y560D01*
X3994Y560D01*
X3992Y561D01*
X3990Y561D01*
X3988Y562D01*
X3988D01*
X3987Y561D01*
X3986Y561D01*
X3985Y561D01*
X3984Y561D01*
X3983Y560D01*
X3981Y559D01*
X3980Y558D01*
X3978Y557D01*
X3977Y556D01*
X3976Y554D01*
X3975Y552D01*
X3974Y550D01*
X3973Y547D01*
X3973Y544D01*
X3954Y548D01*
Y548D01*
X3954Y548D01*
Y549D01*
X3954Y550D01*
X3954Y551D01*
X3955Y553D01*
X3956Y555D01*
X3957Y558D01*
X3959Y561D01*
X3960Y564D01*
X3963Y566D01*
X3965Y569D01*
X3968Y572D01*
X3971Y574D01*
X3975Y576D01*
X3979Y578D01*
X3982Y578D01*
X3984Y579D01*
X3987Y579D01*
X3989Y579D01*
X3991D01*
X3992Y579D01*
D02*
G37*
G36*
X3866Y513D02*
X3834D01*
Y527D01*
X3866D01*
Y513D01*
D02*
G37*
G36*
X3875Y714D02*
X3877D01*
X3878Y714D01*
X3880Y713D01*
X3882Y713D01*
X3886Y712D01*
X3890Y711D01*
X3894Y709D01*
X3895Y708D01*
X3897Y707D01*
X3897Y707D01*
X3898Y707D01*
X3898Y706D01*
X3899Y706D01*
X3900Y704D01*
X3902Y702D01*
X3903Y700D01*
X3905Y697D01*
X3905Y695D01*
X3906Y693D01*
X3906Y691D01*
X3906Y689D01*
Y689D01*
Y689D01*
X3906Y688D01*
Y687D01*
X3906Y686D01*
X3906Y685D01*
X3905Y683D01*
X3905Y682D01*
X3904Y680D01*
X3903Y679D01*
X3902Y677D01*
X3900Y675D01*
X3899Y674D01*
X3897Y672D01*
X3895Y671D01*
X3892Y670D01*
X3892Y670D01*
X3893Y669D01*
X3894Y669D01*
X3895Y668D01*
X3896Y668D01*
X3898Y667D01*
X3899Y666D01*
X3901Y664D01*
X3902Y663D01*
X3904Y661D01*
X3906Y659D01*
X3907Y657D01*
X3908Y655D01*
X3909Y652D01*
X3909Y650D01*
X3909Y647D01*
Y647D01*
Y646D01*
Y646D01*
X3909Y645D01*
X3909Y644D01*
X3909Y643D01*
X3908Y640D01*
X3907Y637D01*
X3906Y635D01*
X3905Y633D01*
X3904Y631D01*
X3903Y630D01*
X3901Y628D01*
X3900Y626D01*
X3899Y626D01*
X3899Y626D01*
X3899Y626D01*
X3898Y625D01*
X3897Y625D01*
X3895Y624D01*
X3894Y623D01*
X3892Y623D01*
X3891Y622D01*
X3888Y621D01*
X3886Y620D01*
X3884Y620D01*
X3881Y619D01*
X3878Y619D01*
X3875Y619D01*
X3871Y618D01*
X3870D01*
X3868Y619D01*
X3867Y619D01*
X3865Y619D01*
X3864Y619D01*
X3862Y619D01*
X3857Y620D01*
X3853Y622D01*
X3851Y622D01*
X3849Y623D01*
X3847Y624D01*
X3845Y626D01*
X3845Y626D01*
X3845Y626D01*
X3844Y626D01*
X3844Y627D01*
X3843Y628D01*
X3842Y629D01*
X3842Y630D01*
X3841Y631D01*
X3839Y634D01*
X3838Y637D01*
X3837Y639D01*
X3837Y641D01*
X3836Y643D01*
X3836Y645D01*
Y645D01*
Y645D01*
X3836Y646D01*
X3836Y647D01*
X3837Y648D01*
X3837Y650D01*
X3837Y651D01*
X3838Y653D01*
X3839Y655D01*
X3840Y656D01*
X3841Y658D01*
X3843Y660D01*
X3845Y661D01*
X3847Y663D01*
X3850Y664D01*
X3852Y665D01*
X3852Y666D01*
X3852Y666D01*
X3851Y666D01*
X3850Y667D01*
X3849Y668D01*
X3848Y668D01*
X3847Y670D01*
X3846Y671D01*
X3845Y672D01*
X3843Y674D01*
X3842Y675D01*
X3841Y677D01*
X3840Y679D01*
X3840Y682D01*
X3839Y684D01*
X3839Y686D01*
Y687D01*
Y687D01*
Y688D01*
X3839Y688D01*
X3839Y689D01*
X3840Y690D01*
X3840Y693D01*
X3841Y696D01*
X3842Y698D01*
X3843Y699D01*
X3844Y701D01*
X3845Y703D01*
X3846Y704D01*
X3848Y706D01*
X3848Y706D01*
X3849Y706D01*
X3849Y707D01*
X3850Y707D01*
X3851Y708D01*
X3852Y708D01*
X3853Y709D01*
X3854Y710D01*
X3856Y711D01*
X3858Y711D01*
X3860Y712D01*
X3862Y713D01*
X3865Y713D01*
X3867Y714D01*
X3870Y714D01*
X3873Y714D01*
X3874D01*
X3875Y714D01*
D02*
G37*
G36*
X3709Y579D02*
X3710Y579D01*
X3712Y578D01*
X3715Y578D01*
X3718Y577D01*
X3721Y576D01*
X3724Y575D01*
X3726Y573D01*
X3729Y572D01*
X3732Y570D01*
X3735Y567D01*
X3737Y564D01*
X3739Y561D01*
X3741Y557D01*
X3723Y551D01*
Y551D01*
X3722Y551D01*
X3722Y552D01*
X3722Y553D01*
X3721Y554D01*
X3719Y556D01*
X3718Y557D01*
X3717Y558D01*
X3716Y559D01*
X3714Y560D01*
X3713Y561D01*
X3711Y561D01*
X3709Y562D01*
X3707Y562D01*
X3705D01*
X3705Y562D01*
X3704Y562D01*
X3703Y561D01*
X3700Y561D01*
X3698Y560D01*
X3697Y559D01*
X3696Y558D01*
X3695Y557D01*
X3694Y556D01*
X3694Y555D01*
X3694Y553D01*
Y553D01*
Y553D01*
X3694Y552D01*
X3694Y552D01*
X3694Y551D01*
X3695Y550D01*
X3695Y549D01*
X3696Y548D01*
X3696Y548D01*
X3697Y547D01*
X3697Y547D01*
X3698Y547D01*
X3700Y546D01*
X3702Y545D01*
X3704Y545D01*
X3707Y544D01*
X3707D01*
X3708Y544D01*
X3708Y544D01*
X3709Y543D01*
X3711Y543D01*
X3712Y543D01*
X3715Y542D01*
X3718Y541D01*
X3722Y540D01*
X3725Y539D01*
X3726Y539D01*
X3728Y538D01*
X3728D01*
X3728Y538D01*
X3729Y537D01*
X3730Y537D01*
X3732Y536D01*
X3733Y534D01*
X3735Y533D01*
X3737Y531D01*
X3739Y529D01*
X3739Y528D01*
X3740Y527D01*
X3740Y526D01*
X3741Y524D01*
X3742Y522D01*
X3743Y520D01*
X3743Y517D01*
X3744Y514D01*
Y514D01*
Y514D01*
Y513D01*
X3743Y512D01*
X3743Y511D01*
X3743Y510D01*
X3743Y508D01*
X3742Y507D01*
X3741Y503D01*
X3740Y502D01*
X3739Y500D01*
X3738Y498D01*
X3737Y496D01*
X3736Y494D01*
X3734Y493D01*
X3734Y492D01*
X3733Y492D01*
X3733Y492D01*
X3732Y491D01*
X3731Y490D01*
X3730Y490D01*
X3728Y489D01*
X3727Y488D01*
X3725Y487D01*
X3723Y486D01*
X3720Y486D01*
X3718Y485D01*
X3715Y484D01*
X3712Y484D01*
X3709Y484D01*
X3705Y483D01*
X3704D01*
X3703Y484D01*
X3701D01*
X3700Y484D01*
X3698Y484D01*
X3697Y484D01*
X3693Y485D01*
X3689Y486D01*
X3685Y488D01*
X3683Y489D01*
X3681Y490D01*
X3681Y490D01*
X3680Y490D01*
X3680Y491D01*
X3679Y491D01*
X3678Y492D01*
X3677Y493D01*
X3676Y494D01*
X3675Y495D01*
X3674Y496D01*
X3673Y497D01*
X3672Y499D01*
X3671Y501D01*
X3670Y503D01*
X3669Y504D01*
X3668Y507D01*
X3668Y509D01*
X3688Y514D01*
Y513D01*
X3688Y513D01*
X3688Y512D01*
X3689Y512D01*
X3689Y511D01*
X3690Y510D01*
X3690Y508D01*
X3691Y507D01*
X3693Y506D01*
X3694Y505D01*
X3695Y504D01*
X3697Y503D01*
X3699Y502D01*
X3701Y501D01*
X3704Y501D01*
X3707Y501D01*
X3708D01*
X3709Y501D01*
X3711Y501D01*
X3713Y502D01*
X3715Y502D01*
X3716Y503D01*
X3718Y504D01*
X3718Y504D01*
X3718Y504D01*
X3719Y505D01*
X3720Y505D01*
X3720Y506D01*
X3721Y508D01*
X3721Y509D01*
X3722Y510D01*
Y511D01*
Y511D01*
X3721Y512D01*
X3721Y513D01*
X3721Y514D01*
X3720Y515D01*
X3719Y516D01*
X3718Y517D01*
X3718Y517D01*
X3717Y517D01*
X3717Y518D01*
X3715Y518D01*
X3714Y519D01*
X3711Y519D01*
X3709Y520D01*
X3705Y521D01*
X3705D01*
X3705Y521D01*
X3704Y521D01*
X3702Y522D01*
X3701Y522D01*
X3699Y522D01*
X3697Y523D01*
X3696Y524D01*
X3691Y525D01*
X3687Y527D01*
X3685Y528D01*
X3683Y529D01*
X3682Y530D01*
X3680Y531D01*
X3680Y531D01*
X3680Y531D01*
X3679Y532D01*
X3679Y532D01*
X3678Y533D01*
X3678Y533D01*
X3676Y536D01*
X3675Y538D01*
X3674Y541D01*
X3673Y545D01*
X3673Y547D01*
X3673Y550D01*
Y550D01*
Y550D01*
Y551D01*
X3673Y552D01*
X3673Y553D01*
X3673Y554D01*
X3673Y555D01*
X3674Y557D01*
X3675Y560D01*
X3675Y562D01*
X3676Y563D01*
X3677Y565D01*
X3679Y567D01*
X3680Y569D01*
X3681Y570D01*
X3682Y570D01*
X3682Y571D01*
X3682Y571D01*
X3683Y572D01*
X3684Y572D01*
X3685Y573D01*
X3686Y574D01*
X3688Y575D01*
X3690Y575D01*
X3691Y576D01*
X3693Y577D01*
X3696Y578D01*
X3698Y578D01*
X3700Y578D01*
X3703Y579D01*
X3706Y579D01*
X3707D01*
X3709Y579D01*
D02*
G37*
G36*
X3923Y502D02*
X3949D01*
Y485D01*
X3874D01*
Y502D01*
X3902D01*
Y555D01*
X3902Y555D01*
X3901Y554D01*
X3900Y554D01*
X3899Y553D01*
X3898Y552D01*
X3896Y551D01*
X3894Y550D01*
X3893Y549D01*
X3888Y547D01*
X3884Y545D01*
X3880Y543D01*
X3878Y542D01*
X3876Y541D01*
Y560D01*
X3877Y560D01*
X3877Y560D01*
X3879Y561D01*
X3880Y561D01*
X3882Y562D01*
X3884Y563D01*
X3887Y564D01*
X3889Y565D01*
X3894Y568D01*
X3897Y569D01*
X3900Y571D01*
X3902Y573D01*
X3904Y575D01*
X3906Y577D01*
X3908Y579D01*
X3923D01*
Y502D01*
D02*
G37*
G36*
X2073Y1056D02*
X2074Y1056D01*
X2074Y1055D01*
X2074Y1054D01*
X2073Y1053D01*
X2071Y1052D01*
X2069Y1051D01*
X2067Y1048D01*
X2066Y1047D01*
X2064Y1045D01*
X2064Y1044D01*
X2064Y1043D01*
X2066Y1042D01*
X2067Y1040D01*
X2070Y1039D01*
X2072Y1036D01*
X2074Y1034D01*
X2075Y1033D01*
X2076Y1032D01*
X2077D01*
X2087Y1042D01*
X2088Y1041D01*
Y1036D01*
Y1036D01*
X2088Y1034D01*
X2087Y1032D01*
X2086Y1030D01*
X2084Y1027D01*
X2081Y1024D01*
X2077Y1022D01*
X2074Y1021D01*
X2071Y1020D01*
X2066D01*
X2054Y1009D01*
X2053D01*
X2053Y1009D01*
X2052Y1011D01*
X2051Y1013D01*
X2049Y1015D01*
X2045Y1019D01*
X2043Y1021D01*
X2041Y1023D01*
Y1024D01*
X2042Y1024D01*
X2043Y1026D01*
X2045Y1027D01*
X2047Y1029D01*
X2049Y1031D01*
X2050Y1033D01*
X2052Y1035D01*
X2052Y1036D01*
Y1036D01*
X2051Y1038D01*
Y1038D01*
X2052Y1039D01*
X2052Y1041D01*
X2053Y1044D01*
X2055Y1047D01*
X2057Y1051D01*
X2060Y1054D01*
X2063Y1056D01*
X2065Y1056D01*
X2067Y1056D01*
X2073D01*
X2073Y1056D01*
D02*
G37*
G36*
X3118Y897D02*
X3094D01*
X3094Y885D01*
X3094Y885D01*
X3094Y885D01*
X3094Y886D01*
X3094Y886D01*
X3095Y886D01*
X3095Y887D01*
X3096Y887D01*
X3097Y888D01*
X3098Y888D01*
X3100Y889D01*
X3102Y890D01*
X3104Y890D01*
X3105Y890D01*
X3106D01*
X3106Y890D01*
X3107Y890D01*
X3107Y890D01*
X3108Y889D01*
X3109Y889D01*
X3111Y889D01*
X3112Y888D01*
X3113Y888D01*
X3114Y887D01*
X3115Y887D01*
X3116Y886D01*
X3117Y885D01*
X3117Y885D01*
X3117Y885D01*
X3118Y885D01*
X3118Y884D01*
X3118Y884D01*
X3119Y883D01*
X3119Y883D01*
X3120Y882D01*
X3120Y881D01*
X3121Y880D01*
X3121Y878D01*
X3122Y877D01*
X3122Y876D01*
X3122Y874D01*
X3122Y873D01*
Y873D01*
Y873D01*
Y872D01*
X3122Y872D01*
X3122Y871D01*
X3122Y870D01*
X3122Y869D01*
X3121Y868D01*
X3121Y866D01*
X3120Y865D01*
X3120Y864D01*
X3119Y863D01*
X3118Y861D01*
X3118Y860D01*
X3117Y859D01*
X3117Y859D01*
X3116Y859D01*
X3116Y859D01*
X3116Y859D01*
X3115Y858D01*
X3114Y858D01*
X3114Y857D01*
X3113Y857D01*
X3112Y856D01*
X3111Y856D01*
X3109Y855D01*
X3108Y855D01*
X3107Y855D01*
X3105Y854D01*
X3103Y854D01*
X3102Y854D01*
X3101D01*
X3100Y854D01*
X3099Y854D01*
X3098Y855D01*
X3096Y855D01*
X3094Y855D01*
X3093Y856D01*
X3091Y857D01*
X3089Y858D01*
X3087Y859D01*
X3086Y860D01*
X3084Y862D01*
X3083Y864D01*
X3082Y867D01*
X3081Y868D01*
X3081Y869D01*
X3092Y871D01*
Y871D01*
X3092Y871D01*
X3093Y870D01*
X3093Y870D01*
X3093Y869D01*
X3094Y867D01*
X3095Y867D01*
X3095Y866D01*
X3096Y866D01*
X3097Y865D01*
X3098Y865D01*
X3099Y864D01*
X3100Y864D01*
X3101Y864D01*
X3102D01*
X3102Y864D01*
X3103Y864D01*
X3104Y865D01*
X3105Y865D01*
X3106Y866D01*
X3107Y866D01*
X3107Y866D01*
X3108Y867D01*
X3108Y867D01*
X3108Y868D01*
X3109Y869D01*
X3109Y870D01*
X3110Y871D01*
X3110Y872D01*
Y872D01*
Y873D01*
X3110Y873D01*
X3109Y874D01*
X3109Y875D01*
X3109Y876D01*
X3108Y877D01*
X3107Y878D01*
X3107Y878D01*
X3107Y878D01*
X3106Y879D01*
X3106Y879D01*
X3105Y880D01*
X3104Y880D01*
X3102Y880D01*
X3101Y880D01*
X3101D01*
X3100Y880D01*
X3100Y880D01*
X3098Y880D01*
X3097Y879D01*
X3096Y879D01*
X3095Y878D01*
X3095Y878D01*
X3094Y877D01*
X3094Y876D01*
X3083Y878D01*
X3086Y908D01*
X3119D01*
X3118Y897D01*
D02*
G37*
G36*
X1945Y1056D02*
X1947Y1055D01*
X1950Y1054D01*
X1953Y1052D01*
X1955Y1048D01*
X1957Y1046D01*
X1958Y1043D01*
X1958Y1041D01*
X1959Y1037D01*
Y1037D01*
X1959Y1036D01*
X1958Y1034D01*
X1959D01*
X1959Y1033D01*
X1960Y1033D01*
X1962Y1031D01*
X1964Y1029D01*
X1966Y1027D01*
X1970Y1023D01*
X1969Y1023D01*
X1969Y1022D01*
X1968Y1021D01*
X1966Y1020D01*
X1964Y1018D01*
X1962Y1015D01*
X1960Y1012D01*
X1957Y1008D01*
X1944Y1020D01*
X1939D01*
X1938Y1020D01*
X1937Y1021D01*
X1934Y1022D01*
X1931Y1023D01*
X1927Y1026D01*
X1925Y1029D01*
X1923Y1033D01*
X1923Y1035D01*
X1922Y1037D01*
Y1041D01*
Y1041D01*
X1923Y1042D01*
X1923Y1042D01*
X1924Y1042D01*
X1924Y1042D01*
X1925Y1041D01*
X1927Y1039D01*
X1929Y1037D01*
X1931Y1035D01*
X1932Y1034D01*
X1934Y1032D01*
X1935Y1032D01*
X1946Y1045D01*
X1936Y1056D01*
X1938Y1056D01*
X1944D01*
X1945Y1056D01*
D02*
G37*
G36*
X3797Y577D02*
X3798D01*
X3801Y577D01*
X3804Y577D01*
X3807Y576D01*
X3810Y576D01*
X3813Y575D01*
X3813D01*
X3813Y575D01*
X3814Y574D01*
X3815Y574D01*
X3817Y573D01*
X3818Y571D01*
X3820Y570D01*
X3822Y568D01*
X3824Y566D01*
Y565D01*
X3825Y565D01*
X3825Y565D01*
X3825Y564D01*
X3826Y563D01*
X3827Y561D01*
X3828Y559D01*
X3829Y556D01*
X3829Y553D01*
X3829Y549D01*
Y549D01*
Y549D01*
Y548D01*
X3829Y547D01*
X3829Y545D01*
X3829Y543D01*
X3828Y540D01*
X3828Y538D01*
X3827Y536D01*
X3827Y535D01*
X3826Y535D01*
X3825Y533D01*
X3825Y532D01*
X3824Y530D01*
X3822Y529D01*
X3821Y527D01*
X3819Y525D01*
X3819Y525D01*
X3818Y525D01*
X3817Y524D01*
X3816Y523D01*
X3815Y523D01*
X3813Y522D01*
X3811Y521D01*
X3809Y520D01*
X3809D01*
X3809Y520D01*
X3807Y520D01*
X3806Y520D01*
X3804Y520D01*
X3801Y519D01*
X3798Y519D01*
X3780D01*
Y485D01*
X3758D01*
Y578D01*
X3796D01*
X3797Y577D01*
D02*
G37*
G36*
X3664Y560D02*
X3620D01*
Y541D01*
X3655D01*
Y524D01*
X3620D01*
Y503D01*
X3664D01*
Y485D01*
X3598D01*
Y578D01*
X3664D01*
Y560D01*
D02*
G37*
G36*
X2899Y895D02*
X2900Y895D01*
X2900Y895D01*
X2901Y894D01*
X2902Y894D01*
X2904Y894D01*
X2905Y893D01*
X2906Y893D01*
X2907Y892D01*
X2909Y891D01*
X2910Y890D01*
X2911Y890D01*
X2911Y889D01*
X2911Y889D01*
X2911Y889D01*
X2911Y889D01*
X2912Y888D01*
X2912Y887D01*
X2913Y886D01*
X2913Y885D01*
X2914Y884D01*
X2914Y883D01*
X2915Y882D01*
X2915Y880D01*
X2916Y878D01*
X2916Y877D01*
X2916Y875D01*
X2916Y873D01*
X2891D01*
Y872D01*
Y872D01*
Y872D01*
Y871D01*
Y871D01*
Y871D01*
Y871D01*
Y870D01*
X2891Y869D01*
X2891Y868D01*
X2891Y867D01*
X2892Y866D01*
X2892Y865D01*
X2893Y864D01*
X2893Y864D01*
X2893Y864D01*
X2894Y864D01*
X2894Y863D01*
X2895Y863D01*
X2896Y863D01*
X2897Y862D01*
X2898Y862D01*
X2899D01*
X2899Y862D01*
X2899D01*
X2900Y863D01*
X2901Y863D01*
X2902Y863D01*
X2903Y864D01*
X2903Y864D01*
X2904Y865D01*
X2904Y866D01*
X2905Y866D01*
X2905Y867D01*
X2905Y868D01*
X2916Y868D01*
X2916Y867D01*
X2916Y867D01*
X2915Y866D01*
X2915Y866D01*
X2914Y864D01*
X2914Y863D01*
X2913Y862D01*
X2912Y861D01*
X2911Y860D01*
X2909Y858D01*
X2908Y857D01*
X2906Y856D01*
X2905Y855D01*
X2903Y855D01*
X2900Y854D01*
X2898Y854D01*
X2897D01*
X2896Y854D01*
X2896Y854D01*
X2895Y854D01*
X2893Y855D01*
X2891Y855D01*
X2890Y856D01*
X2888Y856D01*
X2888D01*
X2888Y857D01*
X2887Y857D01*
X2887Y857D01*
X2886Y858D01*
X2885Y859D01*
X2883Y860D01*
X2882Y862D01*
X2881Y863D01*
Y863D01*
X2881Y863D01*
X2881Y864D01*
X2881Y864D01*
X2881Y865D01*
X2880Y865D01*
X2880Y866D01*
X2879Y868D01*
X2879Y870D01*
X2879Y872D01*
X2879Y874D01*
Y874D01*
Y874D01*
Y875D01*
X2879Y876D01*
X2879Y876D01*
X2879Y877D01*
X2879Y878D01*
X2879Y879D01*
X2880Y882D01*
X2880Y883D01*
X2881Y884D01*
X2881Y886D01*
X2882Y887D01*
X2883Y888D01*
X2884Y889D01*
X2884Y889D01*
X2884Y889D01*
X2884Y890D01*
X2885Y890D01*
X2885Y890D01*
X2886Y891D01*
X2887Y891D01*
X2888Y892D01*
X2889Y893D01*
X2890Y893D01*
X2891Y894D01*
X2892Y894D01*
X2893Y894D01*
X2895Y895D01*
X2896Y895D01*
X2898Y895D01*
X2898D01*
X2899Y895D01*
D02*
G37*
G36*
X3009Y909D02*
X3010D01*
X3011Y908D01*
X3011Y908D01*
X3013Y908D01*
X3014Y908D01*
X3015Y907D01*
X3016Y907D01*
X3017Y906D01*
X3019Y905D01*
X3020Y904D01*
X3021Y903D01*
X3022Y902D01*
X3023Y901D01*
X3023Y901D01*
X3024Y900D01*
X3024Y900D01*
X3024Y899D01*
X3025Y899D01*
X3025Y898D01*
X3025Y897D01*
X3026Y895D01*
X3027Y894D01*
X3027Y893D01*
X3027Y891D01*
X3028Y889D01*
X3028Y887D01*
X3028Y886D01*
X3029Y884D01*
X3029Y881D01*
Y881D01*
Y881D01*
Y880D01*
X3029Y880D01*
X3029Y879D01*
X3028Y877D01*
X3028Y876D01*
X3028Y875D01*
X3028Y873D01*
X3027Y872D01*
X3027Y870D01*
X3026Y868D01*
X3026Y867D01*
X3025Y865D01*
X3024Y863D01*
X3023Y862D01*
X3023Y862D01*
X3023Y862D01*
X3023Y861D01*
X3022Y861D01*
X3022Y860D01*
X3021Y859D01*
X3020Y859D01*
X3019Y858D01*
X3018Y857D01*
X3017Y857D01*
X3016Y856D01*
X3015Y855D01*
X3013Y855D01*
X3011Y854D01*
X3010Y854D01*
X3008Y854D01*
X3008D01*
X3007Y854D01*
X3006D01*
X3006Y854D01*
X3005Y855D01*
X3004Y855D01*
X3002Y855D01*
X3001Y855D01*
X3000Y856D01*
X2999Y857D01*
X2997Y857D01*
X2996Y858D01*
X2995Y859D01*
X2994Y860D01*
X2993Y862D01*
X2993Y862D01*
X2993Y862D01*
X2992Y863D01*
X2992Y863D01*
X2992Y864D01*
X2991Y865D01*
X2991Y866D01*
X2990Y867D01*
X2990Y868D01*
X2989Y870D01*
X2989Y872D01*
X2988Y873D01*
X2988Y875D01*
X2988Y877D01*
X2988Y879D01*
X2987Y881D01*
Y881D01*
Y882D01*
Y882D01*
X2988Y883D01*
X2988Y884D01*
X2988Y885D01*
X2988Y887D01*
X2988Y888D01*
X2988Y890D01*
X2989Y891D01*
X2989Y893D01*
X2990Y894D01*
X2990Y896D01*
X2991Y898D01*
X2992Y899D01*
X2993Y901D01*
X2993Y901D01*
X2993Y901D01*
X2993Y901D01*
X2994Y902D01*
X2994Y903D01*
X2995Y903D01*
X2996Y904D01*
X2997Y905D01*
X2998Y905D01*
X2999Y906D01*
X3000Y907D01*
X3001Y907D01*
X3003Y908D01*
X3004Y908D01*
X3006Y909D01*
X3008Y909D01*
X3008D01*
X3009Y909D01*
D02*
G37*
G36*
X4041Y714D02*
X4042D01*
X4043Y713D01*
X4045Y713D01*
X4046Y713D01*
X4050Y712D01*
X4053Y711D01*
X4055Y710D01*
X4057Y709D01*
X4059Y708D01*
X4060Y707D01*
X4060Y706D01*
X4061Y706D01*
X4061Y706D01*
X4062Y705D01*
X4063Y704D01*
X4065Y702D01*
X4066Y699D01*
X4068Y696D01*
X4070Y693D01*
X4070Y691D01*
X4071Y689D01*
X4052Y684D01*
Y684D01*
X4052Y685D01*
X4052Y685D01*
X4051Y686D01*
X4051Y687D01*
X4050Y689D01*
X4049Y691D01*
X4048Y693D01*
X4047Y694D01*
X4046Y695D01*
X4045Y696D01*
X4043Y697D01*
X4042Y698D01*
X4040Y698D01*
X4038Y698D01*
X4037D01*
X4037Y698D01*
X4036Y698D01*
X4034Y697D01*
X4033Y697D01*
X4031Y696D01*
X4030Y694D01*
X4028Y693D01*
X4027Y691D01*
X4026Y688D01*
X4024Y685D01*
X4024Y683D01*
X4023Y682D01*
X4023Y680D01*
X4023Y678D01*
X4022Y675D01*
X4022Y673D01*
X4022Y670D01*
Y667D01*
X4022Y667D01*
X4022Y668D01*
X4023Y668D01*
X4023Y669D01*
X4024Y670D01*
X4025Y671D01*
X4026Y672D01*
X4027Y673D01*
X4028Y674D01*
X4030Y675D01*
X4031Y675D01*
X4033Y676D01*
X4035Y677D01*
X4038Y678D01*
X4040Y678D01*
X4043Y678D01*
X4044D01*
X4045Y678D01*
X4046Y678D01*
X4047Y678D01*
X4049Y677D01*
X4050Y677D01*
X4053Y676D01*
X4055Y675D01*
X4057Y674D01*
X4059Y673D01*
X4060Y672D01*
X4062Y671D01*
X4064Y669D01*
X4064Y669D01*
X4064Y669D01*
X4064Y669D01*
X4065Y668D01*
X4065Y667D01*
X4066Y666D01*
X4067Y665D01*
X4068Y664D01*
X4069Y661D01*
X4071Y658D01*
X4071Y656D01*
X4072Y654D01*
X4072Y652D01*
X4072Y650D01*
Y649D01*
Y649D01*
Y648D01*
X4072Y647D01*
X4072Y646D01*
X4071Y645D01*
X4071Y644D01*
X4071Y642D01*
X4070Y639D01*
X4069Y637D01*
X4068Y635D01*
X4067Y633D01*
X4066Y631D01*
X4064Y630D01*
X4063Y628D01*
X4063Y628D01*
X4062Y627D01*
X4062Y627D01*
X4061Y626D01*
X4060Y626D01*
X4059Y625D01*
X4058Y624D01*
X4056Y623D01*
X4055Y622D01*
X4053Y621D01*
X4051Y621D01*
X4049Y620D01*
X4047Y619D01*
X4044Y619D01*
X4041Y619D01*
X4039Y618D01*
X4037D01*
X4036Y619D01*
X4035Y619D01*
X4033Y619D01*
X4032Y619D01*
X4030Y619D01*
X4026Y620D01*
X4022Y622D01*
X4020Y623D01*
X4019Y624D01*
X4017Y625D01*
X4015Y626D01*
X4015Y626D01*
X4015Y626D01*
X4014Y627D01*
X4014Y627D01*
X4013Y628D01*
X4012Y629D01*
X4010Y631D01*
X4008Y634D01*
X4006Y637D01*
X4005Y640D01*
X4003Y644D01*
Y644D01*
X4003Y645D01*
X4003Y645D01*
X4003Y646D01*
X4003Y647D01*
X4002Y648D01*
X4002Y649D01*
X4002Y651D01*
X4001Y654D01*
X4001Y657D01*
X4000Y661D01*
X4000Y665D01*
Y665D01*
Y666D01*
Y667D01*
X4000Y668D01*
X4001Y670D01*
X4001Y672D01*
X4001Y675D01*
X4001Y677D01*
X4002Y680D01*
X4003Y683D01*
X4003Y686D01*
X4004Y689D01*
X4005Y692D01*
X4007Y694D01*
X4008Y697D01*
X4010Y700D01*
X4010Y700D01*
X4010Y701D01*
X4011Y701D01*
X4012Y702D01*
X4013Y703D01*
X4014Y704D01*
X4015Y706D01*
X4017Y707D01*
X4019Y708D01*
X4021Y709D01*
X4023Y711D01*
X4026Y712D01*
X4029Y713D01*
X4032Y713D01*
X4035Y714D01*
X4038Y714D01*
X4040D01*
X4041Y714D01*
D02*
G37*
G36*
X3709D02*
X3710Y714D01*
X3712Y713D01*
X3715Y713D01*
X3718Y712D01*
X3721Y711D01*
X3724Y710D01*
X3726Y708D01*
X3729Y707D01*
X3732Y705D01*
X3735Y702D01*
X3737Y699D01*
X3739Y696D01*
X3741Y692D01*
X3723Y686D01*
Y686D01*
X3722Y686D01*
X3722Y687D01*
X3722Y688D01*
X3721Y689D01*
X3719Y691D01*
X3718Y692D01*
X3717Y693D01*
X3716Y694D01*
X3714Y695D01*
X3713Y696D01*
X3711Y696D01*
X3709Y697D01*
X3707Y697D01*
X3705D01*
X3705Y697D01*
X3704Y697D01*
X3703Y696D01*
X3700Y696D01*
X3698Y695D01*
X3697Y694D01*
X3696Y693D01*
X3695Y692D01*
X3694Y691D01*
X3694Y690D01*
X3694Y688D01*
Y688D01*
Y688D01*
X3694Y687D01*
X3694Y687D01*
X3694Y686D01*
X3695Y685D01*
X3695Y684D01*
X3696Y683D01*
X3696Y683D01*
X3697Y682D01*
X3697Y682D01*
X3698Y682D01*
X3700Y681D01*
X3702Y680D01*
X3704Y680D01*
X3707Y679D01*
X3707D01*
X3708Y679D01*
X3708Y679D01*
X3709Y678D01*
X3711Y678D01*
X3712Y678D01*
X3715Y677D01*
X3718Y676D01*
X3722Y675D01*
X3725Y674D01*
X3726Y674D01*
X3728Y673D01*
X3728D01*
X3728Y673D01*
X3729Y672D01*
X3730Y672D01*
X3732Y671D01*
X3733Y669D01*
X3735Y668D01*
X3737Y666D01*
X3739Y664D01*
X3739Y663D01*
X3740Y662D01*
X3740Y661D01*
X3741Y659D01*
X3742Y657D01*
X3743Y655D01*
X3743Y652D01*
X3744Y649D01*
Y649D01*
Y649D01*
Y648D01*
X3743Y647D01*
X3743Y646D01*
X3743Y645D01*
X3743Y643D01*
X3742Y642D01*
X3741Y638D01*
X3740Y637D01*
X3739Y635D01*
X3738Y633D01*
X3737Y631D01*
X3736Y629D01*
X3734Y628D01*
X3734Y627D01*
X3733Y627D01*
X3733Y627D01*
X3732Y626D01*
X3731Y625D01*
X3730Y625D01*
X3728Y624D01*
X3727Y623D01*
X3725Y622D01*
X3723Y621D01*
X3720Y621D01*
X3718Y620D01*
X3715Y619D01*
X3712Y619D01*
X3709Y619D01*
X3705Y618D01*
X3704D01*
X3703Y619D01*
X3701D01*
X3700Y619D01*
X3698Y619D01*
X3697Y619D01*
X3693Y620D01*
X3689Y621D01*
X3685Y623D01*
X3683Y624D01*
X3681Y625D01*
X3681Y625D01*
X3680Y625D01*
X3680Y626D01*
X3679Y626D01*
X3678Y627D01*
X3677Y628D01*
X3676Y629D01*
X3675Y630D01*
X3674Y631D01*
X3673Y632D01*
X3672Y634D01*
X3671Y636D01*
X3670Y638D01*
X3669Y639D01*
X3668Y642D01*
X3668Y644D01*
X3688Y649D01*
Y648D01*
X3688Y648D01*
X3688Y647D01*
X3689Y647D01*
X3689Y646D01*
X3690Y645D01*
X3690Y643D01*
X3691Y642D01*
X3693Y641D01*
X3694Y640D01*
X3695Y639D01*
X3697Y638D01*
X3699Y637D01*
X3701Y636D01*
X3704Y636D01*
X3707Y636D01*
X3708D01*
X3709Y636D01*
X3711Y636D01*
X3713Y637D01*
X3715Y637D01*
X3716Y638D01*
X3718Y639D01*
X3718Y639D01*
X3718Y639D01*
X3719Y640D01*
X3720Y640D01*
X3720Y641D01*
X3721Y643D01*
X3721Y644D01*
X3722Y645D01*
Y646D01*
Y646D01*
X3721Y647D01*
X3721Y648D01*
X3721Y649D01*
X3720Y650D01*
X3719Y651D01*
X3718Y652D01*
X3718Y652D01*
X3717Y652D01*
X3717Y653D01*
X3715Y653D01*
X3714Y654D01*
X3711Y654D01*
X3709Y655D01*
X3705Y656D01*
X3705D01*
X3705Y656D01*
X3704Y656D01*
X3702Y657D01*
X3701Y657D01*
X3699Y657D01*
X3697Y658D01*
X3696Y659D01*
X3691Y660D01*
X3687Y662D01*
X3685Y663D01*
X3683Y664D01*
X3682Y665D01*
X3680Y666D01*
X3680Y666D01*
X3680Y666D01*
X3679Y667D01*
X3679Y667D01*
X3678Y668D01*
X3678Y668D01*
X3676Y671D01*
X3675Y673D01*
X3674Y676D01*
X3673Y680D01*
X3673Y682D01*
X3673Y685D01*
Y685D01*
Y685D01*
Y686D01*
X3673Y687D01*
X3673Y688D01*
X3673Y689D01*
X3673Y690D01*
X3674Y692D01*
X3675Y695D01*
X3675Y697D01*
X3676Y698D01*
X3677Y700D01*
X3679Y702D01*
X3680Y704D01*
X3681Y705D01*
X3682Y705D01*
X3682Y706D01*
X3682Y706D01*
X3683Y707D01*
X3684Y707D01*
X3685Y708D01*
X3686Y709D01*
X3688Y710D01*
X3690Y710D01*
X3691Y711D01*
X3693Y712D01*
X3696Y713D01*
X3698Y713D01*
X3700Y713D01*
X3703Y714D01*
X3706Y714D01*
X3707D01*
X3709Y714D01*
D02*
G37*
G36*
X4122D02*
X4123D01*
X4124Y713D01*
X4126Y713D01*
X4128Y713D01*
X4131Y712D01*
X4135Y711D01*
X4136Y710D01*
X4138Y709D01*
X4140Y708D01*
X4142Y707D01*
X4142Y706D01*
X4142Y706D01*
X4142Y706D01*
X4143Y705D01*
X4144Y704D01*
X4146Y702D01*
X4148Y699D01*
X4149Y696D01*
X4151Y693D01*
X4151Y691D01*
X4152Y689D01*
X4133Y684D01*
Y684D01*
X4133Y685D01*
X4133Y685D01*
X4133Y686D01*
X4132Y687D01*
X4132Y689D01*
X4130Y691D01*
X4130Y693D01*
X4129Y694D01*
X4128Y695D01*
X4126Y696D01*
X4125Y697D01*
X4123Y698D01*
X4121Y698D01*
X4119Y698D01*
X4119D01*
X4118Y698D01*
X4117Y698D01*
X4116Y697D01*
X4114Y697D01*
X4113Y696D01*
X4111Y694D01*
X4110Y693D01*
X4108Y691D01*
X4107Y688D01*
X4106Y685D01*
X4105Y683D01*
X4105Y682D01*
X4104Y680D01*
X4104Y678D01*
X4104Y675D01*
X4103Y673D01*
X4103Y670D01*
Y667D01*
X4103Y667D01*
X4104Y668D01*
X4104Y668D01*
X4105Y669D01*
X4105Y670D01*
X4106Y671D01*
X4107Y672D01*
X4108Y673D01*
X4110Y674D01*
X4111Y675D01*
X4113Y675D01*
X4115Y676D01*
X4117Y677D01*
X4119Y678D01*
X4121Y678D01*
X4124Y678D01*
X4125D01*
X4126Y678D01*
X4127Y678D01*
X4128Y678D01*
X4130Y677D01*
X4131Y677D01*
X4135Y676D01*
X4136Y675D01*
X4138Y674D01*
X4140Y673D01*
X4142Y672D01*
X4143Y671D01*
X4145Y669D01*
X4145Y669D01*
X4145Y669D01*
X4146Y669D01*
X4146Y668D01*
X4147Y667D01*
X4148Y666D01*
X4148Y665D01*
X4149Y664D01*
X4151Y661D01*
X4152Y658D01*
X4153Y656D01*
X4153Y654D01*
X4153Y652D01*
X4153Y650D01*
Y649D01*
Y649D01*
Y648D01*
X4153Y647D01*
X4153Y646D01*
X4153Y645D01*
X4153Y644D01*
X4152Y642D01*
X4151Y639D01*
X4150Y637D01*
X4149Y635D01*
X4148Y633D01*
X4147Y631D01*
X4146Y630D01*
X4144Y628D01*
X4144Y628D01*
X4144Y627D01*
X4143Y627D01*
X4142Y626D01*
X4142Y626D01*
X4140Y625D01*
X4139Y624D01*
X4138Y623D01*
X4136Y622D01*
X4134Y621D01*
X4132Y621D01*
X4130Y620D01*
X4128Y619D01*
X4125Y619D01*
X4123Y619D01*
X4120Y618D01*
X4119D01*
X4118Y619D01*
X4116Y619D01*
X4115Y619D01*
X4113Y619D01*
X4111Y619D01*
X4108Y620D01*
X4104Y622D01*
X4102Y623D01*
X4100Y624D01*
X4098Y625D01*
X4096Y626D01*
X4096Y626D01*
X4096Y626D01*
X4096Y627D01*
X4095Y627D01*
X4094Y628D01*
X4093Y629D01*
X4092Y631D01*
X4090Y634D01*
X4088Y637D01*
X4086Y640D01*
X4085Y644D01*
Y644D01*
X4085Y645D01*
X4084Y645D01*
X4084Y646D01*
X4084Y647D01*
X4084Y648D01*
X4083Y649D01*
X4083Y651D01*
X4083Y654D01*
X4082Y657D01*
X4082Y661D01*
X4082Y665D01*
Y665D01*
Y666D01*
Y667D01*
X4082Y668D01*
X4082Y670D01*
X4082Y672D01*
X4082Y675D01*
X4083Y677D01*
X4083Y680D01*
X4084Y683D01*
X4085Y686D01*
X4086Y689D01*
X4087Y692D01*
X4088Y694D01*
X4090Y697D01*
X4091Y700D01*
X4091Y700D01*
X4092Y701D01*
X4092Y701D01*
X4093Y702D01*
X4094Y703D01*
X4095Y704D01*
X4097Y706D01*
X4098Y707D01*
X4100Y708D01*
X4102Y709D01*
X4105Y711D01*
X4107Y712D01*
X4110Y713D01*
X4113Y713D01*
X4116Y714D01*
X4120Y714D01*
X4121D01*
X4122Y714D01*
D02*
G37*
G36*
X2963Y909D02*
X2964Y908D01*
X2965Y908D01*
X2966Y908D01*
X2967Y908D01*
X2969Y907D01*
X2970Y907D01*
X2971Y907D01*
X2972Y906D01*
X2973Y905D01*
X2975Y905D01*
X2976Y904D01*
X2976Y904D01*
X2976Y903D01*
X2976Y903D01*
X2976Y903D01*
X2977Y902D01*
X2977Y902D01*
X2978Y901D01*
X2978Y900D01*
X2979Y899D01*
X2980Y897D01*
X2980Y896D01*
X2980Y894D01*
X2981Y893D01*
X2981Y892D01*
Y892D01*
Y892D01*
Y891D01*
X2981Y891D01*
X2980Y890D01*
X2980Y889D01*
X2980Y889D01*
X2980Y888D01*
X2979Y886D01*
X2979Y885D01*
X2978Y884D01*
X2978Y883D01*
X2977Y881D01*
X2976Y880D01*
X2975Y879D01*
X2975Y879D01*
X2975Y879D01*
X2975Y879D01*
X2974Y878D01*
X2974Y878D01*
X2973Y877D01*
X2972Y876D01*
X2971Y876D01*
X2970Y875D01*
X2968Y874D01*
X2967Y872D01*
X2965Y871D01*
X2963Y870D01*
X2961Y868D01*
X2959Y867D01*
X2956Y865D01*
X2981D01*
X2980Y855D01*
X2941D01*
Y865D01*
X2941Y865D01*
X2941Y865D01*
X2942Y866D01*
X2942Y866D01*
X2943Y867D01*
X2944Y868D01*
X2946Y869D01*
X2947Y870D01*
X2947Y870D01*
X2948Y870D01*
X2948Y871D01*
X2949Y871D01*
X2950Y872D01*
X2951Y873D01*
X2952Y873D01*
X2953Y874D01*
X2956Y876D01*
X2958Y878D01*
X2960Y880D01*
X2961Y881D01*
X2962Y882D01*
X2963Y883D01*
X2963Y883D01*
X2963Y883D01*
X2964Y883D01*
X2964Y883D01*
X2965Y884D01*
X2966Y886D01*
X2966Y887D01*
X2967Y889D01*
X2967Y889D01*
X2968Y890D01*
X2968Y891D01*
X2968Y892D01*
Y892D01*
Y892D01*
X2968Y893D01*
X2968Y894D01*
X2967Y894D01*
X2967Y895D01*
X2967Y896D01*
X2966Y897D01*
X2966Y897D01*
X2966Y897D01*
X2965Y897D01*
X2965Y898D01*
X2964Y898D01*
X2963Y898D01*
X2962Y899D01*
X2961Y899D01*
X2960D01*
X2960Y899D01*
X2959Y899D01*
X2959Y898D01*
X2958Y898D01*
X2957Y898D01*
X2957Y898D01*
X2956Y897D01*
X2955Y896D01*
X2954Y896D01*
X2954Y895D01*
X2953Y893D01*
X2952Y892D01*
X2952Y890D01*
X2952Y889D01*
X2941Y891D01*
Y891D01*
X2941Y891D01*
Y892D01*
X2941Y892D01*
X2941Y893D01*
X2942Y894D01*
X2942Y895D01*
X2943Y897D01*
X2944Y898D01*
X2945Y900D01*
X2946Y902D01*
X2947Y903D01*
X2949Y905D01*
X2951Y906D01*
X2953Y907D01*
X2956Y908D01*
X2957Y908D01*
X2958Y908D01*
X2960Y909D01*
X2961Y909D01*
X2962D01*
X2963Y909D01*
D02*
G37*
G36*
X3797Y712D02*
X3798D01*
X3801Y712D01*
X3804Y712D01*
X3807Y711D01*
X3810Y711D01*
X3813Y710D01*
X3813D01*
X3813Y710D01*
X3814Y709D01*
X3815Y709D01*
X3817Y708D01*
X3818Y706D01*
X3820Y705D01*
X3822Y703D01*
X3824Y701D01*
Y700D01*
X3825Y700D01*
X3825Y700D01*
X3825Y699D01*
X3826Y698D01*
X3827Y696D01*
X3828Y694D01*
X3829Y691D01*
X3829Y688D01*
X3829Y684D01*
Y684D01*
Y684D01*
Y683D01*
X3829Y682D01*
X3829Y680D01*
X3829Y678D01*
X3828Y675D01*
X3828Y673D01*
X3827Y671D01*
X3827Y670D01*
X3826Y670D01*
X3825Y668D01*
X3825Y667D01*
X3824Y665D01*
X3822Y664D01*
X3821Y662D01*
X3819Y660D01*
X3819Y660D01*
X3818Y660D01*
X3817Y659D01*
X3816Y658D01*
X3815Y658D01*
X3813Y657D01*
X3811Y656D01*
X3809Y655D01*
X3809D01*
X3809Y655D01*
X3807Y655D01*
X3806Y655D01*
X3804Y655D01*
X3801Y654D01*
X3798Y654D01*
X3780D01*
Y620D01*
X3758D01*
Y713D01*
X3796D01*
X3797Y712D01*
D02*
G37*
G36*
X3664Y695D02*
X3620D01*
Y676D01*
X3655D01*
Y659D01*
X3620D01*
Y638D01*
X3664D01*
Y620D01*
X3598D01*
Y713D01*
X3664D01*
Y695D01*
D02*
G37*
G36*
X3956Y714D02*
X3958Y714D01*
X3959Y713D01*
X3961Y713D01*
X3963Y713D01*
X3967Y712D01*
X3969Y711D01*
X3971Y710D01*
X3973Y709D01*
X3975Y708D01*
X3977Y707D01*
X3979Y705D01*
X3979Y705D01*
X3979Y705D01*
X3980Y704D01*
X3980Y704D01*
X3981Y703D01*
X3981Y702D01*
X3982Y701D01*
X3983Y699D01*
X3985Y696D01*
X3986Y693D01*
X3987Y691D01*
X3987Y689D01*
X3987Y687D01*
X3988Y685D01*
Y685D01*
Y684D01*
Y683D01*
X3987Y683D01*
X3987Y681D01*
X3987Y680D01*
X3987Y679D01*
X3986Y677D01*
X3985Y674D01*
X3985Y672D01*
X3984Y670D01*
X3983Y668D01*
X3981Y666D01*
X3980Y664D01*
X3978Y662D01*
X3978Y662D01*
X3978Y662D01*
X3977Y661D01*
X3977Y661D01*
X3975Y660D01*
X3974Y659D01*
X3972Y657D01*
X3971Y656D01*
X3969Y654D01*
X3966Y652D01*
X3963Y650D01*
X3960Y648D01*
X3957Y646D01*
X3953Y644D01*
X3949Y641D01*
X3944Y638D01*
X3989D01*
X3987Y620D01*
X3918D01*
Y638D01*
X3918Y638D01*
X3918Y638D01*
X3919Y639D01*
X3921Y640D01*
X3922Y641D01*
X3924Y642D01*
X3926Y644D01*
X3929Y646D01*
X3929Y646D01*
X3930Y646D01*
X3931Y647D01*
X3932Y648D01*
X3934Y649D01*
X3936Y651D01*
X3937Y652D01*
X3940Y654D01*
X3944Y657D01*
X3949Y661D01*
X3951Y663D01*
X3953Y665D01*
X3955Y666D01*
X3957Y668D01*
X3957Y668D01*
X3957Y669D01*
X3958Y669D01*
X3958Y670D01*
X3959Y671D01*
X3961Y673D01*
X3963Y676D01*
X3964Y679D01*
X3965Y680D01*
X3965Y681D01*
X3965Y683D01*
X3965Y684D01*
Y685D01*
Y685D01*
X3965Y686D01*
X3965Y687D01*
X3965Y689D01*
X3964Y690D01*
X3963Y692D01*
X3962Y693D01*
X3962Y693D01*
X3961Y694D01*
X3960Y694D01*
X3959Y695D01*
X3958Y695D01*
X3957Y696D01*
X3955Y696D01*
X3953Y697D01*
X3952D01*
X3951Y696D01*
X3950Y696D01*
X3949Y696D01*
X3948Y696D01*
X3947Y695D01*
X3945Y694D01*
X3944Y693D01*
X3943Y692D01*
X3941Y691D01*
X3940Y689D01*
X3939Y687D01*
X3938Y685D01*
X3937Y682D01*
X3937Y679D01*
X3918Y683D01*
Y683D01*
X3918Y683D01*
Y684D01*
X3918Y685D01*
X3919Y686D01*
X3919Y688D01*
X3920Y690D01*
X3922Y693D01*
X3923Y696D01*
X3925Y699D01*
X3927Y701D01*
X3929Y704D01*
X3932Y707D01*
X3936Y709D01*
X3939Y711D01*
X3944Y713D01*
X3946Y713D01*
X3948Y714D01*
X3951Y714D01*
X3954Y714D01*
X3955D01*
X3956Y714D01*
D02*
G37*
G36*
X3063Y865D02*
X3078D01*
Y855D01*
X3035D01*
Y865D01*
X3051D01*
Y895D01*
X3051Y895D01*
X3050Y895D01*
X3050Y894D01*
X3049Y894D01*
X3048Y893D01*
X3048Y893D01*
X3046Y892D01*
X3045Y892D01*
X3043Y890D01*
X3041Y889D01*
X3038Y888D01*
X3037Y887D01*
X3036Y887D01*
Y898D01*
X3036Y898D01*
X3037Y898D01*
X3037Y898D01*
X3038Y899D01*
X3039Y899D01*
X3041Y899D01*
X3042Y900D01*
X3043Y901D01*
X3046Y902D01*
X3048Y903D01*
X3049Y904D01*
X3051Y905D01*
X3052Y906D01*
X3053Y907D01*
X3054Y909D01*
X3063D01*
Y865D01*
D02*
G37*
G36*
X2828Y855D02*
X2817D01*
Y861D01*
X2817Y861D01*
X2817Y861D01*
X2817Y860D01*
X2816Y860D01*
X2816Y859D01*
X2815Y859D01*
X2815Y858D01*
X2814Y857D01*
X2813Y856D01*
X2812Y856D01*
X2811Y855D01*
X2810Y855D01*
X2808Y854D01*
X2807Y854D01*
X2806Y854D01*
X2805D01*
X2804Y854D01*
X2803Y854D01*
X2802Y855D01*
X2801Y855D01*
X2800Y855D01*
X2799Y856D01*
X2799Y856D01*
X2798Y856D01*
X2798Y856D01*
X2797Y857D01*
X2797Y858D01*
X2796Y858D01*
X2796Y859D01*
X2795Y860D01*
Y860D01*
X2795Y861D01*
X2795Y861D01*
X2795Y862D01*
X2795Y864D01*
X2795Y865D01*
X2794Y867D01*
X2794Y868D01*
Y894D01*
X2806D01*
Y868D01*
Y868D01*
Y868D01*
Y868D01*
X2806Y868D01*
X2806Y867D01*
X2806Y866D01*
X2807Y865D01*
X2807Y864D01*
X2808Y864D01*
X2808Y863D01*
X2809Y863D01*
X2810Y863D01*
X2810D01*
X2811Y863D01*
X2811Y863D01*
X2812Y864D01*
X2812Y864D01*
X2813Y864D01*
X2814Y864D01*
X2814Y865D01*
X2814Y865D01*
X2814Y865D01*
X2815Y865D01*
X2815Y866D01*
X2816Y867D01*
X2816Y867D01*
Y867D01*
X2816Y867D01*
X2816Y868D01*
X2816Y868D01*
X2816Y869D01*
X2816Y870D01*
X2816Y871D01*
Y872D01*
Y894D01*
X2828D01*
Y855D01*
D02*
G37*
G36*
X2012Y925D02*
X2015Y925D01*
X2019Y925D01*
X2022Y924D01*
X2024Y923D01*
X2024Y922D01*
X2025Y922D01*
Y914D01*
X2024Y914D01*
X2024Y913D01*
X2023Y913D01*
X2021Y912D01*
X2019Y912D01*
X2016Y911D01*
X2012Y911D01*
X1997D01*
X1995Y911D01*
X1993D01*
X1991Y912D01*
X1989Y913D01*
X1987Y913D01*
X1986Y915D01*
Y922D01*
X1986Y922D01*
X1987Y923D01*
X1988Y924D01*
X1991Y924D01*
X1993Y925D01*
X1994Y925D01*
X1997Y925D01*
X1999D01*
X2002Y926D01*
X2009D01*
X2012Y925D01*
D02*
G37*
G36*
X2066Y921D02*
X2071D01*
X2073Y921D01*
X2076Y920D01*
X2079Y919D01*
X2083Y916D01*
X2085Y913D01*
X2087Y908D01*
X2088Y906D01*
X2088Y903D01*
Y901D01*
Y900D01*
Y900D01*
X2087Y899D01*
X2087Y899D01*
Y899D01*
X2086Y900D01*
X2085Y901D01*
X2084Y902D01*
X2083Y904D01*
X2080Y906D01*
X2077Y909D01*
X2076Y909D01*
X2076Y909D01*
X2074Y908D01*
X2073Y906D01*
X2071Y904D01*
X2068Y901D01*
X2064Y897D01*
X2074Y886D01*
X2073Y885D01*
X2067D01*
X2066Y885D01*
X2064Y886D01*
X2061Y887D01*
X2058Y889D01*
X2055Y893D01*
X2054Y895D01*
X2053Y897D01*
X2052Y900D01*
X2051Y903D01*
X2052Y907D01*
X2052Y908D01*
X2051Y908D01*
X2050Y909D01*
X2049Y910D01*
X2047Y912D01*
X2044Y915D01*
X2041Y918D01*
X2041Y919D01*
X2042Y919D01*
X2043Y921D01*
X2045Y922D01*
X2047Y924D01*
X2050Y927D01*
X2055Y930D01*
X2057D01*
X2066Y921D01*
D02*
G37*
G36*
X2880Y954D02*
X2880Y954D01*
X2880Y955D01*
X2881Y955D01*
X2881Y956D01*
X2882Y957D01*
X2884Y958D01*
X2885Y959D01*
X2886Y959D01*
X2887Y960D01*
X2888Y960D01*
X2890Y960D01*
X2890D01*
X2891Y960D01*
X2891Y960D01*
X2892Y960D01*
X2893Y959D01*
X2895Y959D01*
X2896Y958D01*
X2897Y958D01*
X2898Y957D01*
X2899Y956D01*
X2900Y955D01*
X2900Y954D01*
X2900Y954D01*
X2900Y954D01*
X2901Y954D01*
X2901Y953D01*
X2901Y953D01*
X2902Y952D01*
X2902Y951D01*
X2902Y950D01*
X2903Y949D01*
X2903Y948D01*
X2903Y947D01*
X2904Y946D01*
X2904Y944D01*
X2904Y943D01*
X2904Y941D01*
Y939D01*
Y939D01*
Y939D01*
Y939D01*
X2904Y938D01*
Y937D01*
X2904Y936D01*
X2904Y935D01*
X2904Y934D01*
X2903Y932D01*
X2902Y929D01*
X2902Y928D01*
X2901Y927D01*
X2901Y926D01*
X2900Y925D01*
X2900Y925D01*
X2900Y924D01*
X2900Y924D01*
X2899Y924D01*
X2899Y923D01*
X2898Y923D01*
X2898Y922D01*
X2897Y922D01*
X2896Y921D01*
X2896Y921D01*
X2895Y920D01*
X2894Y920D01*
X2892Y920D01*
X2891Y919D01*
X2890Y919D01*
X2889Y919D01*
X2888D01*
X2887Y919D01*
X2886Y919D01*
X2885Y919D01*
X2884Y920D01*
X2883Y920D01*
X2882Y920D01*
X2882Y921D01*
X2882Y921D01*
X2881Y921D01*
X2881Y922D01*
X2880Y922D01*
X2879Y923D01*
X2878Y924D01*
X2877Y926D01*
X2877Y926D01*
X2877Y926D01*
X2877Y925D01*
X2876Y925D01*
X2876Y924D01*
X2876Y923D01*
X2875Y922D01*
X2875Y921D01*
X2875Y920D01*
X2868D01*
Y973D01*
X2880D01*
Y954D01*
D02*
G37*
G36*
X3002Y960D02*
X3002Y960D01*
X3003Y960D01*
X3004Y959D01*
X3005Y959D01*
X3007Y959D01*
X3008Y958D01*
X3009Y958D01*
X3010Y957D01*
X3011Y956D01*
X3012Y955D01*
X3013Y955D01*
X3013Y954D01*
X3014Y954D01*
X3014Y954D01*
X3014Y954D01*
X3015Y953D01*
X3015Y952D01*
X3015Y951D01*
X3016Y950D01*
X3017Y949D01*
X3017Y948D01*
X3017Y947D01*
X3018Y945D01*
X3018Y943D01*
X3018Y942D01*
X3019Y940D01*
X3019Y938D01*
X2993D01*
Y937D01*
Y937D01*
Y937D01*
Y936D01*
Y936D01*
Y936D01*
Y936D01*
Y935D01*
X2994Y934D01*
X2994Y933D01*
X2994Y932D01*
X2994Y931D01*
X2995Y930D01*
X2996Y929D01*
X2996Y929D01*
X2996Y929D01*
X2997Y929D01*
X2997Y928D01*
X2998Y928D01*
X2999Y928D01*
X3000Y927D01*
X3001Y927D01*
X3001D01*
X3002Y927D01*
X3002D01*
X3003Y928D01*
X3004Y928D01*
X3005Y928D01*
X3005Y929D01*
X3006Y929D01*
X3006Y930D01*
X3007Y931D01*
X3007Y931D01*
X3008Y932D01*
X3008Y933D01*
X3018Y933D01*
X3018Y932D01*
X3018Y932D01*
X3018Y931D01*
X3018Y931D01*
X3017Y929D01*
X3016Y928D01*
X3016Y927D01*
X3015Y926D01*
X3013Y925D01*
X3012Y923D01*
X3011Y922D01*
X3009Y921D01*
X3007Y920D01*
X3005Y920D01*
X3003Y919D01*
X3001Y919D01*
X3000D01*
X2999Y919D01*
X2999Y919D01*
X2997Y919D01*
X2996Y920D01*
X2994Y920D01*
X2992Y921D01*
X2991Y921D01*
X2991D01*
X2990Y922D01*
X2990Y922D01*
X2989Y922D01*
X2988Y923D01*
X2987Y924D01*
X2986Y925D01*
X2985Y927D01*
X2984Y928D01*
Y928D01*
X2984Y928D01*
X2984Y929D01*
X2983Y929D01*
X2983Y930D01*
X2983Y930D01*
X2983Y931D01*
X2982Y933D01*
X2982Y935D01*
X2981Y937D01*
X2981Y939D01*
Y939D01*
Y939D01*
Y940D01*
X2981Y941D01*
X2981Y941D01*
X2982Y942D01*
X2982Y943D01*
X2982Y944D01*
X2983Y947D01*
X2983Y948D01*
X2984Y949D01*
X2984Y951D01*
X2985Y952D01*
X2986Y953D01*
X2987Y954D01*
X2987Y954D01*
X2987Y954D01*
X2987Y955D01*
X2988Y955D01*
X2988Y955D01*
X2989Y956D01*
X2989Y956D01*
X2990Y957D01*
X2991Y958D01*
X2992Y958D01*
X2993Y959D01*
X2995Y959D01*
X2996Y959D01*
X2997Y960D01*
X2999Y960D01*
X3000Y960D01*
X3001D01*
X3002Y960D01*
D02*
G37*
G36*
X2957Y973D02*
X2957D01*
X2959Y973D01*
X2961Y973D01*
X2962Y972D01*
X2964Y972D01*
X2965Y971D01*
X2966D01*
X2966Y971D01*
X2966Y971D01*
X2967Y971D01*
X2968Y970D01*
X2969Y969D01*
X2970Y968D01*
X2971Y967D01*
X2972Y966D01*
Y966D01*
X2972Y966D01*
X2972Y965D01*
X2972Y965D01*
X2973Y964D01*
X2973Y963D01*
X2974Y962D01*
X2974Y960D01*
X2974Y959D01*
X2975Y957D01*
Y957D01*
Y957D01*
X2974Y956D01*
X2974Y955D01*
X2974Y955D01*
X2974Y954D01*
X2974Y953D01*
X2973Y952D01*
X2973Y951D01*
X2972Y949D01*
X2972Y948D01*
X2971Y947D01*
X2970Y946D01*
X2968Y945D01*
X2967Y944D01*
X2965Y943D01*
X2975Y920D01*
X2961D01*
X2953Y941D01*
X2944D01*
Y920D01*
X2932D01*
Y973D01*
X2956D01*
X2957Y973D01*
D02*
G37*
G36*
X3089Y930D02*
X3103D01*
Y920D01*
X3061D01*
Y930D01*
X3077D01*
Y960D01*
X3076Y960D01*
X3076Y960D01*
X3076Y959D01*
X3075Y959D01*
X3074Y958D01*
X3073Y958D01*
X3072Y957D01*
X3071Y957D01*
X3069Y955D01*
X3066Y954D01*
X3064Y953D01*
X3063Y952D01*
X3062Y952D01*
Y963D01*
X3062Y963D01*
X3062Y963D01*
X3063Y963D01*
X3064Y964D01*
X3065Y964D01*
X3066Y964D01*
X3068Y965D01*
X3069Y966D01*
X3072Y967D01*
X3074Y968D01*
X3075Y969D01*
X3076Y970D01*
X3078Y971D01*
X3079Y972D01*
X3080Y974D01*
X3089D01*
Y930D01*
D02*
G37*
G36*
X1956Y930D02*
X1958Y929D01*
X1959Y927D01*
X1962Y925D01*
X1964Y923D01*
X1967Y921D01*
X1969Y920D01*
X1970Y918D01*
X1969Y918D01*
X1968Y916D01*
X1966Y915D01*
X1964Y913D01*
X1962Y910D01*
X1960Y908D01*
X1959Y907D01*
X1958Y906D01*
Y905D01*
X1959Y903D01*
Y903D01*
Y903D01*
X1958Y901D01*
X1957Y897D01*
X1956Y894D01*
X1954Y891D01*
X1951Y888D01*
X1947Y886D01*
X1945Y885D01*
X1943Y885D01*
X1937D01*
X1937Y885D01*
X1937Y886D01*
X1936Y887D01*
X1937Y887D01*
X1938Y888D01*
X1939Y889D01*
X1941Y891D01*
X1943Y893D01*
X1944Y894D01*
X1946Y895D01*
X1946Y895D01*
Y897D01*
X1946Y897D01*
X1946Y898D01*
X1945Y899D01*
X1943Y900D01*
X1941Y902D01*
X1938Y906D01*
X1934Y909D01*
X1923Y899D01*
X1922Y901D01*
Y904D01*
Y905D01*
X1923Y905D01*
X1923Y907D01*
X1924Y910D01*
X1926Y913D01*
X1928Y916D01*
X1931Y919D01*
X1934Y921D01*
X1937Y921D01*
X1939Y921D01*
X1944D01*
X1954Y930D01*
X1956D01*
X1956Y930D01*
D02*
G37*
G36*
X2702Y920D02*
X2691D01*
Y973D01*
X2702D01*
Y920D01*
D02*
G37*
G36*
X2010Y1033D02*
X2012D01*
X2014Y1033D01*
X2017Y1032D01*
X2023Y1030D01*
X2027Y1028D01*
X2031Y1026D01*
X2034Y1024D01*
X2038Y1021D01*
X2042Y1018D01*
X2046Y1014D01*
X2049Y1009D01*
X2053Y1004D01*
X2053Y1004D01*
X2054Y1002D01*
X2055Y999D01*
X2056Y996D01*
X2057Y991D01*
X2058Y986D01*
X2059Y981D01*
X2059Y976D01*
Y968D01*
Y968D01*
Y967D01*
Y965D01*
Y963D01*
Y960D01*
X2059Y957D01*
X2059Y950D01*
X2058Y944D01*
X2058Y941D01*
X2057Y938D01*
X2057Y935D01*
X2056Y934D01*
X2055Y933D01*
X2054Y932D01*
X2053Y932D01*
X2052Y930D01*
X2049Y928D01*
X2046Y926D01*
X2042Y923D01*
X2038Y921D01*
X2034Y920D01*
X2031Y919D01*
X2027D01*
Y925D01*
X2026D01*
X2025Y925D01*
X2023Y926D01*
X2020Y927D01*
X2017Y927D01*
X2013Y928D01*
X2006Y928D01*
X2001D01*
X1998Y928D01*
X1995Y927D01*
X1991Y927D01*
X1984Y925D01*
Y920D01*
X1983Y918D01*
X1982D01*
X1981Y919D01*
X1978Y919D01*
X1975Y920D01*
X1971Y922D01*
X1967Y925D01*
X1962Y928D01*
X1956Y933D01*
X1956D01*
X1956Y934D01*
X1955Y934D01*
X1955Y935D01*
X1954Y937D01*
X1954Y938D01*
X1953Y940D01*
X1953Y943D01*
X1952Y946D01*
X1952Y950D01*
X1951Y954D01*
Y960D01*
X1951Y966D01*
Y973D01*
Y973D01*
Y975D01*
X1951Y977D01*
X1952Y980D01*
X1952Y983D01*
X1953Y987D01*
X1954Y991D01*
X1956Y996D01*
X1957Y1001D01*
X1960Y1006D01*
X1963Y1010D01*
X1966Y1015D01*
X1970Y1020D01*
X1975Y1024D01*
X1981Y1027D01*
X1987Y1030D01*
X1988D01*
X1989Y1031D01*
X1990Y1032D01*
X1993Y1032D01*
X1995Y1033D01*
X1998Y1033D01*
X2005Y1033D01*
X2009D01*
X2010Y1033D01*
D02*
G37*
G36*
X2785Y870D02*
Y870D01*
Y870D01*
Y869D01*
X2785Y869D01*
Y868D01*
X2785Y867D01*
X2784Y866D01*
X2784Y864D01*
X2783Y862D01*
X2782Y860D01*
X2782Y859D01*
X2781Y858D01*
X2781D01*
X2781Y858D01*
X2781Y858D01*
X2780Y857D01*
X2780Y857D01*
X2779Y857D01*
X2779Y856D01*
X2778Y856D01*
X2777Y856D01*
X2776Y855D01*
X2775Y855D01*
X2774Y855D01*
X2773Y854D01*
X2771Y854D01*
X2770Y854D01*
X2768Y854D01*
X2768D01*
X2767Y854D01*
X2766D01*
X2765Y854D01*
X2763Y854D01*
X2762Y855D01*
X2760Y855D01*
Y865D01*
X2760D01*
X2761Y865D01*
X2761Y865D01*
X2762Y865D01*
X2763Y865D01*
X2764Y865D01*
X2765Y865D01*
X2767D01*
X2767Y865D01*
X2768D01*
X2769Y865D01*
X2769Y865D01*
X2770Y865D01*
X2770D01*
X2770Y866D01*
X2771Y866D01*
X2771Y867D01*
X2772Y867D01*
Y868D01*
X2772Y868D01*
X2772Y868D01*
X2772Y868D01*
X2772Y869D01*
X2772Y870D01*
X2773Y871D01*
Y872D01*
Y908D01*
X2785D01*
Y870D01*
D02*
G37*
G36*
X2580Y960D02*
X2581Y960D01*
X2582Y960D01*
X2583Y959D01*
X2584Y959D01*
X2585Y959D01*
X2586Y958D01*
X2587Y958D01*
X2588Y957D01*
X2590Y957D01*
X2591Y956D01*
X2592Y955D01*
X2593Y954D01*
X2593Y954D01*
X2593Y954D01*
X2593Y953D01*
X2594Y953D01*
X2594Y952D01*
X2594Y952D01*
X2595Y951D01*
X2595Y950D01*
X2596Y949D01*
X2596Y948D01*
X2597Y947D01*
X2597Y945D01*
X2597Y944D01*
X2598Y943D01*
X2598Y941D01*
X2598Y939D01*
Y939D01*
Y939D01*
Y939D01*
X2598Y938D01*
X2598Y937D01*
X2598Y936D01*
X2597Y935D01*
X2597Y934D01*
X2597Y932D01*
X2596Y931D01*
X2596Y930D01*
X2595Y928D01*
X2594Y927D01*
X2593Y926D01*
X2593Y925D01*
X2592Y925D01*
X2592Y925D01*
X2592Y924D01*
X2592Y924D01*
X2591Y924D01*
X2590Y923D01*
X2590Y923D01*
X2589Y922D01*
X2588Y921D01*
X2587Y921D01*
X2586Y920D01*
X2585Y920D01*
X2583Y920D01*
X2582Y919D01*
X2580Y919D01*
X2579Y919D01*
X2578D01*
X2577Y919D01*
X2577Y919D01*
X2576Y919D01*
X2575Y920D01*
X2574Y920D01*
X2572Y921D01*
X2571Y921D01*
X2570Y922D01*
X2568Y922D01*
X2567Y923D01*
X2566Y924D01*
X2565Y925D01*
X2565Y925D01*
X2565Y925D01*
X2565Y925D01*
X2565Y926D01*
X2564Y926D01*
X2564Y927D01*
X2563Y928D01*
X2563Y929D01*
X2562Y930D01*
X2562Y931D01*
X2562Y932D01*
X2561Y933D01*
X2561Y935D01*
X2561Y936D01*
X2560Y938D01*
X2560Y940D01*
Y940D01*
Y940D01*
Y940D01*
Y941D01*
X2560Y941D01*
Y942D01*
X2561Y943D01*
X2561Y945D01*
X2561Y947D01*
X2562Y948D01*
X2563Y950D01*
Y950D01*
X2563Y950D01*
X2563Y951D01*
X2563Y951D01*
X2564Y952D01*
X2564Y953D01*
X2565Y954D01*
X2566Y955D01*
X2567Y956D01*
X2569Y957D01*
X2569D01*
X2569Y957D01*
X2569Y957D01*
X2570Y958D01*
X2570Y958D01*
X2572Y959D01*
X2573Y959D01*
X2575Y959D01*
X2577Y960D01*
X2579Y960D01*
X2580D01*
X2580Y960D01*
D02*
G37*
G36*
X2860Y895D02*
X2860D01*
X2861Y895D01*
X2862Y894D01*
X2864Y894D01*
X2865Y894D01*
X2867Y893D01*
X2868Y892D01*
X2868Y892D01*
X2868Y891D01*
X2868Y891D01*
X2869Y891D01*
X2869Y890D01*
X2869Y890D01*
X2870Y889D01*
X2870Y888D01*
X2870Y888D01*
X2871Y887D01*
X2871Y886D01*
X2871Y884D01*
X2871Y883D01*
X2871Y882D01*
Y880D01*
Y855D01*
X2860D01*
Y877D01*
Y877D01*
Y877D01*
Y878D01*
Y878D01*
Y879D01*
X2860Y880D01*
X2860Y881D01*
X2860Y882D01*
X2859Y882D01*
Y882D01*
X2859Y883D01*
X2859Y883D01*
X2859Y883D01*
X2859Y884D01*
X2858Y885D01*
X2858Y885D01*
X2858Y885D01*
X2857Y885D01*
X2857Y885D01*
X2857Y886D01*
X2856Y886D01*
X2856Y886D01*
X2855Y886D01*
X2855D01*
X2854Y886D01*
X2854Y886D01*
X2853Y885D01*
X2853Y885D01*
X2852Y885D01*
X2851Y884D01*
X2851Y884D01*
X2850Y883D01*
X2850Y882D01*
X2850Y881D01*
X2849Y880D01*
X2849Y878D01*
X2849Y877D01*
Y855D01*
X2837D01*
Y894D01*
X2848D01*
Y888D01*
X2848Y888D01*
X2848Y888D01*
X2849Y888D01*
X2849Y889D01*
X2850Y890D01*
X2851Y891D01*
X2851Y892D01*
X2852Y893D01*
X2853Y893D01*
X2853Y894D01*
X2854Y894D01*
X2854Y894D01*
X2855Y894D01*
X2856Y894D01*
X2857Y895D01*
X2858Y895D01*
X2859Y895D01*
X2859D01*
X2860Y895D01*
D02*
G37*
G36*
X2730Y960D02*
X2730Y960D01*
X2731Y960D01*
X2732Y959D01*
X2733Y959D01*
X2735Y959D01*
X2736Y958D01*
X2737Y958D01*
X2738Y957D01*
X2739Y956D01*
X2741Y955D01*
X2742Y955D01*
X2742Y954D01*
X2742Y954D01*
X2742Y954D01*
X2742Y954D01*
X2743Y953D01*
X2743Y952D01*
X2744Y951D01*
X2744Y950D01*
X2745Y949D01*
X2745Y948D01*
X2746Y947D01*
X2746Y945D01*
X2746Y943D01*
X2747Y942D01*
X2747Y940D01*
X2747Y938D01*
X2722D01*
Y937D01*
Y937D01*
Y937D01*
Y936D01*
Y936D01*
Y936D01*
Y936D01*
Y935D01*
X2722Y934D01*
X2722Y933D01*
X2722Y932D01*
X2723Y931D01*
X2723Y930D01*
X2724Y929D01*
X2724Y929D01*
X2724Y929D01*
X2725Y929D01*
X2725Y928D01*
X2726Y928D01*
X2727Y928D01*
X2728Y927D01*
X2729Y927D01*
X2729D01*
X2730Y927D01*
X2730D01*
X2731Y928D01*
X2732Y928D01*
X2733Y928D01*
X2733Y929D01*
X2734Y929D01*
X2735Y930D01*
X2735Y931D01*
X2736Y931D01*
X2736Y932D01*
X2736Y933D01*
X2747Y933D01*
X2747Y932D01*
X2746Y932D01*
X2746Y931D01*
X2746Y931D01*
X2745Y929D01*
X2745Y928D01*
X2744Y927D01*
X2743Y926D01*
X2742Y925D01*
X2740Y923D01*
X2739Y922D01*
X2737Y921D01*
X2736Y920D01*
X2733Y920D01*
X2731Y919D01*
X2729Y919D01*
X2728D01*
X2727Y919D01*
X2727Y919D01*
X2725Y919D01*
X2724Y920D01*
X2722Y920D01*
X2721Y921D01*
X2719Y921D01*
X2719D01*
X2719Y922D01*
X2718Y922D01*
X2717Y922D01*
X2717Y923D01*
X2715Y924D01*
X2714Y925D01*
X2713Y927D01*
X2712Y928D01*
Y928D01*
X2712Y928D01*
X2712Y929D01*
X2712Y929D01*
X2712Y930D01*
X2711Y930D01*
X2711Y931D01*
X2710Y933D01*
X2710Y935D01*
X2710Y937D01*
X2710Y939D01*
Y939D01*
Y939D01*
Y940D01*
X2710Y941D01*
X2710Y941D01*
X2710Y942D01*
X2710Y943D01*
X2710Y944D01*
X2711Y947D01*
X2711Y948D01*
X2712Y949D01*
X2712Y951D01*
X2713Y952D01*
X2714Y953D01*
X2715Y954D01*
X2715Y954D01*
X2715Y954D01*
X2715Y955D01*
X2716Y955D01*
X2716Y955D01*
X2717Y956D01*
X2718Y956D01*
X2719Y957D01*
X2719Y958D01*
X2720Y958D01*
X2722Y959D01*
X2723Y959D01*
X2724Y959D01*
X2726Y960D01*
X2727Y960D01*
X2729Y960D01*
X2729D01*
X2730Y960D01*
D02*
G37*
%LPC*%
G36*
X2579Y952D02*
X2579D01*
X2578Y952D01*
X2577Y952D01*
X2576Y952D01*
X2576Y951D01*
X2575Y951D01*
X2574Y950D01*
X2574Y950D01*
X2574Y949D01*
X2574Y949D01*
X2573Y948D01*
X2573Y948D01*
X2573Y947D01*
X2573Y946D01*
X2573Y945D01*
X2573Y944D01*
X2573Y943D01*
X2573Y942D01*
X2573Y941D01*
Y940D01*
Y940D01*
Y939D01*
Y939D01*
Y939D01*
X2573Y938D01*
Y937D01*
X2573Y936D01*
X2573Y934D01*
X2573Y933D01*
X2574Y931D01*
X2574Y930D01*
X2574Y930D01*
X2574Y930D01*
X2574Y929D01*
X2575Y929D01*
X2575Y928D01*
X2576Y928D01*
X2577Y927D01*
X2578Y927D01*
X2579Y927D01*
X2579D01*
X2580Y927D01*
X2580Y927D01*
X2581Y927D01*
X2581Y927D01*
X2582Y928D01*
X2583Y928D01*
X2584Y929D01*
X2584Y929D01*
X2584Y930D01*
X2584Y930D01*
X2585Y931D01*
X2585Y931D01*
X2585Y932D01*
X2585Y933D01*
X2585Y934D01*
X2585Y934D01*
X2585Y935D01*
X2586Y937D01*
X2586Y938D01*
Y939D01*
Y939D01*
Y939D01*
Y940D01*
Y940D01*
X2586Y941D01*
Y942D01*
X2585Y943D01*
X2585Y945D01*
X2585Y947D01*
X2585Y948D01*
X2584Y949D01*
X2584Y950D01*
X2584Y950D01*
X2584Y950D01*
X2583Y950D01*
X2583Y951D01*
X2582Y951D01*
X2581Y952D01*
X2580Y952D01*
X2579Y952D01*
D02*
G37*
G36*
X2898Y887D02*
X2898D01*
X2897Y887D01*
X2897D01*
X2896Y887D01*
X2895Y887D01*
X2895Y886D01*
X2894Y886D01*
X2893Y885D01*
X2893Y885D01*
X2892Y884D01*
X2892Y883D01*
X2891Y882D01*
X2891Y881D01*
X2891Y879D01*
X2905D01*
Y879D01*
Y880D01*
X2905Y880D01*
X2905Y880D01*
X2904Y881D01*
X2904Y882D01*
X2904Y883D01*
X2903Y884D01*
X2903Y885D01*
X2902Y885D01*
X2902Y886D01*
X2901Y887D01*
X2900Y887D01*
X2899Y887D01*
X2898Y887D01*
D02*
G37*
G36*
X2622Y952D02*
X2621D01*
X2621Y952D01*
X2621Y952D01*
X2620Y951D01*
X2619Y951D01*
X2619Y951D01*
X2618Y950D01*
X2618Y950D01*
X2617Y949D01*
X2616Y948D01*
X2616Y946D01*
X2615Y945D01*
X2615Y943D01*
X2615Y941D01*
X2615Y939D01*
Y939D01*
Y938D01*
X2615Y938D01*
Y937D01*
X2615Y936D01*
X2615Y935D01*
X2616Y933D01*
X2616Y932D01*
X2616Y931D01*
X2617Y930D01*
X2618Y929D01*
X2618Y928D01*
X2619Y928D01*
X2620Y927D01*
X2621Y927D01*
X2622D01*
X2622Y927D01*
X2623Y928D01*
X2623Y928D01*
X2624Y928D01*
X2625Y929D01*
X2625Y929D01*
X2625Y929D01*
X2626Y930D01*
X2626Y930D01*
X2626Y931D01*
X2627Y932D01*
X2627Y933D01*
X2627Y934D01*
X2627Y935D01*
Y943D01*
Y943D01*
Y943D01*
Y943D01*
X2627Y944D01*
X2627Y945D01*
X2627Y946D01*
X2627Y947D01*
X2626Y949D01*
X2625Y950D01*
X2625Y950D01*
X2624Y951D01*
X2623Y951D01*
X2623Y952D01*
X2622Y952D01*
D02*
G37*
G36*
X2886Y952D02*
X2886D01*
X2885Y952D01*
X2885Y952D01*
X2884Y952D01*
X2883Y951D01*
X2882Y951D01*
X2882Y950D01*
X2882Y950D01*
X2881Y949D01*
X2881Y949D01*
X2881Y948D01*
X2881Y947D01*
X2880Y946D01*
X2880Y944D01*
X2880Y943D01*
Y935D01*
Y935D01*
Y935D01*
Y935D01*
X2880Y934D01*
X2880Y933D01*
X2880Y932D01*
X2881Y931D01*
X2881Y930D01*
X2882Y929D01*
X2882Y929D01*
X2882Y929D01*
X2882Y929D01*
X2883Y928D01*
X2883Y928D01*
X2884Y927D01*
X2885Y927D01*
X2886Y927D01*
X2886D01*
X2886Y927D01*
X2887Y927D01*
X2887Y927D01*
X2888Y928D01*
X2889Y928D01*
X2890Y929D01*
X2890Y930D01*
X2891Y930D01*
X2891Y930D01*
X2891Y931D01*
X2891Y931D01*
X2891Y932D01*
X2892Y932D01*
X2892Y933D01*
X2892Y934D01*
X2892Y935D01*
X2892Y936D01*
X2892Y937D01*
X2892Y938D01*
Y939D01*
Y940D01*
Y940D01*
Y940D01*
Y941D01*
X2892Y941D01*
Y942D01*
X2892Y944D01*
X2892Y946D01*
X2892Y947D01*
X2891Y948D01*
X2891Y949D01*
X2891Y949D01*
X2890Y950D01*
X2890Y950D01*
X2890Y950D01*
X2890Y951D01*
X2889Y951D01*
X2889Y951D01*
X2888Y952D01*
X2887Y952D01*
X2886Y952D01*
D02*
G37*
G36*
X2753Y1022D02*
X2752D01*
X2752Y1022D01*
X2751Y1022D01*
X2750Y1022D01*
X2750Y1021D01*
X2749Y1021D01*
X2748Y1020D01*
X2748Y1020D01*
X2748Y1019D01*
X2748Y1019D01*
X2747Y1018D01*
X2747Y1018D01*
X2747Y1017D01*
X2747Y1016D01*
X2747Y1015D01*
X2747Y1014D01*
X2747Y1013D01*
X2747Y1012D01*
X2746Y1011D01*
Y1010D01*
Y1010D01*
Y1009D01*
Y1009D01*
Y1009D01*
X2747Y1008D01*
Y1007D01*
X2747Y1006D01*
X2747Y1004D01*
X2747Y1003D01*
X2747Y1001D01*
X2748Y1000D01*
X2748Y1000D01*
X2748Y1000D01*
X2748Y999D01*
X2749Y999D01*
X2749Y998D01*
X2750Y998D01*
X2751Y997D01*
X2752Y997D01*
X2753Y997D01*
X2753D01*
X2753Y997D01*
X2754Y997D01*
X2755Y997D01*
X2755Y997D01*
X2756Y998D01*
X2757Y998D01*
X2758Y999D01*
X2758Y999D01*
X2758Y1000D01*
X2758Y1000D01*
X2758Y1001D01*
X2759Y1001D01*
X2759Y1002D01*
X2759Y1003D01*
X2759Y1004D01*
X2759Y1004D01*
X2759Y1005D01*
X2759Y1007D01*
X2760Y1008D01*
Y1009D01*
Y1009D01*
Y1009D01*
Y1010D01*
Y1010D01*
X2759Y1011D01*
Y1012D01*
X2759Y1013D01*
X2759Y1015D01*
X2759Y1017D01*
X2758Y1018D01*
X2758Y1019D01*
X2758Y1020D01*
X2758Y1020D01*
X2758Y1020D01*
X2757Y1020D01*
X2757Y1021D01*
X2756Y1021D01*
X2755Y1022D01*
X2754Y1022D01*
X2753Y1022D01*
D02*
G37*
G36*
X3008Y900D02*
X3008D01*
X3007Y900D01*
X3007Y900D01*
X3006Y899D01*
X3005Y899D01*
X3004Y898D01*
X3003Y898D01*
X3003Y897D01*
X3002Y896D01*
X3002Y896D01*
Y896D01*
X3002Y896D01*
X3002Y895D01*
X3002Y895D01*
X3002Y894D01*
X3001Y894D01*
X3001Y893D01*
X3001Y892D01*
X3001Y891D01*
X3001Y890D01*
X3001Y889D01*
X3001Y888D01*
X3000Y887D01*
X3000Y885D01*
X3000Y883D01*
Y881D01*
Y881D01*
Y881D01*
Y880D01*
Y880D01*
X3000Y879D01*
Y878D01*
X3000Y877D01*
X3001Y876D01*
X3001Y873D01*
X3001Y871D01*
X3001Y870D01*
X3001Y869D01*
X3002Y868D01*
X3002Y867D01*
X3002Y867D01*
X3002Y867D01*
X3003Y866D01*
X3003Y865D01*
X3004Y865D01*
X3005Y864D01*
X3007Y863D01*
X3007Y863D01*
X3008Y863D01*
X3008D01*
X3009Y863D01*
X3009Y864D01*
X3010Y864D01*
X3011Y864D01*
X3012Y865D01*
X3013Y866D01*
X3014Y867D01*
X3014Y867D01*
Y867D01*
X3014Y867D01*
X3014Y868D01*
X3014Y868D01*
X3014Y868D01*
X3015Y869D01*
X3015Y870D01*
X3015Y870D01*
X3015Y871D01*
X3015Y872D01*
X3016Y873D01*
X3016Y875D01*
X3016Y876D01*
X3016Y878D01*
X3016Y879D01*
Y881D01*
Y881D01*
Y881D01*
Y882D01*
Y883D01*
X3016Y884D01*
Y885D01*
X3016Y886D01*
X3016Y887D01*
X3016Y889D01*
X3015Y892D01*
X3015Y893D01*
X3015Y894D01*
X3014Y895D01*
X3014Y896D01*
Y896D01*
X3014Y896D01*
X3014Y896D01*
X3013Y897D01*
X3013Y898D01*
X3012Y899D01*
X3011Y899D01*
X3010Y900D01*
X3009Y900D01*
X3008Y900D01*
D02*
G37*
G36*
X2800Y1033D02*
X2792D01*
Y1019D01*
X2800D01*
X2801Y1019D01*
X2802Y1019D01*
X2803Y1020D01*
X2804Y1020D01*
X2805Y1021D01*
X2806Y1021D01*
X2806Y1021D01*
X2806Y1022D01*
X2807Y1022D01*
X2807Y1023D01*
X2807Y1023D01*
X2808Y1024D01*
X2808Y1025D01*
X2808Y1026D01*
Y1026D01*
Y1027D01*
X2808Y1027D01*
X2808Y1028D01*
X2807Y1029D01*
X2807Y1030D01*
X2807Y1031D01*
X2806Y1031D01*
X2806Y1031D01*
X2805Y1032D01*
X2805Y1032D01*
X2804Y1032D01*
X2803Y1033D01*
X2802Y1033D01*
X2801Y1033D01*
X2800Y1033D01*
D02*
G37*
G36*
X2683Y1022D02*
X2682D01*
X2682Y1022D01*
X2682Y1022D01*
X2681Y1021D01*
X2681Y1021D01*
X2680Y1021D01*
X2679Y1020D01*
X2679Y1020D01*
X2678Y1019D01*
X2678Y1018D01*
X2677Y1016D01*
X2677Y1015D01*
X2676Y1013D01*
X2676Y1011D01*
X2676Y1009D01*
Y1009D01*
Y1008D01*
X2676Y1008D01*
Y1007D01*
X2676Y1006D01*
X2676Y1005D01*
X2677Y1003D01*
X2677Y1002D01*
X2677Y1001D01*
X2678Y1000D01*
X2679Y999D01*
X2679Y998D01*
X2680Y998D01*
X2681Y997D01*
X2682Y997D01*
X2683D01*
X2683Y997D01*
X2684Y998D01*
X2684Y998D01*
X2685Y998D01*
X2686Y999D01*
X2686Y999D01*
X2687Y999D01*
X2687Y1000D01*
X2687Y1000D01*
X2687Y1001D01*
X2688Y1002D01*
X2688Y1003D01*
X2688Y1004D01*
X2688Y1005D01*
Y1013D01*
Y1013D01*
Y1013D01*
Y1013D01*
X2688Y1014D01*
X2688Y1015D01*
X2688Y1016D01*
X2688Y1017D01*
X2687Y1019D01*
X2686Y1020D01*
X2686Y1020D01*
X2685Y1021D01*
X2684Y1021D01*
X2684Y1022D01*
X2683Y1022D01*
D02*
G37*
G36*
X2729Y952D02*
X2729D01*
X2728Y952D01*
X2728D01*
X2727Y952D01*
X2726Y952D01*
X2726Y951D01*
X2725Y951D01*
X2724Y950D01*
X2724Y950D01*
X2723Y949D01*
X2723Y948D01*
X2722Y947D01*
X2722Y946D01*
X2722Y944D01*
X2736D01*
Y944D01*
Y945D01*
X2736Y945D01*
X2735Y945D01*
X2735Y946D01*
X2735Y947D01*
X2735Y948D01*
X2734Y949D01*
X2734Y950D01*
X2733Y950D01*
X2733Y951D01*
X2732Y952D01*
X2731Y952D01*
X2730Y952D01*
X2729Y952D01*
D02*
G37*
G36*
X3001D02*
X3000D01*
X3000Y952D01*
X3000D01*
X2999Y952D01*
X2998Y952D01*
X2997Y951D01*
X2997Y951D01*
X2996Y950D01*
X2995Y950D01*
X2995Y949D01*
X2994Y948D01*
X2994Y947D01*
X2994Y946D01*
X2993Y944D01*
X3007D01*
Y944D01*
Y945D01*
X3007Y945D01*
X3007Y945D01*
X3007Y946D01*
X3007Y947D01*
X3006Y948D01*
X3006Y949D01*
X3005Y950D01*
X3005Y950D01*
X3004Y951D01*
X3004Y952D01*
X3003Y952D01*
X3002Y952D01*
X3001Y952D01*
D02*
G37*
G36*
X2953Y963D02*
X2944D01*
Y950D01*
X2953D01*
X2954Y950D01*
X2956Y950D01*
X2957Y950D01*
X2957Y950D01*
X2957D01*
X2958Y950D01*
X2958Y951D01*
X2958Y951D01*
X2959Y951D01*
X2959Y952D01*
X2960Y952D01*
X2960Y953D01*
X2961Y953D01*
X2961Y953D01*
X2961Y953D01*
X2961Y954D01*
X2961Y954D01*
X2962Y955D01*
X2962Y956D01*
X2962Y957D01*
Y957D01*
Y957D01*
X2962Y958D01*
X2962Y958D01*
X2961Y959D01*
X2961Y959D01*
X2961Y960D01*
X2960Y961D01*
X2960Y961D01*
X2960Y961D01*
X2960Y961D01*
X2960Y962D01*
X2959Y962D01*
X2958Y963D01*
X2958Y963D01*
X2957D01*
X2957Y963D01*
X2957Y963D01*
X2956Y963D01*
X2955D01*
X2954Y963D01*
X2953Y963D01*
D02*
G37*
G36*
X2013Y923D02*
X2012D01*
Y914D01*
X2013D01*
Y923D01*
D02*
G37*
G36*
X3793Y561D02*
X3779D01*
Y536D01*
X3794D01*
X3796Y536D01*
X3797Y537D01*
X3799Y537D01*
X3801Y538D01*
X3803Y539D01*
X3804Y540D01*
X3804Y540D01*
X3805Y540D01*
X3805Y541D01*
X3806Y542D01*
X3807Y544D01*
X3807Y545D01*
X3807Y547D01*
X3808Y548D01*
Y549D01*
Y549D01*
X3807Y550D01*
X3807Y552D01*
X3807Y553D01*
X3806Y555D01*
X3805Y556D01*
X3804Y557D01*
X3804Y558D01*
X3803Y558D01*
X3802Y558D01*
X3801Y559D01*
X3800Y560D01*
X3798Y560D01*
X3795Y561D01*
X3793Y561D01*
D02*
G37*
G36*
X1998Y923D02*
X1998D01*
X1998Y922D01*
X1997Y922D01*
X1997Y921D01*
Y915D01*
X1998D01*
Y923D01*
D02*
G37*
G36*
X2008Y1022D02*
X2004D01*
X2002Y1022D01*
X2000Y1022D01*
X1997Y1021D01*
X1995Y1020D01*
X1991Y1019D01*
X1988Y1017D01*
X1984Y1015D01*
X1981Y1013D01*
X1977Y1010D01*
X1973Y1006D01*
X1969Y1001D01*
X1966Y996D01*
X1963Y990D01*
X1960Y983D01*
X1958Y970D01*
Y970D01*
Y969D01*
X1959Y968D01*
Y966D01*
X1959Y961D01*
X1960Y957D01*
X1962Y952D01*
X1963Y947D01*
X1964Y945D01*
X1965Y944D01*
X1966Y943D01*
X1967Y943D01*
X1968Y943D01*
X1969Y941D01*
X1972Y940D01*
X1976Y938D01*
X1982Y936D01*
X1985Y935D01*
X1989Y934D01*
X1993Y933D01*
X1997Y933D01*
X2002Y932D01*
X2009D01*
X2012Y933D01*
X2014D01*
X2017Y933D01*
X2023Y934D01*
X2030Y936D01*
X2037Y939D01*
X2043Y943D01*
X2046Y945D01*
X2048Y947D01*
X2048Y948D01*
X2049Y949D01*
X2050Y951D01*
X2050Y954D01*
X2051Y958D01*
X2051Y961D01*
X2052Y966D01*
Y970D01*
Y973D01*
Y973D01*
Y975D01*
X2052Y976D01*
Y978D01*
X2051Y980D01*
X2051Y984D01*
X2048Y990D01*
X2047Y994D01*
X2045Y997D01*
X2042Y1001D01*
X2040Y1005D01*
X2036Y1009D01*
X2033Y1012D01*
X2028Y1015D01*
X2023Y1018D01*
X2023Y1019D01*
X2021Y1019D01*
X2020Y1020D01*
X2017Y1021D01*
X2015Y1021D01*
X2012Y1022D01*
X2008Y1022D01*
D02*
G37*
G36*
X2004Y923D02*
Y915D01*
X2006D01*
Y921D01*
Y922D01*
Y922D01*
X2005Y922D01*
X2004Y923D01*
D02*
G37*
G36*
X4037Y663D02*
X4036D01*
X4035Y663D01*
X4034Y663D01*
X4032Y662D01*
X4030Y661D01*
X4029Y660D01*
X4027Y659D01*
X4027Y659D01*
X4027Y658D01*
X4026Y657D01*
X4025Y656D01*
X4024Y655D01*
X4024Y653D01*
X4023Y651D01*
X4023Y648D01*
Y648D01*
Y647D01*
X4023Y646D01*
X4023Y645D01*
X4024Y643D01*
X4024Y641D01*
X4026Y640D01*
X4027Y638D01*
X4027Y638D01*
X4028Y637D01*
X4028Y637D01*
X4030Y636D01*
X4031Y635D01*
X4033Y635D01*
X4035Y634D01*
X4037Y634D01*
X4038D01*
X4039Y634D01*
X4040Y634D01*
X4042Y635D01*
X4043Y636D01*
X4045Y637D01*
X4047Y638D01*
X4047Y638D01*
X4047Y639D01*
X4048Y639D01*
X4049Y641D01*
X4049Y642D01*
X4050Y644D01*
X4050Y646D01*
X4051Y649D01*
Y649D01*
Y649D01*
Y650D01*
X4050Y651D01*
X4050Y653D01*
X4050Y654D01*
X4049Y656D01*
X4048Y658D01*
X4046Y659D01*
X4046Y659D01*
X4045Y660D01*
X4045Y660D01*
X4043Y661D01*
X4042Y662D01*
X4040Y662D01*
X4039Y663D01*
X4037Y663D01*
D02*
G37*
G36*
X3867Y659D02*
X3867D01*
X3867Y659D01*
X3866Y658D01*
X3865Y658D01*
X3864Y657D01*
X3861Y656D01*
X3859Y654D01*
X3857Y652D01*
X3857Y650D01*
X3856Y649D01*
X3856Y647D01*
X3856Y646D01*
Y645D01*
X3856Y645D01*
X3856Y644D01*
X3856Y642D01*
X3857Y641D01*
X3858Y639D01*
X3859Y638D01*
X3860Y637D01*
X3860Y636D01*
X3861Y636D01*
X3862Y636D01*
X3863Y635D01*
X3865Y634D01*
X3867Y634D01*
X3870Y633D01*
X3873Y633D01*
X3874D01*
X3875Y633D01*
X3877Y634D01*
X3878Y634D01*
X3880Y634D01*
X3882Y635D01*
X3884Y636D01*
X3884Y636D01*
X3885Y636D01*
X3885Y637D01*
X3886Y638D01*
X3887Y639D01*
X3888Y640D01*
X3888Y642D01*
X3888Y643D01*
Y644D01*
Y644D01*
X3888Y645D01*
X3888Y646D01*
X3888Y647D01*
X3887Y648D01*
X3886Y649D01*
X3885Y651D01*
X3885Y651D01*
X3885Y651D01*
X3884Y651D01*
X3884Y652D01*
X3883Y652D01*
X3882Y653D01*
X3881Y653D01*
X3880Y654D01*
X3878Y655D01*
X3876Y655D01*
X3874Y656D01*
X3872Y657D01*
X3870Y658D01*
X3867Y659D01*
D02*
G37*
G36*
X4118Y663D02*
X4117D01*
X4116Y663D01*
X4115Y663D01*
X4113Y662D01*
X4112Y661D01*
X4110Y660D01*
X4108Y659D01*
X4108Y659D01*
X4108Y658D01*
X4107Y657D01*
X4106Y656D01*
X4106Y655D01*
X4105Y653D01*
X4104Y651D01*
X4104Y648D01*
Y648D01*
Y647D01*
X4104Y646D01*
X4105Y645D01*
X4105Y643D01*
X4106Y641D01*
X4107Y640D01*
X4108Y638D01*
X4108Y638D01*
X4109Y637D01*
X4110Y637D01*
X4111Y636D01*
X4112Y635D01*
X4114Y635D01*
X4116Y634D01*
X4118Y634D01*
X4119D01*
X4120Y634D01*
X4121Y634D01*
X4123Y635D01*
X4125Y636D01*
X4126Y637D01*
X4128Y638D01*
X4128Y638D01*
X4128Y639D01*
X4129Y639D01*
X4130Y641D01*
X4131Y642D01*
X4131Y644D01*
X4132Y646D01*
X4132Y649D01*
Y649D01*
Y649D01*
Y650D01*
X4132Y651D01*
X4131Y653D01*
X4131Y654D01*
X4130Y656D01*
X4129Y658D01*
X4128Y659D01*
X4127Y659D01*
X4127Y660D01*
X4126Y660D01*
X4125Y661D01*
X4123Y662D01*
X4122Y662D01*
X4120Y663D01*
X4118Y663D01*
D02*
G37*
G36*
X3872Y700D02*
X3871D01*
X3870Y700D01*
X3869Y700D01*
X3867Y699D01*
X3866Y699D01*
X3864Y698D01*
X3863Y697D01*
X3863Y697D01*
X3863Y696D01*
X3862Y696D01*
X3861Y695D01*
X3861Y694D01*
X3860Y693D01*
X3860Y691D01*
X3860Y690D01*
Y690D01*
Y689D01*
X3860Y688D01*
X3860Y687D01*
X3861Y686D01*
X3861Y685D01*
X3862Y684D01*
X3863Y683D01*
X3863Y682D01*
X3864Y682D01*
X3865Y681D01*
X3866Y681D01*
X3867Y680D01*
X3868Y680D01*
X3869Y679D01*
X3871Y679D01*
X3872Y678D01*
X3874Y677D01*
X3876Y676D01*
X3878Y676D01*
X3878D01*
X3879Y676D01*
X3879Y676D01*
X3880Y676D01*
X3881Y677D01*
X3883Y678D01*
X3884Y680D01*
X3886Y682D01*
X3886Y683D01*
X3887Y685D01*
X3887Y686D01*
X3887Y688D01*
Y688D01*
Y688D01*
X3887Y689D01*
X3887Y691D01*
X3886Y692D01*
X3886Y694D01*
X3885Y695D01*
X3883Y696D01*
X3883Y696D01*
X3883Y697D01*
X3882Y697D01*
X3880Y698D01*
X3879Y699D01*
X3877Y699D01*
X3875Y700D01*
X3872Y700D01*
D02*
G37*
G36*
X3793Y696D02*
X3779D01*
Y671D01*
X3794D01*
X3796Y671D01*
X3797Y672D01*
X3799Y672D01*
X3801Y673D01*
X3803Y674D01*
X3804Y675D01*
X3804Y675D01*
X3805Y675D01*
X3805Y676D01*
X3806Y677D01*
X3807Y679D01*
X3807Y680D01*
X3807Y682D01*
X3808Y683D01*
Y684D01*
Y684D01*
X3807Y685D01*
X3807Y687D01*
X3807Y688D01*
X3806Y690D01*
X3805Y691D01*
X3804Y692D01*
X3804Y693D01*
X3803Y693D01*
X3802Y693D01*
X3801Y694D01*
X3800Y695D01*
X3798Y695D01*
X3795Y696D01*
X3793Y696D01*
D02*
G37*
G36*
X3288Y528D02*
X3288D01*
X3287Y528D01*
X3287Y527D01*
X3286Y527D01*
X3285Y527D01*
X3285Y526D01*
X3285Y525D01*
X3284Y524D01*
Y523D01*
Y522D01*
Y522D01*
Y522D01*
X3285Y521D01*
X3285Y520D01*
X3285Y519D01*
X3286Y519D01*
X3286Y518D01*
X3287Y518D01*
X3287Y518D01*
X3288D01*
X3288Y518D01*
X3289Y518D01*
X3289Y519D01*
X3290Y519D01*
X3290Y520D01*
X3290Y521D01*
X3290Y521D01*
Y522D01*
Y524D01*
Y524D01*
Y524D01*
Y524D01*
X3290Y525D01*
X3290Y526D01*
X3290Y526D01*
X3289Y527D01*
X3289Y527D01*
X3288Y528D01*
D02*
G37*
G36*
X3327Y522D02*
X3322D01*
X3322Y521D01*
X3322Y521D01*
X3321Y521D01*
X3321Y521D01*
X3321Y520D01*
X3321Y520D01*
Y520D01*
Y520D01*
Y519D01*
X3321Y519D01*
X3321Y519D01*
X3321Y518D01*
X3322Y518D01*
X3322Y518D01*
X3323Y518D01*
X3325D01*
X3325Y518D01*
X3326Y518D01*
X3326Y518D01*
X3326Y519D01*
X3327Y519D01*
X3327Y520D01*
Y522D01*
D02*
G37*
G36*
X3351Y528D02*
X3350D01*
X3349Y528D01*
X3349Y527D01*
X3348Y527D01*
X3348Y527D01*
X3347Y526D01*
X3347Y525D01*
X3347Y525D01*
Y524D01*
X3354D01*
Y525D01*
X3353Y525D01*
X3353Y525D01*
X3353Y526D01*
X3353Y527D01*
X3352Y527D01*
X3352Y527D01*
X3351Y528D01*
D02*
G37*
G36*
X3247Y552D02*
X3246D01*
X3246Y552D01*
X3246Y552D01*
X3245Y551D01*
X3244Y551D01*
X3244Y550D01*
X3244Y549D01*
X3244Y549D01*
X3243Y548D01*
Y547D01*
Y547D01*
Y547D01*
X3244Y546D01*
X3244Y546D01*
X3244Y545D01*
X3244Y544D01*
X3245Y543D01*
X3245Y543D01*
X3246Y543D01*
X3246Y542D01*
X3247D01*
X3247Y543D01*
X3248Y543D01*
X3248Y543D01*
X3249Y543D01*
X3249Y544D01*
X3249Y545D01*
X3250Y546D01*
Y548D01*
Y548D01*
Y549D01*
X3249Y550D01*
X3249Y550D01*
X3249Y551D01*
X3248Y551D01*
X3248Y552D01*
X3247Y552D01*
D02*
G37*
G36*
X3231D02*
X3231D01*
X3231Y552D01*
X3230Y552D01*
X3230Y551D01*
X3229Y551D01*
X3229Y550D01*
X3228Y549D01*
X3228Y549D01*
X3228Y548D01*
Y547D01*
Y547D01*
Y547D01*
X3228Y546D01*
X3228Y546D01*
X3229Y545D01*
X3229Y544D01*
X3229Y543D01*
X3230Y543D01*
X3231Y543D01*
X3231Y542D01*
X3231D01*
X3232Y543D01*
X3232Y543D01*
X3233Y543D01*
X3234Y543D01*
X3234Y544D01*
X3234Y545D01*
X3235Y546D01*
Y549D01*
Y549D01*
X3234Y549D01*
X3234Y550D01*
X3234Y550D01*
X3234Y551D01*
X3233Y551D01*
X3232Y552D01*
X3231Y552D01*
D02*
G37*
G36*
X2212Y864D02*
X1810D01*
Y831D01*
X2212D01*
Y864D01*
D02*
G37*
G36*
X3264Y522D02*
X3260D01*
X3260Y521D01*
X3259Y521D01*
X3259Y521D01*
X3258Y521D01*
X3258Y520D01*
X3258Y520D01*
Y520D01*
Y520D01*
Y519D01*
X3258Y519D01*
X3258Y519D01*
X3258Y518D01*
X3259Y518D01*
X3260Y518D01*
X3260Y518D01*
X3262D01*
X3263Y518D01*
X3263Y518D01*
X3263Y518D01*
X3264Y519D01*
X3264Y519D01*
X3264Y520D01*
Y522D01*
D02*
G37*
G36*
X3367Y552D02*
X3367D01*
X3366Y552D01*
X3366Y552D01*
X3365Y552D01*
X3365Y551D01*
X3364Y551D01*
X3364Y550D01*
X3364Y549D01*
X3370D01*
Y549D01*
Y549D01*
X3370Y550D01*
X3370Y550D01*
X3370Y551D01*
X3369Y551D01*
X3369Y552D01*
X3368Y552D01*
X3367Y552D01*
D02*
G37*
G36*
X3313Y552D02*
X3312D01*
X3312Y552D01*
X3311Y552D01*
X3311Y552D01*
X3310Y551D01*
X3310Y551D01*
X3310Y550D01*
X3309Y549D01*
Y546D01*
Y546D01*
X3309Y545D01*
X3310Y545D01*
X3310Y544D01*
X3310Y543D01*
X3311Y543D01*
X3311Y543D01*
X3312Y542D01*
X3313D01*
X3313Y543D01*
X3314Y543D01*
X3314Y543D01*
X3315Y543D01*
X3315Y544D01*
X3316Y545D01*
X3316Y546D01*
Y547D01*
Y548D01*
Y548D01*
Y548D01*
X3316Y548D01*
X3315Y549D01*
X3315Y550D01*
X3315Y551D01*
X3314Y551D01*
X3314Y552D01*
X3313Y552D01*
D02*
G37*
G36*
X3261Y552D02*
X3261D01*
X3261Y552D01*
X3260Y552D01*
X3260Y552D01*
X3259Y551D01*
X3259Y551D01*
X3258Y550D01*
X3258Y549D01*
X3264D01*
Y549D01*
Y549D01*
X3264Y550D01*
X3264Y550D01*
X3264Y551D01*
X3263Y551D01*
X3263Y552D01*
X3262Y552D01*
X3261Y552D01*
D02*
G37*
%LPD*%
G36*
X1917Y855D02*
X1918Y855D01*
Y840D01*
Y839D01*
Y839D01*
X1917Y838D01*
X1916Y838D01*
X1913D01*
X1912Y838D01*
X1912Y839D01*
X1912Y840D01*
Y845D01*
X1901D01*
Y840D01*
Y839D01*
Y839D01*
X1901Y838D01*
X1900Y838D01*
X1897D01*
X1897Y838D01*
X1896Y839D01*
X1896Y840D01*
Y855D01*
Y855D01*
X1896Y855D01*
X1897Y856D01*
X1898Y856D01*
X1901D01*
X1901Y855D01*
X1901Y855D01*
Y850D01*
X1912D01*
Y855D01*
Y855D01*
X1912Y855D01*
X1912Y856D01*
X1913Y856D01*
X1917D01*
X1917Y855D01*
D02*
G37*
G36*
X1992D02*
X1984Y847D01*
X1985Y847D01*
X1986Y846D01*
X1987Y845D01*
X1988Y844D01*
X1991Y842D01*
X1993Y840D01*
X1993Y839D01*
X1992Y838D01*
X1987D01*
X1979Y845D01*
X1977D01*
Y840D01*
Y839D01*
Y839D01*
X1976Y838D01*
X1976Y838D01*
X1972D01*
X1972Y838D01*
X1971Y839D01*
X1971Y840D01*
Y855D01*
Y855D01*
X1971Y855D01*
X1972Y856D01*
X1972Y856D01*
X1976D01*
X1977Y855D01*
X1977Y855D01*
Y850D01*
X1979D01*
X1986Y856D01*
X1992D01*
Y855D01*
D02*
G37*
G36*
X2010Y1012D02*
X2014Y1011D01*
X2019Y1009D01*
X2021Y1008D01*
X2024Y1006D01*
X2027Y1003D01*
X2029Y1001D01*
X2032Y997D01*
X2034Y994D01*
X2036Y989D01*
X2039Y984D01*
X2039Y977D01*
Y974D01*
Y973D01*
X2039Y971D01*
X2039Y968D01*
X2038Y964D01*
X2036Y959D01*
X2033Y954D01*
X2030Y949D01*
X2025Y944D01*
Y943D01*
Y943D01*
X2025Y940D01*
X2024Y937D01*
X2023Y937D01*
X2022Y936D01*
X2020D01*
X2017Y936D01*
X2015Y935D01*
X2014Y936D01*
X2014Y937D01*
X2013Y939D01*
X2013Y941D01*
X2012D01*
Y941D01*
Y940D01*
X2011Y938D01*
X2010Y937D01*
X2009Y936D01*
X2008Y935D01*
X2006Y935D01*
X2004D01*
X2002Y935D01*
X2000Y937D01*
X1999Y938D01*
X1998Y939D01*
Y938D01*
X1997Y937D01*
X1997Y936D01*
X1996Y935D01*
X1994D01*
X1993Y936D01*
X1990Y936D01*
X1989Y937D01*
X1987Y938D01*
X1985Y939D01*
X1985Y941D01*
Y941D01*
Y942D01*
X1984Y944D01*
X1983Y946D01*
X1982Y947D01*
X1981Y948D01*
X1980Y949D01*
X1979Y950D01*
X1977Y953D01*
X1976Y956D01*
X1974Y960D01*
X1972Y965D01*
X1971Y970D01*
X1971Y975D01*
Y976D01*
Y976D01*
Y977D01*
X1971Y978D01*
Y980D01*
X1972Y982D01*
X1972Y984D01*
X1975Y990D01*
X1976Y993D01*
X1978Y996D01*
X1980Y999D01*
X1982Y1002D01*
X1985Y1005D01*
X1989Y1008D01*
X1993Y1010D01*
X1998Y1012D01*
X1998D01*
X2000Y1012D01*
X2002Y1013D01*
X2009D01*
X2010Y1012D01*
D02*
G37*
G36*
X1966Y855D02*
X1967Y854D01*
X1968Y853D01*
X1969Y852D01*
X1969Y850D01*
X1967Y849D01*
X1964D01*
X1964Y850D01*
X1963Y850D01*
X1961Y851D01*
X1959Y851D01*
X1956D01*
X1954Y851D01*
X1952Y850D01*
X1952Y850D01*
X1952Y849D01*
Y845D01*
Y844D01*
X1952Y844D01*
X1952Y844D01*
X1953Y843D01*
X1963D01*
Y844D01*
X1963Y845D01*
X1964Y845D01*
X1964Y846D01*
X1968D01*
X1968Y845D01*
X1969Y845D01*
X1969Y844D01*
Y842D01*
X1969Y841D01*
X1968Y840D01*
X1965Y839D01*
X1964Y838D01*
X1963Y838D01*
X1952D01*
X1951Y838D01*
X1950Y839D01*
X1949Y839D01*
X1948Y840D01*
X1947Y843D01*
X1946Y845D01*
X1946Y849D01*
Y849D01*
Y850D01*
X1946Y852D01*
X1947Y853D01*
X1948Y855D01*
X1950Y856D01*
X1952Y856D01*
X1964D01*
X1966Y855D01*
D02*
G37*
G36*
X2092D02*
X2093Y855D01*
X2092Y854D01*
X2091Y853D01*
X2090Y851D01*
X2088Y850D01*
X2086Y847D01*
X2085Y844D01*
X2084Y842D01*
X2083Y839D01*
X2079D01*
X2079Y840D01*
X2078Y841D01*
X2078Y842D01*
X2078Y844D01*
X2077Y846D01*
X2077D01*
X2077Y847D01*
X2076Y848D01*
X2075Y849D01*
X2073Y850D01*
X2071Y852D01*
X2069Y855D01*
X2071Y856D01*
X2075D01*
X2075Y856D01*
X2076Y855D01*
X2078Y853D01*
X2080Y850D01*
X2081Y850D01*
X2082Y849D01*
Y850D01*
X2082Y851D01*
X2083Y852D01*
X2084Y853D01*
X2085Y854D01*
X2087Y856D01*
X2092D01*
X2092Y855D01*
D02*
G37*
G36*
X1858D02*
X1859Y855D01*
Y840D01*
Y839D01*
Y839D01*
X1858Y838D01*
X1857Y838D01*
X1854D01*
X1854Y838D01*
X1854Y839D01*
X1853Y840D01*
Y845D01*
X1843D01*
Y840D01*
Y839D01*
Y839D01*
X1842Y838D01*
X1841Y838D01*
X1838D01*
X1837Y838D01*
X1837Y839D01*
X1837Y840D01*
Y855D01*
Y855D01*
X1837Y855D01*
X1837Y856D01*
X1838Y856D01*
X1842D01*
X1842Y855D01*
X1843Y855D01*
Y850D01*
X1853D01*
Y855D01*
Y855D01*
X1854Y855D01*
X1854Y856D01*
X1855Y856D01*
X1858D01*
X1858Y855D01*
D02*
G37*
G36*
X2010Y856D02*
X2011Y855D01*
X2012Y853D01*
X2013Y852D01*
X2015Y849D01*
X2017Y845D01*
X2019Y840D01*
Y838D01*
X2015D01*
X2011Y842D01*
X2003D01*
X1999Y838D01*
X1996D01*
X1996Y838D01*
X1995Y839D01*
X1995Y840D01*
Y840D01*
X1995Y840D01*
X1996Y842D01*
X1997Y845D01*
X1999Y848D01*
X2001Y851D01*
X2002Y853D01*
X2003Y855D01*
X2004Y856D01*
X2010D01*
X2010Y856D01*
D02*
G37*
G36*
X2041D02*
X2042Y855D01*
X2044Y853D01*
X2044Y852D01*
X2045Y850D01*
X2045Y846D01*
Y846D01*
Y845D01*
X2045Y844D01*
X2045Y842D01*
X2044Y841D01*
X2042Y839D01*
X2041Y838D01*
X2039Y838D01*
X2023D01*
X2022Y838D01*
X2022Y839D01*
X2021Y840D01*
Y855D01*
Y855D01*
X2022Y855D01*
X2022Y856D01*
X2023Y856D01*
X2040D01*
X2041Y856D01*
D02*
G37*
G36*
X1936Y855D02*
X1936Y854D01*
X1937Y853D01*
X1939Y850D01*
X1940Y848D01*
X1942Y844D01*
X1944Y839D01*
X1943Y838D01*
X1940D01*
X1939Y838D01*
X1938Y840D01*
X1937Y840D01*
X1936Y842D01*
X1928D01*
X1927Y842D01*
X1926Y840D01*
X1925Y839D01*
X1924Y838D01*
X1920D01*
Y840D01*
X1920Y841D01*
X1921Y843D01*
X1922Y845D01*
X1924Y848D01*
X1926Y851D01*
X1927Y853D01*
X1928Y855D01*
X1930Y856D01*
X1935D01*
X1936Y855D01*
D02*
G37*
G36*
X1835D02*
X1835Y855D01*
Y853D01*
Y853D01*
Y852D01*
X1835Y852D01*
X1834Y851D01*
X1828D01*
Y840D01*
Y839D01*
Y839D01*
X1827Y838D01*
X1826Y838D01*
X1823D01*
X1823Y838D01*
X1822Y839D01*
X1822Y840D01*
Y851D01*
X1816D01*
X1816Y852D01*
X1816Y852D01*
X1815Y853D01*
Y855D01*
Y855D01*
X1816Y855D01*
X1816Y856D01*
X1817Y856D01*
X1835D01*
X1835Y855D01*
D02*
G37*
G36*
X1881D02*
X1881Y855D01*
Y853D01*
Y853D01*
Y852D01*
X1881Y852D01*
X1880Y851D01*
X1868D01*
Y849D01*
X1880D01*
X1880Y849D01*
X1881Y848D01*
Y847D01*
Y847D01*
X1880Y846D01*
X1880Y846D01*
X1879Y846D01*
X1868D01*
Y843D01*
X1881D01*
X1881Y843D01*
X1881Y842D01*
Y840D01*
Y839D01*
Y839D01*
X1881Y838D01*
X1880Y838D01*
X1863D01*
X1863Y838D01*
X1862Y839D01*
X1862Y840D01*
Y855D01*
Y855D01*
X1862Y855D01*
X1863Y856D01*
X1863Y856D01*
X1881D01*
X1881Y855D01*
D02*
G37*
G36*
X2062D02*
X2063Y854D01*
X2064Y852D01*
X2066Y850D01*
X2067Y848D01*
X2069Y844D01*
X2071Y839D01*
X2070Y838D01*
X2067D01*
X2066Y838D01*
X2065Y840D01*
X2064Y840D01*
X2063Y842D01*
X2055D01*
X2054Y842D01*
X2053Y840D01*
X2052Y839D01*
X2051Y838D01*
X2047D01*
Y839D01*
X2047Y840D01*
X2047Y841D01*
X2048Y843D01*
X2050Y846D01*
X2053Y851D01*
X2055Y854D01*
X2057Y856D01*
X2062D01*
X2062Y855D01*
D02*
G37*
G36*
X2204D02*
X2204Y855D01*
Y853D01*
Y853D01*
Y852D01*
X2203Y852D01*
X2203Y851D01*
X2191D01*
Y851D01*
Y850D01*
X2191Y850D01*
X2192Y850D01*
X2192Y849D01*
X2203D01*
X2204Y849D01*
X2204Y848D01*
Y847D01*
Y847D01*
Y846D01*
X2203Y846D01*
X2203Y846D01*
X2192D01*
X2192Y845D01*
X2191Y845D01*
X2191Y844D01*
Y843D01*
X2204D01*
X2204Y843D01*
X2205Y842D01*
Y840D01*
Y839D01*
Y839D01*
X2204Y838D01*
X2203Y838D01*
X2187D01*
X2186Y838D01*
X2186Y839D01*
X2186Y840D01*
Y855D01*
Y855D01*
X2186Y855D01*
X2186Y856D01*
X2187Y856D01*
X2203D01*
X2204Y855D01*
D02*
G37*
G36*
X2148Y856D02*
X2149Y855D01*
X2150Y853D01*
Y848D01*
X2149Y846D01*
X2150Y843D01*
Y840D01*
Y840D01*
Y840D01*
X2150Y839D01*
X2149Y839D01*
X2146D01*
X2146Y839D01*
X2145Y840D01*
X2145Y843D01*
X2135D01*
Y842D01*
Y841D01*
X2134Y840D01*
X2134Y839D01*
X2130D01*
X2130Y839D01*
X2129Y840D01*
X2129Y840D01*
Y855D01*
Y855D01*
X2129Y855D01*
X2130Y856D01*
X2131Y856D01*
X2146D01*
X2148Y856D01*
D02*
G37*
G36*
X2183Y855D02*
X2183Y855D01*
Y852D01*
X2172Y843D01*
X2182D01*
X2183Y843D01*
X2183Y842D01*
Y840D01*
Y839D01*
Y839D01*
X2182Y838D01*
X2182Y838D01*
X2163D01*
X2163Y838D01*
X2163Y839D01*
X2162Y840D01*
Y843D01*
X2174Y851D01*
X2163D01*
X2163Y852D01*
X2163Y852D01*
X2162Y853D01*
Y855D01*
Y855D01*
X2163Y855D01*
X2163Y856D01*
X2164Y856D01*
X2182D01*
X2183Y855D01*
D02*
G37*
G36*
X2123Y856D02*
X2125Y855D01*
X2127Y852D01*
Y848D01*
Y848D01*
Y847D01*
X2126Y845D01*
X2125Y844D01*
X2125Y843D01*
X2123Y843D01*
X2122Y843D01*
X2112D01*
Y842D01*
Y842D01*
Y840D01*
X2111Y839D01*
X2111Y838D01*
X2111Y838D01*
X2107D01*
X2107Y838D01*
X2106Y839D01*
X2106Y840D01*
Y855D01*
Y855D01*
X2106Y855D01*
X2107Y856D01*
X2108Y856D01*
X2122D01*
X2123Y856D01*
D02*
G37*
G36*
X2160Y855D02*
X2160Y855D01*
Y840D01*
X2160Y840D01*
X2160Y839D01*
X2158Y838D01*
X2155D01*
X2155Y838D01*
X2155Y839D01*
X2154Y840D01*
Y855D01*
Y855D01*
X2155Y855D01*
X2155Y856D01*
X2156Y856D01*
X2160D01*
X2160Y855D01*
D02*
G37*
%LPC*%
G36*
X2019Y984D02*
X2019D01*
X2018Y984D01*
X2017Y984D01*
X2015Y983D01*
X2014Y982D01*
X2013Y980D01*
X2012Y979D01*
X2011Y977D01*
X2012Y976D01*
X2012Y976D01*
X2013Y975D01*
X2014Y974D01*
X2016Y972D01*
X2019Y971D01*
X2022Y970D01*
Y969D01*
X2023Y969D01*
X2023Y967D01*
X2024Y966D01*
X2024Y965D01*
X2025Y965D01*
X2025D01*
X2025Y965D01*
X2027Y967D01*
X2028Y968D01*
X2029Y970D01*
X2029Y971D01*
X2030Y974D01*
Y975D01*
Y975D01*
Y976D01*
X2029Y977D01*
X2028Y979D01*
X2027Y980D01*
X2025Y982D01*
X2023Y983D01*
X2019Y984D01*
D02*
G37*
G36*
X1989D02*
X1989D01*
X1988Y984D01*
X1986Y983D01*
X1985Y982D01*
X1983Y980D01*
X1982Y979D01*
X1981Y976D01*
X1981Y974D01*
Y973D01*
Y972D01*
X1981Y971D01*
X1981Y970D01*
X1982Y968D01*
X1983Y966D01*
X1985Y965D01*
X1987Y965D01*
Y965D01*
Y966D01*
X1988Y967D01*
X1988Y968D01*
X1989Y970D01*
X1991Y971D01*
X1993Y972D01*
X1996Y972D01*
X1999Y976D01*
Y977D01*
Y977D01*
Y978D01*
X1999Y979D01*
X1998Y981D01*
X1997Y982D01*
X1995Y983D01*
X1993Y984D01*
X1989Y984D01*
D02*
G37*
G36*
X2007Y851D02*
X2007D01*
X2006Y850D01*
X2006Y849D01*
X2005Y847D01*
X2004Y846D01*
X2010D01*
Y846D01*
Y847D01*
X2009Y847D01*
X2009Y849D01*
X2008Y850D01*
X2007Y851D01*
D02*
G37*
G36*
X1932D02*
X1932D01*
X1932Y850D01*
X1931Y849D01*
X1930Y848D01*
X1930Y846D01*
X1935D01*
Y846D01*
X1934Y847D01*
X1934Y848D01*
X1933Y850D01*
X1932Y851D01*
D02*
G37*
G36*
X2038D02*
X2027D01*
Y843D01*
X2038D01*
X2039Y844D01*
X2039Y844D01*
X2039Y845D01*
Y849D01*
Y850D01*
Y850D01*
X2039Y850D01*
X2038Y851D01*
D02*
G37*
G36*
X2059D02*
X2059D01*
X2059Y850D01*
X2058Y849D01*
X2057Y848D01*
X2057Y846D01*
X2061D01*
Y846D01*
X2061Y847D01*
X2060Y848D01*
X2060Y849D01*
X2059Y851D01*
D02*
G37*
G36*
X2006Y965D02*
X2006D01*
X2005Y965D01*
X2004Y964D01*
X2004Y963D01*
X2003Y961D01*
X2003Y959D01*
X2002Y956D01*
Y954D01*
X2003D01*
Y955D01*
X2003Y956D01*
X2004Y957D01*
X2005Y958D01*
X2006D01*
X2006Y957D01*
X2007Y956D01*
X2007Y954D01*
X2008D01*
Y957D01*
Y958D01*
X2008Y959D01*
X2007Y962D01*
X2006Y965D01*
D02*
G37*
G36*
X2143Y851D02*
X2135D01*
Y848D01*
X2144D01*
X2145Y848D01*
X2145Y849D01*
X2146Y849D01*
Y850D01*
X2145Y850D01*
X2144Y851D01*
X2143Y851D01*
D02*
G37*
G36*
X2120D02*
X2112D01*
Y847D01*
X2118D01*
X2120Y848D01*
X2121Y848D01*
X2122Y849D01*
Y850D01*
X2121Y850D01*
X2121Y851D01*
X2120Y851D01*
D02*
G37*
%LPD*%
D36*
X1143Y275D02*
G03*
X1143Y275I-108J0D01*
G01*
X3481Y202D02*
Y838D01*
X4423Y202D02*
Y838D01*
X3481Y202D02*
X3507D01*
X3481Y838D02*
X3507D01*
X430Y875D02*
X560D01*
Y1166D01*
X0D02*
X560D01*
X0Y875D02*
Y1166D01*
Y875D02*
X430D01*
X-5Y805D02*
X583D01*
Y5D02*
Y805D01*
X-5Y5D02*
X583D01*
X-5D02*
Y805D01*
X837Y778D02*
X864Y806D01*
Y806D02*
X1073D01*
X837Y739D02*
Y778D01*
X864Y554D02*
X1073D01*
X837Y582D02*
X864Y554D01*
X837Y582D02*
Y621D01*
X1073Y554D02*
Y621D01*
Y739D02*
Y806D01*
X1187Y778D02*
X1214Y806D01*
Y806D02*
X1423D01*
X1187Y739D02*
Y778D01*
X1214Y554D02*
X1423D01*
X1187Y582D02*
X1214Y554D01*
X1187Y582D02*
Y621D01*
X1423Y554D02*
Y621D01*
Y739D02*
Y806D01*
X803Y1098D02*
X831Y1071D01*
X831Y862D02*
Y1071D01*
X764Y1098D02*
X803D01*
X579Y862D02*
Y1071D01*
X579D02*
X607Y1098D01*
X646D01*
X579Y862D02*
X646D01*
X764D02*
X831D01*
X3445Y980D02*
Y930D01*
X3455Y920D01*
X3475D01*
X3485Y930D01*
Y980D01*
X3535Y920D02*
Y980D01*
X3505Y950D01*
X3545D01*
X3680Y1005D02*
Y1065D01*
X3710D01*
X3720Y1055D01*
Y1035D01*
X3710Y1025D01*
X3680D01*
X3740Y1005D02*
X3760D01*
X3750D01*
Y1065D01*
X3740Y1055D01*
X3830Y1065D02*
X3790D01*
Y1035D01*
X3810Y1045D01*
X3820D01*
X3830Y1035D01*
Y1015D01*
X3820Y1005D01*
X3800D01*
X3790Y1015D01*
D50*
X4153Y865D02*
G03*
X4153Y865I-6J0D01*
G01*
D51*
X773Y604D02*
G03*
X773Y604I-5J0D01*
G01*
X1640Y368D02*
G03*
X1640Y368I-5J0D01*
G01*
X1679Y898D02*
G03*
X1679Y898I-5J0D01*
G01*
X2383Y1056D02*
G03*
X2383Y1056I-5J0D01*
G01*
X3258D02*
G03*
X3258Y1056I-5J0D01*
G01*
X2073Y795D02*
G03*
X2073Y795I-5J0D01*
G01*
D52*
X1469Y51D02*
G03*
X1469Y51I-5J0D01*
G01*
D53*
X965Y943D02*
G03*
X965Y943I-2J0D01*
G01*
X1250D02*
G03*
X1250Y943I-2J0D01*
G01*
D54*
X2029Y711D02*
G03*
X2029Y711I-12J0D01*
G01*
D55*
X2429Y500D02*
X2458D01*
X2429Y300D02*
X2458D01*
X2429D02*
Y500D01*
X2458Y0D02*
Y800D01*
X2100Y0D02*
Y800D01*
X2458D01*
X2100Y0D02*
X2458D01*
X2800Y500D02*
X2829D01*
X2800Y300D02*
X2829D01*
X2800D02*
Y500D01*
X2829Y0D02*
Y800D01*
X2471Y0D02*
Y800D01*
X2829D01*
X2471Y0D02*
X2829D01*
X3175Y500D02*
X3204D01*
X3175Y300D02*
X3204D01*
X3175D02*
Y500D01*
X3204Y0D02*
Y800D01*
X2846Y0D02*
Y800D01*
X3204D01*
X2846Y0D02*
X3204D01*
X618Y560D02*
Y578D01*
X657D01*
X618Y423D02*
Y442D01*
Y423D02*
X657D01*
X735D02*
X774D01*
Y442D01*
Y560D02*
Y578D01*
X735D02*
X774D01*
X1661Y166D02*
X1675D01*
X1661D02*
Y180D01*
X1855Y166D02*
X1869D01*
Y180D01*
Y360D02*
Y374D01*
X1855D02*
X1869D01*
X1661D02*
X1675D01*
X1661Y360D02*
Y374D01*
X1234Y935D02*
X1266D01*
X1234Y875D02*
X1266D01*
X1686Y939D02*
Y963D01*
X1717D01*
X1804Y939D02*
Y963D01*
X1773D02*
X1804D01*
X2419Y1044D02*
X2443D01*
Y1013D02*
Y1044D01*
X2419Y926D02*
X2443D01*
Y957D01*
X3294Y1044D02*
X3318D01*
Y1013D02*
Y1044D01*
X3294Y926D02*
X3318D01*
Y957D01*
X944Y935D02*
X976D01*
X944Y875D02*
X976D01*
X1057Y959D02*
Y970D01*
Y1030D02*
Y1041D01*
X963Y1030D02*
Y1041D01*
Y959D02*
Y970D01*
X1342Y959D02*
Y970D01*
Y1030D02*
Y1041D01*
X1248Y1030D02*
Y1041D01*
Y959D02*
Y970D01*
X1663Y750D02*
X2057D01*
X1663Y624D02*
X2057D01*
Y750D01*
X1663Y624D02*
Y750D01*
X1080Y395D02*
Y460D01*
Y395D02*
X1145D01*
Y145D02*
Y395D01*
X1080Y145D02*
X1145D01*
X1080Y75D02*
Y145D01*
X985Y75D02*
X1080D01*
X985D02*
Y145D01*
X920D02*
X985D01*
X920D02*
Y160D01*
Y395D01*
X985D01*
Y460D01*
X1080D01*
X2471Y0D02*
X2829D01*
X1830Y1065D02*
Y1165D01*
X1430Y1065D02*
X1830D01*
X1430Y1165D02*
X1830D01*
X1430Y1065D02*
Y1165D01*
X1995Y1065D02*
Y1165D01*
X2195D01*
Y1065D02*
Y1165D01*
X1995Y1065D02*
X2195D01*
X2330D02*
X2730D01*
X2330Y1165D02*
X2730D01*
Y1065D02*
Y1165D01*
X2330Y1065D02*
Y1165D01*
X2895Y1065D02*
X3095D01*
X2895Y1165D02*
X3095D01*
X2895Y1065D02*
Y1165D01*
X3095Y1065D02*
Y1165D01*
X3655Y1065D02*
Y1165D01*
X3255Y1065D02*
X3655D01*
X3255Y1165D02*
X3655D01*
X3255Y1065D02*
Y1165D01*
X3820Y1065D02*
Y1165D01*
X4020D01*
Y1065D02*
Y1165D01*
X3820Y1065D02*
X4020D01*
X3450Y115D02*
X4050D01*
X3450Y15D02*
X4050D01*
Y115D01*
X3450Y15D02*
Y115D01*
X3545Y895D02*
Y995D01*
X3845D01*
Y895D02*
Y995D01*
X3545Y895D02*
X3845D01*
X2100Y800D02*
X2458D01*
X2471D02*
X2829D01*
D56*
X3135Y815D02*
Y840D01*
X3147D01*
X3152Y836D01*
Y827D01*
X3147Y823D01*
X3135D01*
X3160Y815D02*
X3168D01*
X3164D01*
Y840D01*
X3160Y836D01*
X3181D02*
X3185Y840D01*
X3193D01*
X3197Y836D01*
Y832D01*
X3193Y827D01*
X3189D01*
X3193D01*
X3197Y823D01*
Y819D01*
X3193Y815D01*
X3185D01*
X3181Y819D01*
X2765Y810D02*
Y835D01*
X2777D01*
X2782Y831D01*
Y822D01*
X2777Y818D01*
X2765D01*
X2790Y810D02*
X2798D01*
X2794D01*
Y835D01*
X2790Y831D01*
X2811Y810D02*
X2819D01*
X2815D01*
Y835D01*
X2811Y831D01*
X2385Y810D02*
Y835D01*
X2397D01*
X2402Y831D01*
Y822D01*
X2397Y818D01*
X2385D01*
X2410Y810D02*
X2418D01*
X2414D01*
Y835D01*
X2410Y831D01*
X2431D02*
X2435Y835D01*
X2443D01*
X2447Y831D01*
Y814D01*
X2443Y810D01*
X2435D01*
X2431Y814D01*
Y831D01*
X566Y586D02*
Y565D01*
X570Y561D01*
X579D01*
X583Y565D01*
Y586D01*
X608Y561D02*
X591D01*
X608Y577D01*
Y581D01*
X604Y586D01*
X595D01*
X591Y581D01*
X912Y546D02*
X907Y550D01*
X899D01*
X895Y546D01*
Y542D01*
X899Y537D01*
X907D01*
X912Y533D01*
Y529D01*
X907Y525D01*
X899D01*
X895Y529D01*
X920Y550D02*
Y525D01*
X928Y533D01*
X937Y525D01*
Y550D01*
X945Y525D02*
X953D01*
X949D01*
Y550D01*
X945Y546D01*
X1985Y290D02*
Y315D01*
X1997D01*
X2002Y311D01*
Y302D01*
X1997Y298D01*
X1985D01*
X1993D02*
X2002Y290D01*
X2010Y311D02*
X2014Y315D01*
X2022D01*
X2027Y311D01*
Y307D01*
X2022Y302D01*
X2018D01*
X2022D01*
X2027Y298D01*
Y294D01*
X2022Y290D01*
X2014D01*
X2010Y294D01*
X1206Y379D02*
X1197D01*
X1201D01*
Y358D01*
X1197Y354D01*
X1193D01*
X1189Y358D01*
X1214Y354D02*
X1222D01*
X1218D01*
Y379D01*
X1214Y375D01*
X1555Y67D02*
Y50D01*
X1568D01*
Y58D01*
Y50D01*
X1580D01*
X1555Y75D02*
X1580D01*
Y87D01*
X1576Y92D01*
X1572D01*
X1568Y87D01*
Y75D01*
Y87D01*
X1563Y92D01*
X1559D01*
X1555Y87D01*
Y75D01*
X1580Y100D02*
Y108D01*
Y104D01*
X1555D01*
X1559Y100D01*
X1962Y204D02*
X1957Y208D01*
X1949D01*
X1945Y204D01*
Y188D01*
X1949Y184D01*
X1957D01*
X1962Y188D01*
X1970Y184D02*
X1978D01*
X1974D01*
Y208D01*
X1970Y204D01*
X2003Y184D02*
Y208D01*
X1991Y196D01*
X2007D01*
X1604Y72D02*
X1600Y67D01*
Y59D01*
X1604Y55D01*
X1621D01*
X1625Y59D01*
Y67D01*
X1621Y72D01*
X1625Y80D02*
Y88D01*
Y84D01*
X1600D01*
X1604Y80D01*
X1625Y101D02*
Y109D01*
Y105D01*
X1600D01*
X1604Y101D01*
X1489Y222D02*
X1485Y217D01*
Y209D01*
X1489Y205D01*
X1506D01*
X1510Y209D01*
Y217D01*
X1506Y222D01*
X1485Y247D02*
Y230D01*
X1498D01*
X1493Y238D01*
Y242D01*
X1498Y247D01*
X1506D01*
X1510Y242D01*
Y234D01*
X1506Y230D01*
X1607Y296D02*
X1602Y300D01*
X1594D01*
X1590Y296D01*
Y279D01*
X1594Y275D01*
X1602D01*
X1607Y279D01*
X1615Y296D02*
X1619Y300D01*
X1627D01*
X1632Y296D01*
Y292D01*
X1627Y287D01*
X1623D01*
X1627D01*
X1632Y283D01*
Y279D01*
X1627Y275D01*
X1619D01*
X1615Y279D01*
X1085Y1020D02*
X1064D01*
X1060Y1016D01*
Y1008D01*
X1064Y1003D01*
X1085D01*
Y978D02*
X1081Y987D01*
X1072Y995D01*
X1064D01*
X1060Y991D01*
Y983D01*
X1064Y978D01*
X1068D01*
X1072Y983D01*
Y995D01*
X1365Y1020D02*
X1344D01*
X1340Y1016D01*
Y1008D01*
X1344Y1003D01*
X1365D01*
Y978D02*
Y995D01*
X1352D01*
X1357Y987D01*
Y983D01*
X1352Y978D01*
X1344D01*
X1340Y983D01*
Y991D01*
X1344Y995D01*
X1657Y884D02*
Y863D01*
X1661Y859D01*
X1669D01*
X1674Y863D01*
Y884D01*
X1682Y880D02*
X1686Y884D01*
X1694D01*
X1699Y880D01*
Y876D01*
X1694Y871D01*
X1690D01*
X1694D01*
X1699Y867D01*
Y863D01*
X1694Y859D01*
X1686D01*
X1682Y863D01*
X1650Y410D02*
Y389D01*
X1654Y385D01*
X1662D01*
X1667Y389D01*
Y410D01*
X1675Y385D02*
X1683D01*
X1679D01*
Y410D01*
X1675Y406D01*
X1070Y1095D02*
X1095D01*
Y1083D01*
X1091Y1078D01*
X1082D01*
X1078Y1083D01*
Y1095D01*
Y1087D02*
X1070Y1078D01*
Y1053D02*
Y1070D01*
X1087Y1053D01*
X1091D01*
X1095Y1058D01*
Y1066D01*
X1091Y1070D01*
X1345Y1090D02*
X1370D01*
Y1077D01*
X1366Y1073D01*
X1357D01*
X1353Y1077D01*
Y1090D01*
Y1081D02*
X1345Y1073D01*
Y1065D02*
Y1056D01*
Y1061D01*
X1370D01*
X1366Y1065D01*
X420Y840D02*
Y865D01*
X432D01*
X437Y861D01*
Y852D01*
X432Y848D01*
X420D01*
X445Y840D02*
X453D01*
X449D01*
Y865D01*
X445Y861D01*
X478Y840D02*
Y865D01*
X466Y852D01*
X482D01*
X4055Y1070D02*
Y1095D01*
X4067D01*
X4072Y1091D01*
Y1082D01*
X4067Y1078D01*
X4055D01*
X4080Y1095D02*
X4097D01*
Y1091D01*
X4080Y1074D01*
Y1070D01*
X3680D02*
Y1095D01*
X3692D01*
X3697Y1091D01*
Y1082D01*
X3692Y1078D01*
X3680D01*
X3722Y1095D02*
X3713Y1091D01*
X3705Y1082D01*
Y1074D01*
X3709Y1070D01*
X3717D01*
X3722Y1074D01*
Y1078D01*
X3717Y1082D01*
X3705D01*
X3115Y1065D02*
Y1090D01*
X3127D01*
X3132Y1086D01*
Y1077D01*
X3127Y1073D01*
X3115D01*
X3157Y1090D02*
X3140D01*
Y1077D01*
X3148Y1082D01*
X3152D01*
X3157Y1077D01*
Y1069D01*
X3152Y1065D01*
X3144D01*
X3140Y1069D01*
X2210Y1065D02*
Y1090D01*
X2222D01*
X2227Y1086D01*
Y1077D01*
X2222Y1073D01*
X2210D01*
X2247Y1065D02*
Y1090D01*
X2235Y1077D01*
X2252D01*
X600Y765D02*
Y790D01*
X612D01*
X617Y786D01*
Y777D01*
X612Y773D01*
X600D01*
X625Y786D02*
X629Y790D01*
X637D01*
X642Y786D01*
Y782D01*
X637Y777D01*
X633D01*
X637D01*
X642Y773D01*
Y769D01*
X637Y765D01*
X629D01*
X625Y769D01*
X2745Y1065D02*
Y1090D01*
X2757D01*
X2762Y1086D01*
Y1077D01*
X2757Y1073D01*
X2745D01*
X2787Y1065D02*
X2770D01*
X2787Y1082D01*
Y1086D01*
X2782Y1090D01*
X2774D01*
X2770Y1086D01*
X1850Y1065D02*
Y1090D01*
X1862D01*
X1867Y1086D01*
Y1077D01*
X1862Y1073D01*
X1850D01*
X1875Y1065D02*
X1883D01*
X1879D01*
Y1090D01*
X1875Y1086D01*
X1015Y1100D02*
X990D01*
Y1083D01*
Y1058D02*
Y1075D01*
X1007Y1058D01*
X1011D01*
X1015Y1063D01*
Y1071D01*
X1011Y1075D01*
X1300Y1095D02*
X1275D01*
Y1078D01*
Y1070D02*
Y1062D01*
Y1066D01*
X1300D01*
X1296Y1070D01*
X3335Y1040D02*
Y1015D01*
X3347D01*
X3352Y1019D01*
Y1036D01*
X3347Y1040D01*
X3335D01*
X3360Y1015D02*
Y1032D01*
X3368Y1040D01*
X3377Y1032D01*
Y1015D01*
Y1027D01*
X3360D01*
X3385Y1036D02*
X3389Y1040D01*
X3397D01*
X3402Y1036D01*
Y1032D01*
X3397Y1027D01*
X3393D01*
X3397D01*
X3402Y1023D01*
Y1019D01*
X3397Y1015D01*
X3389D01*
X3385Y1019D01*
X2460Y1045D02*
Y1020D01*
X2472D01*
X2477Y1024D01*
Y1041D01*
X2472Y1045D01*
X2460D01*
X2485Y1020D02*
Y1037D01*
X2493Y1045D01*
X2502Y1037D01*
Y1020D01*
Y1032D01*
X2485D01*
X2527Y1020D02*
X2510D01*
X2527Y1037D01*
Y1041D01*
X2522Y1045D01*
X2514D01*
X2510Y1041D01*
X1770Y1000D02*
Y975D01*
X1782D01*
X1787Y979D01*
Y996D01*
X1782Y1000D01*
X1770D01*
X1795Y975D02*
Y992D01*
X1803Y1000D01*
X1812Y992D01*
Y975D01*
Y987D01*
X1795D01*
X1820Y975D02*
X1828D01*
X1824D01*
Y1000D01*
X1820Y996D01*
X876Y1033D02*
X880Y1038D01*
Y1046D01*
X876Y1050D01*
X859D01*
X855Y1046D01*
Y1038D01*
X859Y1033D01*
X855Y1025D02*
Y1017D01*
Y1021D01*
X880D01*
X876Y1025D01*
Y1004D02*
X880Y1000D01*
Y992D01*
X876Y988D01*
X872D01*
X867Y992D01*
Y996D01*
Y992D01*
X863Y988D01*
X859D01*
X855Y992D01*
Y1000D01*
X859Y1004D01*
X1061Y913D02*
X1065Y918D01*
Y926D01*
X1061Y930D01*
X1044D01*
X1040Y926D01*
Y918D01*
X1044Y913D01*
X1040Y905D02*
Y897D01*
Y901D01*
X1065D01*
X1061Y905D01*
X1040Y868D02*
Y884D01*
X1057Y868D01*
X1061D01*
X1065Y872D01*
Y880D01*
X1061Y884D01*
X1226Y933D02*
X1230Y938D01*
Y946D01*
X1226Y950D01*
X1209D01*
X1205Y946D01*
Y938D01*
X1209Y933D01*
X1205Y925D02*
Y917D01*
Y921D01*
X1230D01*
X1226Y925D01*
Y904D02*
X1230Y900D01*
Y892D01*
X1226Y888D01*
X1209D01*
X1205Y892D01*
Y900D01*
X1209Y904D01*
X1226D01*
X1351Y916D02*
X1355Y920D01*
Y928D01*
X1351Y933D01*
X1334D01*
X1330Y928D01*
Y920D01*
X1334Y916D01*
Y908D02*
X1330Y903D01*
Y895D01*
X1334Y891D01*
X1351D01*
X1355Y895D01*
Y903D01*
X1351Y908D01*
X1347D01*
X1342Y903D01*
Y891D01*
X1137Y736D02*
X1132Y740D01*
X1124D01*
X1120Y736D01*
Y719D01*
X1124Y715D01*
X1132D01*
X1137Y719D01*
X1145Y736D02*
X1149Y740D01*
X1157D01*
X1162Y736D01*
Y732D01*
X1157Y727D01*
X1162Y723D01*
Y719D01*
X1157Y715D01*
X1149D01*
X1145Y719D01*
Y723D01*
X1149Y727D01*
X1145Y732D01*
Y736D01*
X1149Y727D02*
X1157D01*
X596Y1199D02*
X591Y1203D01*
X583D01*
X579Y1199D01*
Y1182D01*
X583Y1178D01*
X591D01*
X596Y1182D01*
X604Y1203D02*
X621D01*
Y1199D01*
X604Y1182D01*
Y1178D01*
X787Y741D02*
X782Y745D01*
X774D01*
X770Y741D01*
Y724D01*
X774Y720D01*
X782D01*
X787Y724D01*
X812Y745D02*
X803Y741D01*
X795Y732D01*
Y724D01*
X799Y720D01*
X807D01*
X812Y724D01*
Y728D01*
X807Y732D01*
X795D01*
X2067Y496D02*
X2062Y500D01*
X2054D01*
X2050Y496D01*
Y479D01*
X2054Y475D01*
X2062D01*
X2067Y479D01*
X2087Y475D02*
Y500D01*
X2075Y487D01*
X2092D01*
X662Y681D02*
X657Y685D01*
X649D01*
X645Y681D01*
Y664D01*
X649Y660D01*
X657D01*
X662Y664D01*
X687Y660D02*
X670D01*
X687Y677D01*
Y681D01*
X682Y685D01*
X674D01*
X670Y681D01*
X707D02*
X702Y685D01*
X694D01*
X690Y681D01*
Y664D01*
X694Y660D01*
X702D01*
X707Y664D01*
X715Y660D02*
X723D01*
X719D01*
Y685D01*
X715Y681D01*
X630Y325D02*
Y300D01*
Y312D01*
X647D01*
Y325D01*
Y300D01*
X655D02*
X663D01*
X659D01*
Y325D01*
X655Y321D01*
X3365Y330D02*
Y305D01*
Y317D01*
X3382D01*
Y330D01*
Y305D01*
X3407D02*
X3390D01*
X3407Y322D01*
Y326D01*
X3402Y330D01*
X3394D01*
X3390Y326D01*
X1455Y1050D02*
Y1025D01*
Y1037D01*
X1472D01*
Y1050D01*
Y1025D01*
X1480Y1046D02*
X1484Y1050D01*
X1492D01*
X1497Y1046D01*
Y1042D01*
X1492Y1037D01*
X1488D01*
X1492D01*
X1497Y1033D01*
Y1029D01*
X1492Y1025D01*
X1484D01*
X1480Y1029D01*
X614Y362D02*
X610Y357D01*
Y349D01*
X614Y345D01*
X631D01*
X635Y349D01*
Y357D01*
X631Y362D01*
X635Y370D02*
Y378D01*
Y374D01*
X610D01*
X614Y370D01*
X610Y407D02*
X614Y399D01*
X623Y391D01*
X631D01*
X635Y395D01*
Y403D01*
X631Y407D01*
X627D01*
X623Y403D01*
Y391D01*
X3375Y906D02*
X3371Y910D01*
X3362D01*
X3358Y906D01*
Y889D01*
X3362Y885D01*
X3371D01*
X3375Y889D01*
X3383Y885D02*
X3391D01*
X3387D01*
Y910D01*
X3383Y906D01*
X3404D02*
X3408Y910D01*
X3416D01*
X3421Y906D01*
Y902D01*
X3416Y897D01*
X3421Y893D01*
Y889D01*
X3416Y885D01*
X3408D01*
X3404Y889D01*
Y893D01*
X3408Y897D01*
X3404Y902D01*
Y906D01*
X3408Y897D02*
X3416D01*
X3445Y906D02*
X3441Y910D01*
X3432D01*
X3428Y906D01*
Y889D01*
X3432Y885D01*
X3441D01*
X3445Y889D01*
X3453Y885D02*
X3461D01*
X3457D01*
Y910D01*
X3453Y906D01*
X3474Y889D02*
X3478Y885D01*
X3486D01*
X3491Y889D01*
Y906D01*
X3486Y910D01*
X3478D01*
X3474Y906D01*
Y902D01*
X3478Y897D01*
X3491D01*
X1245Y535D02*
Y510D01*
X1257D01*
X1262Y514D01*
Y531D01*
X1257Y535D01*
X1245D01*
X1270Y531D02*
X1274Y535D01*
X1282D01*
X1287Y531D01*
Y527D01*
X1282Y522D01*
X1278D01*
X1282D01*
X1287Y518D01*
Y514D01*
X1282Y510D01*
X1274D01*
X1270Y514D01*
X1245Y430D02*
Y405D01*
X1257D01*
X1262Y409D01*
Y426D01*
X1257Y430D01*
X1245D01*
X1287Y405D02*
X1270D01*
X1287Y422D01*
Y426D01*
X1282Y430D01*
X1274D01*
X1270Y426D01*
X4095Y50D02*
X4070D01*
Y62D01*
X4074Y67D01*
X4083D01*
X4087Y62D01*
Y50D01*
X4095Y75D02*
Y83D01*
Y79D01*
X4070D01*
X4074Y75D01*
X4095Y112D02*
Y96D01*
X4078Y112D01*
X4074D01*
X4070Y108D01*
Y100D01*
X4074Y96D01*
X1530Y480D02*
Y505D01*
X1542D01*
X1547Y501D01*
Y492D01*
X1542Y488D01*
X1530D01*
X1538D02*
X1547Y480D01*
X1555D02*
X1563D01*
X1559D01*
Y505D01*
X1555Y501D01*
X1576D02*
X1580Y505D01*
X1588D01*
X1592Y501D01*
Y497D01*
X1588Y492D01*
X1584D01*
X1588D01*
X1592Y488D01*
Y484D01*
X1588Y480D01*
X1580D01*
X1576Y484D01*
X1535Y420D02*
Y445D01*
X1547D01*
X1552Y441D01*
Y432D01*
X1547Y428D01*
X1535D01*
X1543D02*
X1552Y420D01*
X1560D02*
X1568D01*
X1564D01*
Y445D01*
X1560Y441D01*
X1593Y420D02*
Y445D01*
X1581Y432D01*
X1597D01*
X4122Y971D02*
X4117Y975D01*
X4109D01*
X4105Y971D01*
Y954D01*
X4109Y950D01*
X4117D01*
X4122Y954D01*
X4130Y950D02*
X4138D01*
X4134D01*
Y975D01*
X4130Y971D01*
X4167Y975D02*
X4151D01*
Y962D01*
X4159Y967D01*
X4163D01*
X4167Y962D01*
Y954D01*
X4163Y950D01*
X4155D01*
X4151Y954D01*
X4110Y900D02*
Y925D01*
X4122D01*
X4127Y921D01*
Y912D01*
X4122Y908D01*
X4110D01*
X4118D02*
X4127Y900D01*
X4147D02*
Y925D01*
X4135Y912D01*
X4152D01*
X3864Y974D02*
Y999D01*
X3876D01*
X3881Y995D01*
Y986D01*
X3876Y982D01*
X3864D01*
X3872D02*
X3881Y974D01*
X3906Y999D02*
X3889D01*
Y986D01*
X3897Y991D01*
X3901D01*
X3906Y986D01*
Y978D01*
X3901Y974D01*
X3893D01*
X3889Y978D01*
D57*
X1354Y435D02*
D03*
Y500D02*
D03*
D58*
Y459D02*
D03*
Y524D02*
D03*
D59*
Y411D02*
D03*
Y476D02*
D03*
M02*
