G04 Layer_Color=16711935*
%FSLAX23Y23*%
%MOIN*%
G70*
G01*
G75*
%ADD84C,0.067*%
%ADD85R,0.067X0.067*%
%ADD86O,0.128X0.068*%
%ADD87C,0.205*%
%ADD88R,0.067X0.067*%
D84*
X2229Y600D02*
D03*
X2329D02*
D03*
X2229Y500D02*
D03*
X2329D02*
D03*
X2229Y400D02*
D03*
X2329D02*
D03*
X2229Y300D02*
D03*
X2329D02*
D03*
X2229Y200D02*
D03*
X2600Y600D02*
D03*
X2700D02*
D03*
X2600Y500D02*
D03*
X2700D02*
D03*
X2600Y400D02*
D03*
X2700D02*
D03*
X2600Y300D02*
D03*
X2700D02*
D03*
X2600Y200D02*
D03*
X2975Y600D02*
D03*
X3075D02*
D03*
X2975Y500D02*
D03*
X3075D02*
D03*
X2975Y400D02*
D03*
X3075D02*
D03*
X2975Y300D02*
D03*
X3075D02*
D03*
X2975Y200D02*
D03*
X510Y970D02*
D03*
X1480Y1115D02*
D03*
X1580D02*
D03*
X1680D02*
D03*
X2045D02*
D03*
X2380D02*
D03*
X2480D02*
D03*
X2580D02*
D03*
X2945D02*
D03*
X3305D02*
D03*
X3405D02*
D03*
X3505D02*
D03*
X3870D02*
D03*
X3500Y65D02*
D03*
X3600D02*
D03*
X3700D02*
D03*
X3800D02*
D03*
X3900D02*
D03*
X3795Y945D02*
D03*
X3695D02*
D03*
D85*
X2329Y200D02*
D03*
X2700D02*
D03*
X3075D02*
D03*
X510Y1070D02*
D03*
D86*
Y305D02*
D03*
Y405D02*
D03*
Y505D02*
D03*
Y205D02*
D03*
Y105D02*
D03*
Y605D02*
D03*
Y705D02*
D03*
D87*
X3330Y205D02*
D03*
X1545Y925D02*
D03*
X750Y200D02*
D03*
D88*
X1780Y1115D02*
D03*
X2145D02*
D03*
X2680D02*
D03*
X3045D02*
D03*
X3605D02*
D03*
X3970D02*
D03*
X4000Y65D02*
D03*
X3595Y945D02*
D03*
M02*
